<?xml version="1.0" standalone="no"?>
<!DOCTYPE svg PUBLIC "-//W3C//DTD SVG 1.1//EN" "http://www.w3.org/Graphics/SVG/1.1/DTD/svg11.dtd" >
<svg xmlns="http://www.w3.org/2000/svg">
<metadata>
Created by FontPrep 20130207 at Thu Jan 14 18:58:55 2016
 By Peter Belov
Copyright (c) 2011 by AndrijType. All rights reserved.
</metadata>
<defs>
<font id="18475d77f7c75531ffc6bea8ba701030" horiz-adv-x='1024' >
  <font-face 
    font-family="BanderaPro-Bold"
    font-weight="700"
    font-stretch="normal"
    units-per-em="2048"
    panose-1="2 6 8 4 4 2 0 2 0 4"
    ascent="1536"
    descent="-512"
    x-height="1024"
    cap-height="1331"
    bbox="-176 -715 3695 1950"
    underline-thickness="61"
    underline-position="-246"
    unicode-range="U+0020-FB06"
  />
<missing-glyph horiz-adv-x="1439" 
d="M840 182h-232v363h-366v219h366v362h232v-362h360v-219h-360v-363zM1116 61l-186 187l194 196l189 -188zM1124 868l-194 197l186 186l197 -194zM315 870l-186 187l193 196l188 -188zM322 61l-193 195l186 188l195 -196z" />
    <glyph glyph-name="arrowleft" unicode="&#x3c;&#x2d;&#x2d;" horiz-adv-x="1630" 
d="M913 936l-325 -274l925 10v-217l-925 10l325 -275l-127 -157l-636 530l636 531z" />
    <glyph glyph-name="arrowright" unicode="&#x2d;&#x2d;&#x3e;" horiz-adv-x="1611" 
d="M1481 563l-637 -530l-127 157l325 275l-923 -10v217l923 -10l-325 274l127 158z" />
    <glyph glyph-name="ff" unicode="ff" horiz-adv-x="1515" 
d="M1310 1356q-60 0 -86 -42t-26 -155v-135h307v-227h-307v-588l113 -10l-13 -199h-501l-15 211l115 12v574h-408v-588l113 -12v-197h-514l-14 213l114 12v572h-116v213l116 12v147q0 403 420 404q100 0 383 -92q88 92 258 92q92 0 193 -66l28 45h166l-2 -342h-209l-12 103
q-43 43 -103 43zM489 1139v-115h408v166q0 63 8 110q-178 55 -231 56q-106 0 -146 -50t-39 -167z" />
    <glyph glyph-name="fi" unicode="fi" horiz-adv-x="1417" 
d="M602 0h-514l-14 213l114 12v572h-116v213l116 12v147q0 403 420 404q78 0 310 -70l14 47h233v-370h-233l-19 118q-190 57 -239 58q-106 0 -146 -50t-39 -167v-115h308v-227h-308v-588l113 -12v-197zM1257 1024v-815l113 -8l-12 -201h-502l-14 213l114 12v574l-106 12
l12 213h395z" />
    <glyph glyph-name="fl" unicode="fl" horiz-adv-x="1433" 
d="M602 0h-514l-14 213l114 12v572h-116v213l116 12v147q0 403 420 404q94 0 363 -86v49h303v-1327l112 -8l-14 -201h-500l-14 211l113 12v1057q-244 76 -297 76q-106 0 -146 -50t-39 -167v-115h308v-227h-308v-588l113 -12v-197z" />
    <glyph glyph-name="ffi" unicode="ffi" horiz-adv-x="2127" 
d="M602 0h-514l-14 213l114 12v572h-116v213l116 12v147q0 403 420 404q86 0 398 -96q106 96 311 96q80 0 311 -70l14 47h234v-370h-234l-18 118q-190 57 -242 58q-104 0 -144 -50t-40 -167v-115h307v-227h-307v-588l115 -12v-197h-514l-15 213l113 12v572h-408v-588
l113 -12v-197zM489 1139v-115h408v145q0 72 12 129q-190 57 -235 58q-106 0 -146 -50t-39 -167zM1968 1024v-815l113 -8l-13 -201h-501l-15 213l115 12v574l-106 12l12 213h395z" />
    <glyph glyph-name="ffl" unicode="ffl" horiz-adv-x="2111" 
d="M602 0h-514l-14 213l114 12v572h-116v213l116 12v147q0 403 420 404q86 0 398 -96q106 96 311 96q88 0 334 -76v39h301v-1327l112 -8l-12 -201h-502l-14 211l115 12v1067q-211 66 -269 66q-104 0 -144 -50t-40 -167v-115h307v-227h-307v-588l115 -12v-197h-514l-15 213
l113 12v572h-408v-588l113 -12v-197zM489 1139v-115h408v145q0 72 12 129q-190 57 -235 58q-106 0 -146 -50t-39 -167z" />
    <glyph glyph-name="ft" unicode="ft" horiz-adv-x="1503" 
d="M1456 797h-270v-435q0 -166 117 -165l139 12v-191q-70 -41 -235 -41t-243 72t-79 242v506h-396v-588l113 -10l-12 -199h-502l-14 211l114 12v574h-116v213l116 12v168q0 178 79 280t233 103q80 0 176 -68l22 47h166v-315h-211l-6 92q-27 27 -71 27t-66 -38
q-20 -38 -21 -159v-135h398l43 307h256v-307h270v-227z" />
    <glyph glyph-name="tt" unicode="tt" horiz-adv-x="1445" 
d="M1399 797h-271v-435q0 -166 117 -165l139 12v-191q-70 -41 -234 -41t-244 72q-79 72 -79 242v506h-368v-435q0 -166 116 -165l140 12v-191q-70 -41 -235 -41q-166 0 -244 72t-78 242v506h-115v213l117 10l43 311h256v-307h370l43 307h256v-307h271v-227z" />
    <glyph glyph-name="afii10056_afii10056" unicode="&#x407;&#x407;" horiz-adv-x="1552" 
d="M557 1753q65 1 109 -37t43 -102q0 -64 -41 -104q-41 -42 -109 -42q-67 0 -109 42t-42 102t42 100q42 41 107 41zM162 1753q66 1 108 -37q43 -38 43 -102t-41 -104q-40 -42 -108 -42t-110 42t-42 102t42 100q42 41 108 41zM1366 1753q66 1 108 -37q44 -38 44 -102
t-41 -104q-41 -42 -109 -42t-110 42t-42 102t42 100q42 41 108 41zM1122 1612q0 -68 -45 -106t-109 -38t-105 40q-42 40 -42 102t40 102q41 41 105 41q64 -1 110 -37t46 -104zM684 1331v-213l-143 -12v-897l155 -8l-12 -201h-600l-12 213l153 12v895l-155 13l14 198h600z
M1470 1331v-213l-143 -12v-897l156 -8l-13 -201h-600l-12 213l154 12v895l-156 13l14 198h600z" />
    <glyph glyph-name="quoteright_afii10104" unicode="&#x27;&#x457;" horiz-adv-x="878" 
d="M223 1264q-121 27 -121 147q0 55 44 95t114 40t129 -59l4 -12q5 -4 17 -31t12 -72q0 -121 -92 -266t-213 -225l-103 94q184 141 209 289zM782 1192q-80 0 -116 46t-35 101q0 55 42 97q41 42 109 41q68 1 110 -39t42 -98t-36 -103t-116 -45zM719 1024v-815l112 -8
l-12 -201h-502l-14 213l115 12v574l-107 12l13 213h395z" />
    <glyph glyph-name="afii10104_afii10104" unicode="&#x457;&#x457;" horiz-adv-x="1296" 
d="M612 1340q0 -56 -36 -102t-115 -46q-80 0 -116 46t-36 101t42 97q41 42 105 41q64 0 111 -35q45 -46 45 -102zM90 1477q64 0 108 -38q44 -37 44 -101t-39 -105t-115 -41t-112 46t-36 101t43 97q42 42 107 41zM1186 1477q68 1 110 -39t41 -98q1 -58 -35 -103t-116 -45
t-116 46t-36 101t42 97t110 41zM977 1340q0 -56 -36 -102t-116 -46q-79 0 -115 46t-36 101t42 97t105 41q63 0 111 -35q45 -46 45 -102zM477 1024v-815l113 -8l-12 -201h-502l-15 213l115 12v574l-106 12l12 213h395zM1137 1024v-815l112 -8l-12 -201h-502l-14 213l115 12
v574l-107 12l12 213h396z" />
    <glyph glyph-name="afii10103_afii10104" unicode="&#x456;&#x457;" horiz-adv-x="1296" 
d="M1354 1340q0 -56 -36 -102t-116 -46t-116 46t-36 101t43 97q42 42 105 41q63 0 111 -35q45 -46 45 -102zM772 1477q66 0 110 -38q44 -37 44 -97t-37 -105t-116 -45t-115 46t-36 101t43 97q42 42 107 41zM477 1024v-815l113 -8l-12 -201h-502l-15 213l115 12v574l-106 12
l12 213h395zM502 1332q0 -70 -46 -114t-126 -44t-128 46t-48 116t46 114q46 45 129 45t128 -46t45 -117zM1137 1024v-815l112 -8l-12 -201h-502l-14 213l115 12v574l-107 12l12 213h396z" />
    <glyph glyph-name=".notdef" horiz-adv-x="1439" 
d="M840 182h-232v363h-366v219h366v362h232v-362h360v-219h-360v-363zM1116 61l-186 187l194 196l189 -188zM1124 868l-194 197l186 186l197 -194zM315 870l-186 187l193 196l188 -188zM322 61l-193 195l186 188l195 -196z" />
    <glyph glyph-name=".null" horiz-adv-x="0" 
 />
    <glyph glyph-name="nonmarkingreturn" horiz-adv-x="681" 
 />
    <glyph glyph-name="space" unicode=" " horiz-adv-x="604" 
 />
    <glyph glyph-name="exclam" unicode="!" horiz-adv-x="761" 
d="M229 1536h320v-166l-43 -897h-234l-43 897v166zM571 131q0 -70 -50 -117t-129 -47t-130 45t-51 118t49 120t131 47t131 -48t49 -118z" />
    <glyph glyph-name="quotedbl" unicode="&#x22;" horiz-adv-x="907" 
d="M279 1014h-207l-6 516l278 -2zM723 1014h-207l-6 516l278 -2z" />
    <glyph glyph-name="numbersign" unicode="#" horiz-adv-x="1208" 
d="M100 381v186h207l47 195h-254v186h299l68 277l170 -47l-57 -230h176l61 252l172 -47l-49 -205h166v-186h-211l-47 -195h258v-186h-303l-68 -279l-170 48l56 231h-179l-61 -252l-168 47l49 205h-162zM535 762l-48 -195h179l47 195h-178z" />
    <glyph glyph-name="dollar" unicode="$" horiz-adv-x="956" 
d="M602 422q0 73 -136 110t-257 102q-137 74 -137 261q0 105 79 187t205 108l9 244h213l20 -260q45 -16 96 -50l33 56h147l-2 -330h-196l-17 92q-74 55 -145 55q-145 0 -145 -86q0 -43 56 -75t135 -58t159 -60t136 -101t56 -158q0 -287 -313 -344l-6 -217h-213l-17 202
q-135 7 -243 41l-31 11l-27 307l185 12l20 -145q82 -20 154 -21q182 0 182 117z" />
    <glyph glyph-name="percent" unicode="%" horiz-adv-x="2033" 
d="M788 -25l-221 41l647 1284l222 -40zM487 537q-199 -1 -303 113t-104 302t108 302q109 114 299 114q189 0 303 -115t114 -301t-109 -301q-109 -114 -308 -114zM489 743q168 0 168 210t-168 210q-162 0 -162 -210t162 -210zM1956 377q0 -186 -108 -301t-308 -115
q-199 0 -303 114t-104 302t108 302q109 114 299 114t303 -115t113 -301zM1542 168q168 0 168 210t-168 210q-162 0 -162 -210t162 -210z" />
    <glyph glyph-name="ampersand" unicode="&#x26;" horiz-adv-x="1503" 
d="M934 987h-211l-10 131q-41 27 -101 27t-103 -42q-44 -42 -44 -128t44 -138t105 -57h283l102 244h168v-244h269v-207h-269v-231q0 -158 121 -158q74 0 121 13l18 2v-199q-45 -39 -225 -39t-260 111q-133 -111 -342 -111q-264 0 -392 121t-128 307q0 221 262 311
q-172 118 -172 294t113 274t276 98q82 0 189 -63l20 43h166v-359zM881 573h-293q-199 -8 -199 -170q-1 -92 63 -155t185 -64q182 0 244 123v266z" />
    <glyph glyph-name="quotesingle" unicode="'" horiz-adv-x="462" 
d="M279 1014h-207l-6 516l278 -2z" />
    <glyph glyph-name="parenleft" unicode="(" horiz-adv-x="825" 
d="M190 557q0 190 35 359q35 168 85 274q100 210 186 297l34 33l213 -93q-34 -41 -84 -133q-49 -92 -81 -185t-61 -243q-28 -150 -28 -310q0 -383 164 -720q37 -74 64 -106l26 -35l-211 -90q-39 28 -108 125q-69 98 -115 198q-45 100 -82 270t-37 359z" />
    <glyph glyph-name="parenright" unicode=")" horiz-adv-x="825" 
d="M635 568q0 -190 -35 -360q-35 -168 -85 -274q-102 -216 -187 -294l-35 -35l-213 90q36 44 85 135q48 92 81 185t60 243q28 150 28 308t-27 306q-27 147 -84 297t-117 224l-26 34l213 93q41 -30 110 -127q68 -97 113 -197t82 -269t37 -359z" />
    <glyph glyph-name="asterisk" unicode="*" horiz-adv-x="956" 
d="M332 582l-226 163l250 236l-340 47l88 264l295 -168l-61 340h280l-69 -336l303 164l86 -264l-338 -43l250 -240l-227 -163l-144 309z" />
    <glyph glyph-name="plus" unicode="+" horiz-adv-x="1058" 
d="M647 109h-231v344h-350v221h350v342h231v-342h346v-221h-346v-344z" />
    <glyph glyph-name="comma" unicode="," horiz-adv-x="606" 
d="M131 174q0 61 45 101q44 40 108 40t111 -36l17 -19q57 -66 57 -182t-62 -239q-62 -122 -163 -189l-144 94q129 135 129 270l-2 27q-96 31 -96 133z" />
    <glyph glyph-name="hyphen" unicode="-" horiz-adv-x="768" 
d="M702 453h-636v221h636v-221z" />
    <glyph glyph-name="period" unicode="." horiz-adv-x="677" 
d="M516 131q0 -70 -50 -117t-129 -47t-130 45t-51 118t49 120t131 47t131 -48t49 -118z" />
    <glyph glyph-name="slash" unicode="/" horiz-adv-x="1062" 
d="M250 -512h-277l879 2048h272z" />
    <glyph glyph-name="zero" unicode="0" horiz-adv-x="1359" 
d="M1260 684q0 -334 -142 -528t-439 -195q-298 0 -439 194t-142 529q0 682 581 682t581 -682zM426 681q0 -259 58 -380t195 -121q138 0 197 122q58 122 58 380t-56 362t-198 104t-198 -104t-56 -363z" />
    <glyph glyph-name="one" unicode="1" horiz-adv-x="925" 
d="M694 1331v-1122l115 -8l-14 -201h-574l-14 213l188 12v850l-239 -98l-74 205l362 149h250z" />
    <glyph glyph-name="two" unicode="2" horiz-adv-x="1134" 
d="M586 1366q212 0 330 -108t118 -285q0 -344 -557 -717h371l22 104l201 -14l-16 -346h-981v246q14 6 78 48q161 106 338 278q88 86 150 188t62 196t-49 134t-155 40t-185 -65l-10 -113h-213l14 394h166l29 -74q152 94 287 94z" />
    <glyph glyph-name="three" unicode="3" horiz-adv-x="1153" 
d="M1067 412q0 -209 -171 -330t-431 -121q-101 0 -189 16t-124 33l-35 17l-15 317l199 14l23 -151q66 -16 143 -17q143 0 217 60t74 162q0 168 -195 168q-31 0 -63 -14t-49 -27l-19 -15l-131 140l354 415h-323l-17 -112h-200l16 379l240 -15h641v-172l-342 -373
q172 -8 284 -107t113 -267z" />
    <glyph glyph-name="four" unicode="4" horiz-adv-x="1263" 
d="M729 360h-649l-17 177q92 156 192 387q99 231 153 440l282 -33q-98 -358 -317 -753h356v196l49 356h254v-552h154v-201l-154 -17v-163l115 -11l-14 -186h-533l-14 199l143 12v149z" />
    <glyph glyph-name="five" unicode="5" horiz-adv-x="1142" 
d="M752 432q0 207 -268 207q-129 0 -167 -55l-147 20l80 727h553l14 66l201 -15l-14 -317l-252 14h-289l-29 -239q41 6 86 6q252 0 396 -102t145 -302q0 -229 -170 -355t-420 -126q-121 0 -209 16t-115 33l-28 17l-15 315l199 14l23 -149q60 -17 168 -17t183 69t75 173z" />
    <glyph glyph-name="six" unicode="6" horiz-adv-x="1241" 
d="M98 565q0 220 64 412q37 111 93 195q55 84 151 138q96 56 206 56t228 -74l32 54h166v-359h-211l-14 103q-70 57 -164 57q-236 0 -262 -346q137 74 285 73q227 0 359 -101t132 -320t-140 -355t-389 -137q-248 1 -392 155t-144 449zM635 684q-86 0 -140 -34t-75 -79
q-10 -41 -10 -96q0 -307 229 -307q109 0 161 82t52 209q0 225 -217 225z" />
    <glyph glyph-name="seven" unicode="7" horiz-adv-x="1050" 
d="M1024 1331v-241q-276 -459 -461 -1090h-344q145 489 471 1067h-440l-17 -117h-198l12 396l240 -15h737z" />
    <glyph glyph-name="eight" unicode="8" horiz-adv-x="1253" 
d="M1143 993q0 -205 -240 -311q272 -90 273 -332q0 -389 -548 -389t-548 391q0 207 258 322q-229 98 -229 323q0 173 142 271q141 98 375 98t376 -98t141 -275zM626 152q104 0 162 54q56 54 56 158q0 103 -68 152t-158 62q-80 -10 -144 -58t-64 -154t56 -160t160 -54z
M426 981q0 -182 211 -217q193 43 192 221q1 193 -201 193t-202 -197z" />
    <glyph glyph-name="nine" unicode="9" horiz-adv-x="1241" 
d="M1143 805q0 -207 -42 -364q-41 -157 -103 -245t-149 -144t-163 -74t-219 -17q-143 0 -258 31l-39 12l-14 338l198 14l25 -161q63 -12 147 -13q129 0 218 89t108 261q-109 -88 -283 -88q-221 0 -355 115t-134 334t144 346t390 127q529 0 529 -561zM606 635q147 0 211 92
q14 67 14 185t-49 184t-164 66t-172 -75t-57 -191t54 -188t163 -73z" />
    <glyph glyph-name="colon" unicode=":" horiz-adv-x="679" 
d="M516 850q0 -70 -50 -117t-129 -47t-130 45t-51 118t49 120t131 47t131 -48t49 -118zM516 131q0 -70 -50 -117t-129 -47t-130 45t-51 118t49 120t131 47t131 -48t49 -118z" />
    <glyph glyph-name="semicolon" unicode=";" horiz-adv-x="677" 
d="M172 174q0 61 45 101t109 40t110 -36l17 -19q57 -66 57 -182t-62 -239q-62 -122 -163 -189l-144 94q129 135 129 270l-2 27q-96 31 -96 133zM516 850q0 -70 -50 -117t-129 -47t-130 45t-51 118t49 120t131 47t131 -48t49 -118z" />
    <glyph glyph-name="less" unicode="&#x3c;" horiz-adv-x="880" 
d="M678 184l-569 463l569 461l129 -135l-410 -328l412 -326z" />
    <glyph glyph-name="equal" unicode="=" horiz-adv-x="1220" 
d="M1155 231h-1089v222h1089v-222zM1155 674h-1089v221h1089v-221z" />
    <glyph glyph-name="greater" unicode="&#x3e;" horiz-adv-x="880" 
d="M774 647l-571 -463l-129 135l407 326l-407 328l129 135z" />
    <glyph glyph-name="question" unicode="?" horiz-adv-x="1036" 
d="M551 1573q205 0 319 -117t113 -262q0 -113 -51 -195t-125 -130t-148 -91q-174 -101 -176 -243q0 -31 6 -64l-165 -14q-97 194 -15 312q39 56 95 95l112 78q134 93 135 213q0 188 -182 188q-96 0 -162 -57l-12 -115h-213l14 381h166l25 -61q141 82 264 82zM584 131
q0 -70 -50 -117t-130 -47t-130 45q-51 45 -51 118t49 120t131 47q81 0 131 -48t50 -118z" />
    <glyph glyph-name="at" unicode="@" horiz-adv-x="2029" 
d="M102 400q0 430 256 670q256 241 742 241q408 0 622 -193q214 -194 215 -524t-121 -480t-324 -151q-202 0 -259 86q-88 -88 -256 -88t-277 119q-108 119 -108 325q0 205 119 319t309 114q127 0 225 -72l37 35h129v-570q0 -98 84 -98q94 0 149 96q54 96 54 342
q0 539 -598 539q-727 0 -727 -709q0 -340 179 -517t505 -177q183 0 313 53t186 93l21 16l82 -186q-15 -20 -78 -61q-202 -130 -524 -132q-483 0 -719 240t-236 670zM1048 133q108 0 152 111v352q-47 76 -156 76q-207 0 -206 -256q0 -131 51 -207t159 -76z" />
    <glyph glyph-name="A" unicode="A" horiz-adv-x="1486" 
d="M926 0v170l112 12l-71 183h-492l-65 -170l129 -11l-15 -184h-518l-12 213l143 10l406 1108h409l404 -1124l139 -6l-12 -201h-557zM727 1087h-4l-180 -528h358z" />
    <glyph glyph-name="B" unicode="B" horiz-adv-x="1343" 
d="M715 0h-631l-12 213l153 12v895l-155 13l14 198h618q256 0 375 -95t119 -249t-156 -268q223 -88 224 -301q0 -186 -136 -302t-413 -116zM762 580h-256v-361h192q260 0 260 199q0 88 -49 125t-147 37zM506 778h239q61 0 109 46q47 46 47 136t-53 122t-162 32h-180v-336z
" />
    <glyph glyph-name="C" unicode="C" horiz-adv-x="1361" 
d="M1249 821h-241l-23 240q-90 63 -203 63q-168 0 -272 -114t-104 -330q0 -215 108 -344t291 -129q184 0 352 125q39 29 57 49l19 20l117 -192q-16 -27 -75 -78t-119 -84t-160 -59t-212 -27q-352 0 -528 197t-176 514q0 318 186 506t471 188q152 0 287 -90l45 70h180v-525z
" />
    <glyph glyph-name="D" unicode="D" horiz-adv-x="1568" 
d="M760 1331q731 0 731 -647q0 -328 -185 -506t-544 -178h-678l-12 213l153 12v895l-155 13l14 198h676zM760 1087h-219v-843h223q207 0 303 108t96 330q0 221 -95 313t-308 92z" />
    <glyph glyph-name="E" unicode="E" horiz-adv-x="1273" 
d="M1159 969h-241l-11 129h-366v-316l536 2v-225h-536v-326h405l23 148l227 -14l-14 -367h-1098l-12 213l153 12v895l-155 13l14 198h809l266 15v-377z" />
    <glyph glyph-name="F" unicode="F" horiz-adv-x="1185" 
d="M1180 969h-242l-10 129h-387v-342l534 2v-228h-534v-321l196 -8l-12 -201h-641l-12 213l153 12v895l-155 13l14 198h827l269 15v-377z" />
    <glyph glyph-name="G" unicode="G" horiz-adv-x="1470" 
d="M1247 883h-227l-21 176q-90 66 -213 65q-200 0 -290 -110t-90 -332q0 -221 105 -348t275 -127q229 0 279 145v123h-248v197h516v-672h-178l-33 104q-147 -143 -403 -143q-307 0 -473 196t-166 518q0 323 186 507t488 184q123 0 278 -90l35 70h180v-463z" />
    <glyph glyph-name="H" unicode="H" horiz-adv-x="1634" 
d="M684 1331v-213l-143 -12v-328h553v328l-156 12l14 213h600v-213l-143 -12v-897l156 -8l-15 -201h-598l-14 213l156 12v328h-553v-330l155 -10l-12 -213h-600l-12 213l153 12v895l-155 13l14 198h600z" />
    <glyph glyph-name="I" unicode="I" horiz-adv-x="765" 
d="M684 1331v-213l-143 -12v-897l155 -8l-12 -201h-600l-12 213l153 12v895l-155 13l14 198h600z" />
    <glyph glyph-name="J" unicode="J" horiz-adv-x="980" 
d="M807 422q1 -254 -103 -357t-327 -104q-98 0 -181 14t-118 29l-33 14l-29 355l213 14l25 -186q40 -11 100 -11t99 52t39 180v698l-191 13l14 198h600v-213l-108 -12v-684z" />
    <glyph glyph-name="K" unicode="K" horiz-adv-x="1531" 
d="M655 1331v-184l-114 -12v-383l133 59l276 332l-39 4v184h559v-213l-237 -10l-328 -385l398 -504l231 -6l-14 -213h-428l-91 72l-339 460l-121 -71v-238l155 -10l-12 -213h-600l-12 213l153 12v895l-155 13l14 198h571z" />
    <glyph glyph-name="L" unicode="L" horiz-adv-x="1169" 
d="M684 1331v-213l-143 -12v-873h372l25 162l227 -12l-14 -383h-1067l-12 213l153 12v895l-155 13l14 198h600z" />
    <glyph glyph-name="M" unicode="M" horiz-adv-x="2136" 
d="M2052 1331v-213l-143 -12l2 -883l157 -10l-14 -213h-559l-14 184l127 13l-2 706h-9l-393 -903h-293l-395 903h-8l-2 -706l133 -13l-14 -184h-541l-12 213l153 12l2 895l-153 13l14 198h545l438 -1001h10l428 1001h543z" />
    <glyph glyph-name="N" unicode="N" horiz-adv-x="1660" 
d="M1608 1331v-213l-142 -12v-1112l-317 -2l-647 893h-6l10 -121v-541l162 -10l-15 -213h-569l-12 213l153 12v895l-155 13l14 198h467l637 -911h4l-8 92v596l-162 10l14 213h572z" />
    <glyph glyph-name="O" unicode="O" horiz-adv-x="1558" 
d="M80 683q0 319 180 501t517 182t521 -182t185 -500q1 -320 -187 -522t-519 -201q-331 0 -514 201t-183 521zM1155 683q0 214 -97 328q-96 113 -280 113t-278 -114t-94 -327q0 -214 95 -347t276 -133t280 133q98 133 98 347z" />
    <glyph glyph-name="P" unicode="P" horiz-adv-x="1269" 
d="M682 1331q541 0 541 -428q0 -123 -48 -219t-127 -154q-163 -119 -360 -116h-170v-217l193 -11l-15 -186h-612l-12 213l153 12v895l-155 13l14 198h598zM629 1112h-111v-487h111q121 0 193 62q72 63 73 193t-69 181t-197 51z" />
    <glyph glyph-name="Q" unicode="Q" horiz-adv-x="1558" 
d="M1223 -389q-164 0 -317 93t-236 263q-283 31 -437 227q-153 196 -153 502t180 488t518 182t521 -174t183 -471t-138 -493q-140 -196 -390 -248q125 -125 281 -125q63 -1 131 24l27 -237q-80 -31 -170 -31zM777 203q181 0 280 133q98 133 98 347t-97 328q-96 113 -280 113
t-278 -114t-94 -327q0 -214 95 -347t276 -133z" />
    <glyph glyph-name="R" unicode="R" horiz-adv-x="1361" 
d="M684 1331q260 0 399 -103t140 -306q0 -136 -71 -242t-185 -172l194 -291l207 -4l-14 -213h-389l-74 66l-221 370h-152v-239l131 -11l-14 -186h-551l-12 213l153 27v880l-155 13l14 198h600zM631 1112h-113v-450h172q86 0 147 66q60 66 60 176t-63 159q-64 49 -203 49z
" />
    <glyph glyph-name="S" unicode="S" horiz-adv-x="1183" 
d="M1059 956h-240l-14 131q-86 61 -174 61t-137 -41q-50 -41 -50 -111t70 -117t169 -82t199 -79t171 -126q70 -82 69 -199q0 -205 -138 -319t-386 -113q-131 0 -248 22t-168 42l-51 20l-6 373l225 14l27 -219q100 -29 188 -29q246 0 246 168q0 51 -50 90t-125 63
q-75 25 -163 61t-163 79t-125 124t-50 187q0 178 125 294t324 116q121 0 256 -86l41 66h178v-390z" />
    <glyph glyph-name="T" unicode="T" horiz-adv-x="1226" 
d="M1235 928h-227l-19 170h-217v-875l156 -10l-15 -213h-598l-14 213l154 12v873h-213l-23 -170h-225l14 418l266 -15h693l268 15v-418z" />
    <glyph glyph-name="U" unicode="U" horiz-adv-x="1533" 
d="M492 567q0 -344 286 -344q150 0 220 92t69 252v541l-164 10l15 213h583v-198l-141 -17v-612q0 -240 -143 -392t-447 -151q-304 0 -449 153q-144 153 -145 390v616l-156 13l15 198h598v-198l-141 -13v-553z" />
    <glyph glyph-name="V" unicode="V" horiz-adv-x="1423" 
d="M1442 1331v-198l-123 -11l-397 -1122h-408l-393 1120l-137 10l14 201h557v-198l-115 -11l291 -886h6l285 874l-129 8l12 213h537z" />
    <glyph glyph-name="W" unicode="W" horiz-adv-x="2142" 
d="M2159 1331v-198l-113 -11l-340 -1122h-326l-293 948h-4l-284 -948h-330l-348 1120l-137 10l14 201h557v-198l-115 -11l217 -770h5l272 979h326l290 -973h4l195 750l-139 10l14 213h535z" />
    <glyph glyph-name="X" unicode="X" horiz-adv-x="1478" 
d="M870 1331h580v-213l-211 -8l-313 -436l329 -455l226 -6l-15 -213h-610v199l43 2l-172 254h-2l-166 -240l49 -2v-213h-594l-14 213l223 10l324 439l-330 460l-209 11l12 198h598v-198l-43 -5l170 -249h3l165 237l-43 2v213z" />
    <glyph glyph-name="Y" unicode="Y" horiz-adv-x="1357" 
d="M842 1331h553v-213l-183 -8l-362 -594v-293l158 -10l-15 -213h-598l-14 213l154 12v289l-383 610l-193 9l14 198h594v-198l-69 -7l211 -346h2l194 336l-63 2v213z" />
    <glyph glyph-name="Z" unicode="Z" horiz-adv-x="1310" 
d="M90 0v203l713 895h-438l-15 -129h-241l14 377l266 -15h815v-205l-710 -893h487l25 148l227 -14l-16 -367h-1127z" />
    <glyph glyph-name="bracketleft" unicode="[" horiz-adv-x="890" 
d="M879 -182h-686v1638h686v-207h-420v-1224h420v-207z" />
    <glyph glyph-name="backslash" unicode="\" horiz-adv-x="1062" 
d="M1087 -512h-272l-876 2048h272z" />
    <glyph glyph-name="bracketright" unicode="]" horiz-adv-x="890" 
d="M696 -182h-686v207h420v1224h-420v205h686v-1636z" />
    <glyph glyph-name="asciicircum" unicode="^" horiz-adv-x="829" 
d="M178 971l-115 116l351 343l352 -343l-117 -116l-235 233z" />
    <glyph glyph-name="underscore" unicode="_" horiz-adv-x="1589" 
d="M1522 -367h-1456v222h1456v-222z" />
    <glyph glyph-name="grave" unicode="`" horiz-adv-x="550" 
d="M369 1190l-201 -19l-285 285l283 35z" />
    <glyph glyph-name="a" unicode="a" horiz-adv-x="1148" 
d="M644 1061q159 0 262 -97t104 -302v-453l112 -8l-14 -201h-344l-39 100q-5 -16 -35 -44q-99 -95 -270 -95q-172 0 -272 84q-99 84 -99 227q0 88 51 164q26 40 134 103q33 19 125 42q139 35 350 54v20q0 109 -38 153t-132 44t-156 -53l-14 -121h-224l13 362h178l24 -61
q125 82 284 82zM516 164q62 0 110 28t62 48t21 34v177q-175 -14 -240 -33q-65 -18 -87 -46t-22 -71q0 -137 156 -137z" />
    <glyph glyph-name="b" unicode="b" horiz-adv-x="1253" 
d="M131 0v1311l-106 12l12 213h395v-569h10q26 32 111 63q86 31 178 31q215 0 344 -137t129 -381t-135 -413t-356 -169q-96 0 -174 26t-109 50l-29 26h-8l-33 -63h-229zM639 840q-70 0 -122 -27t-68 -53l-17 -27v-477q20 -27 75 -52q54 -24 120 -24q266 0 266 369
q1 163 -59 227t-195 64z" />
    <glyph glyph-name="c" unicode="c" horiz-adv-x="1030" 
d="M566 852q-98 0 -150 -72q-53 -72 -54 -248q0 -358 269 -358q67 0 131 32t94 64l31 31l129 -143q-13 -25 -54 -64q-42 -38 -84 -64t-118 -48t-162 -21q-272 0 -411 150q-138 149 -138 407t130 400t356 143q104 0 221 -82l32 61h183l-4 -417h-226l-16 168q-61 61 -159 61z
" />
    <glyph glyph-name="d" unicode="d" 
d="M520 -39q-211 0 -342 157q-131 156 -131 402t126 393t347 148q90 -1 163 -19t99 -36l29 -19h10v324l-108 12l14 213h393v-1327l113 -8l-12 -201h-363l-24 72q-10 -12 -30 -30t-100 -50q-82 -31 -184 -31zM612 184q131 0 209 105v477q-19 26 -78 51t-118 25
q-139 0 -201 -77t-64 -245q0 -336 252 -336z" />
    <glyph glyph-name="e" unicode="e" horiz-adv-x="1081" 
d="M627 180q73 0 137 29t92 57l29 27l137 -148q-10 -20 -54 -58q-143 -123 -356 -126q-266 0 -414 142q-148 143 -148 409t144 408t374 141q230 0 350 -118t120 -337q0 -91 -30 -160l-11 -20h-643q35 -246 273 -246zM573 852q-100 0 -153 -57t-68 -174h410q2 27 2 45
q-1 186 -191 186z" />
    <glyph glyph-name="f" unicode="f" horiz-adv-x="806" 
d="M601 1356q-61 0 -87 -42t-25 -155v-135h308v-227h-308v-588l113 -10l-12 -199h-502l-14 211l114 12v574h-116v213l116 12v168q0 383 353 383q92 0 192 -66l29 45h166l-2 -342h-209l-12 103q-43 43 -104 43z" />
    <glyph glyph-name="g" unicode="g" horiz-adv-x="1110" 
d="M559 293h-16q-76 0 -117 -31q-16 -12 -16 -32t14 -34q34 -36 242 -41t322 -79t114 -242t-130 -276t-402 -109t-401 105q-128 106 -128 277t168 243q-35 57 -35 146t82 153q-174 105 -174 301t142 292t322 95q180 0 290 -57l243 20l15 -217l-93 -6q16 -55 17 -117
q0 -184 -129 -288t-330 -103zM817 -186q0 79 -86 97q-46 10 -153 16q-107 7 -154 16q-104 -31 -104 -110t62 -124q64 -45 189 -45q246 0 246 150zM725 690q0 166 -176 166t-176 -172q0 -96 48 -146t129 -50t128 50q47 52 47 152z" />
    <glyph glyph-name="h" unicode="h" horiz-adv-x="1292" 
d="M461 1536v-569h10q12 10 34 25q21 15 101 42t172 27q373 0 373 -348v-504l115 -8l-15 -201h-401v664q0 80 -41 116t-119 35q-78 0 -130 -18q-54 -18 -77 -37l-22 -19v-532l114 -8l-14 -201h-502l-12 213l113 12v1086l-107 12l15 213h393z" />
    <glyph glyph-name="i" unicode="i" horiz-adv-x="636" 
d="M477 1024v-815l113 -8l-12 -201h-502l-15 213l115 12v574l-106 12l12 213h395zM500 1332q0 -70 -46 -114t-126 -44t-128 46t-48 116t46 114q46 45 129 45t128 -46t45 -117z" />
    <glyph glyph-name="j" unicode="j" horiz-adv-x="606" 
d="M49 -293q59 -1 93 63t34 177v852l-106 12l14 213h391v-1077q0 -246 -114 -372t-271 -126q-84 0 -144 13t-81 26l-19 14l76 228q68 -23 127 -23zM498 1332q0 -70 -46 -114t-126 -44t-128 46t-48 116t46 114q46 45 129 45t128 -46t45 -117z" />
    <glyph glyph-name="k" unicode="k" horiz-adv-x="1191" 
d="M461 1536v-918l137 60l86 141l-43 6l12 199h480v-213l-205 -29l-150 -207l217 -342l199 -6l-14 -227h-351l-81 82l-226 358l-61 -26v-217l86 -11l-15 -186h-473l-12 213l113 12v1086l-107 12l15 213h393z" />
    <glyph glyph-name="l" unicode="l" horiz-adv-x="620" 
d="M461 1536v-1327l114 -8l-14 -201h-502l-12 213l113 12v1086l-107 12l15 213h393z" />
    <glyph glyph-name="m" unicode="m" horiz-adv-x="1818" 
d="M1376 0v684q0 82 -29 110q-30 28 -113 28t-155 -64v-549l113 -8l-14 -201h-402v684q0 82 -30 110t-118 28t-151 -64v-549l113 -8l-12 -201h-502l-15 213l115 12v574l-106 12l12 213h356l23 -76h4q11 12 31 30t93 51q73 32 159 32q195 0 274 -111h4q10 12 33 30t107 50
q84 31 184 31q170 0 250 -79t79 -253v-520l113 -8l-14 -201h-402z" />
    <glyph glyph-name="n" unicode="n" horiz-adv-x="1308" 
d="M795 1061q375 0 374 -344v-508l113 -8l-12 -201h-402v662q0 84 -41 118t-119 35q-136 0 -208 -55l-23 -19v-532l113 -8l-12 -201h-502l-15 213l115 12v574l-106 12l12 213h356l25 -72h2q109 109 330 109z" />
    <glyph glyph-name="o" unicode="o" horiz-adv-x="1200" 
d="M600 1061q266 0 408 -141q142 -142 143 -398t-147 -408t-408 -153q-260 0 -403 151q-143 150 -143 408t141 400q143 142 409 141zM600 170q240 0 240 348q0 166 -56 250t-184 84q-240 0 -240 -341t240 -341z" />
    <glyph glyph-name="p" unicode="p" 
d="M774 1061q213 0 336 -136t123 -381t-128 -414t-345 -169q-90 1 -164 19t-100 36l-29 19h-8v-338l114 -8l-14 -201h-500l-12 213l113 12v1086l-107 12l15 213h354l20 -72h4q34 40 130 75q96 34 198 34zM668 840q-61 0 -124 -32t-85 -75v-477q19 -26 78 -51t118 -25
q264 0 265 369q0 167 -58 229t-194 62z" />
    <glyph glyph-name="q" unicode="q" horiz-adv-x="1251" 
d="M821 70h-10q-4 -4 -19 -22t-61 -41q-94 -46 -211 -46q-209 0 -340 157q-131 158 -131 402t134 392t356 149q83 0 157 -23t107 -43l31 -22h8l47 51h233v-1327l111 -8l-12 -201h-500l-14 213l114 12v357zM614 184q70 0 121 27t68 53l18 27v475q-77 76 -207 76t-192 -74
t-62 -249t62 -255t192 -80z" />
    <glyph glyph-name="r" unicode="r" horiz-adv-x="952" 
d="M486 957q91 106 214 106t187 -31l22 -8l2 -373h-215l-16 176h-31q-55 -1 -98 -29t-55 -47t-19 -36v-506l144 -8l-13 -201h-532l-15 213l115 12v574l-125 12l15 213h344l30 -123h6q4 5 10 17t30 39z" />
    <glyph glyph-name="s" unicode="s" horiz-adv-x="956" 
d="M514 858q-145 0 -145 -86q0 -43 56 -75q56 -33 135 -59t159 -60t136 -100q56 -67 56 -159q-1 -166 -117 -262t-366 -96q-178 0 -301 39l-39 12l-27 307l185 13l20 -146q82 -20 154 -20q182 0 182 117q0 73 -136 110t-257 102q-59 32 -98 94t-39 148q0 147 109 236
q111 88 253 88t260 -76l33 55h147l-2 -329h-196l-17 92q-74 55 -145 55z" />
    <glyph glyph-name="t" unicode="t" horiz-adv-x="776" 
d="M729 797h-270v-435q0 -166 116 -165l140 12v-191q-70 -41 -235 -41q-166 0 -244 72t-78 242v506h-115v213l117 10l43 311h256v-307h270v-227z" />
    <glyph glyph-name="u" unicode="u" horiz-adv-x="1294" 
d="M534 -39q-200 0 -297 102t-98 287v449l-106 12l14 213h395v-618q0 -197 179 -197q59 0 112 18t76 37l22 19v516l-106 12l14 213h396v-815l112 -8l-14 -201h-363l-22 70h-4q-110 -109 -310 -109z" />
    <glyph glyph-name="v" unicode="v" horiz-adv-x="1140" 
d="M666 1024h497v-213l-135 -12l-299 -799h-319l-299 801l-146 10l15 213h387l213 -709h8l157 490l-79 6v213z" />
    <glyph glyph-name="w" unicode="w" horiz-adv-x="1687" 
d="M1217 1024h497v-213l-123 -12l-241 -799h-312l-188 641h-4l-203 -641h-311l-234 801l-133 10l15 213h378l140 -653h8l196 653h285l215 -653h6l109 448l-100 6v199z" />
    <glyph glyph-name="x" unicode="x" horiz-adv-x="1216" 
d="M20 0v213l191 10l207 295l-193 285l-198 8l14 213h379l196 -346h5l77 137h-4l15 209h456v-213l-182 -10l-186 -271l221 -325l192 -4l-12 -201h-350l-76 76l-174 291h-2l-117 -193l-12 -174h-447z" />
    <glyph glyph-name="y" unicode="y" horiz-adv-x="1150" 
d="M674 1024h497v-213l-135 -12l-315 -840q-193 -510 -483 -510q-90 0 -148 16t-70 31l-10 17l27 206q92 -33 166 -32q143 0 248 311l-336 803l-148 10l13 213h378l250 -698h4l162 477l-100 8v213z" />
    <glyph glyph-name="z" unicode="z" horiz-adv-x="1015" 
d="M55 0v195l516 612h-266l-14 -127h-211l14 358l240 -14h620v-195l-516 -612h277l24 148l211 -15l-14 -350h-881z" />
    <glyph glyph-name="braceleft" unicode="{" horiz-adv-x="942" 
d="M874 -338q-290 0 -402 79t-112 239q0 74 31 198t31 180q0 55 -69 89t-136 34v234q69 0 137 34t68 89t-31 180t-31 199q0 159 113 237t401 78v-203q-135 0 -194 -44q-59 -45 -59 -119q1 -74 31 -198t30 -188q0 -104 -107 -182q106 -78 107 -182q0 -64 -31 -188t-31 -198
q1 -163 254 -163v-205z" />
    <glyph glyph-name="bar" unicode="|" horiz-adv-x="792" 
d="M530 -512h-266v2048h266v-2048z" />
    <glyph glyph-name="braceright" unicode="}" horiz-adv-x="942" 
d="M66 -338v205q135 0 195 44q61 45 61 119t-32 198t-32 188q0 104 104 182q-104 78 -104 182q0 64 32 188t32 198t-60 119q-60 44 -196 44v203q288 0 402 -78t114 -237q0 -74 -32 -199t-32 -180t69 -89t136 -34v-234q-69 0 -137 -34t-68 -89t32 -180t32 -198
q0 -160 -114 -239t-402 -79z" />
    <glyph glyph-name="asciitilde" unicode="~" horiz-adv-x="1402" 
d="M991 465q-139 0 -315 79t-305 79q-63 0 -113 -23t-65 -47l-19 -23l-139 136q13 32 52 83q40 52 83 86q43 33 117 61q73 28 167 28t184 -26t145 -56q151 -82 288 -80q55 0 98 19t60 38l16 21l117 -123q-36 -91 -123 -164q-39 -33 -105 -61t-143 -27z" />
    <glyph glyph-name="nbspace" unicode="&#xa0;" horiz-adv-x="880" 
 />
    <glyph glyph-name="exclamdown" unicode="&#xa1;" horiz-adv-x="761" 
d="M535 -512h-322v166l43 897h236l43 -897v-166zM549 891q0 -70 -50 -117t-129 -47t-130 45q-52 45 -52 118t50 120t131 47q82 0 131 -48t49 -118z" />
    <glyph glyph-name="cent" unicode="&#xa2;" horiz-adv-x="1030" 
d="M49 672q0 215 97 350t272 170l6 242h219l16 -258q45 -16 97 -54l32 62h183l-4 -418h-226l-16 168q-61 61 -159 61q-98 1 -150 -71q-53 -72 -54 -248q0 -358 269 -359q67 0 131 32t94 65l31 30l129 -143l-12 -18q-8 -12 -39 -43q-119 -119 -306 -134l-2 -208h-219l-16 225
q-373 88 -373 549z" />
    <glyph glyph-name="sterling" unicode="&#xa3;" horiz-adv-x="1241" 
d="M88 0v250h92q98 72 99 266v16l-191 5v219h178q-10 109 -10 202q0 186 116 297t310 111q100 0 217 -78l29 58h166v-359h-211l-15 103q-49 41 -116 40q-164 0 -164 -188v-186h483v-226h-489q-14 -176 -60 -280h467l25 110l200 -14l-16 -346h-1110z" />
    <glyph glyph-name="currency" unicode="&#xa4;" horiz-adv-x="1284" 
d="M252 644q0 116 55 206l-215 182l113 137l203 -206q102 73 233 73t229 -69l207 200l113 -135l-215 -174q61 -96 61 -211t-59 -211l215 -180l-113 -135l-202 205q-105 -72 -235 -72t-228 70l-209 -203l-111 137l215 174q-57 96 -57 212zM644 434q89 0 144 56q56 56 56 154
t-56 154t-145 56q-90 0 -144 -55q-55 -55 -55 -153t56 -154q56 -58 144 -58z" />
    <glyph glyph-name="yen" unicode="&#xa5;" horiz-adv-x="1357" 
d="M842 1331h553v-213l-183 -8l-206 -338h141v-168h-244l-53 -88v-14h297v-168h-297v-111l158 -10l-15 -213h-598l-14 213l154 12v109h-297v168h297v12l-58 90h-239v168h135l-221 352l-193 9l14 198h594v-198l-69 -7l211 -346h2l194 336l-63 2v213z" />
    <glyph glyph-name="brokenbar" unicode="&#xa6;" horiz-adv-x="792" 
d="M530 -512h-266v819h266v-819zM530 717h-266v819h266v-819z" />
    <glyph glyph-name="section" unicode="&#xa7;" horiz-adv-x="1181" 
d="M1016 1004h-221l-15 104q-66 47 -131 47q-135 0 -135 -113q0 -90 210 -150q87 -26 175 -58q87 -32 149 -99q62 -66 62 -157q0 -150 -125 -275q31 -55 31 -117q0 -166 -102 -254t-347 -88q-123 0 -216 12t-126 25l-30 15l-17 337l209 15l37 -189q78 -4 123 -4
q168 0 168 119q1 47 -59 80q-60 34 -145 58t-170 57t-144 103t-60 171q0 145 115 260q-41 57 -41 131q0 152 111 242t266 90q111 0 225 -78l37 58h166v-342zM385 676q0 -62 59 -102q58 -40 194 -80t185 -64q39 50 39 110t-62 97t-194 78t-190 67q-31 -44 -31 -106z" />
    <glyph glyph-name="dieresis" unicode="&#xa8;" horiz-adv-x="976" 
d="M588 1477q68 1 110 -39t41 -98q0 -58 -36 -103q-35 -45 -115 -45t-116 46t-36 101t42 97t110 41zM152 1477q68 1 110 -39t41 -98q0 -58 -36 -103q-35 -45 -115 -45t-116 46t-36 101t42 97t110 41z" />
    <glyph glyph-name="copyright" unicode="&#xa9;" horiz-adv-x="1720" 
d="M1585 662q0 -324 -188 -512q-187 -188 -539 -188t-537 186t-185 512t186 516q188 190 535 190t537 -190t191 -514zM856 121q252 0 392 142t141 397q1 256 -141 402t-392 146t-387 -146t-137 -402t136 -397q136 -142 388 -142zM854 856q-58 0 -96 -42t-39 -141
q0 -99 53 -157q52 -58 122 -57q70 0 120 19t71 38l23 21l63 -119q-10 -14 -30 -37t-93 -59t-159 -37q-174 0 -277 105q-102 104 -102 274t98 264t230 94q78 0 151 -49l21 33h120l-2 -287h-163l-13 106q-40 31 -98 31z" />
    <glyph glyph-name="ordfeminine" unicode="&#xaa;" horiz-adv-x="960" 
d="M844 655h-217l-43 80q-6 -12 -20 -29q-14 -18 -74 -48q-62 -30 -148 -29q-137 0 -210 57q-73 58 -73 146q0 165 187 223q148 47 327 55v18q0 102 -141 103q-57 1 -110 -17t-78 -34l-25 -19l-72 121q12 12 36 32t114 52q90 33 197 33q350 0 350 -281v-463zM326 868
q0 -80 112 -80q47 0 81 24t44 46l10 23v100q-129 -10 -188 -34t-59 -79z" />
    <glyph glyph-name="guillemotleft" unicode="&#xab;" horiz-adv-x="1249" 
d="M686 762l-235 -252l233 -254l-121 -135l-381 391l383 381zM1120 762l-235 -252l233 -254l-121 -135l-381 391l383 381z" />
    <glyph glyph-name="logicalnot" unicode="&#xac;" horiz-adv-x="1150" 
d="M1038 203h-229v332h-698v221h927v-553z" />
    <glyph glyph-name="uni00AD" unicode="&#xad;" horiz-adv-x="823" 
d="M729 453h-637v221h637v-221z" />
    <glyph glyph-name="registered" unicode="&#xae;" horiz-adv-x="1564" 
d="M780 1554q312 0 498 -184t186 -490t-180 -490t-504 -185q-324 0 -500 184q-176 185 -178 491q0 306 182 490t496 184zM1268 880q0 249 -127 387t-361 138t-358 -140q-123 -140 -123 -387t122 -380q123 -133 359 -133t362 133t126 382zM711 561h-162v635h231
q293 0 293 -203q0 -135 -127 -186l127 -246h-178l-113 219h-71v-219zM784 1077h-73v-190h73q117 0 117 104q0 86 -117 86z" />
    <glyph glyph-name="macron" unicode="&#xaf;" horiz-adv-x="995" 
d="M750 1262h-504v151h504v-151z" />
    <glyph glyph-name="degree" unicode="&#xb0;" horiz-adv-x="980" 
d="M487 1569q189 0 303 -115t114 -301t-110 -301q-108 -115 -307 -115t-303 114t-104 302t108 302q109 114 299 114zM489 944q168 0 168 210t-168 210q-162 0 -162 -210t162 -210z" />
    <glyph glyph-name="plusminus" unicode="&#xb1;" horiz-adv-x="1220" 
d="M733 623h-231v344h-350v221h350v342h231v-342h346v-221h-346v-344zM1155 229h-1089v222h1089v-222z" />
    <glyph glyph-name="twosuperior" unicode="&#xb2;" horiz-adv-x="1017" 
d="M528 1567q176 -1 276 -97t101 -243q0 -252 -424 -522h250l19 79l184 -14l-14 -299h-824v225q29 10 144 90q114 80 238 205t124 209t-37 118t-113 34t-143 -56l-8 -79h-195l13 331h151l27 -61q117 80 231 80z" />
    <glyph glyph-name="threesuperior" unicode="&#xb3;" horiz-adv-x="1015" 
d="M647 788q0 58 -35 94t-97 36t-120 -50l-121 129l279 310h-231l-15 -88h-182l14 329l219 -12h514v-158l-258 -274q129 -14 215 -100t86 -220q0 -168 -140 -257t-357 -89q-82 0 -154 14t-104 27l-31 13l-12 270l182 12l18 -115q53 -12 115 -12q215 0 215 141z" />
    <glyph glyph-name="acute" unicode="&#xb4;" horiz-adv-x="550" 
d="M309 1171l-200 15l194 303l287 -33z" />
    <glyph glyph-name="uni00B5" unicode="&#xb5;" horiz-adv-x="1312" 
d="M532 -39q-41 0 -75 6q4 -319 4 -479h-303v1311l-107 12l15 213h395v-618q0 -197 178 -197q59 0 113 18t75 37l23 19v516l-107 12l15 213h395v-815l113 -8l-15 -201h-362l-23 70h-4q-109 -109 -330 -109z" />
    <glyph glyph-name="paragraph" unicode="&#xb6;" horiz-adv-x="1634" 
d="M1407 0h-299v1081h-197v-1081h-290v477q-258 0 -400 114q-141 114 -141 331t139 313t459 96h876v-250h-147v-1081z" />
    <glyph glyph-name="periodcentered" unicode="&#xb7;" horiz-adv-x="677" 
d="M516 745q0 -71 -50 -117t-129 -46t-130 45t-51 117t49 120q49 47 131 47t131 -48t49 -118z" />
    <glyph glyph-name="cedilla" unicode="&#xb8;" horiz-adv-x="571" 
d="M256 -379q92 0 92 82q0 59 -107 90q-36 10 -36 14l22 191h146l-11 -111q0 -2 48 -17t96 -57q47 -42 47 -126q0 -85 -60 -143t-155 -58t-154 19t-80 38l-20 19l41 108q61 -49 131 -49z" />
    <glyph glyph-name="onesuperior" unicode="&#xb9;" horiz-adv-x="1015" 
d="M694 1536v-862l189 -8l-13 -195h-655l-12 195l217 20v598l-191 -90l-82 188l316 154h231z" />
    <glyph glyph-name="ordmasculine" unicode="&#xba;" horiz-adv-x="1021" 
d="M961 1015q0 -181 -118 -283t-335 -103q-217 0 -332 101q-115 102 -115 284t115 283t336 101t335 -100q114 -102 114 -283zM512 786q90 0 129 56t39 171q0 114 -39 167t-130 53t-130 -52t-39 -166q0 -113 40 -171t130 -58z" />
    <glyph glyph-name="guillemotright" unicode="&#xbb;" horiz-adv-x="1249" 
d="M631 502l-383 -381l-123 129l235 252l-231 256l121 135zM1065 502l-383 -381l-123 129l236 252l-232 256l121 135z" />
    <glyph glyph-name="onequarter" unicode="&#xbc;" horiz-adv-x="2052" 
d="M694 1536v-862l189 -8l-13 -195h-655l-12 195l217 20v598l-191 -90l-82 188l316 154h231zM817 -98l-180 96l797 1239l178 -96zM1591 -240h-479l-14 162q178 324 241 629l258 -29q-61 -254 -221 -563h215v72l45 329h232v-401h110v-182l-110 -15v-114l84 -8l-15 -183h-442
l-12 181l108 10v112z" />
    <glyph glyph-name="onehalf" unicode="&#xbd;" horiz-adv-x="2166" 
d="M694 1536v-862l189 -8l-13 -195h-655l-12 195l217 20v598l-191 -90l-82 188l316 154h231zM803 -98l-180 96l796 1239l178 -96zM1677 553q177 0 277 -96t100 -244q0 -248 -424 -522h250l18 80l185 -15l-15 -299h-823v226q29 10 144 90q115 81 239 205t123 208
q0 84 -37 118t-114 34t-142 -55l-8 -80h-195l13 332h151l27 -62q117 80 231 80z" />
    <glyph glyph-name="threequarters" unicode="&#xbe;" horiz-adv-x="2007" 
d="M649 788q0 58 -35 94t-101 36t-116 -50l-121 129l279 310h-231l-15 -88h-182l14 329l219 -12h514v-158l-258 -274q129 -14 215 -100t87 -220q0 -168 -140 -257t-358 -89q-82 0 -154 14t-102 27l-33 13l-12 270l182 12l18 -115q51 -12 115 -12q215 0 215 141zM772 -98
l-180 96l797 1239l178 -96zM1546 -240h-479l-14 162q178 324 241 629l258 -29q-61 -254 -221 -563h215v72l45 329h232v-401h110v-182l-110 -15v-114l84 -8l-15 -183h-442l-12 181l108 10v112z" />
    <glyph glyph-name="questiondown" unicode="&#xbf;" horiz-adv-x="1036" 
d="M542 -551q-238 0 -366 108q-127 108 -127 262t101 251q77 74 167 127t136 87q100 76 100 189q0 27 -6 62l166 14q51 -102 51 -178q0 -133 -136 -230q-56 -39 -112 -77q-136 -91 -137 -214q0 -172 217 -172q43 0 96 9l23 196l213 -14l-15 -379q-133 -41 -371 -41zM807 891
q0 -70 -50 -117t-129 -47t-130 45q-52 45 -52 118t50 120t131 47q82 0 131 -48t49 -118z" />
    <glyph glyph-name="Agrave" unicode="&#xc0;" horiz-adv-x="1486" 
d="M926 0v170l112 12l-71 183h-492l-65 -170l129 -11l-15 -184h-518l-12 213l143 10l406 1108h409l404 -1124l139 -6l-12 -201h-557zM727 1087h-4l-180 -528h358zM874 1466l-200 -18l-285 285l283 34z" />
    <glyph glyph-name="Aacute" unicode="&#xc1;" horiz-adv-x="1486" 
d="M926 0v170l112 12l-71 183h-492l-65 -170l129 -11l-15 -184h-518l-12 213l143 10l406 1108h409l404 -1124l139 -6l-12 -201h-557zM727 1087h-4l-180 -528h358zM813 1448l-201 14l195 303l287 -32z" />
    <glyph glyph-name="Acircumflex" unicode="&#xc2;" horiz-adv-x="1486" 
d="M926 0v170l112 12l-71 183h-492l-65 -170l129 -11l-15 -184h-518l-12 213l143 10l406 1108h409l404 -1124l139 -6l-12 -201h-557zM727 1087h-4l-180 -528h358zM999 1462l-256 164l-254 -164l-92 168l269 189h159l267 -189z" />
    <glyph glyph-name="Atilde" unicode="&#xc3;" horiz-adv-x="1486" 
d="M926 0v170l112 12l-71 183h-492l-65 -170l129 -11l-15 -184h-518l-12 213l143 10l406 1108h409l404 -1124l139 -6l-12 -201h-557zM727 1087h-4l-180 -528h358zM975 1692q65 0 131 37l37 -148q-1 -10 -17 -32q-54 -74 -161 -74t-224 51t-190 51t-137 -49l-21 -15l-37 164
q60 121 230 121q92 0 208 -53t181 -53z" />
    <glyph glyph-name="Adieresis" unicode="&#xc4;" horiz-adv-x="1486" 
d="M926 0v170l112 12l-71 183h-492l-65 -170l129 -11l-15 -184h-518l-12 213l143 10l406 1108h409l404 -1124l139 -6l-12 -201h-557zM727 1087h-4l-180 -528h358zM1108 1617q0 -57 -36 -103t-116 -46t-116 46t-35 102q0 56 42 96q41 41 109 41t110 -39t42 -97zM672 1617
q0 -57 -36 -103t-116 -46t-116 46t-36 102t43 96q41 41 109 41t110 -39t42 -97z" />
    <glyph glyph-name="Aring" unicode="&#xc5;" horiz-adv-x="1486" 
d="M926 0v170l112 12l-71 183h-492l-65 -170l129 -11l-15 -184h-518l-12 213l143 10l406 1108h409l404 -1124l139 -6l-12 -201h-557zM727 1087h-4l-180 -528h358zM743 1950q105 0 175 -68t70 -173t-69 -173q-67 -68 -177 -68t-176 67t-64 173q0 106 68 174q69 68 173 68z
M745 1599q47 0 76 31t29 80t-31 80t-76 31t-75 -31t-29 -80q-1 -49 29 -80t77 -31z" />
    <glyph glyph-name="AE" unicode="&#xc6;" horiz-adv-x="1935" 
d="M1841 969h-239l-11 129h-368v-316l536 2v-225h-536v-326h405l23 148l227 -14l-14 -367h-1096l-14 158l153 12v195h-422l-110 -189l100 -6l-14 -170h-549l-14 213l198 10l551 887l-172 8l14 213h1086l266 15v-377zM907 559v539h-18l-295 -539h313z" />
    <glyph glyph-name="Ccedilla" unicode="&#xc7;" horiz-adv-x="1361" 
d="M684 -379q92 0 92 82q0 59 -107 90q-36 10 -36 14l18 164q-285 37 -427 227t-142 490q0 302 186 490t471 188q152 0 287 -90l45 70h180v-525h-241l-23 240q-90 63 -203 63q-168 0 -272 -114t-104 -330q0 -215 108 -344t291 -129q184 0 352 125q39 29 58 49l18 20
l117 -192q-18 -31 -76 -79t-116 -80t-156 -60t-207 -29l-6 -74q0 -2 47 -17t95 -57t48 -126q0 -85 -60 -143q-61 -58 -155 -58t-154 19t-80 38l-20 19l41 108q61 -49 131 -49z" />
    <glyph glyph-name="Egrave" unicode="&#xc8;" horiz-adv-x="1273" 
d="M1159 969h-241l-11 129h-366v-316l536 2v-225h-536v-326h405l23 148l227 -14l-14 -367h-1098l-12 213l153 12v895l-155 13l14 198h809l266 15v-377zM809 1466l-201 -18l-284 285l282 34z" />
    <glyph glyph-name="Eacute" unicode="&#xc9;" horiz-adv-x="1273" 
d="M1159 969h-241l-11 129h-366v-316l536 2v-225h-536v-326h405l23 148l227 -14l-14 -367h-1098l-12 213l153 12v895l-155 13l14 198h809l266 15v-377zM748 1448l-201 14l194 303l287 -32z" />
    <glyph glyph-name="Ecircumflex" unicode="&#xca;" horiz-adv-x="1273" 
d="M1159 969h-241l-11 129h-366v-316l536 2v-225h-536v-326h405l23 148l227 -14l-14 -367h-1098l-12 213l153 12v895l-155 13l14 198h809l266 15v-377zM934 1462l-256 164l-254 -164l-92 168l268 189h160l266 -189z" />
    <glyph glyph-name="Edieresis" unicode="&#xcb;" horiz-adv-x="1273" 
d="M1159 969h-241l-11 129h-366v-316l536 2v-225h-536v-326h405l23 148l227 -14l-14 -367h-1098l-12 213l153 12v895l-155 13l14 198h809l266 15v-377zM891 1753q67 0 109 -39t42 -97t-35 -104q-36 -45 -116 -45t-116 46t-36 102t42 96q42 41 110 41zM455 1753q67 0 109 -39
t42 -97q0 -57 -36 -103t-116 -46t-115 46q-36 46 -36 102t42 96q42 41 110 41z" />
    <glyph glyph-name="Igrave" unicode="&#xcc;" horiz-adv-x="765" 
d="M684 1331v-213l-143 -12v-897l155 -8l-12 -201h-600l-12 213l153 12v895l-155 13l14 198h600zM510 1466l-201 -18l-284 285l282 34z" />
    <glyph glyph-name="Iacute" unicode="&#xcd;" horiz-adv-x="765" 
d="M684 1331v-213l-143 -12v-897l155 -8l-12 -201h-600l-12 213l153 12v895l-155 13l14 198h600zM449 1448l-201 14l194 303l287 -32z" />
    <glyph glyph-name="Icircumflex" unicode="&#xce;" horiz-adv-x="765" 
d="M684 1331v-213l-143 -12v-897l155 -8l-12 -201h-600l-12 213l153 12v895l-155 13l14 198h600zM635 1462l-256 164l-254 -164l-92 168l268 189h160l266 -189z" />
    <glyph glyph-name="Idieresis" unicode="&#xcf;" horiz-adv-x="765" 
d="M684 1331v-213l-143 -12v-897l155 -8l-12 -201h-600l-12 213l153 12v895l-155 13l14 198h600zM592 1753q68 0 110 -39t41 -97q0 -58 -35 -104q-36 -45 -116 -45t-116 46t-36 102t42 96q42 41 110 41zM156 1753q68 0 110 -39t41 -97q0 -57 -36 -103q-35 -46 -115 -46
t-116 46t-36 102t42 96q42 41 110 41z" />
    <glyph glyph-name="Eth" unicode="&#xd0;" horiz-adv-x="1568" 
d="M225 563h-184v193h184v364l-155 13l14 198h676q731 0 731 -647q0 -328 -185 -506t-544 -178h-678l-12 213l153 12v338zM760 1087h-219v-331h301v-193h-301v-319h223q207 0 303 108t96 330q0 221 -95 313t-308 92z" />
    <glyph glyph-name="Ntilde" unicode="&#xd1;" horiz-adv-x="1660" 
d="M1608 1331v-213l-142 -12v-1112l-317 -2l-647 893h-6l10 -121v-541l162 -10l-15 -213h-569l-12 213l153 12v895l-155 13l14 198h467l637 -911h4l-8 92v596l-162 10l14 213h572zM1067 1692q69 0 127 37l37 -148q-1 -10 -17 -32q-54 -74 -161 -74t-224 51t-169 51
q-98 0 -156 -49l-23 -15l-37 164q60 121 230 121q92 0 208 -53t185 -53z" />
    <glyph glyph-name="Ograve" unicode="&#xd2;" horiz-adv-x="1558" 
d="M80 683q0 319 180 501t517 182t521 -182t185 -500q1 -320 -187 -522t-519 -201q-331 0 -514 201t-183 521zM1155 683q0 214 -97 328q-96 113 -280 113t-278 -114t-94 -327q0 -214 95 -347t276 -133t280 133q98 133 98 347zM907 1466l-200 -18l-285 285l283 34z" />
    <glyph glyph-name="Oacute" unicode="&#xd3;" horiz-adv-x="1558" 
d="M80 683q0 319 180 501t517 182t521 -182t185 -500q1 -320 -187 -522t-519 -201q-331 0 -514 201t-183 521zM1155 683q0 214 -97 328q-96 113 -280 113t-278 -114t-94 -327q0 -214 95 -347t276 -133t280 133q98 133 98 347zM846 1448l-201 14l195 303l286 -32z" />
    <glyph glyph-name="Ocircumflex" unicode="&#xd4;" horiz-adv-x="1558" 
d="M80 683q0 319 180 501t517 182t521 -182t185 -500q1 -320 -187 -522t-519 -201q-331 0 -514 201t-183 521zM1155 683q0 214 -97 328q-96 113 -280 113t-278 -114t-94 -327q0 -214 95 -347t276 -133t280 133q98 133 98 347zM1032 1462l-256 164l-254 -164l-92 168l268 189
h160l266 -189z" />
    <glyph glyph-name="Otilde" unicode="&#xd5;" horiz-adv-x="1558" 
d="M80 683q0 319 180 501t517 182t521 -182t185 -500q1 -320 -187 -522t-519 -201q-331 0 -514 201t-183 521zM1155 683q0 214 -97 328q-96 113 -280 113t-278 -114t-94 -327q0 -214 95 -347t276 -133t280 133q98 133 98 347zM618 1798q92 0 208 -53t164 -53q93 0 132 28
l17 9l37 -148q0 -8 -16 -31q-52 -75 -161 -75q-108 0 -225 51t-189 51t-139 -49l-20 -15l-37 164q61 121 229 121z" />
    <glyph glyph-name="Odieresis" unicode="&#xd6;" horiz-adv-x="1558" 
d="M80 683q0 319 180 501t517 182t521 -182t185 -500q1 -320 -187 -522t-519 -201q-331 0 -514 201t-183 521zM1155 683q0 214 -97 328q-96 113 -280 113t-278 -114t-94 -327q0 -214 95 -347t276 -133t280 133q98 133 98 347zM1141 1617q0 -57 -36 -103t-116 -46t-116 46
q-35 46 -35 102t42 96q42 41 110 41t109 -39q42 -39 42 -97zM705 1617q0 -57 -36 -103t-116 -46t-116 46t-36 102t42 96q42 41 110 41t110 -39t42 -97z" />
    <glyph glyph-name="multiply" unicode="&#xd7;" horiz-adv-x="974" 
d="M238 244l-166 176l241 233l-241 236l164 176l251 -244l254 244l164 -176l-243 -236l241 -233l-164 -176l-252 241z" />
    <glyph glyph-name="Oslash" unicode="&#xd8;" horiz-adv-x="1558" 
d="M1483 686q1 -322 -187 -524t-520 -201q-111 0 -213 27l-86 -207l-131 22l94 228q-174 86 -267 257t-93 398q0 316 180 498t516 182q133 0 254 -33l76 154l131 -23l-88 -176q162 -80 248 -234t86 -368zM406 686q0 -278 143 -403l371 819q-68 23 -144 22q-182 0 -276 -114
t-94 -324zM1155 698q0 228 -125 340l-368 -819q55 -16 114 -16q182 0 281 133q98 134 98 362z" />
    <glyph glyph-name="Ugrave" unicode="&#xd9;" horiz-adv-x="1533" 
d="M492 567q0 -344 286 -344q150 0 220 92t69 252v541l-164 10l15 213h583v-198l-141 -17v-612q0 -240 -143 -392t-447 -151q-304 0 -449 153q-144 153 -145 390v616l-156 13l15 198h598v-198l-141 -13v-553zM983 1466l-201 -18l-284 285l282 34z" />
    <glyph glyph-name="Uacute" unicode="&#xda;" horiz-adv-x="1533" 
d="M492 567q0 -344 286 -344q150 0 220 92t69 252v541l-164 10l15 213h583v-198l-141 -17v-612q0 -240 -143 -392t-447 -151q-304 0 -449 153q-144 153 -145 390v616l-156 13l15 198h598v-198l-141 -13v-553zM786 1448l-200 14l194 303l287 -32z" />
    <glyph glyph-name="Ucircumflex" unicode="&#xdb;" horiz-adv-x="1533" 
d="M492 567q0 -344 286 -344q150 0 220 92t69 252v541l-164 10l15 213h583v-198l-141 -17v-612q0 -240 -143 -392t-447 -151q-304 0 -449 153q-144 153 -145 390v616l-156 13l15 198h598v-198l-141 -13v-553zM1028 1462l-256 164l-254 -164l-92 168l268 189h160l266 -189z
" />
    <glyph glyph-name="Udieresis" unicode="&#xdc;" horiz-adv-x="1533" 
d="M492 567q0 -344 286 -344q150 0 220 92t69 252v541l-164 10l15 213h583v-198l-141 -17v-612q0 -240 -143 -392t-447 -151q-304 0 -449 153q-144 153 -145 390v616l-156 13l15 198h598v-198l-141 -13v-553zM1139 1617q0 -57 -36 -103t-116 -46t-116 46q-35 46 -35 102
t42 96q42 41 110 41t109 -39q42 -39 42 -97zM551 1753q67 0 109 -39t42 -97t-35 -104q-36 -45 -116 -45t-116 46t-36 102t42 96q42 41 110 41z" />
    <glyph glyph-name="Yacute" unicode="&#xdd;" horiz-adv-x="1357" 
d="M842 1331h553v-213l-183 -8l-362 -594v-293l158 -10l-15 -213h-598l-14 213l154 12v289l-383 610l-193 9l14 198h594v-198l-69 -7l211 -346h2l194 336l-63 2v213zM788 1448l-200 14l194 303l287 -32z" />
    <glyph glyph-name="Thorn" unicode="&#xde;" horiz-adv-x="1290" 
d="M518 0h-434l-12 213l153 12v895l-155 13l14 198h434v-205h164q541 0 541 -444q0 -127 -48 -228q-48 -102 -127 -160q-160 -119 -360 -118h-170v-176zM657 893h-139v-494h137q256 0 256 265q0 131 -64 180q-65 49 -190 49z" />
    <glyph glyph-name="germandbls" unicode="&#xdf;" horiz-adv-x="1323" 
d="M463 0h-402l-12 213l113 12v865q0 483 506 483q212 0 332 -96q120 -95 120 -263t-159 -266q313 -109 313 -452q0 -260 -120 -398t-325 -137q-102 0 -174 17t-90 34l-20 19l41 178q47 -29 148 -29t164 78q62 78 62 240t-75 227q-76 66 -273 66v219q18 0 65 15q46 15 74 31
t50 51q23 34 22 77q0 80 -42 125t-124 45q-195 0 -194 -264v-1090z" />
    <glyph glyph-name="agrave" unicode="&#xe0;" horiz-adv-x="1148" 
d="M644 1061q159 0 262 -97t104 -302v-453l112 -8l-14 -201h-344l-39 100q-5 -16 -35 -44q-99 -95 -270 -95q-172 0 -272 84q-99 84 -99 227q0 88 51 164q26 40 134 103q33 19 125 42q139 35 350 54v20q0 109 -38 153t-132 44t-156 -53l-14 -121h-224l13 362h178l24 -61
q125 82 284 82zM516 164q62 0 110 28t62 48t21 34v177q-175 -14 -240 -33q-65 -18 -87 -46t-22 -71q0 -137 156 -137zM719 1190l-201 -19l-285 285l283 35z" />
    <glyph glyph-name="aacute" unicode="&#xe1;" horiz-adv-x="1148" 
d="M644 1061q159 0 262 -97t104 -302v-453l112 -8l-14 -201h-344l-39 100q-5 -16 -35 -44q-99 -95 -270 -95q-172 0 -272 84q-99 84 -99 227q0 88 51 164q26 40 134 103q33 19 125 42q139 35 350 54v20q0 109 -38 153t-132 44t-156 -53l-14 -121h-224l13 362h178l24 -61
q125 82 284 82zM516 164q62 0 110 28t62 48t21 34v177q-175 -14 -240 -33q-65 -18 -87 -46t-22 -71q0 -137 156 -137zM657 1171l-200 15l194 303l287 -33z" />
    <glyph glyph-name="acircumflex" unicode="&#xe2;" horiz-adv-x="1148" 
d="M644 1061q159 0 262 -97t104 -302v-453l112 -8l-14 -201h-344l-39 100q-5 -16 -35 -44q-99 -95 -270 -95q-172 0 -272 84q-99 84 -99 227q0 88 51 164q26 40 134 103q33 19 125 42q139 35 350 54v20q0 109 -38 153t-132 44t-156 -53l-14 -121h-224l13 362h178l24 -61
q125 82 284 82zM516 164q62 0 110 28t62 48t21 34v177q-175 -14 -240 -33q-65 -18 -87 -46t-22 -71q0 -137 156 -137zM842 1186l-256 164l-254 -164l-92 168l268 188h160l266 -188z" />
    <glyph glyph-name="atilde" unicode="&#xe3;" horiz-adv-x="1148" 
d="M644 1061q159 0 262 -97t104 -302v-453l112 -8l-14 -201h-344l-39 100q-5 -16 -35 -44q-99 -95 -270 -95q-172 0 -272 84q-99 84 -99 227q0 88 51 164q26 40 134 103q33 19 125 42q139 35 350 54v20q0 109 -38 153t-132 44t-156 -53l-14 -121h-224l13 362h178l24 -61
q125 82 284 82zM516 164q62 0 110 28t62 48t21 34v177q-175 -14 -240 -33q-65 -18 -87 -46t-22 -71q0 -137 156 -137zM822 1415q68 0 128 37l37 -147q0 -11 -16 -33q-54 -74 -189 -74q-80 0 -196 51t-191 51q-74 0 -137 -47l-20 -16l-37 164q59 118 229 121q92 0 208 -54
t184 -53z" />
    <glyph glyph-name="adieresis" unicode="&#xe4;" horiz-adv-x="1148" 
d="M644 1061q159 0 262 -97t104 -302v-453l112 -8l-14 -201h-344l-39 100q-5 -16 -35 -44q-99 -95 -270 -95q-172 0 -272 84q-99 84 -99 227q0 88 51 164q26 40 134 103q33 19 125 42q139 35 350 54v20q0 109 -38 153t-132 44t-156 -53l-14 -121h-224l13 362h178l24 -61
q125 82 284 82zM516 164q62 0 110 28t62 48t21 34v177q-175 -14 -240 -33q-65 -18 -87 -46t-22 -71q0 -137 156 -137zM799 1477q67 1 109 -39t42 -98t-36 -103t-116 -45t-115 46q-36 46 -36 101t42 97t110 41zM362 1192q-80 0 -116 46t-35 101q0 55 42 97q41 42 109 41
q68 1 110 -39t42 -98t-36 -103t-116 -45z" />
    <glyph glyph-name="aring" unicode="&#xe5;" horiz-adv-x="1148" 
d="M644 1061q159 0 262 -97t104 -302v-453l112 -8l-14 -201h-344l-39 100q-5 -16 -35 -44q-99 -95 -270 -95q-172 0 -272 84q-99 84 -99 227q0 88 51 164q26 40 134 103q33 19 125 42q139 35 350 54v20q0 109 -38 153t-132 44t-156 -53l-14 -121h-224l13 362h178l24 -61
q125 82 284 82zM516 164q62 0 110 28t62 48t21 34v177q-175 -14 -240 -33q-65 -18 -87 -46t-22 -71q0 -137 156 -137zM586 1190q-110 0 -174 66q-66 66 -66 174q0 106 69 174t173 68t174 -68t70 -173t-68 -174q-68 -67 -178 -67zM590 1321q47 0 76 31t28 80q0 50 -30 80
t-76 30q-45 0 -75 -31t-30 -79t30 -80q30 -31 77 -31z" />
    <glyph glyph-name="ae" unicode="&#xe6;" horiz-adv-x="1722" 
d="M1268 180q72 0 136 29t93 57l29 27l137 -148q-10 -20 -54 -58q-143 -123 -356 -126q-307 0 -452 184q-117 -184 -385 -184q-172 0 -270 84q-97 84 -97 212t80 213q111 114 448 148q40 4 121 13q4 29 9 45q-3 94 -47 133t-129 39t-148 -49l-14 -111h-224l13 352h176
l24 -55q133 76 254 76q170 0 254 -111q137 111 355 111q219 0 339 -118t119 -337q0 -91 -30 -160l-11 -20h-643q35 -246 273 -246zM1214 852q-100 0 -153 -57t-68 -174h410q2 27 2 45q-1 186 -191 186zM508 162q160 0 194 211q-8 49 -10 76q-160 -11 -224 -30t-86 -47
t-22 -71q1 -139 148 -139z" />
    <glyph glyph-name="ccedilla" unicode="&#xe7;" horiz-adv-x="1030" 
d="M506 -379q92 0 92 82q0 60 -108 90q-36 10 -35 14l18 164q-211 31 -317 176t-106 387t129 384q130 142 356 143q104 0 221 -82l32 61h183l-4 -417h-226l-16 168q-61 61 -159 61t-150 -72q-53 -72 -54 -248q0 -358 269 -358q67 0 131 32t94 64l31 31l129 -143
q-10 -21 -51 -60q-41 -38 -81 -64t-112 -48t-154 -25l-6 -74q0 -2 48 -17t96 -57t47 -126q-1 -85 -61 -143t-154 -58t-154 19q-59 19 -80 38l-20 19l41 108q61 -49 131 -49z" />
    <glyph glyph-name="egrave" unicode="&#xe8;" horiz-adv-x="1081" 
d="M627 180q73 0 137 29t92 57l29 27l137 -148q-10 -20 -54 -58q-143 -123 -356 -126q-266 0 -414 142q-148 143 -148 409t144 408t374 141q230 0 350 -118t120 -337q0 -91 -30 -160l-11 -20h-643q35 -246 273 -246zM573 852q-100 0 -153 -57t-68 -174h410q2 27 2 45
q-1 186 -191 186zM702 1190l-200 -19l-285 285l283 35z" />
    <glyph glyph-name="eacute" unicode="&#xe9;" horiz-adv-x="1081" 
d="M627 180q73 0 137 29t92 57l29 27l137 -148q-10 -20 -54 -58q-143 -123 -356 -126q-266 0 -414 142q-148 143 -148 409t144 408t374 141q230 0 350 -118t120 -337q0 -91 -30 -160l-11 -20h-643q35 -246 273 -246zM573 852q-100 0 -153 -57t-68 -174h410q2 27 2 45
q-1 186 -191 186zM643 1171l-201 15l195 303l287 -33z" />
    <glyph glyph-name="ecircumflex" unicode="&#xea;" horiz-adv-x="1081" 
d="M627 180q73 0 137 29t92 57l29 27l137 -148q-10 -20 -54 -58q-143 -123 -356 -126q-266 0 -414 142q-148 143 -148 409t144 408t374 141q230 0 350 -118t120 -337q0 -91 -30 -160l-11 -20h-643q35 -246 273 -246zM573 852q-100 0 -153 -57t-68 -174h410q2 27 2 45
q-1 186 -191 186zM827 1186l-256 164l-254 -164l-92 168l269 188h159l267 -188z" />
    <glyph glyph-name="edieresis" unicode="&#xeb;" horiz-adv-x="1081" 
d="M627 180q73 0 137 29t92 57l29 27l137 -148q-10 -20 -54 -58q-143 -123 -356 -126q-266 0 -414 142q-148 143 -148 409t144 408t374 141q230 0 350 -118t120 -337q0 -91 -30 -160l-11 -20h-643q35 -246 273 -246zM573 852q-100 0 -153 -57t-68 -174h410q2 27 2 45
q-1 186 -191 186zM786 1192q-80 0 -116 46t-35 101q0 55 42 97q41 42 109 41q68 1 110 -39t42 -98t-36 -103t-116 -45zM350 1477q68 1 110 -39t42 -98t-36 -103t-116 -45t-116 46t-36 101t43 97q41 42 109 41z" />
    <glyph glyph-name="igrave" unicode="&#xec;" horiz-adv-x="636" 
d="M477 1024v-815l113 -8l-12 -201h-502l-15 213l115 12v574l-106 12l12 213h395zM455 1190l-201 -19l-285 285l283 35z" />
    <glyph glyph-name="iacute" unicode="&#xed;" horiz-adv-x="636" 
d="M477 1024v-815l113 -8l-12 -201h-502l-15 213l115 12v574l-106 12l12 213h395zM395 1171l-200 15l194 303l287 -33z" />
    <glyph glyph-name="icircumflex" unicode="&#xee;" horiz-adv-x="636" 
d="M477 1024v-815l113 -8l-12 -201h-502l-15 213l115 12v574l-106 12l12 213h395zM580 1186l-256 164l-254 -164l-93 168l269 188h160l266 -188z" />
    <glyph glyph-name="idieresis" unicode="&#xef;" horiz-adv-x="636" 
d="M477 1024v-815l113 -8l-12 -201h-502l-15 213l115 12v574l-106 12l12 213h395zM539 1477q67 1 109 -39t42 -98t-36 -103t-116 -45t-115 46q-36 46 -36 101t42 97t110 41zM102 1192q-80 0 -116 46t-35 101q0 55 42 97q41 42 109 41q68 1 110 -39t42 -98t-36 -103t-116 -45
z" />
    <glyph glyph-name="eth" unicode="&#xf0;" horiz-adv-x="1210" 
d="M608 -39q-260 0 -410 158t-149 414q0 256 139 392t394 136q147 0 278 -76q-53 154 -166 272l-221 -106l-51 106l180 86q-63 49 -110 76l116 135q104 -53 180 -118l181 88l51 -107l-141 -69q274 -307 274 -768q0 -291 -143 -455q-142 -164 -402 -164zM600 852
q-127 0 -183 -78t-57 -239q0 -365 240 -365t240 367q0 159 -56 237t-184 78z" />
    <glyph glyph-name="ntilde" unicode="&#xf1;" horiz-adv-x="1308" 
d="M795 1061q375 0 374 -344v-508l113 -8l-12 -201h-402v662q0 84 -41 118t-119 35q-136 0 -208 -55l-23 -19v-532l113 -8l-12 -201h-502l-15 213l115 12v574l-106 12l12 213h356l25 -72h2q109 109 330 109zM878 1415q67 0 130 37l36 -147q0 -11 -16 -33q-54 -74 -188 -74
q-80 0 -197 51t-191 51t-137 -47l-20 -16l-37 164q59 118 229 121q92 0 208 -54t183 -53z" />
    <glyph glyph-name="ograve" unicode="&#xf2;" horiz-adv-x="1200" 
d="M600 1061q266 0 408 -141q142 -142 143 -398t-147 -408t-408 -153q-260 0 -403 151q-143 150 -143 408t141 400q143 142 409 141zM600 170q240 0 240 348q0 166 -56 250t-184 84q-240 0 -240 -341t240 -341zM731 1190l-201 -19l-284 285l282 35z" />
    <glyph glyph-name="oacute" unicode="&#xf3;" horiz-adv-x="1200" 
d="M600 1061q266 0 408 -141q142 -142 143 -398t-147 -408t-408 -153q-260 0 -403 151q-143 150 -143 408t141 400q143 142 409 141zM600 170q240 0 240 348q0 166 -56 250t-184 84q-240 0 -240 -341t240 -341zM670 1171l-201 15l195 303l286 -33z" />
    <glyph glyph-name="ocircumflex" unicode="&#xf4;" horiz-adv-x="1200" 
d="M600 1061q266 0 408 -141q142 -142 143 -398t-147 -408t-408 -153q-260 0 -403 151q-143 150 -143 408t141 400q143 142 409 141zM600 170q240 0 240 348q0 166 -56 250t-184 84q-240 0 -240 -341t240 -341zM854 1186l-256 164l-254 -164l-92 168l268 188h160l266 -188z
" />
    <glyph glyph-name="otilde" unicode="&#xf5;" horiz-adv-x="1200" 
d="M600 1061q266 0 408 -141q142 -142 143 -398t-147 -408t-408 -153q-260 0 -403 151q-143 150 -143 408t141 400q143 142 409 141zM600 170q240 0 240 348q0 166 -56 250t-184 84q-240 0 -240 -341t240 -341zM835 1415q71 0 126 37l36 -147q0 -11 -16 -33
q-54 -74 -188 -74q-80 0 -197 51t-169 51q-99 0 -157 -47l-22 -16l-37 164q59 118 229 121q92 0 208 -54t187 -53z" />
    <glyph glyph-name="odieresis" unicode="&#xf6;" horiz-adv-x="1200" 
d="M600 1061q266 0 408 -141q142 -142 143 -398t-147 -408t-408 -153q-260 0 -403 151q-143 150 -143 408t141 400q143 142 409 141zM600 170q240 0 240 348q0 166 -56 250t-184 84q-240 0 -240 -341t240 -341zM811 1477q68 1 110 -39t42 -98t-36 -103t-116 -45t-116 46
t-36 101t42 97t110 41zM375 1477q67 1 109 -39t42 -98t-36 -103t-116 -45t-115 46q-36 46 -36 101t42 97t110 41z" />
    <glyph glyph-name="divide" unicode="&#xf7;" horiz-adv-x="1220" 
d="M788 156q0 -70 -50 -117t-129 -47t-130 45t-51 118t49 119t131 48q82 0 131 -48t49 -118zM791 930q-1 -70 -51 -117t-129 -47t-130 45t-51 118t49 120t131 47t132 -48t49 -118zM1155 432h-1089v221h1089v-221z" />
    <glyph glyph-name="oslash" unicode="&#xf8;" horiz-adv-x="1210" 
d="M49 522q0 256 142 398t409 141q72 0 154 -14l129 284l188 -22l-147 -326q227 -133 227 -461q0 -256 -147 -408t-404 -153q-74 0 -135 12l-158 -348l-184 23l174 385q-248 137 -248 489zM360 518q0 -156 48 -242l256 570q-31 6 -64 6q-240 0 -240 -334zM600 170
q240 0 240 348q0 129 -33 207l-252 -553q14 -2 45 -2z" />
    <glyph glyph-name="ugrave" unicode="&#xf9;" horiz-adv-x="1294" 
d="M534 -39q-200 0 -297 102t-98 287v449l-106 12l14 213h395v-618q0 -197 179 -197q59 0 112 18t76 37l22 19v516l-106 12l14 213h396v-815l112 -8l-14 -201h-363l-22 70h-4q-110 -109 -310 -109zM772 1190l-201 -19l-284 285l282 35z" />
    <glyph glyph-name="uacute" unicode="&#xfa;" horiz-adv-x="1294" 
d="M534 -39q-200 0 -297 102t-98 287v449l-106 12l14 213h395v-618q0 -197 179 -197q59 0 112 18t76 37l22 19v516l-106 12l14 213h396v-815l112 -8l-14 -201h-363l-22 70h-4q-110 -109 -310 -109zM711 1171l-201 15l195 303l286 -33z" />
    <glyph glyph-name="ucircumflex" unicode="&#xfb;" horiz-adv-x="1294" 
d="M534 -39q-200 0 -297 102t-98 287v449l-106 12l14 213h395v-618q0 -197 179 -197q59 0 112 18t76 37l22 19v516l-106 12l14 213h396v-815l112 -8l-14 -201h-363l-22 70h-4q-110 -109 -310 -109zM897 1186l-256 164l-254 -164l-92 168l268 188h160l266 -188z" />
    <glyph glyph-name="udieresis" unicode="&#xfc;" horiz-adv-x="1294" 
d="M534 -39q-200 0 -297 102t-98 287v449l-106 12l14 213h395v-618q0 -197 179 -197q59 0 112 18t76 37l22 19v516l-106 12l14 213h396v-815l112 -8l-14 -201h-363l-22 70h-4q-110 -109 -310 -109zM856 1477q68 1 110 -39t42 -98t-36 -103t-116 -45t-116 46t-36 101t42 97
q42 41 110 41zM420 1477q68 1 110 -39t41 -98q1 -58 -35 -103t-116 -45t-116 46t-36 101t42 97t110 41z" />
    <glyph glyph-name="yacute" unicode="&#xfd;" horiz-adv-x="1150" 
d="M674 1024h497v-213l-135 -12l-315 -840q-193 -510 -483 -510q-90 0 -148 16t-70 31l-10 17l27 206q92 -33 166 -32q143 0 248 311l-336 803l-148 10l13 213h378l250 -698h4l162 477l-100 8v213zM662 1171l-201 15l194 303l287 -33z" />
    <glyph glyph-name="thorn" unicode="&#xfe;" horiz-adv-x="1251" 
d="M432 1536v-569h10q26 32 111 63q86 31 178 31q215 0 344 -137t129 -381t-135 -413t-356 -169q-174 0 -281 76v-340l113 -8l-13 -201h-499l-15 213l113 12v1598l-106 12l12 213h395zM639 840q-68 0 -119 -27t-66 -47t-22 -33v-477q20 -27 75 -52q54 -24 120 -24
q266 0 266 369q1 163 -59 227t-195 64z" />
    <glyph glyph-name="ydieresis" unicode="&#xff;" horiz-adv-x="1150" 
d="M674 1024h497v-213l-135 -12l-315 -840q-193 -510 -483 -510q-90 0 -148 16t-70 31l-10 17l27 206q92 -33 166 -32q143 0 248 311l-336 803l-148 10l13 213h378l250 -698h4l162 477l-100 8v213zM805 1477q67 1 109 -39t42 -98t-36 -103t-115 -45q-80 0 -116 46t-36 101
t42 97t110 41zM369 1477q67 1 109 -39t42 -98t-36 -103t-116 -45t-115 46q-36 46 -36 101t42 97t110 41z" />
    <glyph glyph-name="Amacron" unicode="&#x100;" horiz-adv-x="1486" 
d="M926 0v170l112 12l-71 183h-492l-65 -170l129 -11l-15 -184h-518l-12 213l143 10l406 1108h409l404 -1124l139 -6l-12 -201h-557zM727 1087h-4l-180 -528h358zM1010 1538h-504v152h504v-152z" />
    <glyph glyph-name="amacron" unicode="&#x101;" horiz-adv-x="1148" 
d="M644 1061q159 0 262 -97t104 -302v-453l112 -8l-14 -201h-344l-39 100q-5 -16 -35 -44q-99 -95 -270 -95q-172 0 -272 84q-99 84 -99 227q0 88 51 164q26 40 134 103q33 19 125 42q139 35 350 54v20q0 109 -38 153t-132 44t-156 -53l-14 -121h-224l13 362h178l24 -61
q125 82 284 82zM516 164q62 0 110 28t62 48t21 34v177q-175 -14 -240 -33q-65 -18 -87 -46t-22 -71q0 -137 156 -137zM856 1262h-504v151h504v-151z" />
    <glyph glyph-name="Abreve" unicode="&#x102;" horiz-adv-x="1486" 
d="M926 0v170l112 12l-71 183h-492l-65 -170l129 -11l-15 -184h-518l-12 213l143 10l406 1108h409l404 -1124l139 -6l-12 -201h-557zM727 1087h-4l-180 -528h358zM578 1733q0 -12 15 -38q41 -71 163 -71q54 0 98 28q43 28 51 54l8 27v6l246 -37q-2 -10 -5 -28t-29 -66
q-25 -47 -65 -82t-124 -65q-84 -29 -193 -29t-191 28t-122 67q-85 83 -94 148l-6 27l248 37v-6z" />
    <glyph glyph-name="abreve" unicode="&#x103;" horiz-adv-x="1148" 
d="M644 1061q159 0 262 -97t104 -302v-453l112 -8l-14 -201h-344l-39 100q-5 -16 -35 -44q-99 -95 -270 -95q-172 0 -272 84q-99 84 -99 227q0 88 51 164q26 40 134 103q33 19 125 42q139 35 350 54v20q0 109 -38 153t-132 44t-156 -53l-14 -121h-224l13 362h178l24 -61
q125 82 284 82zM516 164q62 0 110 28t62 48t21 34v177q-175 -14 -240 -33q-65 -18 -87 -46t-22 -71q0 -137 156 -137zM588 1155q-108 0 -191 28q-82 27 -123 67t-65 80q-25 40 -29 67l-6 28l248 37v-6q0 -11 15 -38q41 -70 152 -70t152 69q4 6 17 39v6l246 -37
q-2 -10 -6 -28q-4 -17 -28 -65q-26 -48 -66 -83t-124 -65t-192 -29z" />
    <glyph glyph-name="Aogonek" unicode="&#x104;" horiz-adv-x="1486" 
d="M1427 -362v-150q-403 0 -403 270q0 137 160 242h-258v170l112 12l-71 183h-492l-65 -170l129 -11l-15 -184h-518l-12 213l143 10l406 1108h409l404 -1124l139 -6l-12 -201h-49q-72 -18 -134 -79t-63 -146q0 -85 48 -111t142 -26zM727 1087h-4l-180 -528h358z" />
    <glyph glyph-name="aogonek" unicode="&#x105;" horiz-adv-x="1148" 
d="M997 -362v-150q-403 0 -403 270q0 145 168 246l-37 96q-5 -16 -35 -44q-99 -95 -270 -95q-172 0 -272 84q-99 84 -99 227q0 88 51 164q26 40 134 103q33 19 125 42q139 35 350 54v20q0 109 -38 153t-132 44t-156 -53l-14 -121h-224l13 362h178l24 -61q125 82 284 82
t262 -97t104 -302v-453l112 -8l-14 -201h-102q-24 -6 -64 -28q-138 -75 -136 -220q0 -62 49 -88q48 -26 142 -26zM516 164q62 0 110 28t62 48t21 34v177q-175 -14 -240 -33q-65 -18 -87 -46t-22 -71q0 -137 156 -137z" />
    <glyph glyph-name="Cacute" unicode="&#x106;" horiz-adv-x="1361" 
d="M1251 821h-241l-23 240q-90 63 -203 63q-168 0 -272 -114t-104 -330q0 -215 108 -344t291 -129q184 0 352 125q39 29 58 49l18 20l117 -192q-16 -27 -75 -78t-119 -84t-160 -59t-212 -27q-352 0 -528 197t-176 514q0 318 186 506t471 188q152 0 287 -90l45 70h180v-525z
M844 1448l-201 14l195 303l286 -32z" />
    <glyph glyph-name="cacute" unicode="&#x107;" horiz-adv-x="1030" 
d="M566 852q-98 0 -150 -72q-53 -72 -54 -248q0 -358 269 -358q67 0 131 32t94 64l31 31l129 -143q-13 -25 -54 -64q-42 -38 -84 -64t-118 -48t-162 -21q-272 0 -411 150q-138 149 -138 407t130 400t356 143q104 0 221 -82l32 61h183l-4 -417h-226l-16 168q-61 61 -159 61z
M678 1171l-201 15l195 303l286 -33z" />
    <glyph glyph-name="Ccaron" unicode="&#x10c;" horiz-adv-x="1361" 
d="M1251 821h-241l-23 240q-90 63 -203 63q-168 0 -272 -114t-104 -330q0 -215 108 -344t291 -129q184 0 352 125q39 29 58 49l18 20l117 -192q-16 -27 -75 -78t-119 -84t-160 -59t-212 -27q-352 0 -528 197t-176 514q0 318 186 506t471 188q152 0 287 -90l45 70h180v-525z
M1126 1636l-270 -188h-160l-272 188l94 170l256 -168l260 168z" />
    <glyph glyph-name="ccaron" unicode="&#x10d;" horiz-adv-x="1030" 
d="M566 852q-98 0 -150 -72q-53 -72 -54 -248q0 -358 269 -358q67 0 131 32t94 64l31 31l129 -143q-13 -25 -54 -64q-42 -38 -84 -64t-118 -48t-162 -21q-272 0 -411 150q-138 149 -138 407t130 400t356 143q104 0 221 -82l32 61h183l-4 -417h-226l-16 168q-61 61 -159 61z
M958 1360l-270 -189h-160l-272 189l94 170l256 -168l260 168z" />
    <glyph glyph-name="Dcaron" unicode="&#x10e;" horiz-adv-x="1568" 
d="M760 1331q731 0 731 -647q0 -328 -185 -506t-544 -178h-678l-12 213l153 12v895l-155 13l14 198h676zM760 1087h-219v-843h223q207 0 303 108t96 330q0 221 -95 313t-308 92zM1069 1636l-270 -188h-160l-272 188l94 170l256 -168l260 168z" />
    <glyph glyph-name="dcaron" unicode="&#x10f;" 
d="M520 -39q-211 0 -342 157q-131 156 -131 402t126 393t347 148q90 -1 163 -19t99 -36l29 -19h10v324l-108 12l14 213h393v-1327l113 -8l-12 -201h-363l-24 72q-10 -12 -30 -30t-100 -50q-82 -31 -184 -31zM612 184q131 0 209 105v477q-19 26 -78 51t-118 25
q-139 0 -201 -77t-64 -245q0 -336 252 -336zM1272 1403q0 61 -8 102l22 133l207 -28q-24 -330 -104 -500l-172 27q55 111 55 266z" />
    <glyph glyph-name="Dcroat" unicode="&#x110;" horiz-adv-x="1568" 
d="M225 563h-184v193h184v364l-155 13l14 198h676q731 0 731 -647q0 -328 -185 -506t-544 -178h-678l-12 213l153 12v338zM760 1087h-219v-331h301v-193h-301v-319h223q207 0 303 108t96 330q0 221 -95 313t-308 92z" />
    <glyph glyph-name="dcroat" unicode="&#x111;" 
d="M520 -39q-213 1 -343 147t-130 392t127 403q127 158 346 158q90 -1 163 -19t99 -36l29 -19h10v227h-231v197h231v125h299v-125h156v-172l-146 -25h-10v-976l113 -11l-12 -227h-367l-23 70q-12 -16 -34 -35q-23 -18 -101 -46t-176 -28zM612 184q64 0 116 27t73 53l20 27
v475q-19 26 -78 51t-118 25q-264 0 -265 -344q0 -166 60 -240t192 -74z" />
    <glyph glyph-name="Emacron" unicode="&#x112;" horiz-adv-x="1273" 
d="M1159 969h-241l-11 129h-366v-316l536 2v-225h-536v-326h405l23 148l227 -14l-14 -367h-1098l-12 213l153 12v895l-155 13l14 198h809l266 15v-377zM946 1538h-504v152h504v-152z" />
    <glyph glyph-name="emacron" unicode="&#x113;" horiz-adv-x="1081" 
d="M627 180q73 0 137 29t92 57l29 27l137 -148q-10 -20 -54 -58q-143 -123 -356 -126q-266 0 -414 142q-148 143 -148 409t144 408t374 141q230 0 350 -118t120 -337q0 -91 -30 -160l-11 -20h-643q35 -246 273 -246zM573 852q-100 0 -153 -57t-68 -174h410q2 27 2 45
q-1 186 -191 186zM840 1262h-504v151h504v-151z" />
    <glyph glyph-name="Edotaccent" unicode="&#x116;" horiz-adv-x="1273" 
d="M1159 969h-241l-11 129h-366v-316l536 2v-225h-536v-326h405l23 148l227 -14l-14 -367h-1098l-12 213l153 12v895l-155 13l14 198h809l266 15v-377zM504 1612q0 70 46 114t129 46q83 0 128 -46t45 -117t-46 -115t-126 -44t-128 46t-48 116z" />
    <glyph glyph-name="edotaccent" unicode="&#x117;" horiz-adv-x="1081" 
d="M627 180q73 0 137 29t92 57l29 27l137 -148q-10 -20 -54 -58q-143 -123 -356 -126q-266 0 -414 142q-148 143 -148 409t144 408t374 141q230 0 350 -118t120 -337q0 -91 -30 -160l-11 -20h-643q35 -246 273 -246zM573 852q-100 0 -153 -57t-68 -174h410q2 27 2 45
q-1 186 -191 186zM745 1332q0 -70 -46 -114t-126 -44t-128 46t-48 116t46 114q46 45 129 45t128 -46t45 -117z" />
    <glyph glyph-name="Eogonek" unicode="&#x118;" horiz-adv-x="1273" 
d="M1167 -362v-150q-403 0 -403 270q0 137 160 242h-840l-12 213l153 12v895l-155 13l14 198h809l266 15v-377h-241l-11 129h-366v-316l536 2v-225h-536v-326h405l23 148l227 -14l-14 -367h-8q-70 -18 -134 -79q-63 -61 -63 -146t48 -111t142 -26z" />
    <glyph glyph-name="eogonek" unicode="&#x119;" horiz-adv-x="1081" 
d="M795 -362v-150q-403 0 -404 270q0 119 115 211q-217 27 -337 166t-120 391q1 252 145 394t374 141q230 0 350 -118t120 -337q0 -91 -30 -160l-11 -20h-643q35 -246 273 -246q73 0 137 29t92 57l29 27l137 -148q-10 -15 -30 -37t-92 -68q-73 -46 -157 -65
q-139 -68 -139 -213q0 -72 48 -98t143 -26zM573 852q-100 0 -153 -57t-68 -174h410q2 27 2 45q-1 186 -191 186z" />
    <glyph glyph-name="Ecaron" unicode="&#x11a;" horiz-adv-x="1273" 
d="M1159 969h-241l-11 129h-366v-316l536 2v-225h-536v-326h405l23 148l227 -14l-14 -367h-1098l-12 213l153 12v895l-155 13l14 198h809l266 15v-377zM1030 1636l-270 -188h-160l-272 188l94 170l256 -168l260 168z" />
    <glyph glyph-name="ecaron" unicode="&#x11b;" horiz-adv-x="1081" 
d="M627 180q73 0 137 29t92 57l29 27l137 -148q-10 -20 -54 -58q-143 -123 -356 -126q-266 0 -414 142q-148 143 -148 409t144 408t374 141q230 0 350 -118t120 -337q0 -91 -30 -160l-11 -20h-643q35 -246 273 -246zM573 852q-100 0 -153 -57t-68 -174h410q2 27 2 45
q-1 186 -191 186zM924 1360l-271 -189h-159l-273 189l94 170l256 -168l260 168z" />
    <glyph glyph-name="Gbreve" unicode="&#x11e;" horiz-adv-x="1470" 
d="M1247 883h-227l-21 176q-90 66 -213 65q-200 0 -290 -110t-90 -332q0 -221 105 -348t275 -127q229 0 279 145v123h-248v197h516v-672h-178l-33 104q-147 -143 -403 -143q-307 0 -473 196t-166 518q0 323 186 507t488 184q123 0 278 -90l35 70h180v-463zM830 1624
q54 0 98 28q43 28 51 54l8 27v6l246 -37q-2 -10 -5 -28t-29 -66q-25 -47 -65 -82t-124 -65q-84 -29 -193 -29t-191 28t-122 67q-87 85 -94 148l-7 27l248 37v-6q0 -13 16 -38q41 -71 163 -71z" />
    <glyph glyph-name="gbreve" unicode="&#x11f;" horiz-adv-x="1110" 
d="M559 293h-16q-76 0 -117 -31q-16 -12 -16 -32t14 -34q34 -36 242 -41t322 -79t114 -242t-130 -276t-402 -109t-401 105q-128 106 -128 277t168 243q-35 57 -35 146t82 153q-174 105 -174 301t142 292t322 95q180 0 290 -57l243 20l15 -217l-93 -6q16 -55 17 -117
q0 -184 -129 -288t-330 -103zM817 -186q0 79 -86 97q-46 10 -153 16q-107 7 -154 16q-104 -31 -104 -110t62 -124q64 -45 189 -45q246 0 246 150zM725 690q0 166 -176 166t-176 -172q0 -96 48 -146t129 -50t128 50q47 52 47 152zM374 1418q41 -70 150 -70t154 69
q12 19 16 39v6l246 -37q-2 -10 -5 -28q-3 -17 -29 -65t-66 -83t-123 -65q-84 -30 -193 -29q-108 0 -190 28q-82 27 -123 67q-84 81 -96 147l-4 28l247 37v-6q0 -11 16 -38z" />
    <glyph glyph-name="Gcommaaccent" unicode="&#x122;" horiz-adv-x="1470" 
d="M1247 883h-227l-21 176q-90 66 -213 65q-200 0 -290 -110t-90 -332q0 -221 105 -348t275 -127q229 0 279 145v123h-248v197h516v-672h-178l-33 104q-147 -143 -403 -143q-307 0 -473 196t-166 518q0 323 186 507t488 184q123 0 278 -90l35 70h180v-463zM744 -98
q42 0 84 -16t42 -33q58 -66 58 -165t-65 -208t-169 -178l-88 80q131 102 131 221q0 31 -4 45q-53 8 -84 42t-31 87t41 89q42 36 85 36z" />
    <glyph glyph-name="gcommaaccent" unicode="&#x123;" horiz-adv-x="1110" 
d="M559 293h-16q-76 0 -117 -31q-16 -12 -16 -32t14 -34q34 -36 242 -41t322 -79t114 -242t-130 -276t-402 -109t-401 105q-128 106 -128 277t168 243q-35 57 -35 146t82 153q-174 105 -174 301t142 292t322 95q180 0 290 -57l243 20l15 -217l-93 -6q16 -55 17 -117
q0 -184 -129 -288t-330 -103zM817 -186q0 79 -86 97q-46 10 -153 16q-107 7 -154 16q-104 -31 -104 -110t62 -124q64 -45 189 -45q246 0 246 150zM725 690q0 166 -176 166t-176 -172q0 -96 48 -146t129 -50t128 50q47 52 47 152zM641 1189q-41 -36 -100 -36t-97 32
q-14 11 -14 17q-57 66 -57 165t64 208q65 109 169 178l88 -80q-131 -102 -131 -221q0 -31 4 -45q53 -8 84 -42t31 -87t-41 -89z" />
    <glyph glyph-name="uni012A" unicode="&#x12a;" horiz-adv-x="765" 
d="M684 1331v-213l-143 -12v-897l155 -8l-12 -201h-600l-12 213l153 12v895l-155 13l14 198h600zM645 1538h-504v152h504v-152z" />
    <glyph glyph-name="imacron" unicode="&#x12b;" horiz-adv-x="636" 
d="M477 1024v-815l113 -8l-12 -201h-502l-15 213l115 12v574l-106 12l12 213h395zM592 1262h-504v151h504v-151z" />
    <glyph glyph-name="Iogonek" unicode="&#x12e;" horiz-adv-x="765" 
d="M532 -362v-150q-403 0 -403 270q0 137 160 242h-205l-12 213l153 12v895l-155 13l14 198h600v-213l-143 -12v-897l155 -8l-12 -201h-143q-24 -6 -64 -28q-135 -74 -135 -220q0 -62 48 -88t142 -26z" />
    <glyph glyph-name="iogonek" unicode="&#x12f;" horiz-adv-x="636" 
d="M467 -362v-150q-403 0 -404 270q0 137 160 242h-147l-15 213l115 12v574l-106 12l12 213h395v-815l113 -8l-12 -201h-103q-23 -6 -62 -27q-137 -75 -137 -211q0 -72 48 -98t143 -26zM498 1332q0 -70 -46 -114t-126 -44t-128 46t-48 116t46 114q46 45 129 45t128 -46
t45 -117z" />
    <glyph glyph-name="Idotaccent" unicode="&#x130;" horiz-adv-x="765" 
d="M684 1331v-213l-143 -12v-897l155 -8l-12 -201h-600l-12 213l153 12v895l-155 13l14 198h600zM209 1612q0 70 46 114t129 46q83 0 128 -46t45 -117t-46 -115t-126 -44t-128 46t-48 116z" />
    <glyph glyph-name="dotlessi" unicode="&#x131;" horiz-adv-x="636" 
d="M477 1024v-815l113 -8l-12 -201h-502l-15 213l115 12v574l-106 12l12 213h395z" />
    <glyph glyph-name="Kcommaaccent" unicode="&#x136;" horiz-adv-x="1531" 
d="M655 1331v-184l-114 -12v-383l133 59l276 332l-39 4v184h559v-213l-237 -10l-328 -385l398 -504l231 -6l-14 -213h-428l-91 72l-339 460l-121 -71v-238l155 -10l-12 -213h-600l-12 213l153 12v895l-155 13l14 198h571zM721 -98q43 0 85 -16t42 -33q57 -66 57 -165
q-1 -99 -65 -208t-168 -178l-88 80q131 102 131 221q0 31 -4 45q-53 8 -84 42t-31 87t41 89t84 36z" />
    <glyph glyph-name="kcommaaccent" unicode="&#x137;" horiz-adv-x="1198" 
d="M461 1536v-918l137 60l86 141l-43 6l12 199h480v-213l-205 -29l-150 -207l217 -342l199 -6l-14 -227h-351l-81 82l-226 358l-61 -26v-217l86 -11l-15 -186h-473l-12 213l113 12v1086l-107 12l15 213h393zM615 -98q43 0 85 -16t41 -33q57 -66 57 -165t-64 -208
q-65 -109 -169 -178l-88 80q131 102 131 221q0 31 -4 45q-53 8 -84 42t-31 87t41 89q42 36 85 36z" />
    <glyph glyph-name="Lacute" unicode="&#x139;" horiz-adv-x="1169" 
d="M684 1331v-213l-143 -12v-873h372l25 162l227 -12l-14 -383h-1067l-12 213l153 12v895l-155 13l14 198h600zM438 1448l-200 14l194 303l287 -32z" />
    <glyph glyph-name="lacute" unicode="&#x13a;" horiz-adv-x="620" 
d="M461 1536v-1327l114 -8l-14 -201h-502l-12 213l113 12v1086l-107 12l15 213h393zM418 1632l-201 15l195 303l286 -33z" />
    <glyph glyph-name="Lcommaaccent" unicode="&#x13b;" horiz-adv-x="1169" 
d="M684 1331v-213l-143 -12v-873h372l25 162l227 -12l-14 -383h-1067l-12 213l153 12v895l-155 13l14 198h600zM619 -98q43 0 85 -16t41 -33q57 -66 57 -165t-64 -208q-65 -109 -169 -178l-88 80q131 102 131 221q0 31 -4 45q-53 8 -84 42q-30 34 -30 87t41 89t84 36z" />
    <glyph glyph-name="lcommaaccent" unicode="&#x13c;" horiz-adv-x="620" 
d="M461 1536v-1327l114 -8l-14 -201h-502l-12 213l113 12v1086l-107 12l15 213h393zM299 -98q43 0 85 -16t42 -33q57 -66 57 -165q-1 -99 -65 -208t-168 -178l-88 80q131 102 131 221q0 31 -4 45q-53 8 -84 42t-31 87t41 89t84 36z" />
    <glyph glyph-name="Lcaron" unicode="&#x13d;" horiz-adv-x="1169" 
d="M684 1331v-213l-143 -12v-873h372l25 162l227 -12l-14 -383h-1067l-12 213l153 12v895l-155 13l14 198h600zM745 1636l-270 -188h-160l-272 188l94 170l256 -168l260 168z" />
    <glyph glyph-name="lcaron" unicode="&#x13e;" horiz-adv-x="620" 
d="M461 1536v-1327l114 -8l-14 -201h-502l-12 213l113 12v1086l-107 12l15 213h393zM616 1403q0 61 -8 102l23 133l207 -28q-25 -330 -105 -500l-172 27q55 111 55 266z" />
    <glyph glyph-name="Lslash" unicode="&#x141;" horiz-adv-x="1210" 
d="M719 1331v-213l-144 -12v-293l234 137l76 -125l-310 -180v-412h373l25 162l227 -12l-14 -383h-1067l-13 213l154 12v238l-123 -72l-78 123l201 117v489l-156 13l15 198h600z" />
    <glyph glyph-name="lslash" unicode="&#x142;" horiz-adv-x="737" 
d="M526 1536v-571l146 94l78 -121l-224 -145v-584l115 -8l-14 -201h-502l-12 213l112 12v373l-129 -82l-78 121l207 133v541l-106 12l14 213h393z" />
    <glyph glyph-name="Nacute" unicode="&#x143;" horiz-adv-x="1660" 
d="M1608 1331v-213l-142 -12v-1112l-317 -2l-647 893h-6l10 -121v-541l162 -10l-15 -213h-569l-12 213l153 12v895l-155 13l14 198h467l637 -911h4l-8 92v596l-162 10l14 213h572zM903 1448l-201 14l195 303l287 -32z" />
    <glyph glyph-name="nacute" unicode="&#x144;" horiz-adv-x="1308" 
d="M795 1061q375 0 374 -344v-508l113 -8l-12 -201h-402v662q0 84 -41 118t-119 35q-136 0 -208 -55l-23 -19v-532l113 -8l-12 -201h-502l-15 213l115 12v574l-106 12l12 213h356l25 -72h2q109 109 330 109zM715 1171l-201 15l195 303l286 -33z" />
    <glyph glyph-name="Ncommaaccent" unicode="&#x145;" horiz-adv-x="1660" 
d="M1608 1331v-213l-142 -12v-1112l-317 -2l-647 893h-6l10 -121v-541l162 -10l-15 -213h-569l-12 213l153 12v895l-155 13l14 198h467l637 -911h4l-8 92v596l-162 10l14 213h572zM805 -98q43 0 85 -16t42 -33q57 -66 57 -165q-1 -99 -65 -208t-168 -178l-88 80
q131 102 131 221q0 31 -4 45q-53 8 -84 42t-31 87t41 89t84 36z" />
    <glyph glyph-name="ncommaaccent" unicode="&#x146;" horiz-adv-x="1308" 
d="M795 1061q375 0 374 -344v-508l113 -8l-12 -201h-402v662q0 84 -41 118t-119 35q-136 0 -208 -55l-23 -19v-532l113 -8l-12 -201h-502l-15 213l115 12v574l-106 12l12 213h356l25 -72h2q109 109 330 109zM666 -98q43 0 83 -15t44 -34q57 -66 57 -165t-65 -208t-169 -178
l-88 80q131 102 131 221q0 31 -4 45q-53 8 -84 42t-31 87t42 89q41 36 84 36z" />
    <glyph glyph-name="Ncaron" unicode="&#x147;" horiz-adv-x="1660" 
d="M1608 1331v-213l-142 -12v-1112l-317 -2l-647 893h-6l10 -121v-541l162 -10l-15 -213h-569l-12 213l153 12v895l-155 13l14 198h467l637 -911h4l-8 92v596l-162 10l14 213h572zM1245 1636l-270 -188h-160l-272 188l94 170l256 -168l260 168z" />
    <glyph glyph-name="ncaron" unicode="&#x148;" horiz-adv-x="1308" 
d="M795 1061q375 0 374 -344v-508l113 -8l-12 -201h-402v662q0 84 -41 118t-119 35q-136 0 -208 -55l-23 -19v-532l113 -8l-12 -201h-502l-15 213l115 12v574l-106 12l12 213h356l25 -72h2q109 109 330 109zM997 1360l-270 -189h-160l-272 189l94 170l256 -168l260 168z" />
    <glyph glyph-name="Omacron" unicode="&#x14c;" horiz-adv-x="1558" 
d="M80 683q0 319 180 501t517 182t521 -182t185 -500q1 -320 -187 -522t-519 -201q-331 0 -514 201t-183 521zM1155 683q0 214 -97 328q-96 113 -280 113t-278 -114t-94 -327q0 -214 95 -347t276 -133t280 133q98 133 98 347zM1042 1538h-503v152h503v-152z" />
    <glyph glyph-name="omacron" unicode="&#x14d;" horiz-adv-x="1200" 
d="M600 1061q266 0 408 -141q142 -142 143 -398t-147 -408t-408 -153q-260 0 -403 151q-143 150 -143 408t141 400q143 142 409 141zM600 170q240 0 240 348q0 166 -56 250t-184 84q-240 0 -240 -341t240 -341zM866 1262h-504v151h504v-151z" />
    <glyph glyph-name="Ohungarumlaut" unicode="&#x150;" horiz-adv-x="1558" 
d="M80 683q0 319 180 501t517 182t521 -182t185 -500q1 -320 -187 -522t-519 -201q-331 0 -514 201t-183 521zM1155 683q0 214 -97 328q-96 113 -280 113t-278 -114t-94 -327q0 -214 95 -347t276 -133t280 133q98 133 98 347zM688 1466l-219 21l182 377l172 -68zM1055 1466
l-221 21l184 377l170 -68z" />
    <glyph glyph-name="ohungarumlaut" unicode="&#x151;" horiz-adv-x="1200" 
d="M600 1061q266 0 408 -141q142 -142 143 -398t-147 -408t-408 -153q-260 0 -403 151q-143 150 -143 408t141 400q143 142 409 141zM600 170q240 0 240 348q0 166 -56 250t-184 84q-240 0 -240 -341t240 -341zM512 1190l-219 20l182 377l172 -67zM879 1190l-222 20l185 377
l170 -67z" />
    <glyph glyph-name="OE" unicode="&#x152;" horiz-adv-x="2207" 
d="M2093 969h-242l-10 129h-368v-271l4 -45l532 2v-225h-534q-2 -6 -2 -18v-308h405l23 148l229 -14l-16 -367h-957v53q-162 -92 -381 -92q-330 0 -513 201t-183 521q0 319 180 501t516 182q221 0 381 -82v47h668l268 15v-377zM1155 683q0 214 -97 328q-96 113 -280 113
t-278 -114t-94 -327q0 -214 95 -347t276 -133t280 133q98 133 98 347z" />
    <glyph glyph-name="oe" unicode="&#x153;" horiz-adv-x="1875" 
d="M1421 180q72 0 137 29t93 57l28 27l138 -148q-9 -18 -54 -57q-144 -124 -356 -127q-268 0 -414 141q-147 -141 -402 -141t-398 151q-143 150 -143 408t141 400q143 142 403 141q260 0 403 -131q139 131 367 131t349 -118q120 -118 120 -337q0 -95 -31 -160l-10 -20h-643
q35 -246 272 -246zM600 170q240 0 240 348q0 166 -56 250t-184 84q-240 0 -240 -341t240 -341zM1368 852q-100 0 -154 -57t-67 -174h409q2 27 3 45q-1 186 -191 186z" />
    <glyph glyph-name="Racute" unicode="&#x154;" horiz-adv-x="1361" 
d="M684 1331q260 0 399 -103t140 -306q0 -136 -71 -242t-185 -172l194 -291l207 -4l-14 -213h-389l-74 66l-221 370h-152v-239l131 -11l-14 -186h-551l-12 213l153 27v880l-155 13l14 198h600zM631 1112h-113v-450h172q86 0 147 66q60 66 60 176t-63 159q-64 49 -203 49z
M735 1448l-200 14l194 303l287 -32z" />
    <glyph glyph-name="racute" unicode="&#x155;" horiz-adv-x="952" 
d="M486 957q91 106 214 106t187 -31l22 -8l2 -373h-215l-16 176h-31q-55 -1 -98 -29t-55 -47t-19 -36v-506l144 -8l-13 -201h-532l-15 213l115 12v574l-125 12l15 213h344l30 -123h6q4 5 10 17t30 39zM557 1171l-201 15l195 303l287 -33z" />
    <glyph glyph-name="Rcommaaccent" unicode="&#x156;" horiz-adv-x="1361" 
d="M684 1331q260 0 399 -103t140 -306q0 -136 -71 -242t-185 -172l194 -291l207 -4l-14 -213h-389l-74 66l-221 370h-152v-239l131 -11l-14 -186h-551l-12 213l153 27v880l-155 13l14 198h600zM631 1112h-113v-450h172q86 0 147 66q60 66 60 176t-63 159q-64 49 -203 49z
M697 -98q43 0 85 -16t41 -33q57 -66 57 -165t-64 -208q-65 -109 -169 -178l-88 80q131 102 131 221q0 31 -4 45q-53 8 -84 42t-31 87t41 89q42 36 85 36z" />
    <glyph glyph-name="rcommaaccent" unicode="&#x157;" horiz-adv-x="952" 
d="M486 957q91 106 214 106t187 -31l22 -8l2 -373h-215l-16 176h-31q-55 -1 -98 -29t-55 -47t-19 -36v-506l144 -8l-13 -201h-532l-15 213l115 12v574l-125 12l15 213h344l30 -123h6q4 5 10 17t30 39zM305 -98q43 0 85 -16t42 -33q57 -66 57 -165q-1 -99 -65 -208t-168 -178
l-88 80q131 102 131 221q0 31 -4 45q-53 8 -84 42t-31 87t41 89t84 36z" />
    <glyph glyph-name="Rcaron" unicode="&#x158;" horiz-adv-x="1361" 
d="M684 1331q260 0 399 -103t140 -306q0 -136 -71 -242t-185 -172l194 -291l207 -4l-14 -213h-389l-74 66l-221 370h-152v-239l131 -11l-14 -186h-551l-12 213l153 27v880l-155 13l14 198h600zM631 1112h-113v-450h172q86 0 147 66q60 66 60 176t-63 159q-64 49 -203 49z
M1018 1636l-270 -188h-160l-273 188l95 170l256 -168l260 168z" />
    <glyph glyph-name="rcaron" unicode="&#x159;" horiz-adv-x="952" 
d="M486 957q91 106 214 106t187 -31l22 -8l2 -373h-215l-16 176h-31q-55 -1 -98 -29t-55 -47t-19 -36v-506l144 -8l-13 -201h-532l-15 213l115 12v574l-125 12l15 213h344l30 -123h6q4 5 10 17t30 39zM840 1360l-271 -189h-159l-273 189l94 170l256 -168l261 168z" />
    <glyph glyph-name="Sacute" unicode="&#x15a;" horiz-adv-x="1183" 
d="M1059 956h-240l-14 131q-86 61 -174 61t-137 -41q-50 -41 -50 -111t70 -117t169 -82t199 -79t171 -126q70 -82 69 -199q0 -205 -138 -319t-386 -113q-131 0 -248 22t-168 42l-51 20l-6 373l225 14l27 -219q100 -29 188 -29q246 0 246 168q0 51 -50 90t-125 63
q-75 25 -163 61t-163 79t-125 124t-50 187q0 178 125 294t324 116q121 0 256 -86l41 66h178v-390zM705 1448l-201 14l194 303l287 -32z" />
    <glyph glyph-name="sacute" unicode="&#x15b;" horiz-adv-x="956" 
d="M514 858q-145 0 -145 -86q0 -43 56 -75q56 -33 135 -59t159 -60t136 -100q56 -67 56 -159q-1 -166 -117 -262t-366 -96q-178 0 -301 39l-39 12l-27 307l185 13l20 -146q82 -20 154 -20q182 0 182 117q0 73 -136 110t-257 102q-59 32 -98 94t-39 148q0 147 109 236
q111 88 253 88t260 -76l33 55h147l-2 -329h-196l-17 92q-74 55 -145 55zM567 1171l-200 15l194 303l287 -33z" />
    <glyph glyph-name="Scedilla" unicode="&#x15e;" horiz-adv-x="1183" 
d="M539 -379q92 0 92 82q0 60 -108 90q-36 10 -36 14l19 158q-106 7 -200 27t-134 37l-41 16l-6 373l225 14l27 -219q100 -29 188 -29q246 0 246 168q0 51 -50 90t-125 63q-75 25 -163 61t-163 79t-125 124t-50 187q0 178 125 294t324 116q121 0 256 -86l41 66h178v-390
h-240l-14 131q-86 61 -174 61t-137 -41q-50 -41 -50 -111t70 -117t169 -82t199 -79t171 -126q70 -82 69 -199q0 -195 -124 -307t-347 -123l-6 -76q0 -2 48 -17t95 -57q48 -42 48 -126q0 -85 -60 -143t-156 -58q-94 0 -153 19t-80 38l-20 19l41 108q61 -49 131 -49z" />
    <glyph glyph-name="scedilla" unicode="&#x15f;" horiz-adv-x="956" 
d="M418 -379q92 0 92 82q0 60 -108 90q-36 10 -35 14l18 154q-160 4 -262 39l-35 12l-27 307l185 13l20 -146q82 -20 154 -20q182 0 182 117q0 73 -136 110t-257 102q-59 32 -98 94t-39 148q0 147 109 236q111 88 253 88t260 -76l33 55h147l-2 -329h-196l-17 92
q-74 55 -145 55q-145 0 -145 -86q0 -43 56 -75q56 -33 135 -59t159 -60t136 -100q56 -67 56 -159q0 -315 -381 -352l-6 -80q0 -2 47 -17t95 -57t49 -126q-1 -85 -61 -143t-154 -58t-154 19q-59 19 -80 38l-20 19l41 108q61 -49 131 -49z" />
    <glyph glyph-name="Scaron" unicode="&#x160;" horiz-adv-x="1183" 
d="M1059 956h-240l-14 131q-86 61 -174 61t-137 -41q-50 -41 -50 -111t70 -117t169 -82t199 -79t171 -126q70 -82 69 -199q0 -205 -138 -319t-386 -113q-131 0 -248 22t-168 42l-51 20l-6 373l225 14l27 -219q100 -29 188 -29q246 0 246 168q0 51 -50 90t-125 63
q-75 25 -163 61t-163 79t-125 124t-50 187q0 178 125 294t324 116q121 0 256 -86l41 66h178v-390zM987 1636l-270 -188h-160l-272 188l94 170l256 -168l260 168z" />
    <glyph glyph-name="scaron" unicode="&#x161;" horiz-adv-x="956" 
d="M514 858q-145 0 -145 -86q0 -43 56 -75q56 -33 135 -59t159 -60t136 -100q56 -67 56 -159q-1 -166 -117 -262t-366 -96q-178 0 -301 39l-39 12l-27 307l185 13l20 -146q82 -20 154 -20q182 0 182 117q0 73 -136 110t-257 102q-59 32 -98 94t-39 148q0 147 109 236
q111 88 253 88t260 -76l33 55h147l-2 -329h-196l-17 92q-74 55 -145 55zM827 1360l-270 -189h-160l-272 189l94 170l256 -168l260 168z" />
    <glyph glyph-name="Tcommaaccent" unicode="&#x162;" horiz-adv-x="1226" 
d="M1235 928h-227l-19 170h-217v-875l156 -10l-15 -213h-598l-14 213l154 12v873h-213l-23 -170h-225l14 418l266 -15h693l268 15v-418zM607 -98q43 0 85 -16t41 -33q57 -66 57 -165t-64 -208q-65 -109 -169 -178l-88 80q131 102 131 221q0 31 -4 45q-53 8 -84 42t-31 87
t41 89q42 36 85 36z" />
    <glyph glyph-name="tcommaaccent" unicode="&#x163;" horiz-adv-x="776" 
d="M729 797h-270v-435q0 -166 116 -165l140 12v-191q-70 -41 -235 -41q-166 0 -244 72t-78 242v506h-115v213l117 10l43 311h256v-307h270v-227zM387 -98q43 0 85 -16t42 -33q57 -66 57 -165q-1 -99 -65 -208t-168 -178l-88 80q131 102 131 221q0 31 -4 45q-53 8 -84 42
t-31 87t41 89t84 36z" />
    <glyph glyph-name="Tcaron" unicode="&#x164;" horiz-adv-x="1226" 
d="M1235 928h-227l-19 170h-217v-875l156 -10l-15 -213h-598l-14 213l154 12v873h-213l-23 -170h-225l14 418l266 -15h693l268 15v-418zM965 1636l-271 -188h-159l-273 188l94 170l256 -168l260 168z" />
    <glyph glyph-name="tcaron" unicode="&#x165;" horiz-adv-x="776" 
d="M729 797h-270v-435q0 -166 116 -165l140 12v-191q-70 -41 -235 -41q-166 0 -244 72t-78 242v506h-115v213l117 10l43 311h256v-307h270v-227zM690 1403q0 61 -8 102l23 133l206 -28q-24 -330 -104 -500l-172 27q55 111 55 266z" />
    <glyph glyph-name="Umacron" unicode="&#x16a;" horiz-adv-x="1533" 
d="M492 567q0 -344 286 -344q150 0 220 92t69 252v541l-164 10l15 213h583v-198l-141 -17v-612q0 -240 -143 -392t-447 -151q-304 0 -449 153q-144 153 -145 390v616l-156 13l15 198h598v-198l-141 -13v-553zM1030 1538h-504v152h504v-152z" />
    <glyph glyph-name="umacron" unicode="&#x16b;" horiz-adv-x="1294" 
d="M534 -39q-200 0 -297 102t-98 287v449l-106 12l14 213h395v-618q0 -197 179 -197q59 0 112 18t76 37l22 19v516l-106 12l14 213h396v-815l112 -8l-14 -201h-363l-22 70h-4q-110 -109 -310 -109zM909 1262h-503v151h503v-151z" />
    <glyph glyph-name="Uring" unicode="&#x16e;" horiz-adv-x="1533" 
d="M492 567q0 -344 286 -344q150 0 220 92t69 252v541l-164 10l15 213h583v-198l-141 -17v-612q0 -240 -143 -392t-447 -151q-304 0 -449 153q-144 153 -145 390v616l-156 13l15 198h598v-198l-141 -13v-553zM762 1468q-110 0 -174 67q-66 67 -66 173t69 174t173 68t174 -68
t70 -173t-68 -173t-178 -68zM766 1599q47 0 76 31t28 80q0 49 -30 80q-31 31 -76 31t-75 -31t-30 -80t30 -80t77 -31z" />
    <glyph glyph-name="uring" unicode="&#x16f;" horiz-adv-x="1294" 
d="M534 -39q-200 0 -297 102t-98 287v449l-106 12l14 213h395v-618q0 -197 179 -197q59 0 112 18t76 37l22 19v516l-106 12l14 213h396v-815l112 -8l-14 -201h-363l-22 70h-4q-110 -109 -310 -109zM885 1431q0 -105 -68 -173q-67 -68 -177 -68t-176 66t-65 174q0 106 69 174
t173 68t174 -68t70 -173zM643 1321q47 0 76 31t29 80q0 50 -31 80t-76 30t-75 -31t-30 -79t30 -80q30 -31 77 -31z" />
    <glyph glyph-name="Uhungarumlaut" unicode="&#x170;" horiz-adv-x="1533" 
d="M492 567q0 -344 286 -344q150 0 220 92t69 252v541l-164 10l15 213h583v-198l-141 -17v-612q0 -240 -143 -392t-447 -151q-304 0 -449 153q-144 153 -145 390v616l-156 13l15 198h598v-198l-141 -13v-553zM647 1466l-219 21l182 377l172 -68zM1014 1466l-221 21l184 377
l170 -68z" />
    <glyph glyph-name="uhungarumlaut" unicode="&#x171;" horiz-adv-x="1294" 
d="M534 -39q-200 0 -297 102t-98 287v449l-106 12l14 213h395v-618q0 -197 179 -197q59 0 112 18t76 37l22 19v516l-106 12l14 213h396v-815l112 -8l-14 -201h-363l-22 70h-4q-110 -109 -310 -109zM555 1190l-219 20l182 377l172 -67zM922 1190l-222 20l185 377l170 -67z
" />
    <glyph glyph-name="Uogonek" unicode="&#x172;" horiz-adv-x="1533" 
d="M963 -362v-150q-403 0 -404 270q0 117 113 207q-252 25 -374 173t-122 366v616l-156 13l15 198h598v-198l-141 -13v-553q0 -344 286 -344q150 0 220 92t69 252v541l-164 10l15 213h583v-198l-141 -17v-612q0 -212 -112 -356t-347 -177q-129 -74 -129 -209q0 -72 48 -98
t143 -26z" />
    <glyph glyph-name="uogonek" unicode="&#x173;" horiz-adv-x="1294" 
d="M534 -39q-200 0 -297 102t-98 287v449l-106 12l14 213h395v-618q0 -197 179 -197q59 0 112 18t76 37l22 19v516l-106 12l14 213h396v-815l112 -8l-14 -201h-105q-23 -6 -62 -27q-138 -76 -136 -211q0 -72 48 -98t142 -26v-150q-403 0 -403 270q0 137 160 242h-7l-22 70
h-4q-110 -109 -310 -109z" />
    <glyph glyph-name="Ydieresis" unicode="&#x178;" horiz-adv-x="1357" 
d="M842 1331h553v-213l-183 -8l-362 -594v-293l158 -10l-15 -213h-598l-14 213l154 12v289l-383 610l-193 9l14 198h594v-198l-69 -7l211 -346h2l194 336l-63 2v213zM498 1753q68 0 110 -39t41 -97q0 -57 -36 -103q-35 -46 -115 -46t-116 46t-36 102t42 96q42 41 110 41z
M934 1753q68 0 110 -39t41 -97q0 -58 -35 -104q-36 -45 -116 -45t-116 46t-36 102t42 96q42 41 110 41z" />
    <glyph glyph-name="Zacute" unicode="&#x179;" horiz-adv-x="1310" 
d="M90 0v203l713 895h-438l-15 -129h-241l14 377l266 -15h815v-205l-710 -893h487l25 148l227 -14l-16 -367h-1127zM737 1448l-200 14l194 303l287 -32z" />
    <glyph glyph-name="zacute" unicode="&#x17a;" horiz-adv-x="1015" 
d="M55 0v195l516 612h-266l-14 -127h-211l14 358l240 -14h620v-195l-516 -612h277l24 148l211 -15l-14 -350h-881zM612 1171l-200 15l194 303l287 -33z" />
    <glyph glyph-name="Zdotaccent" unicode="&#x17b;" horiz-adv-x="1310" 
d="M90 0v203l713 895h-438l-15 -129h-241l14 377l266 -15h815v-205l-710 -893h487l25 148l227 -14l-16 -367h-1127zM500 1612q0 70 46 114t129 46q83 0 128 -46t45 -117t-46 -115t-126 -44t-128 46t-48 116z" />
    <glyph glyph-name="zdotaccent" unicode="&#x17c;" horiz-adv-x="1015" 
d="M55 0v195l516 612h-266l-14 -127h-211l14 358l240 -14h620v-195l-516 -612h277l24 148l211 -15l-14 -350h-881zM715 1332q0 -70 -46 -114t-126 -44t-128 46t-48 116t46 114q46 45 129 45t128 -46t45 -117z" />
    <glyph glyph-name="Zcaron" unicode="&#x17d;" horiz-adv-x="1310" 
d="M90 0v203l713 895h-438l-15 -129h-241l14 377l266 -15h815v-205l-710 -893h487l25 148l227 -14l-16 -367h-1127zM1020 1636l-270 -188h-160l-273 188l95 170l256 -168l260 168z" />
    <glyph glyph-name="zcaron" unicode="&#x17e;" horiz-adv-x="1015" 
d="M55 0v195l516 612h-266l-14 -127h-211l14 358l240 -14h620v-195l-516 -612h277l24 148l211 -15l-14 -350h-881zM893 1360l-270 -189h-160l-273 189l95 170l256 -168l260 168z" />
    <glyph glyph-name="longs" unicode="&#x17f;" horiz-adv-x="638" 
d="M574 1356q-60 0 -86 -42t-25 -155v-950l115 -10l-15 -199h-502l-12 213l113 12v965q0 176 87 279t249 104q90 0 207 -74l30 51h166l-2 -340h-209l-14 107q-42 39 -102 39z" />
    <glyph glyph-name="florin" unicode="&#x192;" horiz-adv-x="819" 
d="M604 1356q-51 0 -77 -43t-25 -154v-135h309v-227h-309v-871q0 -244 -113 -360t-274 -117q-81 0 -143 13t-83 26l-18 14l76 228q70 -23 135 -23q119 0 119 219v871h-113v213l113 12v2h2v166q0 383 307 383q86 0 201 -68l16 45h193l-2 -340h-211l-13 119q-39 27 -90 27z
" />
    <glyph glyph-name="dotlessj" unicode="&#x237;" horiz-adv-x="606" 
d="M49 -293q59 -1 93 63t34 177v852l-106 12l14 213h391v-1077q0 -246 -114 -372t-271 -126q-84 0 -144 13t-81 26l-19 14l76 228q68 -23 127 -23z" />
    <glyph glyph-name="circumflex" unicode="&#x2c6;" horiz-adv-x="829" 
d="M668 1186l-256 164l-254 -164l-92 168l268 188h160l266 -188z" />
    <glyph glyph-name="caron" unicode="&#x2c7;" horiz-adv-x="829" 
d="M764 1360l-270 -189h-160l-273 189l95 170l256 -168l260 168z" />
    <glyph glyph-name="breve" unicode="&#x2d8;" horiz-adv-x="888" 
d="M442 1155q-108 0 -190 28q-82 27 -123 67q-84 81 -96 147l-4 28l247 37v-6q0 -9 16 -38q41 -70 150 -70t154 69q12 19 16 39v6l246 -37q-2 -10 -5 -28q-3 -17 -29 -65t-66 -83t-123 -65q-84 -30 -193 -29z" />
    <glyph glyph-name="dotaccent" unicode="&#x2d9;" horiz-adv-x="946" 
d="M696 1332q0 -70 -46 -114t-126 -44t-128 46t-48 116t46 114q46 45 129 45t128 -46t45 -117z" />
    <glyph glyph-name="ring" unicode="&#x2da;" horiz-adv-x="980" 
d="M590 1431q0 -105 -68 -173t-178 -68t-174 66q-66 66 -66 174q0 106 69 174t173 68t174 -68t70 -173zM348 1321q47 0 76 31t29 80q0 50 -31 80t-76 30t-75 -31q-29 -31 -29 -79t30 -80q30 -31 76 -31z" />
    <glyph glyph-name="ogonek" unicode="&#x2db;" horiz-adv-x="569" 
d="M471 -362v-150q-403 0 -403 270q0 62 36 120t85 94q114 82 188 102l35 12l67 -86q-23 -6 -62 -27q-40 -22 -67 -47q-26 -24 -48 -68t-22 -106t49 -88q48 -26 142 -26z" />
    <glyph glyph-name="tilde" unicode="&#x2dc;" horiz-adv-x="995" 
d="M730 1415q72 0 124 37l37 -147q-1 -11 -17 -33q-56 -74 -162 -74t-223 51t-169 51q-101 0 -156 -47l-23 -16l-37 164q59 118 230 121q92 0 208 -54t188 -53z" />
    <glyph glyph-name="hungarumlaut" unicode="&#x2dd;" horiz-adv-x="976" 
d="M287 1190l-219 20l182 377l172 -67zM653 1190l-221 20l184 377l170 -67z" />
    <glyph glyph-name="tonos" unicode="&#x384;" horiz-adv-x="550" 
d="M319 1151l-141 39l129 414l197 -62z" />
    <glyph glyph-name="dieresistonos" unicode="&#x385;" horiz-adv-x="550" 
d="M745 1338q0 -66 -43 -106q-44 -40 -108 -40t-107 42t-43 101t42 101t106 41q64 0 109 -37q44 -36 44 -102zM-176 1335q0 59 42 101t107 41q65 0 109 -38q44 -37 43 -101q0 -64 -41 -105t-109 -41q-67 0 -109 42t-42 101zM295 1151l-141 39l129 414l196 -62z" />
    <glyph glyph-name="Alphatonos" unicode="&#x386;" horiz-adv-x="1665" 
d="M1104 0v170l113 12l-72 183h-492l-65 -170l129 -11l-15 -184h-518l-12 213l143 10l406 1108h409l404 -1124l139 -6l-12 -201h-557zM905 1087h-4l-180 -528h358zM381 1151l-141 39l129 414l196 -62z" />
    <glyph glyph-name="Epsilontonos" unicode="&#x388;" horiz-adv-x="1454" 
d="M1337 969h-241l-11 129h-366v-316l536 2v-225h-536v-326h405l23 148l227 -14l-14 -367h-1098l-12 213l153 12v895l-155 13l14 198h809l266 15v-377zM147 1151l-141 39l129 414l197 -62z" />
    <glyph glyph-name="Etatonos" unicode="&#x389;" horiz-adv-x="1812" 
d="M862 1331v-213l-143 -12v-328h553v328l-156 12l14 213h601v-213l-144 -12v-897l156 -8l-14 -201h-599l-14 213l156 12v328h-553v-330l155 -10l-12 -213h-600l-12 213l153 12v895l-155 13l14 198h600zM147 1151l-141 39l129 414l197 -62z" />
    <glyph glyph-name="Iotatonos" unicode="&#x38a;" horiz-adv-x="944" 
d="M862 1331v-213l-143 -12v-897l155 -8l-12 -201h-600l-12 213l153 12v895l-155 13l14 198h600zM147 1151l-141 39l129 414l197 -62z" />
    <glyph glyph-name="Omicrontonos" unicode="&#x38c;" horiz-adv-x="1738" 
d="M1661 684q0 -320 -187 -522q-186 -202 -518 -201q-332 0 -515 201t-183 521q0 319 180 501t517 182t522 -181q184 -181 184 -501zM1333 683q0 214 -97 328q-96 113 -280 113t-278 -114t-94 -327q0 -214 95 -347t276 -133t280 133q98 133 98 347zM223 1151l-141 39
l129 414l197 -62z" />
    <glyph glyph-name="Upsilontonos" unicode="&#x38e;" horiz-adv-x="1536" 
d="M745 1331v-198l-69 -7l211 -346h2l194 336l-63 2v213h553v-213l-182 -8l-363 -594v-293l158 -10l-15 -213h-598l-14 213l154 12v289l-383 610l-193 9l15 198h593zM43 1151l-141 39l129 414l196 -62z" />
    <glyph glyph-name="Omegatonos" unicode="&#x38f;" horiz-adv-x="1738" 
d="M270 782q0 266 184 425t506 159q320 0 503 -159t184 -425q0 -123 -42 -222q-42 -100 -114 -162q-130 -112 -272 -162l16 -13h252l22 84l158 -14l-16 -293h-598l-17 381q33 11 90 51q56 39 93 82t67 117q31 74 31 160q0 161 -92 247q-91 86 -265 86t-267 -87t-93 -246
q0 -86 29 -160t69 -118q84 -91 154 -120l29 -12l-15 -381h-600l-14 293l156 14l22 -84h254l14 13q-148 51 -273 162q-71 62 -113 162t-42 222zM229 1151l-141 39l129 414l197 -62z" />
    <glyph glyph-name="iotadieresistonos" unicode="&#x390;" horiz-adv-x="636" 
d="M492 1335q0 59 42 101t107 41q65 0 109 -38q44 -37 43 -101q0 -64 -41 -105t-109 -41q-67 0 -109 42t-42 101zM172 1338q0 -64 -41 -105t-109 -41t-109 42q-42 42 -42 101t42 101q41 42 107 41q66 0 109 -38q43 -37 43 -101zM477 1024v-815l113 -8l-12 -201h-502l-15 213
l115 12v574l-106 12l12 213h395zM336 1151l-141 39l129 414l196 -62z" />
    <glyph glyph-name="Alpha" unicode="&#x391;" horiz-adv-x="1486" 
d="M926 0v170l112 12l-71 183h-492l-65 -170l129 -11l-15 -184h-518l-12 213l143 10l406 1108h409l404 -1124l139 -6l-12 -201h-557zM727 1087h-4l-180 -528h358z" />
    <glyph glyph-name="Beta" unicode="&#x392;" horiz-adv-x="1343" 
d="M715 0h-631l-12 213l153 12v895l-155 13l14 198h618q256 0 375 -95t119 -249t-156 -268q223 -88 224 -301q0 -186 -136 -302t-413 -116zM762 580h-256v-361h192q260 0 260 199q0 88 -49 125t-147 37zM506 778h239q61 0 109 46q47 46 47 136t-53 122t-162 32h-180v-336z
" />
    <glyph glyph-name="Gamma" unicode="&#x393;" horiz-adv-x="1067" 
d="M1102 901h-242l-12 197h-307v-889l176 -8l-12 -201h-621l-12 213l153 12v895l-155 13l14 198h750l268 15v-445z" />
    <glyph glyph-name="Delta" unicode="&#x394;" horiz-adv-x="1456" 
d="M1386 0h-1316v238l456 1093h410l450 -1093v-238zM717 1100h-2l-348 -850h696z" />
    <glyph glyph-name="Epsilon" unicode="&#x395;" horiz-adv-x="1273" 
d="M1159 969h-241l-11 129h-366v-316l536 2v-225h-536v-326h405l23 148l227 -14l-14 -367h-1098l-12 213l153 12v895l-155 13l14 198h809l266 15v-377z" />
    <glyph glyph-name="Zeta" unicode="&#x396;" horiz-adv-x="1310" 
d="M90 0v203l713 895h-438l-15 -129h-241l14 377l266 -15h815v-205l-710 -893h487l25 148l227 -14l-16 -367h-1127z" />
    <glyph glyph-name="Eta" unicode="&#x397;" horiz-adv-x="1634" 
d="M684 1331v-213l-143 -12v-328h553v328l-156 12l14 213h600v-213l-143 -12v-897l156 -8l-15 -201h-598l-14 213l156 12v328h-553v-330l155 -10l-12 -213h-600l-12 213l153 12v895l-155 13l14 198h600z" />
    <glyph glyph-name="Theta" unicode="&#x398;" horiz-adv-x="1558" 
d="M1034 547h-508v231h508v-231zM80 683q0 319 180 501t517 182t521 -182t185 -500q1 -320 -187 -522t-519 -201q-331 0 -514 201t-183 521zM1155 683q0 214 -97 328q-96 113 -280 113t-278 -114t-94 -327q0 -214 95 -347t276 -133t280 133q98 133 98 347z" />
    <glyph glyph-name="Iota" unicode="&#x399;" horiz-adv-x="765" 
d="M684 1331v-213l-143 -12v-897l155 -8l-12 -201h-600l-12 213l153 12v895l-155 13l14 198h600z" />
    <glyph glyph-name="Kappa" unicode="&#x39a;" horiz-adv-x="1531" 
d="M655 1331v-184l-114 -12v-383l133 59l276 332l-39 4v184h559v-213l-237 -10l-328 -385l398 -504l231 -6l-14 -213h-428l-91 72l-339 460l-121 -71v-238l155 -10l-12 -213h-600l-12 213l153 12v895l-155 13l14 198h571z" />
    <glyph glyph-name="Lambda" unicode="&#x39b;" horiz-adv-x="1445" 
d="M885 0v184l114 23l-286 876h-4l-291 -878l135 -8l-14 -197h-533l-12 213l139 10l389 1108h410l389 -1124l133 -6l-12 -201h-557z" />
    <glyph glyph-name="Mu" unicode="&#x39c;" horiz-adv-x="2136" 
d="M2052 1331v-213l-143 -12l2 -883l157 -10l-14 -213h-559l-14 184l127 13l-2 706h-9l-393 -903h-293l-395 903h-8l-2 -706l133 -13l-14 -184h-541l-12 213l153 12l2 895l-153 13l14 198h545l438 -1001h10l428 1001h543z" />
    <glyph glyph-name="Nu" unicode="&#x39d;" horiz-adv-x="1660" 
d="M1608 1331v-213l-142 -12v-1112l-317 -2l-647 893h-6l10 -121v-541l162 -10l-15 -213h-569l-12 213l153 12v895l-155 13l14 198h467l637 -911h4l-8 92v596l-162 10l14 213h572z" />
    <glyph glyph-name="Xi" unicode="&#x39e;" horiz-adv-x="1310" 
d="M1217 0h-1125l-16 367l213 14l20 -131h690l21 131l213 -14zM289 971h-213l16 360h1139l2 -360h-213l-19 110h-694zM977 551h-645v229h645v-229z" />
    <glyph glyph-name="Omicron" unicode="&#x39f;" horiz-adv-x="1558" 
d="M80 683q0 319 180 501t517 182t521 -182t185 -500q1 -320 -187 -522t-519 -201q-331 0 -514 201t-183 521zM1155 683q0 214 -97 328q-96 113 -280 113t-278 -114t-94 -327q0 -214 95 -347t276 -133t280 133q98 133 98 347z" />
    <glyph glyph-name="Pi" unicode="&#x3a0;" horiz-adv-x="1597" 
d="M1516 1331v-198l-144 -13v-897l156 -10l-12 -213h-601l-12 213l154 12v873h-516v-875l155 -10l-14 -213h-598l-12 213l153 12v895l-155 13l14 198h1432z" />
    <glyph glyph-name="Rho" unicode="&#x3a1;" horiz-adv-x="1269" 
d="M682 1331q541 0 541 -428q0 -123 -48 -219t-127 -154q-163 -119 -360 -116h-170v-217l193 -11l-15 -186h-612l-12 213l153 12v895l-155 13l14 198h598zM629 1112h-111v-487h111q121 0 193 62q72 63 73 193t-69 181t-197 51z" />
    <glyph glyph-name="Sigma" unicode="&#x3a3;" horiz-adv-x="1234" 
d="M1157 956h-239l-13 142h-391l289 -422l-334 -426h475l21 131l227 -14l-16 -367h-1084v229l359 435l-316 448v219h754l268 15v-390z" />
    <glyph glyph-name="Tau" unicode="&#x3a4;" horiz-adv-x="1226" 
d="M1235 928h-227l-19 170h-217v-875l156 -10l-15 -213h-598l-14 213l154 12v873h-213l-23 -170h-225l14 418l266 -15h693l268 15v-418z" />
    <glyph glyph-name="Upsilon" unicode="&#x3a5;" horiz-adv-x="1357" 
d="M842 1331h553v-213l-183 -8l-362 -594v-293l158 -10l-15 -213h-598l-14 213l154 12v289l-383 610l-193 9l14 198h594v-198l-69 -7l211 -346h2l194 336l-63 2v213z" />
    <glyph glyph-name="Phi" unicode="&#x3a6;" horiz-adv-x="1705" 
d="M49 723q0 223 169 312t493 93v76l-154 13l14 172h564v-172l-142 -13v-76q316 -4 478 -85q186 -90 186 -318q0 -438 -664 -444v-82l185 -11l-15 -188h-620l-13 188l181 13v80q-662 6 -662 442zM1331 715q0 131 -76 177t-262 48v-467q182 3 260 57t78 185zM375 715
q0 -131 77 -185t259 -57v467q-188 -2 -262 -48t-74 -177z" />
    <glyph glyph-name="Chi" unicode="&#x3a7;" horiz-adv-x="1478" 
d="M870 1331h580v-213l-211 -8l-313 -436l329 -455l226 -6l-15 -213h-610v199l43 2l-172 254h-2l-166 -240l49 -2v-213h-594l-14 213l223 10l324 439l-330 460l-209 11l12 198h598v-198l-43 -5l170 -249h3l165 237l-43 2v213z" />
    <glyph glyph-name="Psi" unicode="&#x3a8;" horiz-adv-x="1783" 
d="M438 1331v-327q0 -170 77 -268t237 -103v530l-150 13l12 213h562v-213l-140 -13v-530q309 8 310 342v356h423v-198l-108 -13v-190q0 -246 -150 -392t-475 -151v-164l158 -10l-14 -213h-568l-14 213l154 12v162q-324 4 -477 163t-152 406v164l-156 13l15 198h456z" />
    <glyph glyph-name="Omega" unicode="&#x3a9;" horiz-adv-x="1558" 
d="M92 782q0 266 184 425t505 159t504 -159t183 -425q0 -123 -42 -222t-113 -162q-131 -113 -273 -162l17 -13h252l22 84l158 -14l-16 -293h-599l-16 381q34 11 89 51q56 39 93 82t68 117t31 160q0 161 -92 247q-91 86 -265 86t-267 -87t-93 -246q0 -86 29 -160t69 -118
q84 -91 154 -120l28 -12l-14 -381h-600l-14 293l155 14l23 -84h254l14 13q-148 51 -273 162q-71 62 -113 162t-42 222z" />
    <glyph glyph-name="Iotadieresis" unicode="&#x3aa;" horiz-adv-x="765" 
d="M684 1331v-213l-143 -12v-897l155 -8l-12 -201h-600l-12 213l153 12v895l-155 13l14 198h600zM598 1784q68 0 110 -40t42 -97q0 -58 -36 -103t-116 -45t-116 46t-36 101q0 54 42 96t110 42zM162 1784q68 0 110 -40t41 -97q1 -58 -35 -103t-116 -45t-116 46t-36 101
q0 54 42 96t110 42z" />
    <glyph glyph-name="Upsilondieresis" unicode="&#x3ab;" horiz-adv-x="1357" 
d="M842 1331h553v-213l-183 -8l-362 -594v-293l158 -10l-15 -213h-598l-14 213l154 12v289l-383 610l-193 9l14 198h594v-198l-69 -7l211 -346h2l194 336l-63 2v213zM498 1753q68 0 110 -39t41 -97q0 -57 -36 -103q-35 -46 -115 -46t-116 46t-36 102t42 96q42 41 110 41z
M934 1753q68 0 110 -39t41 -97q0 -58 -35 -104q-36 -45 -116 -45t-116 46t-36 102t42 96q42 41 110 41z" />
    <glyph glyph-name="alphatonos" unicode="&#x3ac;" 
d="M522 -39q-209 0 -341 157q-132 156 -132 402t130 393t366 148q85 0 153 -23t95 -47l26 -22h15l18 55h268v-815l115 -8l-14 -201h-361l-29 82q-13 -18 -37 -40t-100 -52t-172 -29zM612 184q105 0 178 77q20 20 31 42v445l-2 4l-19 19q-71 71 -173 71q-141 0 -203 -77
t-64 -245q0 -336 252 -336zM657 1151l-141 39l129 414l197 -62z" />
    <glyph glyph-name="epsilontonos" unicode="&#x3ad;" horiz-adv-x="987" 
d="M707 422h-181q-88 0 -131 -25t-43 -87t64 -102q64 -38 156 -38q94 0 170 31t106 61l33 31l92 -146q-11 -21 -54 -59q-144 -125 -371 -126q-226 -1 -361 93q-134 94 -134 263t180 227q-129 84 -129 223t109 216t244 77t243 -78l27 57h180l-2 -329h-225l-12 98
q-53 49 -121 49t-110 -31t-42 -87t31 -88t61 -38l33 -6l187 2v-188zM528 1151l-141 39l129 414l197 -62z" />
    <glyph glyph-name="etatonos" unicode="&#x3ae;" 
d="M700 1151l-141 39l129 414l197 -62zM795 1061q375 0 374 -346v-1227h-301v1171q0 84 -41 120t-119 36t-132 -18t-76 -37l-23 -19v-532l113 -8l-12 -201h-502l-15 213l115 12v574l-106 12l12 213h356l23 -72h4q109 109 330 109z" />
    <glyph glyph-name="iotatonos" unicode="&#x3af;" horiz-adv-x="636" 
d="M477 1024v-815l113 -8l-12 -201h-502l-15 213l115 12v574l-106 12l12 213h395zM375 1151l-142 39l129 414l197 -62z" />
    <glyph glyph-name="upsilondieresistonos" unicode="&#x3b0;" horiz-adv-x="1245" 
d="M953 1192q-79 0 -115 46t-35 101q0 55 42 97t107 41q66 0 110 -38q44 -37 44 -97t-37 -105t-116 -45zM485 1342q-1 -60 -37 -105t-115 -45t-115 46t-36 101t42 97t108 41q66 0 109 -38q44 -37 44 -97zM834 403v396l-109 12l14 213h396v-645q0 -190 -125 -304t-373 -114
t-373 114t-125 304v420l-106 12l14 213h395v-621q0 -94 50 -153q50 -60 145 -60q93 0 145 60t52 153zM647 1151l-141 39l129 414l196 -62z" />
    <glyph glyph-name="alpha" unicode="&#x3b1;" 
d="M522 -39q-209 0 -341 157q-132 156 -132 402t130 393t366 148q85 0 153 -23t95 -47l26 -22h15l18 55h268v-815l115 -8l-14 -201h-361l-29 82q-13 -18 -37 -40t-100 -52t-172 -29zM612 184q105 0 178 77q20 20 31 42v445l-2 4l-19 19q-71 71 -173 71q-141 0 -203 -77
t-64 -245q0 -336 252 -336z" />
    <glyph glyph-name="beta" unicode="&#x3b2;" horiz-adv-x="1257" 
d="M432 -512h-303v1602q0 248 131 366q130 118 356 117q226 0 352 -99q126 -100 126 -278t-170 -317q281 -98 280 -402q0 -217 -133 -367t-342 -149q-100 0 -173 25t-95 49l-23 24h-6v-571zM891 496q0 135 -67 187t-234 52v207q128 32 182 138q23 44 23 98q0 176 -170 176
q-105 0 -149 -75t-44 -226v-791q26 -39 80 -60q53 -21 111 -22q125 0 197 90t71 226z" />
    <glyph glyph-name="gamma" unicode="&#x3b3;" horiz-adv-x="1140" 
d="M729 -512h-303v512l-311 801l-150 10l15 213h387l213 -731h8l157 506l-79 16l12 209h485v-213l-135 -12l-299 -799v-512z" />
    <glyph glyph-name="delta" unicode="&#x3b4;" horiz-adv-x="1200" 
d="M600 1061q266 0 408 -141q142 -142 143 -398t-147 -408t-408 -153q-260 0 -403 151t-144 410q0 340 244 471q-96 100 -96 248t128 240t320 92q137 0 297 -31l107 10v-327h-201l-14 90q-123 12 -185 12q-201 0 -200 -131q-1 -61 39 -95t102 -40h10zM600 170q240 0 240 348
q0 166 -56 250t-184 84q-240 0 -240 -341t240 -341z" />
    <glyph glyph-name="epsilon" unicode="&#x3b5;" horiz-adv-x="987" 
d="M707 422h-181q-88 0 -131 -25t-43 -87t64 -102q64 -38 156 -38q94 0 170 31t106 61l33 31l92 -146q-11 -21 -54 -59q-144 -125 -371 -126q-226 -1 -361 93q-134 94 -134 263t180 227q-129 84 -129 223t109 216t244 77t243 -78l27 57h180l-2 -329h-225l-12 98
q-53 49 -121 49t-110 -31t-42 -87t31 -88t61 -38l33 -6l187 2v-188z" />
    <glyph glyph-name="zeta" unicode="&#x3b6;" horiz-adv-x="966" 
d="M969 1536v-203q-268 -295 -357 -413q-203 -274 -202 -494q0 -117 91 -167t230 -50q258 0 258 -201q0 -84 -17 -177t-36 -144l-18 -52l-226 27q45 156 45 252q0 47 -29 67q-30 19 -126 19q-203 0 -333 81q-153 92 -153 337q0 342 516 885h-305l-237 -15l-15 285l201 14
l8 -51h705z" />
    <glyph glyph-name="eta" unicode="&#x3b7;" 
d="M795 1061q375 0 374 -346v-1227h-301v1171q0 84 -41 120t-119 36t-132 -18t-76 -37l-23 -19v-532l113 -8l-12 -201h-502l-15 213l115 12v574l-106 12l12 213h356l23 -72h4q109 109 330 109z" />
    <glyph glyph-name="theta" unicode="&#x3b8;" horiz-adv-x="1216" 
d="M608 -39q-274 0 -412 210t-139 609q0 793 551 793t551 -793q-1 -399 -139 -609t-412 -210zM607 1366q-128 0 -180 -109t-58 -374h477q-6 267 -58 375t-181 108zM608 168q123 0 175 111t63 368h-475q8 -255 61 -367t176 -112z" />
    <glyph glyph-name="iota" unicode="&#x3b9;" horiz-adv-x="636" 
d="M477 1024v-815l113 -8l-12 -201h-502l-15 213l115 12v574l-106 12l12 213h395z" />
    <glyph glyph-name="kappa" unicode="&#x3ba;" horiz-adv-x="1214" 
d="M477 1024v-406l141 60l78 143l-41 4l15 199h473v-213l-199 -29l-145 -207l215 -342l196 -6l-14 -227h-350l-82 84l-221 358l-66 -28v-217l86 -11l-14 -186h-473l-15 213l115 12v574l-135 12l14 213h422z" />
    <glyph glyph-name="lambda" unicode="&#x3bb;" horiz-adv-x="1171" 
d="M1188 0h-486l-14 209l96 18l-135 453h-8l-283 -680h-364l-12 213l159 8l385 801q-49 172 -87 244t-97 71l-98 -16l8 215q98 37 174 37q129 0 210 -114t171 -390l276 -846l105 -10v-213z" />
    <glyph glyph-name="mu" unicode="&#x3bc;" horiz-adv-x="1312" 
d="M532 -39q-41 0 -75 6q4 -319 4 -479h-303v1311l-107 12l15 213h395v-618q0 -197 178 -197q59 0 113 18t75 37l23 19v516l-107 12l15 213h395v-815l113 -8l-15 -201h-362l-23 70h-4q-109 -109 -330 -109z" />
    <glyph glyph-name="nu" unicode="&#x3bd;" horiz-adv-x="1140" 
d="M666 1024h497v-213l-135 -12l-299 -799h-319l-299 801l-146 10l15 213h387l213 -709h8l157 490l-79 6v213z" />
    <glyph glyph-name="xi" unicode="&#x3be;" horiz-adv-x="997" 
d="M768 209q112 0 178 -52q66 -51 66 -141t-29 -184t-57 -145l-29 -52l-186 27q47 162 47 230t-27 88t-101 20q-278 0 -442 136q-59 50 -97 136t-38 197q0 279 264 373q-184 125 -184 348q0 182 122 282t290 101q104 0 213 -76l33 55h178l-2 -362h-226l-12 121
q-63 45 -129 45q-168 0 -168 -195q0 -119 79 -175t179 -60l180 2v-211l-200 2q-164 -7 -233 -61t-69 -194t106 -198q105 -58 294 -57z" />
    <glyph glyph-name="omicron" unicode="&#x3bf;" horiz-adv-x="1200" 
d="M600 1061q266 0 408 -141q142 -142 143 -398t-147 -408t-408 -153q-260 0 -403 151q-143 150 -143 408t141 400q143 142 409 141zM600 170q240 0 240 348q0 166 -56 250t-184 84q-240 0 -240 -341t240 -341z" />
    <glyph glyph-name="pi" unicode="&#x3c0;" horiz-adv-x="1325" 
d="M848 0v799h-371v-588l113 -10l-12 -201h-502l-15 213l115 12v572l-106 14l12 213h1159v-213l-92 -14v-586l113 -10l-13 -201h-401z" />
    <glyph glyph-name="rho" unicode="&#x3c1;" horiz-adv-x="1230" 
d="M410 -512h-299v1104q0 223 134 347q133 124 399 124t402 -132t136 -381t-128 -418t-345 -169q-90 1 -163 21t-100 41l-28 22h-8v-559zM410 618v-350q19 -32 77 -63t117 -31q266 0 266 375q0 167 -57 235t-190 68q-213 -1 -213 -234z" />
    <glyph glyph-name="sigma1" unicode="&#x3c2;" horiz-adv-x="1034" 
d="M594 852q-115 0 -173 -72q-59 -72 -59 -251t88 -249t287 -71q104 0 169 -53q65 -52 65 -142t-29 -183t-57 -144l-29 -52l-184 27q47 162 47 230t-26 88t-93 20q-268 0 -410 134q-141 134 -141 388t130 396t353 143q106 0 232 -82l35 61h180l-4 -419h-225l-15 170
q-66 61 -141 61z" />
    <glyph glyph-name="sigma" unicode="&#x3c3;" horiz-adv-x="1273" 
d="M600 1061q86 -1 348 -19t303 -18v-225q-68 0 -200 10v-4q86 -135 86 -311q1 -231 -143 -382t-400 -151t-400 157t-144 415t141 393q143 135 409 135zM600 168q240 0 240 367q0 153 -47 294l-215 21q-117 -6 -167 -83t-51 -230q0 -369 240 -369z" />
    <glyph glyph-name="tau" unicode="&#x3c4;" horiz-adv-x="849" 
d="M518 -39q-172 0 -252 79t-80 251v504l-157 2v213l155 14h637v-233l-334 2v-431q0 -170 117 -169q69 0 141 16l3 -191q-58 -57 -230 -57z" />
    <glyph glyph-name="upsilon" unicode="&#x3c5;" horiz-adv-x="1245" 
d="M834 403v396l-109 12l14 213h396v-645q0 -190 -125 -304t-373 -114t-373 114t-125 304v420l-106 12l14 213h395v-621q0 -94 50 -153q50 -60 145 -60q93 0 145 60t52 153z" />
    <glyph glyph-name="phi" unicode="&#x3c6;" horiz-adv-x="1490" 
d="M889 -512h-287v473q-256 4 -404 160q-148 157 -148 411t144 390q146 136 408 139v250l-106 12l14 213h379v-475q260 -4 406 -139q147 -135 147 -389t-148 -411t-405 -161v-473zM1147 535q-1 173 -63 243t-195 74v-678q258 11 258 361zM344 532q0 -352 258 -360v678
q-134 -4 -196 -73t-62 -245z" />
    <glyph glyph-name="chi" unicode="&#x3c7;" horiz-adv-x="1216" 
d="M20 0v213l191 10l207 295l-193 285l-198 8l14 213h379l196 -346h5l77 137h-4l15 209h456v-213l-182 -10l-186 -271l221 -325l192 -4l-12 -201h-350l-76 76l-174 291h-2l-117 -193l-12 -174h-447z" />
    <glyph glyph-name="psi" unicode="&#x3c8;" horiz-adv-x="1607" 
d="M954 -512h-286v473q-233 2 -383 123t-150 315v402l-143 10l14 213h414v-571q0 -117 68 -189t180 -74v1121l-107 12l12 213h381v-1346q121 2 191 73t69 190v346l-114 26l14 199h387v-625q-1 -195 -153 -315t-394 -123v-473z" />
    <glyph glyph-name="omega" unicode="&#x3c9;" horiz-adv-x="1611" 
d="M674 569v191h264v-191q0 -195 31 -277t118 -83q174 0 175 319q0 137 -38 279t-83 172l231 74q4 1 22 -15q100 -84 139 -298q17 -93 17 -203q0 -575 -438 -576q-186 0 -307 201q-117 -201 -305 -201q-438 0 -439 576q0 284 112 446q48 67 69 70l227 -74q-47 -39 -82 -177
q-35 -137 -35 -274q0 -319 172 -319q88 1 119 83t31 277z" />
    <glyph glyph-name="iotadieresis" unicode="&#x3ca;" horiz-adv-x="636" 
d="M477 1024v-815l113 -8l-12 -201h-502l-15 213l115 12v574l-106 12l12 213h395zM539 1477q67 1 109 -39t42 -98t-36 -103t-116 -45t-115 46q-36 46 -36 101t42 97t110 41zM102 1192q-80 0 -116 46t-35 101q0 55 42 97q41 42 109 41q68 1 110 -39t42 -98t-36 -103t-116 -45
z" />
    <glyph glyph-name="upsilondieresis" unicode="&#x3cb;" horiz-adv-x="1245" 
d="M834 403v396l-109 12l14 213h396v-645q0 -190 -125 -304t-373 -114t-373 114t-125 304v420l-106 12l14 213h395v-621q0 -94 50 -153q50 -60 145 -60q93 0 145 60t52 153zM838 1477q68 1 110 -39t41 -98q0 -58 -36 -103q-35 -45 -115 -45t-116 46t-36 101t42 97t110 41z
M401 1192q-79 0 -115 46t-36 101t42 97t110 41q68 1 109 -39q42 -40 42 -98t-36 -103t-116 -45z" />
    <glyph glyph-name="omicrontonos" unicode="&#x3cc;" horiz-adv-x="1200" 
d="M600 1061q266 0 408 -141q142 -142 143 -398t-147 -408t-408 -153q-260 0 -403 151q-143 150 -143 408t141 400q143 142 409 141zM600 170q240 0 240 348q0 166 -56 250t-184 84q-240 0 -240 -341t240 -341zM641 1151l-141 39l129 414l196 -62z" />
    <glyph glyph-name="upsilontonos" unicode="&#x3cd;" horiz-adv-x="1245" 
d="M834 403v396l-109 12l14 213h396v-645q0 -190 -125 -304t-373 -114t-373 114t-125 304v420l-106 12l14 213h395v-621q0 -94 50 -153q50 -60 145 -60q93 0 145 60t52 153zM664 1151l-142 39l129 414l197 -62z" />
    <glyph glyph-name="omegatonos" unicode="&#x3ce;" horiz-adv-x="1611" 
d="M674 569v191h264v-191q0 -195 31 -277t118 -83q174 0 175 319q0 137 -38 279t-83 172l231 74q4 1 22 -15q100 -84 139 -298q17 -93 17 -203q0 -575 -438 -576q-186 0 -307 201q-117 -201 -305 -201q-438 0 -439 576q0 284 112 446q48 67 69 70l227 -74q-47 -39 -82 -177
q-35 -137 -35 -274q0 -319 172 -319q88 1 119 83t31 277zM846 1151l-141 39l129 414l196 -62z" />
    <glyph glyph-name="uni0400" unicode="&#x400;" horiz-adv-x="1273" 
d="M1159 969h-241l-11 129h-366v-316l536 2v-225h-536v-326h405l23 148l227 -14l-14 -367h-1098l-12 213l153 12v895l-155 13l14 198h809l266 15v-377zM809 1466l-201 -18l-284 285l282 34z" />
    <glyph glyph-name="afii10023" unicode="&#x401;" horiz-adv-x="1273" 
d="M1159 969h-241l-11 129h-366v-316l536 2v-225h-536v-326h405l23 148l227 -14l-14 -367h-1098l-12 213l153 12v895l-155 13l14 198h809l266 15v-377zM891 1753q67 0 109 -39t42 -97t-35 -104q-36 -45 -116 -45t-116 46t-36 102t42 96q42 41 110 41zM455 1753q67 0 109 -39
t42 -97q0 -57 -36 -103t-116 -46t-115 46q-36 46 -36 102t42 96q42 41 110 41z" />
    <glyph glyph-name="afii10051" unicode="&#x402;" horiz-adv-x="1609" 
d="M1518 424q0 -463 -344 -463q-70 0 -130 16t-81 35l-25 17l18 182q45 -33 105 -33q141 0 141 184v44q0 104 -43 141t-171 37t-230 -72v-303l123 -8l-13 -201h-569l-12 213l153 12v881h-192l-15 -129l-239 14l14 355l266 -15h648l266 15l14 -355l-239 -14l-17 129h-188
v-369h2q43 36 148 68q104 31 214 31q211 0 303 -94t93 -267v-51z" />
    <glyph glyph-name="afii10052" unicode="&#x403;" horiz-adv-x="1067" 
d="M1102 901h-242l-12 197h-307v-889l176 -8l-12 -201h-621l-12 213l153 12v895l-155 13l14 198h750l268 15v-445zM686 1448l-201 14l195 303l287 -32z" />
    <glyph glyph-name="afii10053" unicode="&#x404;" horiz-adv-x="1376" 
d="M1122 526h-702q27 -168 124 -244t269 -75q113 0 215 42t150 83l47 41l116 -193q-8 -8 -22 -23q-13 -15 -67 -53q-114 -82 -266 -119q-95 -24 -195 -24q-343 1 -527 191t-184 506t184 512t475 196q150 0 289 -94l39 74h180v-433h-227l-19 150q-109 61 -227 61
q-330 0 -358 -372l706 2v-228z" />
    <glyph glyph-name="afii10054" unicode="&#x405;" horiz-adv-x="1183" 
d="M1059 956h-240l-14 131q-86 61 -174 61t-137 -41q-50 -41 -50 -111t70 -117t169 -82t199 -79t171 -126q70 -82 69 -199q0 -205 -138 -319t-386 -113q-131 0 -248 22t-168 42l-51 20l-6 373l225 14l27 -219q100 -29 188 -29q246 0 246 168q0 51 -50 90t-125 63
q-75 25 -163 61t-163 79t-125 124t-50 187q0 178 125 294t324 116q121 0 256 -86l41 66h178v-390z" />
    <glyph glyph-name="afii10055" unicode="&#x406;" horiz-adv-x="765" 
d="M684 1331v-213l-143 -12v-897l155 -8l-12 -201h-600l-12 213l153 12v895l-155 13l14 198h600z" />
    <glyph glyph-name="afii10056" unicode="&#x407;" horiz-adv-x="765" 
d="M684 1331v-213l-143 -12v-897l155 -8l-12 -201h-600l-12 213l153 12v895l-155 13l14 198h600zM750 1617q0 -57 -36 -103t-116 -46t-116 46t-36 102t42 96q42 41 110 41t110 -39t42 -97zM162 1753q68 0 110 -39t41 -97q0 -58 -35 -104q-36 -45 -116 -45t-116 46t-36 102
t42 96q42 41 110 41z" />
    <glyph glyph-name="afii10057" unicode="&#x408;" horiz-adv-x="980" 
d="M807 422q1 -254 -103 -357t-327 -104q-98 0 -181 14t-118 29l-33 14l-29 355l213 14l25 -186q40 -11 100 -11t99 52t39 180v698l-191 13l14 198h600v-213l-108 -12v-684z" />
    <glyph glyph-name="afii10058" unicode="&#x409;" horiz-adv-x="2109" 
d="M1444 0h-594l-12 213l153 12v873h-295q-2 -580 -136 -858t-365 -277q-105 0 -142 29l-14 8l12 258q27 -14 78 -14q86 0 143 72t97 268q39 195 47 518l-191 14l15 215h1210v-198l-143 -13v-295h118q604 0 605 -376q0 -207 -150 -328t-436 -121zM1425 614h-118v-397h120
q295 0 295 217q0 102 -72 141q-73 39 -225 39z" />
    <glyph glyph-name="afii10059" unicode="&#x40a;" horiz-adv-x="2209" 
d="M1546 0h-594l-12 213l154 12v328h-553v-330l155 -10l-12 -213h-600l-12 213l153 12v895l-155 13l14 198h600v-213l-143 -12v-328h553v342l-156 13l14 198h600v-198l-143 -13v-295h119q604 0 604 -376q0 -207 -150 -328t-436 -121zM1528 614h-119v-397h121q295 0 295 217
q-1 102 -73 141t-224 39z" />
    <glyph glyph-name="afii10060" unicode="&#x40b;" horiz-adv-x="1724" 
d="M758 1106v-369h2q43 36 148 68q104 31 214 31q211 0 303 -94t93 -267v-266l157 -8l-14 -201h-582l-14 199l137 12v195q0 104 -43 141t-171 37t-230 -72v-303l139 -8l-14 -201h-584l-12 213l153 12v881h-192l-15 -129l-239 14l14 355l266 -15h648l266 15l14 -355l-239 -14
l-17 129h-188z" />
    <glyph glyph-name="afii10061" unicode="&#x40c;" horiz-adv-x="1531" 
d="M655 1331v-184l-114 -12v-383l133 59l276 332l-39 4v184h559v-213l-237 -10l-328 -385l398 -504l231 -6l-14 -213h-428l-91 72l-339 460l-121 -71v-238l155 -10l-12 -213h-600l-12 213l153 12v895l-155 13l14 198h571zM793 1448l-201 14l194 303l287 -32z" />
    <glyph glyph-name="uni040D" unicode="&#x40d;" horiz-adv-x="1650" 
d="M670 1331v-198l-146 -13v-553l-10 -121h4l604 844l17 41h430v-198l-144 -13v-911l158 -8l-14 -201h-582l-12 199l151 12v539l9 133h-5l-598 -842l-18 -41h-430l-12 213l153 12v895l-155 13l14 198h586zM983 1466l-201 -18l-284 285l282 34z" />
    <glyph glyph-name="afii10062" unicode="&#x40e;" horiz-adv-x="1406" 
d="M610 1731q0 -36 33 -75q33 -40 109 -40t114 29t41 57l4 29v4l265 -37q-2 -10 -6 -28t-28 -65q-26 -46 -66 -82t-124 -65q-84 -28 -192 -28t-192 28q-83 28 -123 67q-84 84 -93 146l-6 27l264 37v-4zM1436 1331v-198l-146 -9l-342 -755q-104 -229 -235 -317t-353 -89
q-130 0 -188 33l-20 10l-17 381l215 14l27 -204h24q72 1 123 27t105 102l-467 798l-182 9l14 198h596v-198l-82 -9l280 -514h5l194 504l-92 4l14 213h527z" />
    <glyph glyph-name="afii10145" unicode="&#x40f;" horiz-adv-x="1597" 
d="M670 1331v-198l-129 -13v-887h516v887l-139 13l12 198h586v-198l-144 -13v-897l156 -10l-12 -213h-574l-14 -418h-256l-17 418h-571l-12 213l153 12v895l-155 13l14 198h586z" />
    <glyph glyph-name="afii10017" unicode="&#x410;" horiz-adv-x="1486" 
d="M926 0v170l112 12l-71 183h-492l-65 -170l129 -11l-15 -184h-518l-12 213l143 10l406 1108h409l404 -1124l139 -6l-12 -201h-557zM727 1087h-4l-180 -528h358z" />
    <glyph glyph-name="afii10018" unicode="&#x411;" horiz-adv-x="1343" 
d="M1118 965h-241l-11 133h-325v-287h118q604 0 605 -377q0 -206 -150 -320t-438 -114h-592l-12 213l153 12v895l-155 13l14 198h766l268 15v-381zM657 598h-116v-381h118q297 0 297 201q0 102 -73 141q-74 39 -226 39z" />
    <glyph glyph-name="afii10019" unicode="&#x412;" horiz-adv-x="1343" 
d="M715 0h-631l-12 213l153 12v895l-155 13l14 198h618q256 0 375 -95t119 -249t-156 -268q223 -88 224 -301q0 -186 -136 -302t-413 -116zM762 580h-256v-361h192q260 0 260 199q0 88 -49 125t-147 37zM506 778h239q61 0 109 46q47 46 47 136t-53 122t-162 32h-180v-336z
" />
    <glyph glyph-name="afii10020" unicode="&#x413;" horiz-adv-x="1067" 
d="M1102 901h-242l-12 197h-307v-889l176 -8l-12 -201h-621l-12 213l153 12v895l-155 13l14 198h750l268 15v-445z" />
    <glyph glyph-name="afii10021" unicode="&#x414;" horiz-adv-x="1556" 
d="M1444 1331v-213l-146 -12v-873h193l-33 -557h-256l-31 324h-804l-45 -324h-240l-19 557h136q78 152 120 350q43 198 56 519l-174 14l14 215h1229zM989 1098h-342q-18 -563 -162 -865h504v865z" />
    <glyph glyph-name="afii10022" unicode="&#x415;" horiz-adv-x="1273" 
d="M1159 969h-241l-11 129h-366v-316l536 2v-225h-536v-326h405l23 148l227 -14l-14 -367h-1098l-12 213l153 12v895l-155 13l14 198h809l266 15v-377z" />
    <glyph glyph-name="afii10024" unicode="&#x416;" horiz-adv-x="2091" 
d="M870 819v301l-127 13l15 198h524v-198l-115 -13v-301h158l193 295l-31 4v213h543v-198l-199 -11l-281 -377l340 -526l201 -6l-12 -213h-383l-80 82l-299 506h-150v-379l158 -8l-12 -201h-582l-14 199l153 12v375h-155l-250 -492l-80 -94h-387v213l182 4l291 479l-258 428
l-182 9l14 198h530v-213l-40 -4l161 -295h174z" />
    <glyph glyph-name="afii10025" unicode="&#x417;" horiz-adv-x="1183" 
d="M600 1366q209 0 328 -94t119 -271t-183 -303q242 -70 242 -295q0 -195 -152 -319t-397 -123q-245 0 -365 66q-119 66 -155 116l-12 21l122 188q15 -16 45 -42t124 -68t206 -41q110 0 180 52q70 53 70 147t-55 124t-172 29l-236 -2v237l254 -2q66 2 118 52t52 139
q0 168 -188 168q-92 0 -166 -62l-10 -131h-230l15 394h180l26 -72q121 92 240 92z" />
    <glyph glyph-name="afii10026" unicode="&#x418;" horiz-adv-x="1650" 
d="M670 1331v-198l-146 -13v-553l-10 -121h4l604 844l17 41h430v-198l-144 -13v-911l158 -8l-14 -201h-582l-12 199l151 12v539l9 133h-5l-598 -842l-18 -41h-430l-12 213l153 12v895l-155 13l14 198h586z" />
    <glyph glyph-name="afii10027" unicode="&#x419;" horiz-adv-x="1650" 
d="M868 1616q54 0 92 29t41 57l5 29v4l262 -37q-2 -10 -5 -28t-29 -65q-26 -46 -66 -82t-122 -65q-82 -28 -192 -28t-192 28t-122 67q-85 85 -94 146l-6 27l262 37v-4q0 -17 11 -40q32 -75 155 -75zM670 1331v-198l-146 -13v-553l-10 -121h4l604 844l17 41h430v-198
l-144 -13v-911l158 -8l-14 -201h-582l-12 199l151 12v539l9 133h-5l-598 -842l-18 -41h-430l-12 213l153 12v895l-155 13l14 198h586z" />
    <glyph glyph-name="afii10028" unicode="&#x41a;" horiz-adv-x="1531" 
d="M655 1331v-184l-114 -12v-383l133 59l276 332l-39 4v184h559v-213l-237 -10l-328 -385l398 -504l231 -6l-14 -213h-428l-91 72l-339 460l-121 -71v-238l155 -10l-12 -213h-600l-12 213l153 12v895l-155 13l14 198h571z" />
    <glyph glyph-name="afii10029" unicode="&#x41b;" horiz-adv-x="1531" 
d="M991 1098h-295q-2 -580 -136 -858t-365 -277q-105 0 -142 29l-14 8l12 258q27 -14 78 -14q86 0 143 72t97 268q39 195 47 518l-191 14l15 215h1212v-213l-145 -12v-883l157 -10l-14 -213h-598l-14 213l153 12v873z" />
    <glyph glyph-name="afii10030" unicode="&#x41c;" horiz-adv-x="2136" 
d="M2052 1331v-213l-143 -12l2 -883l157 -10l-14 -213h-559l-14 184l127 13l-2 706h-9l-393 -903h-293l-395 903h-8l-2 -706l133 -13l-14 -184h-541l-12 213l153 12l2 895l-153 13l14 198h545l438 -1001h10l428 1001h543z" />
    <glyph glyph-name="afii10031" unicode="&#x41d;" horiz-adv-x="1634" 
d="M684 1331v-213l-143 -12v-328h553v328l-156 12l14 213h600v-213l-143 -12v-897l156 -8l-15 -201h-598l-14 213l156 12v328h-553v-330l155 -10l-12 -213h-600l-12 213l153 12v895l-155 13l14 198h600z" />
    <glyph glyph-name="afii10032" unicode="&#x41e;" horiz-adv-x="1558" 
d="M80 683q0 319 180 501t517 182t521 -182t185 -500q1 -320 -187 -522t-519 -201q-331 0 -514 201t-183 521zM1155 683q0 214 -97 328q-96 113 -280 113t-278 -114t-94 -327q0 -214 95 -347t276 -133t280 133q98 133 98 347z" />
    <glyph glyph-name="afii10033" unicode="&#x41f;" horiz-adv-x="1597" 
d="M1516 1331v-198l-144 -13v-897l156 -10l-12 -213h-601l-12 213l154 12v873h-516v-875l155 -10l-14 -213h-598l-12 213l153 12v895l-155 13l14 198h1432z" />
    <glyph glyph-name="afii10034" unicode="&#x420;" horiz-adv-x="1269" 
d="M682 1331q541 0 541 -428q0 -123 -48 -219t-127 -154q-163 -119 -360 -116h-170v-217l193 -11l-15 -186h-612l-12 213l153 12v895l-155 13l14 198h598zM629 1112h-111v-487h111q121 0 193 62q72 63 73 193t-69 181t-197 51z" />
    <glyph glyph-name="afii10035" unicode="&#x421;" horiz-adv-x="1361" 
d="M1251 821h-241l-23 240q-90 63 -203 63q-168 0 -272 -114t-104 -330q0 -215 108 -344t291 -129q184 0 352 125q39 29 58 49l18 20l117 -192q-16 -27 -75 -78t-119 -84t-160 -59t-212 -27q-352 0 -528 197t-176 514q0 318 186 506t471 188q152 0 287 -90l45 70h180v-525z
" />
    <glyph glyph-name="afii10036" unicode="&#x422;" horiz-adv-x="1226" 
d="M1235 928h-227l-19 170h-217v-875l156 -10l-15 -213h-598l-14 213l154 12v873h-213l-23 -170h-225l14 418l266 -15h693l268 15v-418z" />
    <glyph glyph-name="afii10037" unicode="&#x423;" horiz-adv-x="1406" 
d="M1436 1331v-198l-146 -9l-342 -755q-104 -229 -235 -317t-353 -89q-130 0 -188 33l-20 10l-17 381l215 14l27 -204h24q72 1 123 27t105 102l-467 798l-182 9l14 198h596v-198l-82 -9l280 -514h5l194 504l-92 4l14 213h527z" />
    <glyph glyph-name="afii10038" unicode="&#x424;" horiz-adv-x="1705" 
d="M49 723q0 223 169 312t493 93v76l-154 13l14 172h564v-172l-142 -13v-76q316 -4 478 -85q186 -90 186 -318q0 -438 -664 -444v-82l185 -11l-15 -188h-620l-13 188l181 13v80q-662 6 -662 442zM1331 715q0 131 -76 177t-262 48v-467q182 3 260 57t78 185zM375 715
q0 -131 77 -185t259 -57v467q-188 -2 -262 -48t-74 -177z" />
    <glyph glyph-name="afii10039" unicode="&#x425;" horiz-adv-x="1478" 
d="M870 1331h580v-213l-211 -8l-313 -436l329 -455l226 -6l-15 -213h-610v199l43 2l-172 254h-2l-166 -240l49 -2v-213h-594l-14 213l223 10l324 439l-330 460l-209 11l12 198h598v-198l-43 -5l170 -249h3l165 237l-43 2v213z" />
    <glyph glyph-name="afii10040" unicode="&#x426;" horiz-adv-x="1630" 
d="M541 233h516v887l-156 13l14 198h601v-198l-144 -13v-887h193l-37 -557h-266l-31 324h-1147l-12 213l153 12v895l-155 13l14 198h600v-198l-143 -13v-887z" />
    <glyph glyph-name="afii10041" unicode="&#x427;" horiz-adv-x="1466" 
d="M479 885q0 -111 48 -158t167 -47t232 51v389l-138 13l13 198h583v-198l-143 -13v-897l158 -10l-15 -213h-628l-15 213l185 12v285h-2q-47 -31 -148 -55q-102 -23 -213 -23q-211 0 -305 109t-94 290v289l-133 13l12 198h563v-198l-127 -13v-235z" />
    <glyph glyph-name="afii10042" unicode="&#x428;" horiz-adv-x="2146" 
d="M1231 233h377v887l-119 13l14 198h563v-198l-143 -13v-897l156 -10l-15 -213h-1980l-12 213l153 12v895l-155 13l14 198h561v-198l-104 -13v-887h374v887l-116 13l14 198h524v-198l-106 -13v-887z" />
    <glyph glyph-name="afii10043" unicode="&#x429;" horiz-adv-x="2181" 
d="M1923 233h186l-34 -557h-267l-26 324h-1698l-12 213l153 12v895l-155 13l14 198h561v-198l-104 -13v-887h374v887l-116 13l14 198h524v-198l-106 -13v-887h377v887l-119 13l14 198h563v-198l-143 -13v-887z" />
    <glyph glyph-name="afii10044" unicode="&#x42a;" horiz-adv-x="1544" 
d="M879 0h-594l-13 213l154 12v873h-184l-23 -170h-225l14 418l266 -15h611v-198l-144 -13v-295h119q604 0 604 -376q0 -207 -150 -328t-435 -121zM860 614h-119v-397h121q295 0 295 217q-1 102 -73 141t-224 39z" />
    <glyph glyph-name="afii10045" unicode="&#x42b;" horiz-adv-x="2029" 
d="M678 0h-594l-12 213l153 12v895l-155 13l14 198h600v-198l-143 -13v-295h118q604 0 605 -376q0 -207 -150 -328t-436 -121zM659 614h-118v-397h121q295 0 294 217q0 102 -72 141q-73 39 -225 39zM1948 1331v-213l-144 -12v-897l156 -8l-12 -201h-600l-13 213l154 12v895
l-156 13l15 198h600z" />
    <glyph glyph-name="afii10046" unicode="&#x42c;" horiz-adv-x="1343" 
d="M678 0h-594l-12 213l153 12v895l-155 13l14 198h600v-198l-143 -13v-295h118q604 0 605 -376q0 -207 -150 -328t-436 -121zM659 614h-118v-397h121q295 0 294 217q0 102 -72 141q-73 39 -225 39z" />
    <glyph glyph-name="afii10047" unicode="&#x42d;" horiz-adv-x="1325" 
d="M535 207q164 0 255 81t115 255l-672 -2v227h678q-12 195 -90 280t-248 85q-115 0 -211 -60l-12 -121h-213l13 394h165l29 -64q152 84 277 84q317 0 472 -181t155 -514t-182 -521q-181 -188 -521 -189q-111 0 -228 27t-229 111q-41 32 -57 53l-17 22l119 193
q18 -18 52 -45q35 -27 139 -71t211 -44z" />
    <glyph glyph-name="afii10048" unicode="&#x42e;" horiz-adv-x="2222" 
d="M684 1331v-184l-143 -12v-357h192q27 274 211 431t509 157t508 -181t183 -502t-186 -521t-500 -201q-314 0 -499 162t-222 432h-196v-346l155 -8l-12 -201h-600l-12 213l153 12v895l-155 13l14 198h600zM1067 683q1 -214 97 -347t277 -133t278 133t97 347t-96 328
q-96 113 -279 113t-279 -113q-95 -114 -95 -328z" />
    <glyph glyph-name="afii10049" unicode="&#x42f;" horiz-adv-x="1380" 
d="M1298 1331v-213l-143 -12v-897l156 -8l-15 -201h-577l-14 184l153 13v262h-219l-190 -373l-76 -86h-326l-14 213l186 6l162 281q-121 51 -195 155t-73 250q0 209 135 318t356 108h694zM416 913q0 -96 55 -157t129 -62h258v416h-233q-92 0 -151 -50q-58 -51 -58 -147z" />
    <glyph glyph-name="afii10065" unicode="&#x430;" horiz-adv-x="1148" 
d="M644 1061q159 0 262 -97t104 -302v-453l112 -8l-14 -201h-344l-39 100q-5 -16 -35 -44q-99 -95 -270 -95q-172 0 -272 84q-99 84 -99 227q0 88 51 164q26 40 134 103q33 19 125 42q139 35 350 54v20q0 109 -38 153t-132 44t-156 -53l-14 -121h-224l13 362h178l24 -61
q125 82 284 82zM516 164q62 0 110 28t62 48t21 34v177q-175 -14 -240 -33q-65 -18 -87 -46t-22 -71q0 -137 156 -137z" />
    <glyph glyph-name="afii10066" unicode="&#x431;" horiz-adv-x="1216" 
d="M656 1059q236 0 374 -136q137 -137 137 -393q1 -256 -149 -412t-418 -157q-268 0 -404 168t-136 472t46 459q47 155 104 217q58 63 122 111q121 92 354 117l156 17l18 67l201 -14l-31 -315l-110 4l-150 -9q-254 -16 -357 -94t-122 -235q129 133 365 133zM618 848
q-127 0 -182 -64t-59 -184v-65q-1 -365 239 -365t240 362q0 168 -55 242q-56 74 -183 74z" />
    <glyph glyph-name="afii10067" unicode="&#x432;" horiz-adv-x="1167" 
d="M610 0h-534l-15 213l115 12v574l-106 12l12 213h526q260 0 362 -68t103 -204q0 -136 -158 -215q199 -66 199 -222q0 -315 -504 -315zM635 446h-172v-249h147q117 1 162 37t45 104q0 108 -182 108zM463 590h199q10 0 46 14q74 28 74 126q0 99 -178 97h-141v-237z" />
    <glyph glyph-name="afii10068" unicode="&#x433;" horiz-adv-x="946" 
d="M477 799v-590l129 -8l-14 -201h-516l-15 213l115 12v574l-106 12l12 213h606l223 14l2 -426h-225l-14 187h-197z" />
    <glyph glyph-name="afii10069" unicode="&#x434;" horiz-adv-x="1253" 
d="M1090 1024v-807h161l-22 -508h-223l-31 291h-717l-33 -291h-194l-19 508h164q113 225 131 565l-162 15l13 227h932zM793 217v590h-252q-12 -350 -105 -590h357z" />
    <glyph glyph-name="afii10070" unicode="&#x435;" horiz-adv-x="1081" 
d="M627 180q73 0 137 29t92 57l29 27l137 -148q-10 -20 -54 -58q-143 -123 -356 -126q-266 0 -414 142q-148 143 -148 409t144 408t374 141q230 0 350 -118t120 -337q0 -91 -30 -160l-11 -20h-643q35 -246 273 -246zM573 852q-100 0 -153 -57t-68 -174h410q2 27 2 45
q-1 186 -191 186z" />
    <glyph glyph-name="afii10072" unicode="&#x436;" horiz-adv-x="1710" 
d="M709 428h-101l-178 -356l-68 -72h-346v199l158 8l195 330l-142 266l-172 8l15 213h387v-102l121 -285h131v203l-88 12l14 172h366v-387l132 2l67 156l-24 2l16 227h448v-213l-149 -8l-141 -262l190 -336l168 -4l-14 -201h-348l-72 84l-172 344h-101v-246l74 -4l-14 -178
h-426l-14 184l88 13v231z" />
    <glyph glyph-name="afii10073" unicode="&#x437;" horiz-adv-x="1024" 
d="M545 1063q160 0 266 -73q107 -73 107 -206t-140 -231q195 -57 195 -238q0 -160 -137 -257t-348 -97t-322 61q-110 61 -133 101l-13 18l109 170q12 -14 36 -37q23 -24 111 -60t182 -36t154 37q61 37 62 96q0 100 -207 101l-135 -2v188h143q47 0 100 36t54 107
q0 111 -140 111q-90 0 -153 -49l-10 -113h-226l13 350h180l22 -57q123 80 230 80z" />
    <glyph glyph-name="afii10074" unicode="&#x438;" horiz-adv-x="1351" 
d="M160 0v799l-107 12l15 213h393v-578l436 572l2 6h383v-213l-106 -12v-590l114 -8l-14 -201h-502v184l100 25v438l-489 -637l-4 -10h-221z" />
    <glyph glyph-name="afii10075" unicode="&#x439;" horiz-adv-x="1351" 
d="M682 1339q76 0 114 29t42 57l4 29v4l264 -37q-2 -10 -5 -28q-3 -19 -29 -65t-66 -82t-123 -64q-84 -28 -193 -29q-108 0 -190 28q-82 29 -123 67q-87 82 -94 145l-7 28l265 37v-4q0 -37 33 -76q32 -39 108 -39zM160 0v799l-107 12l15 213h393v-578l436 572l2 6h383v-213
l-106 -12v-590l114 -8l-14 -201h-502v184l100 25v438l-489 -637l-4 -10h-221z" />
    <glyph glyph-name="afii10076" unicode="&#x43a;" horiz-adv-x="1214" 
d="M477 1024v-406l141 60l78 143l-41 4l15 199h473v-213l-199 -29l-145 -207l215 -342l196 -6l-14 -227h-350l-82 84l-221 358l-66 -28v-217l86 -11l-14 -186h-473l-15 213l115 12v574l-135 12l14 213h422z" />
    <glyph glyph-name="afii10077" unicode="&#x43b;" horiz-adv-x="1208" 
d="M745 799h-198q-37 -811 -447 -811q-47 0 -102 12l-2 209q29 -4 41 -4q115 0 176 134t76 443l-162 15l14 227h908v-815l114 -8l-14 -201h-502l-12 213l110 12v574z" />
    <glyph glyph-name="afii10078" unicode="&#x43c;" horiz-adv-x="1693" 
d="M1595 1024v-213l-102 -12l18 -592l119 -6l-12 -201h-371l-16 541l-2 147h-8l-240 -688h-274l-261 684h-6v-35l-24 -440l94 -8l-14 -201h-424l-13 213l115 10l45 580l-4 -4l-117 12l13 213h505l236 -762h4l242 762h497z" />
    <glyph glyph-name="afii10079" unicode="&#x43d;" horiz-adv-x="1341" 
d="M477 1024v-393h389v209l-80 12v172h474v-213l-95 -12v-590l115 -8l-14 -201h-400v422h-389v-240l86 -10l-14 -172h-473l-15 213l115 12v574l-106 12l12 213h395z" />
    <glyph glyph-name="afii10080" unicode="&#x43e;" horiz-adv-x="1200" 
d="M600 1061q266 0 408 -141q142 -142 143 -398t-147 -408t-408 -153q-260 0 -403 151q-143 150 -143 408t141 400q143 142 409 141zM600 170q240 0 240 348q0 166 -56 250t-184 84q-240 0 -240 -341t240 -341z" />
    <glyph glyph-name="afii10081" unicode="&#x43f;" horiz-adv-x="1325" 
d="M848 0v799h-371v-588l113 -10l-12 -201h-502l-15 213l115 12v572l-106 14l12 213h1159v-213l-92 -14v-586l113 -10l-13 -201h-401z" />
    <glyph glyph-name="afii10082" unicode="&#x440;" 
d="M774 1061q213 0 336 -136t123 -381t-128 -414t-345 -169q-90 1 -164 19t-100 36l-29 19h-8v-338l114 -8l-14 -201h-500l-12 213l113 12v1086l-107 12l15 213h354l20 -72h4q34 40 130 75q96 34 198 34zM668 840q-61 0 -124 -32t-85 -75v-477q19 -26 78 -51t118 -25
q264 0 265 369q0 167 -58 229t-194 62z" />
    <glyph glyph-name="afii10083" unicode="&#x441;" horiz-adv-x="1030" 
d="M566 852q-98 0 -150 -72q-53 -72 -54 -248q0 -358 269 -358q67 0 131 32t94 64l31 31l129 -143q-13 -25 -54 -64q-42 -38 -84 -64t-118 -48t-162 -21q-272 0 -411 150q-138 149 -138 407t130 400t356 143q104 0 221 -82l32 61h183l-4 -417h-226l-16 168q-61 61 -159 61z
" />
    <glyph glyph-name="afii10084" unicode="&#x442;" horiz-adv-x="1159" 
d="M731 799v-590l113 -8l-15 -201h-499l-15 213l113 12v574h-170l-14 -187h-211l8 412v14l205 -14h680l207 14l-7 -426h-211l-8 187h-176z" />
    <glyph glyph-name="afii10085" unicode="&#x443;" horiz-adv-x="1150" 
d="M674 1024h497v-213l-135 -12l-315 -840q-193 -510 -483 -510q-90 0 -148 16t-70 31l-10 17l27 206q92 -33 166 -32q143 0 248 311l-336 803l-148 10l13 213h378l250 -698h4l162 477l-100 8v213z" />
    <glyph glyph-name="afii10086" unicode="&#x444;" horiz-adv-x="1490" 
d="M889 1536v-475q260 -4 406 -139q147 -135 147 -389t-148 -411t-405 -161v-264l112 -8l-14 -201h-485l-13 213l113 12v248q-256 4 -404 160q-148 157 -148 411t144 390q146 136 408 139v250l-106 12l14 213h379zM344 532q0 -342 258 -360v678q-130 -6 -194 -77t-64 -241z
M1147 535q0 167 -65 239t-193 76v-676q258 21 258 361z" />
    <glyph glyph-name="afii10087" unicode="&#x445;" horiz-adv-x="1216" 
d="M20 0v213l191 10l207 295l-193 285l-198 8l14 213h379l196 -346h5l77 137h-4l15 209h456v-213l-182 -10l-186 -271l221 -325l192 -4l-12 -201h-350l-76 76l-174 291h-2l-117 -193l-12 -174h-447z" />
    <glyph glyph-name="afii10088" unicode="&#x446;" horiz-adv-x="1312" 
d="M477 1024v-799h371v574l-107 12l13 213h395v-799h149l-20 -516h-252l-4 291h-946l-15 213l115 12v574l-106 12l12 213h395z" />
    <glyph glyph-name="afii10089" unicode="&#x447;" horiz-adv-x="1177" 
d="M1018 1024v-815l112 -8l-14 -201h-518l-14 199l133 10v184q-85 -45 -265 -45t-274 79t-94 230v142l-107 12l15 213h399v-332q0 -66 38 -112q39 -46 99 -45q104 0 168 26l21 10v228l-107 12l15 213h393z" />
    <glyph glyph-name="afii10090" unicode="&#x448;" horiz-adv-x="1787" 
d="M463 1024v-799h295v574l-105 12l15 213h379v-799h292v574l-100 12l14 213h375v-815l113 -8l-15 -201h-1650l-15 213l115 12v574l-106 12l12 213h381z" />
    <glyph glyph-name="afii10091" unicode="&#x449;" horiz-adv-x="1789" 
d="M463 1024v-799h295v574l-105 12l15 213h379v-799h292v574l-100 12l14 213h375v-799h150l-21 -516h-252l-4 291h-1425l-15 213l115 12v574l-106 12l12 213h381z" />
    <glyph glyph-name="afii10092" unicode="&#x44a;" horiz-adv-x="1366" 
d="M389 799h-129l-16 -172h-211l16 411l205 -14h537v-172l-101 -12v-148h125q516 0 516 -315q0 -185 -131 -281t-383 -96h-528l-15 213l115 12v574zM809 500h-119v-303h121q209 0 209 172q0 79 -54 105t-157 26z" />
    <glyph glyph-name="afii10093" unicode="&#x44b;" horiz-adv-x="1755" 
d="M1280 0v840l-78 12l12 172h459v-213l-92 -12v-590l113 -8l-15 -201h-399zM477 1024v-332h125q516 0 516 -315q0 -185 -131 -281t-383 -96h-528l-15 213l115 12v574l-106 12l12 213h395zM596 500h-119v-303h121q209 0 209 172q-1 79 -55 105t-156 26z" />
    <glyph glyph-name="afii10094" unicode="&#x44c;" horiz-adv-x="1153" 
d="M477 1024v-332h125q516 0 516 -315q0 -185 -131 -281t-383 -96h-528l-15 213l115 12v574l-106 12l12 213h395zM596 500h-119v-303h121q209 0 209 172q-1 79 -55 105t-156 26z" />
    <glyph glyph-name="afii10095" unicode="&#x44d;" horiz-adv-x="1052" 
d="M442 176q218 0 260 213l-460 -2v225l469 -2q-11 138 -65 188t-148 50t-160 -45l-12 -98h-224l13 335h164l32 -55q115 76 219 76q205 0 339 -138t135 -372q0 -283 -150 -437t-397 -153q-188 0 -285 52t-129 91l-12 17l100 160q12 -11 34 -29q21 -18 97 -47t180 -29z" />
    <glyph glyph-name="afii10096" unicode="&#x44e;" horiz-adv-x="1708" 
d="M477 1024v-393h137q25 209 157 319t353 111q266 0 400 -134t135 -395q0 -261 -137 -416t-398 -155q-211 0 -346 123t-164 338h-137v-240l86 -10l-14 -172h-473l-15 213l115 12v574l-106 12l12 213h395zM903 535q0 -365 229 -365t230 365q0 161 -51 239t-179 78t-179 -77
q-50 -77 -50 -240z" />
    <glyph glyph-name="afii10097" unicode="&#x44f;" horiz-adv-x="1179" 
d="M78 692q0 332 469 332h551v-213l-94 -12v-590l114 -8l-14 -201h-402v332h-155l-115 -246l-72 -86h-313l-14 213l170 8l90 176q-96 51 -156 128q-59 77 -59 167zM575 827q-109 -1 -157 -31t-49 -108q0 -78 50 -121t124 -43h159v303h-127z" />
    <glyph glyph-name="uni0450" unicode="&#x450;" horiz-adv-x="1081" 
d="M627 180q73 0 137 29t92 57l29 27l137 -148q-10 -20 -54 -58q-143 -123 -356 -126q-266 0 -414 142q-148 143 -148 409t144 408t374 141q230 0 350 -118t120 -337q0 -91 -30 -160l-11 -20h-643q35 -246 273 -246zM573 852q-100 0 -153 -57t-68 -174h410q2 27 2 45
q-1 186 -191 186zM717 1190l-201 -19l-285 285l283 35z" />
    <glyph glyph-name="afii10071" unicode="&#x451;" horiz-adv-x="1081" 
d="M627 180q73 0 137 29t92 57l29 27l137 -148q-10 -20 -54 -58q-143 -123 -356 -126q-266 0 -414 142q-148 143 -148 409t144 408t374 141q230 0 350 -118t120 -337q0 -91 -30 -160l-11 -20h-643q35 -246 273 -246zM573 852q-100 0 -153 -57t-68 -174h410q2 27 2 45
q-1 186 -191 186zM756 1477q68 1 110 -39t41 -98q0 -58 -36 -103q-35 -45 -115 -45t-116 46t-36 101t42 97t110 41zM319 1192q-79 0 -115 46t-36 101t42 97t110 41q68 1 109 -39q42 -40 42 -98t-36 -103t-116 -45z" />
    <glyph glyph-name="afii10099" unicode="&#x452;" horiz-adv-x="1277" 
d="M471 793q122 81 302 81q181 0 281 -93t99 -273v-580q0 -217 -111 -335t-270 -117q-117 0 -217 61l76 227q119 -61 185 21q36 45 36 143v523q0 178 -184 178q-63 0 -124 -21t-85 -55v-344l116 -8l-14 -201h-502l-12 213l113 12v787h-117v188l117 8v117l-107 12l15 199h391
v-324h391v-200h-391v-219h12z" />
    <glyph glyph-name="afii10100" unicode="&#x453;" horiz-adv-x="946" 
d="M477 799v-590l129 -8l-14 -201h-516l-15 213l115 12v574l-106 12l12 213h606l223 14l2 -426h-225l-14 187h-197zM565 1171l-200 15l194 303l287 -33z" />
    <glyph glyph-name="afii10101" unicode="&#x454;" horiz-adv-x="1038" 
d="M568 846q-94 0 -146 -52q-51 -52 -62 -186l453 2v-225h-442q41 -205 262 -205q77 0 149 23t105 47l33 22l81 -155q-14 -21 -55 -52q-138 -104 -387 -104q-250 0 -380 151q-130 152 -130 408t138 398t356 143q98 0 213 -70l26 49h181l-2 -329h-224l-12 88q-63 47 -157 47z
" />
    <glyph glyph-name="afii10102" unicode="&#x455;" horiz-adv-x="956" 
d="M514 858q-145 0 -145 -86q0 -43 56 -75q56 -33 135 -59t159 -60t136 -100q56 -67 56 -159q-1 -166 -117 -262t-366 -96q-178 0 -301 39l-39 12l-27 307l185 13l20 -146q82 -20 154 -20q182 0 182 117q0 73 -136 110t-257 102q-59 32 -98 94t-39 148q0 147 109 236
q111 88 253 88t260 -76l33 55h147l-2 -329h-196l-17 92q-74 55 -145 55z" />
    <glyph glyph-name="afii10103" unicode="&#x456;" horiz-adv-x="636" 
d="M477 1024v-815l113 -8l-12 -201h-502l-15 213l115 12v574l-106 12l12 213h395zM500 1332q0 -70 -46 -114t-126 -44t-128 46t-48 116t46 114q46 45 129 45t128 -46t45 -117z" />
    <glyph glyph-name="afii10104" unicode="&#x457;" horiz-adv-x="636" 
d="M477 1024v-815l113 -8l-12 -201h-502l-15 213l115 12v574l-106 12l12 213h395zM541 1477q67 1 109 -39t42 -98t-36 -103t-116 -45t-115 46q-36 46 -36 101t42 97t110 41zM104 1192q-80 0 -116 46t-35 101q0 55 42 97q41 42 109 41q68 1 110 -39t42 -98t-36 -103t-116 -45
z" />
    <glyph glyph-name="afii10105" unicode="&#x458;" horiz-adv-x="606" 
d="M49 -293q59 -1 93 63t34 177v852l-106 12l14 213h391v-1077q0 -246 -114 -372t-271 -126q-84 0 -144 13t-81 26l-19 14l76 228q68 -23 127 -23zM502 1332q0 -70 -46 -114t-126 -44t-128 46t-48 116t46 114q46 45 129 45t128 -46t45 -117z" />
    <glyph glyph-name="afii10106" unicode="&#x459;" horiz-adv-x="1724" 
d="M745 799h-198q-37 -811 -447 -811q-47 0 -102 12l-2 209q29 -4 41 -4q115 0 176 134t76 443l-162 15l14 227h908v-332h125q516 0 516 -315q0 -185 -131 -281t-383 -96h-529l-14 213l112 12v574zM1167 500h-118v-303h120q209 0 209 172q0 79 -54 105t-157 26z" />
    <glyph glyph-name="afii10107" unicode="&#x45a;" horiz-adv-x="1841" 
d="M1165 692h125q516 0 516 -315q0 -185 -131 -281t-383 -96h-428l2 10v412h-389v-240l86 -10l-14 -172h-473l-15 213l115 12v574l-106 12l12 213h395v-393h389v209l-80 12v172h474v-172l-95 -12v-148zM1284 500h-119v-303h121q211 0 211 172q1 79 -55 105t-158 26z" />
    <glyph glyph-name="afii10108" unicode="&#x45b;" horiz-adv-x="1294" 
d="M471 793q122 81 302 81q181 0 281 -93t99 -273v-299l113 -8l-15 -201h-399v451q0 178 -184 178q-66 1 -118 -19t-71 -39l-20 -18v-344l116 -8l-14 -201h-502l-12 213l113 12v787h-117v188l117 8v117l-107 12l15 199h391v-324h391v-200h-391v-219h12z" />
    <glyph glyph-name="afii10109" unicode="&#x45c;" horiz-adv-x="1214" 
d="M477 1024v-406l141 60l78 143l-41 4l15 199h473v-213l-199 -29l-145 -207l215 -342l196 -6l-14 -227h-350l-82 84l-221 358l-66 -28v-217l86 -11l-14 -186h-473l-15 213l115 12v574l-135 12l14 213h422zM721 1171l-201 15l195 303l286 -33z" />
    <glyph glyph-name="uni045D" unicode="&#x45d;" horiz-adv-x="1351" 
d="M160 0v799l-107 12l15 213h393v-578l436 572l2 6h383v-213l-106 -12v-590l114 -8l-14 -201h-502v184l100 25v438l-489 -637l-4 -10h-221zM815 1190l-201 -19l-284 285l282 35z" />
    <glyph glyph-name="afii10110" unicode="&#x45e;" horiz-adv-x="1150" 
d="M588 1153q-108 0 -191 28q-82 29 -123 67t-65 78q-25 40 -29 67l-6 28l264 37v-4q0 -36 33 -75q33 -40 109 -40t114 29t41 57l4 29v4l265 -37q-2 -10 -6 -28q-4 -19 -28 -65q-26 -46 -66 -82t-124 -64t-192 -29zM674 1024h497v-213l-135 -12l-315 -840
q-193 -510 -483 -510q-90 0 -148 16t-70 31l-10 17l27 206q92 -33 166 -32q143 0 248 311l-336 803l-148 10l13 213h378l250 -698h4l162 477l-100 8v213z" />
    <glyph glyph-name="afii10193" unicode="&#x45f;" horiz-adv-x="1368" 
d="M477 1024v-799h430v615l-78 12l15 172h364v-815l115 -8l-14 -201h-480l-10 -291h-254l-6 291h-483l-15 213l115 12v574l-106 12l12 213h395z" />
    <glyph glyph-name="afii10146" unicode="&#x462;" horiz-adv-x="1505" 
d="M702 1274h3v-31h251l252 12v-333h-227l-8 88h-268v-185h118q604 0 604 -376q-1 -207 -151 -328t-436 -121h-592l-15 213l154 12v785h-147l-23 -152h-240l13 397l284 -12h113v80l-149 12l14 129h594v-129l-144 -12v-49zM821 614h-116v-397h118q297 0 297 217
q0 102 -73 141q-74 39 -226 39z" />
    <glyph glyph-name="afii10194" unicode="&#x463;" horiz-adv-x="1316" 
d="M342 1024v205h301v-205h223l195 14l2 -272h-195l-8 68h-217v-142h125q516 0 516 -315q0 -185 -131 -281t-385 -96h-526l-15 213l115 12v574h-121l-14 -113h-180l16 352l180 -14h119zM762 500h-119v-303h119q211 0 211 170q-1 77 -57 105t-154 28z" />
    <glyph glyph-name="afii10050" unicode="&#x490;" horiz-adv-x="1021" 
d="M541 1098v-889l176 -8l-12 -201h-621l-12 213l153 12v895l-155 13l14 198h692l2 205h238l14 -438h-489z" />
    <glyph glyph-name="afii10098" unicode="&#x491;" horiz-adv-x="856" 
d="M477 799v-590l113 -8l-12 -201h-502l-15 213l115 12v574l-106 14l12 211h522l2 258h228l16 -483h-373z" />
    <glyph glyph-name="uni1E9E" unicode="&#x1e9e;" horiz-adv-x="1542" 
d="M997 594q-55 0 -71 -43l-244 88l242 446h-148q-154 1 -220 -67t-64 -219v-799h-457l-15 199l156 12v637q0 483 592 483h479l13 -162l-201 -368q176 -3 290 -103t113 -274q0 -209 -147 -336t-356 -127t-283 31l-27 12l-14 315l194 15l19 -123q39 -6 86 -6q98 0 159 59
q60 59 60 158q0 172 -156 172z" />
    <glyph glyph-name="uni2002" unicode="&#x2002;" horiz-adv-x="1013" 
 />
    <glyph glyph-name="uni2003" unicode="&#x2003;" horiz-adv-x="2027" 
 />
    <glyph glyph-name="uni2004" unicode="&#x2004;" horiz-adv-x="675" 
 />
    <glyph glyph-name="uni2005" unicode="&#x2005;" horiz-adv-x="505" 
 />
    <glyph glyph-name="uni2009" unicode="&#x2009;" horiz-adv-x="405" 
 />
    <glyph glyph-name="uni200A" unicode="&#x200a;" horiz-adv-x="81" 
 />
    <glyph glyph-name="uni2011" unicode="&#x2011;" horiz-adv-x="768" 
d="M702 453h-636v221h636v-221z" />
    <glyph glyph-name="endash" unicode="&#x2013;" horiz-adv-x="1220" 
d="M1155 453h-1089v221h1089v-221z" />
    <glyph glyph-name="emdash" unicode="&#x2014;" horiz-adv-x="1587" 
d="M1522 453h-1456v221h1456v-221z" />
    <glyph glyph-name="afii00208" unicode="&#x2015;" horiz-adv-x="1587" 
d="M1522 453h-1456v221h1456v-221z" />
    <glyph glyph-name="quoteleft" unicode="&#x2018;" horiz-adv-x="413" 
d="M198 887q-75 0 -121 56t-46 162t74 240q75 134 184 207l102 -92q-164 -131 -164 -291q88 -13 110 -62q23 -49 23 -94q0 -44 -44 -85t-118 -41z" />
    <glyph glyph-name="quoteright" unicode="&#x2019;" horiz-adv-x="432" 
d="M213 1546q74 0 120 -55t46 -163t-75 -241t-183 -206l-103 94q162 127 166 287q-61 8 -97 47t-36 98t44 99t118 40z" />
    <glyph glyph-name="quotesinglbase" unicode="&#x201a;" horiz-adv-x="432" 
d="M214 315q73 0 119 -57q46 -56 46 -162t-75 -239t-183 -207l-103 94q162 127 166 289q-63 8 -98 47t-35 97t45 98t118 40z" />
    <glyph glyph-name="quotedblleft" unicode="&#x201c;" horiz-adv-x="851" 
d="M198 887q-75 0 -121 56t-46 162t74 240q75 134 184 207l102 -92q-164 -131 -164 -291q88 -13 110 -62q23 -49 23 -94q0 -44 -44 -85t-118 -41zM636 887q-75 0 -121 56t-46 162t75 240t183 207l102 -92q-164 -131 -163 -291q87 -13 110 -63q23 -51 23 -78q0 -59 -44 -100
t-119 -41z" />
    <glyph glyph-name="quotedblright" unicode="&#x201d;" horiz-adv-x="870" 
d="M213 1546q74 0 120 -55t46 -163t-75 -241t-183 -206l-103 94q162 127 166 287q-61 8 -97 47t-36 98t44 99t118 40zM489 1407q0 59 44 99t118 40t120 -55t46 -163t-75 -241t-183 -206l-102 94q162 127 166 287q-61 8 -98 47q-36 39 -36 98z" />
    <glyph glyph-name="quotedblbase" unicode="&#x201e;" horiz-adv-x="870" 
d="M214 315q73 0 119 -57q46 -56 46 -162t-75 -239t-183 -207l-103 94q162 127 166 289q-63 8 -98 47t-35 97t45 98t118 40zM489 177q0 58 45 98t118 40t119 -57q46 -56 46 -162t-75 -239t-183 -207l-102 94q162 127 166 289q-63 8 -99 47q-35 39 -35 97z" />
    <glyph glyph-name="dagger" unicode="&#x2020;" horiz-adv-x="1150" 
d="M1038 719h-321l6 -1231h-289l4 1231h-327v219h350l-6 393h245l-6 -393h344v-219z" />
    <glyph glyph-name="daggerdbl" unicode="&#x2021;" horiz-adv-x="1150" 
d="M111 -158v219h350l-6 349l2 348h-346v219h340l-5 354h254l-4 -354h342v-219h-346v-348l-4 -349h350v-219h-348l6 -354h-243l4 354h-346z" />
    <glyph glyph-name="bullet" unicode="&#x2022;" horiz-adv-x="868" 
d="M135 673q0 113 75 185t198 72t204 -64q82 -80 82 -192t-82 -189q-84 -65 -200 -65t-197 70q-80 70 -80 183z" />
    <glyph glyph-name="ellipsis" unicode="&#x2026;" horiz-adv-x="1875" 
d="M516 131q0 -70 -50 -117t-129 -47t-130 45t-51 118t49 120t131 47t131 -48t49 -118zM1116 131q0 -70 -50 -117t-129 -47t-130 45t-51 118t49 120t131 47t131 -48t49 -118zM1714 131q0 -70 -50 -117t-129 -47t-130 45t-51 118t49 120t131 47t131 -48t49 -118z" />
    <glyph glyph-name="perthousand" unicode="&#x2030;" horiz-adv-x="2955" 
d="M788 -25l-221 41l647 1284l222 -40zM487 537q-199 -1 -303 113t-104 302t108 302q109 114 299 114q189 0 303 -115t114 -301t-109 -301q-109 -114 -308 -114zM489 743q168 0 168 210t-168 210q-162 0 -162 -210t162 -210zM1956 377q0 -186 -108 -301t-308 -115
q-199 0 -303 114t-104 302t108 302q109 114 299 114t303 -115t113 -301zM1542 168q168 0 168 210t-168 210q-162 0 -162 -210t162 -210zM2462 -39q-199 0 -303 114q-105 114 -105 302t109 302t299 114t303 -115t113 -301t-109 -301q-108 -115 -307 -115zM2464 168
q168 0 168 210t-168 210q-162 0 -162 -210t162 -210z" />
    <glyph glyph-name="guilsinglleft" unicode="&#x2039;" horiz-adv-x="815" 
d="M686 762l-235 -252l233 -254l-121 -135l-381 391l383 381z" />
    <glyph glyph-name="guilsinglright" unicode="&#x203a;" horiz-adv-x="815" 
d="M631 502l-383 -381l-123 129l235 252l-231 256l121 135z" />
    <glyph glyph-name="fraction" unicode="&#x2044;" horiz-adv-x="1046" 
d="M305 -98l-180 96l797 1239l178 -96z" />
    <glyph glyph-name="zerosuperior" unicode="&#x2070;" horiz-adv-x="1017" 
d="M952 1002q0 -564 -443 -564t-443 564t442 565q444 -1 444 -565zM508 639q88 0 126 83q38 84 38 280t-38 281t-126 85t-125 -85t-37 -283t37 -280t125 -81z" />
    <glyph glyph-name="foursuperior" unicode="&#x2074;" horiz-adv-x="1017" 
d="M557 774h-479l-15 162q178 324 242 629l258 -29q-61 -254 -221 -563h215v71l45 330h232v-401h110v-182l-110 -17v-112l84 -9l-15 -182h-442l-12 180l108 11v112z" />
    <glyph glyph-name="fivesuperior" unicode="&#x2075;" horiz-adv-x="1015" 
d="M447 967q-96 0 -142 -45l-133 18l68 596h448l12 51l183 -12l-13 -283l-231 13h-205l-18 -152q16 2 49 2q209 0 330 -89t121 -266q0 -178 -140 -270q-139 -92 -348 -92q-100 0 -174 14t-98 27l-23 13l-12 268l182 12l16 -113q51 -12 135 -12t140 44q55 44 55 119t-53 116
t-149 41z" />
    <glyph glyph-name="sixsuperior" unicode="&#x2076;" horiz-adv-x="1017" 
d="M92 915q0 187 39 323t102 204q116 125 259 125q88 0 178 -62l26 41h150v-299h-191l-12 82q-45 37 -120 37t-117 -56t-52 -190q94 45 199 45q172 0 281 -86q108 -86 108 -263t-114 -277q-114 -101 -312 -101t-310 118q-114 118 -114 359zM518 991q-92 0 -133 -51
q-16 -49 -16 -133t37 -133q38 -49 112 -49t112 53t38 145q0 168 -150 168z" />
    <glyph glyph-name="sevensuperior" unicode="&#x2077;" horiz-adv-x="1017" 
d="M938 1536v-221q-225 -352 -385 -844h-315q123 369 391 823h-353l-12 -82h-182l12 336l219 -12h625z" />
    <glyph glyph-name="eightsuperior" unicode="&#x2078;" horiz-adv-x="1017" 
d="M508 1567q184 1 300 -83t116 -234t-174 -234q199 -74 198 -262q0 -316 -439 -316t-439 318q0 160 190 254q-168 80 -168 252q0 141 116 223t300 82zM659 768q0 127 -155 154q-145 -27 -146 -154q0 -76 41 -117t110 -41t109 41t41 117zM367 1243q0 -127 149 -156
q135 31 135 158q0 72 -40 111q-41 39 -105 39t-102 -39t-37 -113z" />
    <glyph glyph-name="ninesuperior" unicode="&#x2079;" horiz-adv-x="1017" 
d="M926 1090q0 -195 -48 -331t-127 -202q-142 -119 -310 -119t-265 25l-33 10l-12 287l182 12l21 -125q41 -8 98 -8q90 0 154 64q63 65 76 190q-82 -57 -199 -57q-387 0 -387 333q0 180 118 289t316 109q198 -1 306 -117q110 -116 110 -360zM498 1010q90 0 141 59
q10 45 10 131q0 180 -145 180q-72 0 -112 -54t-40 -144q1 -172 146 -172z" />
    <glyph glyph-name="zerosub" unicode="&#x2080;" horiz-adv-x="1017" 
d="M509 -575q-443 0 -443 564t443 564t443 -564t-443 -564zM508 -375q88 0 126 83t38 280q0 198 -38 282t-126 84t-125 -85t-37 -283t37 -279q37 -82 125 -82z" />
    <glyph glyph-name="onesub" unicode="&#x2081;" horiz-adv-x="1015" 
d="M694 522v-862l189 -8l-13 -195h-655l-12 195l217 20v598l-191 -90l-82 189l316 153h231z" />
    <glyph glyph-name="twosub" unicode="&#x2082;" horiz-adv-x="1017" 
d="M528 553q176 0 276 -96t101 -244q0 -248 -424 -522h250l19 80l184 -15l-14 -299h-824v226q29 10 144 90q114 81 238 205t124 208t-37 118t-113 34t-143 -55l-8 -80h-195l13 332h151l27 -62q117 80 231 80z" />
    <glyph glyph-name="threesub" unicode="&#x2083;" horiz-adv-x="1015" 
d="M517 -96q-60 0 -122 -49l-121 129l279 309h-231l-15 -88h-182l14 330l219 -13h514v-157l-258 -275q129 -14 215 -100t86 -219q0 -168 -140 -257t-357 -89q-157 0 -258 38l-31 15l-12 270l182 12l18 -112q61 -14 115 -15q215 0 215 142q0 59 -35 94t-95 35z" />
    <glyph glyph-name="foursub" unicode="&#x2084;" horiz-adv-x="1017" 
d="M557 -240h-479l-15 162q178 324 242 629l258 -29q-61 -254 -221 -563h215v72l45 329h232v-401h110v-182l-110 -15v-114l84 -8l-15 -183h-442l-12 181l108 10v112z" />
    <glyph glyph-name="fivesub" unicode="&#x2085;" horiz-adv-x="1015" 
d="M649 -204q-1 157 -215 157q-108 0 -129 -45l-133 18l68 596h448l12 51l183 -12l-13 -282l-231 12h-205l-18 -152q16 2 49 2q209 0 330 -89t121 -266t-140 -269q-139 -92 -348 -92q-100 0 -174 13t-98 25l-23 15l-12 268l182 12l16 -110q184 -42 275 29q55 44 55 119z" />
    <glyph glyph-name="sixsub" unicode="&#x2086;" horiz-adv-x="1017" 
d="M92 -98q0 188 39 323t102 203q116 125 259 125q88 0 178 -61l26 40h150v-299h-191l-12 82q-45 37 -120 37t-117 -56t-52 -190q94 45 199 46q172 0 281 -86q108 -86 108 -264t-114 -277q-114 -100 -312 -100q-198 -1 -310 117q-114 118 -114 360zM518 -23q-92 0 -133 -51
q-16 -49 -16 -133t37 -133q38 -49 112 -49t112 53t38 146q0 167 -150 167z" />
    <glyph glyph-name="sevensub" unicode="&#x2087;" horiz-adv-x="1017" 
d="M938 522v-221q-225 -352 -385 -844h-315q121 365 391 824h-353l-12 -82h-182l12 336l219 -13h625z" />
    <glyph glyph-name="eightsub" unicode="&#x2088;" horiz-adv-x="1017" 
d="M924 238q0 -150 -174 -236q199 -70 198 -262q0 -315 -439 -315t-439 317q0 160 190 254q-168 76 -168 252q0 141 116 223t300 82t300 -83q116 -82 116 -232zM659 -246q0 131 -155 154q-58 -8 -102 -43t-44 -111t41 -116t110 -41q69 1 109 41t41 116zM367 229
q0 -127 149 -155q135 31 135 157q0 72 -40 111q-41 39 -105 39t-102 -39t-37 -113z" />
    <glyph glyph-name="ninesub" unicode="&#x2089;" horiz-adv-x="1017" 
d="M926 76q0 -195 -48 -331t-127 -202q-144 -120 -319 -118q-142 0 -256 26l-33 8l-12 287l182 12l21 -125q61 -8 98 -8q90 0 154 65q63 65 76 191q-80 -59 -199 -59q-387 0 -387 334q0 180 118 288t316 109q198 -1 306 -117q110 -116 110 -360zM498 -4q90 0 141 59
q10 45 10 131q0 180 -145 181q-72 -1 -112 -55t-40 -144q1 -172 146 -172z" />
    <glyph glyph-name="Euro" unicode="&#x20ac;" horiz-adv-x="1337" 
d="M1071 393h-514q76 -213 340 -213q84 0 166 32t121 64l41 33l90 -157q-91 -121 -288 -170q-81 -20 -173 -21q-500 0 -614 438l-152 9v182h121q-2 29 -2 92v23l-119 6v184h137q43 223 178 347t355 124q152 0 274 -80l33 62h164v-347h-211l-12 84q-78 63 -200 63t-186 -57
q-64 -58 -88 -196h539v-197h-553v-16q0 -63 2 -92h551v-197z" />
    <glyph glyph-name="uni20B4" unicode="&#x20b4;" horiz-adv-x="1159" 
d="M1044 446h-552q-27 -52 -27 -116t42 -103t126 -39t145 11l21 161l211 -12l-15 -317q-38 -25 -148 -47q-109 -22 -224 -23q-434 0 -435 326q0 84 48 164l-105 12v151h246l141 117h-387v170h555q29 45 29 94q0 145 -154 146q-78 0 -145 -54l-10 -86h-199l12 345h166l18 -64
q117 84 232 84q168 0 262 -91t94 -218q0 -86 -47 -166l100 -8v-152h-241q-14 -14 -148 -117h389v-168z" />
    <glyph glyph-name="afii61352" unicode="&#x2116;" horiz-adv-x="2705" 
d="M1608 1331v-213l-142 -12v-1112l-317 -2l-647 893h-6l10 -121v-541l162 -10l-15 -213h-569l-12 213l153 12v895l-155 13l14 198h467l637 -911h4l-8 92v596l-162 10l14 213h572zM2626 1015q0 -181 -118 -283t-335 -103q-217 0 -332 101q-115 102 -115 284t115 283t336 101
t335 -100q114 -102 114 -283zM2177 786q90 0 129 56t39 171q0 114 -39 167t-130 53t-130 -52t-39 -166q0 -113 40 -171t130 -58zM2490 176h-637v221h637v-221z" />
    <glyph glyph-name="trademark" unicode="&#x2122;" horiz-adv-x="1871" 
d="M1040 819h-170l58 717h196l197 -532l238 532h182l18 -717h-174l-16 402l-180 -402h-158l-180 438zM561 819h-186v553h-260v164h731v-164h-285v-553z" />
    <glyph glyph-name="onethird" unicode="&#x2153;" horiz-adv-x="2164" 
d="M694 1536v-862l189 -8l-13 -195h-655l-12 195l217 20v598l-191 -90l-82 188l316 154h231zM803 -98l-180 96l796 1239l178 -96zM2064 -229q0 -168 -140 -257t-357 -89q-82 0 -154 13t-102 25l-33 15l-12 270l182 12l18 -112q61 -14 115 -15q215 0 215 142q0 59 -35 94
t-101 35t-116 -49l-121 129l279 309h-232l-14 -88h-182l14 330l219 -13h514v-157l-258 -275q129 -14 215 -100t86 -219z" />
    <glyph glyph-name="twothirds" unicode="&#x2154;" horiz-adv-x="2234" 
d="M528 1567q176 -1 276 -97t101 -243q0 -252 -424 -522h250l19 79l184 -14l-14 -299h-824v225q29 10 144 90q114 80 238 205t124 209t-37 118t-113 34t-143 -56l-8 -79h-195l13 331h151l27 -61q117 80 231 80zM872 -98l-180 96l797 1239l178 -96zM1730 -96q-66 0 -116 -49
l-121 129l279 309h-232l-14 -88h-183l15 330l219 -13h514v-157l-258 -275q129 -14 215 -100t86 -219q0 -168 -140 -257t-358 -89q-158 0 -256 38l-32 15l-13 270l183 12l18 -112q61 -14 115 -15q215 0 215 142q0 59 -35 94t-101 35z" />
    <glyph glyph-name="oneeighth" unicode="&#x215b;" horiz-adv-x="2166" 
d="M694 1536v-862l189 -8l-13 -195h-655l-12 195l217 20v598l-191 -90l-82 188l316 154h231zM803 -98l-180 96l796 1239l178 -96zM2073 238q0 -150 -175 -236q199 -70 199 -262q0 -315 -439 -315t-439 317q0 160 190 254q-168 76 -168 252q0 141 116 223t300 82t300 -83
q116 -82 116 -232zM1808 -246q0 131 -155 154q-57 -8 -101 -43t-45 -111q0 -76 41 -116t110 -41q70 1 110 41t40 116zM1516 229q0 -127 149 -155q135 31 135 157q0 72 -40 111t-104 39t-102 -39t-38 -113z" />
    <glyph glyph-name="threeeighths" unicode="&#x215c;" horiz-adv-x="2179" 
d="M649 788q0 58 -35 94t-101 36t-116 -50l-121 129l279 310h-231l-15 -88h-182l14 329l219 -12h514v-158l-258 -274q129 -14 215 -100t87 -220q0 -168 -140 -257t-358 -89q-82 0 -154 14t-102 27l-33 13l-12 270l182 12l18 -115q51 -12 115 -12q215 0 215 141zM817 -98
l-180 96l797 1239l178 -96zM2085 238q0 -150 -174 -236q199 -70 198 -262q0 -315 -439 -315t-439 317q0 160 190 254q-168 76 -168 252q0 141 116 223t300 82t300 -83q116 -82 116 -232zM1821 -246q0 131 -156 154q-57 -8 -101 -43t-44 -111t41 -116t109 -41q68 1 110 41
q41 40 41 116zM1528 229q0 -127 149 -155q135 31 135 157q0 72 -39 111q-40 39 -105 39q-64 0 -102 -39t-38 -113z" />
    <glyph glyph-name="fiveeighths" unicode="&#x215d;" horiz-adv-x="2154" 
d="M447 967q-96 0 -142 -45l-133 18l68 596h448l12 51l183 -12l-13 -283l-231 13h-205l-18 -152q16 2 49 2q209 0 330 -89t121 -266q0 -178 -140 -270q-139 -92 -348 -92q-100 0 -174 14t-98 27l-23 13l-12 268l182 12l16 -113q51 -12 135 -12t140 44q55 44 55 119t-53 116
t-149 41zM793 -98l-181 96l797 1239l178 -96zM1645 553q183 0 299 -83q116 -82 116 -232t-174 -236q199 -70 199 -262q0 -315 -439 -315t-440 317q0 160 191 254q-168 76 -168 252q0 141 116 223t300 82zM1796 -246q0 131 -156 154q-57 -8 -101 -43t-44 -111t41 -116
t110 -41q70 1 110 41t40 116zM1503 229q0 -127 150 -155q135 31 135 157q0 72 -40 111t-104 39t-103 -39q-38 -39 -38 -113z" />
    <glyph glyph-name="seveneighths" unicode="&#x215e;" horiz-adv-x="1996" 
d="M938 1536v-221q-225 -352 -385 -844h-315q123 369 391 823h-353l-12 -82h-182l12 336l219 -12h625zM635 -98l-180 96l796 1239l179 -96zM1903 238q0 -150 -174 -236q199 -70 198 -262q0 -315 -439 -315t-439 317q0 160 190 254q-168 76 -168 252q0 141 116 223t300 82
t300 -83q116 -82 116 -232zM1638 -246q0 131 -155 154q-57 -8 -101 -43t-45 -111q0 -76 41 -116t110 -41q70 1 110 41t40 116zM1346 229q0 -127 149 -155q135 31 135 157q0 72 -40 111t-104 39t-102 -39t-38 -113z" />
    <glyph glyph-name="arrowup" unicode="&#x2191;" horiz-adv-x="1521" 
d="M1303 657l-158 -129l-285 271l8 -875h-217l8 873l-282 -269l-158 129l541 519z" />
    <glyph glyph-name="arrowdown" unicode="&#x2193;" horiz-adv-x="1550" 
d="M786 -66l-540 519l155 129l285 -273l-8 877h217l-10 -877l286 273l158 -129z" />
    <glyph glyph-name="arrowupleft" unicode="&#x2196;" horiz-adv-x="1310" 
d="M975 756l-357 16l580 -586l-172 -159l-567 600l16 -373l-178 -29l-51 762l758 -51z" />
    <glyph glyph-name="arrowupright" unicode="&#x2197;" horiz-adv-x="1310" 
d="M287 27l-172 159l579 586l-356 -16l-31 180l758 51l-49 -762l-178 29l14 373z" />
    <glyph glyph-name="arrowdownright" unicode="&#x2198;" horiz-adv-x="1310" 
d="M1090 43l-758 51l30 178l357 -16l-580 588l172 160l566 -603l-15 375l178 29z" />
    <glyph glyph-name="arrowdownleft" unicode="&#x2199;" horiz-adv-x="1310" 
d="M979 94l-758 -51l51 762l179 -29l-17 -375l567 603l173 -160l-582 -588l358 16z" />
    <glyph glyph-name="minus" unicode="&#x2212;" horiz-adv-x="1220" 
d="M1155 453h-1089v221h1089v-221z" />
    <glyph glyph-name="uni2731" unicode="&#x2731;" horiz-adv-x="3454" 
d="M1258 274q-48 0 -82 43q-44 -35 -100 -35t-84 28t-27 75l4 72h-13q-34 1 -62 23t-28 70t43 91t103 57q-12 6 -24 25q-11 18 -11 33q0 88 186 88q9 0 29 9t40 9t48 -6q4 2 20 25h-22q-61 0 -108 24q-46 25 -46 71t32 68t63 23l30 2v-2q-27 -10 -16 -51q12 -66 106 -96
q113 88 217 88q166 0 284 -98t118 -265q0 -168 -74 -309l6 -2q104 92 210 92t178 -60q71 -60 71 -158t-71 -156q-71 -60 -171 -60q-61 0 -95 32t-34 90t66 66v-4q-25 -10 -25 -37q0 -66 76 -65q35 0 59 24t23 70q0 45 -42 81q-41 36 -133 36t-200 -72q-217 -252 -618 -252
q-293 0 -472 164t-180 459q0 182 91 350l-11 2q-80 -154 -235 -154q-106 0 -191 75q-84 75 -84 227t84 214q84 64 180 64t162 -46q68 -46 115 -46t90 22t49 74h11q8 -25 8 -53q1 -74 -55 -128q-56 -55 -116 -55t-115 18q-56 18 -81 19q-63 0 -63 -57q0 -47 36 -75t87 -27
q137 0 256 92q258 258 714 258q393 0 774 -199l5 10q-39 27 -39 77t40 85t102 35t110 -38t49 -96q0 -58 -30 -85t-69 -27t-56 16t-17 32q0 14 4 26l8 4q6 -39 40 -39t34 37q0 70 -78 72q-29 0 -46 -20t-18 -44q0 -65 41 -88h-2q158 -90 346 -233l23 18l35 -37l-19 -16
l60 -55l24 22l37 -39l-26 -20q412 -408 557 -754h-336q-123 362 -400 637l-61 -47q238 -276 342 -592h-342q-86 313 -195 457l-26 -13l-27 48l23 14l-35 55l-25 -18l-30 45l30 18q-178 261 -301 346q-174 124 -339 160q-105 23 -226 23q-285 1 -455 -141t-170 -400
q0 -144 66 -240t154 -133t194 -37q227 0 391 138t164 311q0 86 -55 135t-133 49q-45 0 -99 -49q27 -39 89 -72q61 -32 97 -32t48 12h2q0 -37 -25 -64q-25 -26 -71 -26t-98 47q-50 47 -66 108q-13 -13 -13 -32v-7q57 -61 58 -159q0 -45 -30 -69t-73 -23v-25q0 -76 -37 -114
t-85 -38zM2437 721l51 51q-213 180 -411 281l-9 -11q158 -98 369 -321zM1206 604l-24 78l-74 -25l22 -75zM2583 678l-58 59l-53 -51l51 -55zM1235 514l-21 68l-75 -21l22 -74zM1296 635l-24 72l-68 -19l25 -74zM1139 479l-23 74l-63 -21q4 -31 28 -69zM1329 547l-22 63
l-70 -20l23 -66zM1319 641l55 16q0 39 -24 74l-56 -16zM1260 436l-19 56l-72 -27l13 -49q43 0 78 20zM1237 774q-35 0 -59 -12l18 -49l66 16l-15 45h-10zM1108 575l-23 76l-14 -6q-23 -31 -18 -88zM1341 514l-4 10l-71 -22l16 -53q43 30 59 65zM1174 705l-19 49
q-13 -6 -31 -26t-24 -40l2 -6zM1352 557l8 2q16 31 20 74l-51 -17zM1159 416l-14 43l-47 -17q30 -26 61 -26zM1286 737l49 15q-29 23 -63 24z" />
    <glyph glyph-name="uni2732" unicode="&#x2732;" horiz-adv-x="3454" 
d="M1477 114q-1 -122 -149 -122q-80 0 -151 59t-71 157t71 158t177 60t211 -92l6 2q-74 141 -74 309t118 265t283 98q111 0 220 -88q94 33 108 96q6 43 -18 53v2q48 1 87 -23q38 -24 38 -70t-45 -71t-107 -24h-24q14 -23 22 -25q29 6 47 6t38 -9t30 -9q186 0 186 -88
q0 -20 -15 -38t-24 -22q150 -45 150 -143q0 -51 -29 -75t-61 -23h-13q4 -27 4 -72t-28 -73t-77 -28q-50 0 -106 35q-29 -43 -80 -43t-87 38t-37 114v25q-41 -1 -72 23t-31 69q0 96 60 160q-2 25 -15 38q-18 -63 -67 -118q-50 -55 -96 -55t-68 22q-22 23 -27 45l-2 22h2
q14 -10 44 -10t96 39t94 80q-45 49 -112 49t-122 -49t-55 -135q0 -172 164 -310q164 -139 395 -139t346 170q66 96 66 240q0 258 -170 399t-436 141t-438 -91q-85 -46 -148 -91q-128 -91 -301 -346l30 -18l-30 -45l-25 18l-35 -55l23 -14l-27 -48l-26 13
q-109 -143 -195 -457h-342q104 315 342 592l-61 47q-276 -274 -400 -637h-336q145 346 557 754l-26 20l39 39l22 -22l60 55l-19 16l35 37l23 -18q166 129 344 233q41 23 41 88q0 25 -16 44q-16 20 -49 20q-31 0 -53 -16t-22 -55q0 -38 35 -38q29 0 37 39q12 -6 12 -26
t-16 -36t-56 -16t-70 27t-30 85t48 96t110 38t103 -35q40 -35 40 -85t-39 -77l2 -10q385 199 777 199q463 0 714 -258q119 -92 256 -92q51 0 87 28t36 74q0 57 -63 57q-25 0 -81 -18q-56 -19 -116 -19t-113 54q-54 54 -55 127q0 31 8 55h9q6 -51 49 -74q43 -22 90 -22
t115 46t141 46q117 0 201 -64t84 -215q0 -153 -84 -227t-191 -74q-156 0 -235 154l-13 -2q92 -170 92 -350q0 -295 -179 -459t-472 -164q-406 0 -618 252q-113 72 -202 72t-131 -36t-42 -81t24 -70t58 -24q76 0 76 65q0 28 -19 33l-6 4v4q66 -8 66 -66zM967 772l51 -51
q211 223 368 321l-8 11q-198 -101 -411 -281zM2275 682l-22 -76l76 -22l20 73zM930 737l-58 -59l62 -47l49 55zM2243 584l-21 -68l74 -27l24 74zM2187 709l-26 -72l69 -23l25 76zM2150 612l-22 -63l72 -25l20 68zM2343 553l-23 -72l56 -16q23 33 28 70zM2083 659l55 -16
l27 72l-58 16q-20 -29 -24 -72zM2216 494l-18 -58q37 -18 77 -18l15 49zM2222 776h-10l-17 -45l68 -16l16 49q-25 12 -57 12zM2372 653l-21 -78l55 -18q2 47 -18 90zM2120 526l-4 -12q16 -31 59 -65l18 53zM2304 754l-18 -49l71 -21v6q-6 18 -23 39q-18 21 -30 25zM2097 561
l10 -4l21 61l-49 17q4 -41 18 -74zM2122 752l51 -15l12 41q-40 -8 -63 -26zM2314 459l-16 -41q29 0 61 24z" />
    <glyph glyph-name="uni2733" unicode="&#x2733;" horiz-adv-x="2635" 
d="M1135 901h-5l-26 82l-129 -25v68h-4q-29 0 -79 18t-71 19q47 59 58 108q-25 19 -48 51t-32 54l-13 22q12 2 82 27t125 31q-14 45 -41 67q4 1 42 23t104 22q252 0 252 -204q0 -33 -7 -70q31 -2 66 -28t55 -62q115 166 273 166q74 0 180 -60q105 -60 171 -59q66 0 126 25
q4 47 40 90t96 43t99 -40t39 -109t-63 -109q35 -12 63 -47t29 -87q0 -53 -41 -93t-91 -40t-77 17q12 -27 12 -71t-40 -84t-96 -40t-95 35q-27 -10 -63 -10t-70 28q-41 -73 -117 -73t-114 52t-25 114q-87 -34 -139 23q-33 36 -33 86t33 85t86 35t86 -37q41 29 68 77
q28 48 32 93q-76 27 -117 27q-76 0 -135 -78t-117 -200t-104 -173l268 -131q18 35 38 35q44 0 44 -37q0 -2 -10 -33l508 -250l14 35q10 23 32 23t38 -14q18 -14 18 -26q0 -11 -4 -24l-156 -311q-8 -20 -30 -20t-42 15t-10 44l17 33l-506 247q-29 -54 -71 -21q-13 12 -13 23
t12 35l-290 142q-141 -113 -162 -129q35 6 65 6q94 0 159 -49t64 -140q0 -59 -32 -108l-47 33q-27 -123 -101 -183q-4 10 -14 38t-20 55t-7 59q-8 -6 -127 -23q6 27 30 71t24 79q0 55 -138 72q-252 -141 -561 -164v141q100 6 199 31q2 6 2 28t-28 44q-28 24 -56 34l-29 10
q46 23 64 23h4l-57 84q39 20 55 20t20 -2q-8 57 -22 86h10l94 13q68 0 104 -39t36 -97t-35 -113q-35 -54 -95 -75q317 90 490 250l-414 203q-20 -37 -38 -37t-31 12t-13 22t11 35l-3 3q-78 -70 -196 -70t-206 80q-87 80 -87 188q0 20 8 66l-31 12q-12 4 -12 14t4 23l72 147
q14 33 35 17l33 -11q76 86 208 86t212 -82t81 -212v-13l2 -2q15 35 35 35t34 -10t13 -24q0 -14 -12 -34l440 -215q55 71 144 248q-14 94 -82 94q-1 -49 -19 -87t-40 -55q-54 -42 -119 -42zM1540 377l31 59l-811 398l-31 -60zM416 813h10q86 0 133 68q-19 55 -119 104
t-166 49q-8 0 -14 -2t-10 -47q2 -70 50 -121t116 -51zM2048 131l31 57l-441 215l-30 -59zM2152 877q2 0 2 2q0 1 36 1t65 -20q-18 43 -12 88q-2 0 -209 88zM1767 844q41 23 82 16q18 49 23 141q-39 -59 -113 -98l6 -22q2 -12 2 -37zM1903 844q18 -12 32 -27q16 29 47 41
q-8 37 -53 156q-3 -119 -26 -170zM2128 1075l147 -61q12 14 29 24q-56 21 -76 68q-57 -23 -100 -31zM2040 872q16 0 41 -8l-64 86q17 -47 23 -78z" />
    <glyph glyph-name="uni2736" unicode="&#x2736;" horiz-adv-x="1019" 
d="M143 1024h734v-731l-367 -146l-367 146v731zM764 393v447l-135 -189l59 -108l-149 -78l59 160l-88 333l-88 -333l57 -160l-149 78l61 108l-135 189v-447h172l82 -137l82 137h172z" />
    <glyph glyph-name="uni2737" unicode="&#x2737;" horiz-adv-x="1847" 
d="M406 61q-106 -1 -160 61t-56 132q0 70 37 102q-95 32 -118 110q-18 60 -21 124l115 -17q27 141 102 152q-10 16 -10 44q1 29 23 53t55 24t47 -19v84l295 308h131q-25 25 -25 69q0 86 103 107q102 -20 102 -107q0 -47 -22 -69h129l294 -308v-84q18 19 49 19t55 -25
q23 -25 23 -45t-10 -51q74 -10 101 -152l114 17q-6 -143 -60 -191q-30 -27 -77 -43q37 -32 37 -102t-54 -131t-163 -62q-66 0 -110 25t-52 47l16 -133h-743l16 133q-10 -23 -54 -47t-109 -25zM741 233h365l246 267v381l-250 262h-354l-250 -262v-381zM1071 311h-297
l-205 219v318l205 219h297l207 -219v-318zM1028 748q0 -56 -16 -80h4q74 0 74 -58q0 -27 -25 -45t-55 -18q-49 0 -49 69v48q0 74 3 110q7 87 64 86h2v12q0 14 -43 54t-63 86q-20 -47 -64 -86q-44 -40 -43 -52q0 -12 2 -14q45 0 57 -40t11 -140v-64q0 -70 -49 -69
q-31 0 -55 18t-23 45q0 57 71 58h5q-14 16 -14 76t-28 84t-106 44q10 -104 10 -194l-4 -191q45 15 89 15q43 0 87 -43t54 -90q10 47 53 90t93 43t85 -15q-6 135 -6 191l12 194q-77 -20 -105 -44t-28 -80zM1501 242q0 -20 -18 -32q-18 -13 -44 -13q-26 1 -45 25
q-20 24 -20 63t30 77t75 39h55q55 2 90 41t35 84q-27 -12 -122 -22t-153 -64q-88 -80 -88 -154t41 -109q41 -36 101 -36t101 37q40 37 40 84t-25 70t-63 22q-78 0 -78 -69q0 -14 7 -29q8 -14 16 -12q-4 10 6 24t22 14t24 -10t13 -30zM371 401q45 0 75 -39q30 -40 29 -78
q0 -38 -20 -63t-49 -24q-55 0 -56 43q0 37 35 36q15 0 23 -14t4 -24q8 0 16 13t8 36t-20 42t-58 19t-62 -24q-26 -24 -26 -68q0 -45 38 -80t100 -35t103 36q40 36 40 110t-86 153q-59 54 -155 64t-122 22q0 -45 35 -84t90 -41h58zM1194 76l-16 135l-76 -64h-354l-76 64
l-17 -135h539zM428 551q0 106 -82 106q-25 0 -42 -20t-23 -45h12q45 0 71 -14q25 -15 48 -52l16 -2v27zM1554 592h13q-3 25 -21 45t-45 20q-80 0 -80 -106v-27l17 2q23 37 47 52q25 14 69 14zM969 1286q0 38 -45 45q-43 -8 -43 -47t43 -59q45 23 45 61zM381 791
q-33 0 -33 -29q0 -41 74 -76q0 61 -9 83t-32 22zM1499 762q0 29 -31 29q-23 0 -32 -21t-9 -84q72 35 72 76z" />
    <glyph glyph-name="uni2766" unicode="&#x2766;" horiz-adv-x="2131" 
d="M1018 121q104 0 183 42t120 118l86 -56q-49 -109 -153 -167t-230 -58q-217 0 -369 154t-151 378q0 160 87 288t222 192q-47 55 -106 80q-21 -116 -117 -178t-207 -62q-66 0 -107 20q4 23 9 80q4 57 14 74q-114 4 -159 21q-44 17 -72 32q2 2 7 29q15 79 56 104
q-58 65 -73 115t-17 51h2q14 0 43 18q87 52 207 52q39 0 86 -6q-26 37 -30 79q-3 42 -5 48q20 4 55 4q95 0 219 -61q64 -30 106 -87t42 -115t-18 -114q109 -51 172 -147l43 6q27 4 109 4t200 -41q119 -41 160 -41q127 0 266 57q0 60 43 98t96 38t95 -42q42 -41 42 -101
t-43 -99q39 -12 64 -49t25 -85t-38 -86q-37 -38 -73 -44q14 -29 14 -74t-41 -85t-92 -40t-80 20q2 -6 2 -20q0 -51 -37 -86t-88 -35t-88 31q-37 -49 -102 -49t-104 43q-38 43 -38 100q0 18 2 27q-33 -60 -94 -60t-95 37t-34 86t33 84t76 35t71 -16q35 39 62 106t14 121
q-86 70 -223 69q-86 0 -94 -8h-4q23 -61 22 -141q0 -137 -83 -258t-242 -182q49 -121 149 -185q99 -64 203 -63zM639 453q125 51 188 144t63 181t-24 144q-104 -46 -171 -148t-66 -229q0 -41 10 -92zM1591 586q29 0 58 -17q-4 20 -4 47t22 62q-20 18 -90 68t-107 79
q82 -141 113 -239h8zM1276 565q0 -18 -4 -35q37 59 98 68q2 12 2 62t-12 131q-35 -98 -109 -162l11 -19q14 -27 14 -45zM1427 672q0 -56 -4 -74q47 -10 78 -47q10 10 27 18q-25 82 -113 238q12 -79 12 -135zM1714 965q-74 -33 -143 -52l186 -49q10 18 27 35q-45 19 -70 66z
M1716 723q0 8 41 16q-12 20 -16 56q-80 18 -189 49q156 -115 164 -121z" />
    <glyph glyph-name="uni2767" unicode="&#x2767;" horiz-adv-x="1507" 
d="M1130 1073q20 0 56 -9q37 -9 43 -9h2q1 -63 -101 -181t-221 -116q-88 0 -166 71q-37 -55 -92 -90q105 -37 293 -149t211 -123q43 37 95 37t91 -38t39 -92t-40 -95t-84 -41t-72 16l6 -29v-14q0 -57 -39 -95t-101 -38t-100 53q-10 -35 -42 -57t-68 -23q-78 0 -113 72
q-39 -43 -98 -43t-97 41q-36 41 -36 85t18 75q-30 -21 -72 -21t-75 32t-33 81t32 83t86 34t85 -41q129 76 129 141q0 12 -2 18q-25 25 -96 43t-140 19q-209 0 -289 -158l-119 43q61 104 105 143q100 88 283 88q33 0 73 -6q121 33 191 138q-121 70 -121 223q0 73 29 143
t69 105q19 -17 69 -45t62 -41q51 101 77 128q25 27 41 41t17 15q2 1 24 -17q64 -51 71 -94q49 20 106 21l64 -4h4q-2 -6 -2 -19l4 -67q0 -104 -82 -236q6 2 26 2zM815 299q0 86 -41 217q-18 -119 -67 -197q37 -25 49 -67q27 23 59 29v18zM1044 342h11q35 0 67 -16
q-12 52 -4 77q-43 20 -211 121q82 -109 129 -184h4q2 2 4 2zM881 274q27 -8 49 -34q10 45 45 73q-53 88 -131 185q39 -142 37 -224zM561 389l2 -16q0 -27 -14 -56q47 33 98 23q43 78 60 166q-47 -70 -146 -113v-4z" />
    <glyph glyph-name="st" unicode="&#xfb06;" horiz-adv-x="1716" 
d="M514 858q-145 0 -145 -86q0 -43 56 -75q56 -33 135 -59t159 -60t136 -100q56 -67 56 -159q-1 -166 -117 -262t-366 -96q-178 0 -301 39l-39 12l-27 307l185 13l20 -146q82 -20 154 -20q182 0 182 117q0 73 -136 110t-257 102q-59 32 -98 94t-39 148q0 135 94 222t242 100
q-31 72 -31 151q0 126 97 226t278 100h649v-512h268v-225h-268v-437q0 -166 115 -165l139 14l2 -193q-72 -38 -237 -38q-166 0 -244 72t-78 241v858l49 209h-387q-201 0 -201 -186q0 -78 49 -146q35 -12 86 -43l33 55h147l-2 -329h-196l-17 92q-74 55 -145 55z" />
    <glyph glyph-name="halfcaron" horiz-adv-x="829" 
d="M428 1403q0 61 -8 102l22 133l207 -28q-24 -330 -104 -500l-172 27q55 111 55 266z" />
    <glyph glyph-name="commaaccent" horiz-adv-x="550" 
d="M191 -98q43 0 85 -16t41 -33q57 -66 57 -165t-64 -208q-65 -109 -169 -178l-88 80q131 102 131 221q0 31 -4 45q-53 8 -84 42q-30 34 -30 87t40 89q42 36 85 36z" />
    <glyph glyph-name="zero.onum" horiz-adv-x="1380" 
d="M690 -39q-292 0 -442 158q-150 159 -150 409t148 392t444 141q298 0 444 -141q146 -140 146 -392t-148 -410t-442 -157zM689 184q146 0 214 96t68 248t-66 231t-215 79q-281 0 -280 -308q0 -156 66 -251t213 -95z" />
    <glyph glyph-name="one.onum" horiz-adv-x="925" 
d="M694 1024v-815l115 -8l-14 -201h-574l-14 213l188 12v566q-217 -57 -252 -58l-30 209q34 0 264 62l80 20h237z" />
    <glyph glyph-name="two.onum" horiz-adv-x="1134" 
d="M571 1061q199 0 305 -86t107 -221q0 -272 -463 -502h328l22 108l201 -14l-16 -346h-996v203l60 12q136 74 268 166q264 185 262 324q0 121 -166 120q-98 0 -166 -59l-12 -121h-215l14 393h166l21 -61q139 84 280 84z" />
    <glyph glyph-name="three.onum" horiz-adv-x="1114" 
d="M428 -346q-102 0 -189 16t-124 33l-35 16l-14 318l198 14l23 -151q66 -16 143 -17q143 1 217 61t74 160q0 168 -195 168q-32 0 -64 -13t-48 -28l-19 -14l-131 139l354 416h-323l-16 -113h-201l16 379l240 -14h641v-172l-342 -373q172 -8 285 -107t112 -268
q0 -210 -171 -330t-431 -120z" />
    <glyph glyph-name="four.onum" horiz-adv-x="1220" 
d="M1032 -307h-303v307h-649l-17 190q92 156 203 402t174 452l285 -20q-102 -352 -367 -807h371v205l49 401h254v-606h154v-199l-154 -18v-307z" />
    <glyph glyph-name="five.onum" horiz-adv-x="1116" 
d="M727 125q0 207 -268 207q-129 0 -166 -56l-148 21l80 727h553l15 66l200 -15l-14 -317l-252 14h-289l-28 -240q41 6 86 7q252 -1 396 -103t144 -316t-170 -340t-420 -126q-120 0 -208 16t-115 33l-29 16l-14 316l199 14l22 -149q61 -16 169 -16t182 68q74 69 75 173z" />
    <glyph glyph-name="six.onum" horiz-adv-x="1241" 
d="M98 565q0 220 64 412q37 111 93 195q55 84 151 138q96 56 206 56t228 -74l32 54h166v-359h-211l-14 103q-70 57 -164 57q-236 0 -262 -346q137 74 285 73q227 0 359 -101t132 -320t-140 -355t-389 -137q-248 1 -392 155t-144 449zM635 684q-86 0 -140 -34t-75 -79
q-10 -41 -10 -96q0 -307 229 -307q109 0 161 82t52 209q0 225 -217 225z" />
    <glyph glyph-name="seven.onum" horiz-adv-x="1050" 
d="M1024 1024v-242q-276 -459 -461 -1089h-344q145 489 471 1067h-440l-17 -117h-198l12 395l240 -14h737z" />
    <glyph glyph-name="eight.onum" horiz-adv-x="1253" 
d="M1143 993q0 -205 -240 -311q272 -90 273 -332q0 -389 -548 -389t-548 391q0 207 258 322q-229 98 -229 323q0 173 142 271q141 98 375 98t376 -98t141 -275zM626 152q104 0 162 54q56 54 56 158q0 103 -68 152t-158 62q-80 -10 -144 -58t-64 -154t56 -160t160 -54z
M426 981q0 -182 211 -217q193 43 192 221q1 193 -201 193t-202 -197z" />
    <glyph glyph-name="nine.onum" horiz-adv-x="1241" 
d="M1143 498q0 -207 -42 -364q-41 -157 -103 -246t-149 -144q-87 -54 -163 -72t-215 -18t-262 33l-39 10l-14 338l198 14l25 -162q63 -12 147 -12q129 0 218 89t108 261q-109 -88 -283 -88q-221 0 -355 115t-134 334t144 346t390 127q529 0 529 -561zM606 328q147 0 211 92
q14 68 14 185t-49 183t-164 66t-172 -74t-57 -190t54 -190q54 -72 163 -72z" />
    <glyph glyph-name="dollar.onum" horiz-adv-x="956" 
d="M420 166q182 0 182 117q0 73 -136 110t-257 102q-59 32 -98 94t-39 148q0 123 79 206t203 108l8 241h216l20 -258q45 -16 96 -49l33 55h147l-2 -329h-196l-17 92q-74 55 -145 55q-145 0 -145 -86q0 -43 56 -75q56 -33 135 -59t159 -60t136 -100q56 -67 56 -159
q0 -287 -315 -344l-6 -219h-213l-19 207q-146 8 -239 39l-31 10l-27 307l185 13l20 -146q82 -20 154 -20z" />
    <glyph glyph-name="cent.onum" horiz-adv-x="1030" 
d="M49 528q0 214 97 350t274 171l6 229h215l18 -246q45 -16 97 -53l32 61h183l-4 -417h-226l-16 168q-61 61 -159 61t-150 -72q-53 -72 -54 -248q0 -358 269 -358q67 0 131 32t94 64l31 31l129 -143l-12 -18t-38 -43q-117 -117 -304 -132l-5 -223h-215l-20 238
q-373 88 -373 548z" />
    <glyph glyph-name="sterling.onum" horiz-adv-x="1171" 
d="M88 0v223h166q45 53 45 164v25l-211 4v190h201v37q0 186 98 303t279 117q100 0 213 -66l20 43h180v-329h-225l-12 82q-53 33 -116 33q-62 0 -100 -47q-38 -46 -38 -128v-45h418v-196h-418q-6 -117 -49 -187h381l24 99l199 -15l-15 -307h-1040z" />
    <glyph glyph-name="yen.onum" horiz-adv-x="1202" 
d="M756 1126h501v-204l-190 -11l-203 -325h207v-228h-305v-139l137 -10l-14 -209h-547l-12 209l131 10v139h-318v228h213l-213 336l-202 8l12 196h541v-196l-21 -2l156 -256h4l145 248l-22 2v204z" />
    <glyph glyph-name="Euro.onum" horiz-adv-x="1191" 
d="M1090 696h-226l-14 105q-66 51 -160 51q-203 0 -223 -256h594v-199h-584q45 -225 256 -225q68 0 131 26t94 52l29 24l131 -129q-12 -25 -50 -60q-38 -37 -80 -61t-119 -43t-167 -20q-229 0 -363 115t-165 321l-119 6v193h113q18 217 142 342t319 125q135 0 252 -80l30 57
h179v-344z" />
    <glyph glyph-name="uni20B4.onum" horiz-adv-x="1044" 
d="M569 1063q152 0 243 -80q91 -81 91 -187t-72 -188h105v-194h-455q-55 -39 -55 -111q0 -131 166 -131q55 0 106 10l19 127l184 -14l-14 -289q-107 -45 -325 -45t-315 76q-97 77 -97 189t75 188l-131 4v192h479q53 45 54 115q0 125 -138 125q-63 0 -122 -49l-15 -84h-184
l14 323h148l18 -53q119 76 221 76z" />
    <glyph glyph-name="afii61352.onum" horiz-adv-x="2484" 
d="M1430 1126v-196l-123 -8v-926l-303 -2l-543 692h-6l8 -61v-420l141 -17l-12 -188h-518l-13 209l134 10v701l-136 10l15 196h432l532 -710h4l-6 63v430l-139 15l12 202h521zM1952 418q-217 0 -332 101t-115 283t115 284t336 102t335 -102q113 -102 113 -282
q0 -181 -117 -284q-118 -102 -335 -102zM1956 575q90 1 129 57t39 170t-39 167t-130 53t-130 -52t-39 -166t40 -172t130 -57zM2271 2h-637v221h637v-221z" />
    <glyph glyph-name="onefifth" horiz-adv-x="2084" 
d="M694 1536v-862l189 -8l-13 -195h-655l-12 195l217 20v598l-191 -90l-82 188l316 154h231zM819 -98l-180 96l797 1239l178 -96zM1597 141q209 0 330 -89t121 -266t-139 -269t-348 -92q-101 0 -175 13t-96 25l-24 15l-13 268l183 12l16 -110q185 -42 274 29q56 44 56 119
q0 157 -216 157q-108 0 -128 -45l-133 18l67 596h449l12 51l182 -12l-12 -282l-231 12h-205l-19 -152q16 2 49 2z" />
    <glyph glyph-name="twofifths" horiz-adv-x="2113" 
d="M528 1567q176 -1 276 -97t101 -243q0 -252 -424 -522h250l19 79l184 -14l-14 -299h-824v225q29 10 144 90q114 80 238 205t124 209t-37 118t-113 34t-143 -56l-8 -79h-195l13 331h151l27 -61q117 80 231 80zM848 -98l-180 96l796 1239l178 -96zM1812 -204q0 157 -214 157
q-108 0 -130 -45l-133 18l68 596h448l13 51l182 -12l-12 -282l-232 12h-205l-18 -152q16 2 49 2q209 0 330 -89t121 -266q1 -177 -139 -269t-349 -92q-100 0 -174 13t-98 25l-23 15l-12 268l182 12l17 -110q185 -42 274 29q55 44 55 119z" />
    <glyph glyph-name="threefifths" horiz-adv-x="2113" 
d="M649 788q0 58 -35 94t-101 36t-116 -50l-121 129l279 310h-231l-15 -88h-182l14 329l219 -12h514v-158l-258 -274q129 -14 215 -100t87 -220q0 -168 -140 -257t-358 -89q-82 0 -154 14t-102 27l-33 13l-12 270l182 12l18 -115q51 -12 115 -12q215 0 215 141zM846 -98
l-180 96l796 1239l178 -96zM1812 -204q0 157 -214 157q-108 0 -130 -45l-133 18l68 596h448l13 51l182 -12l-12 -282l-232 12h-205l-18 -152q16 2 49 2q209 0 330 -89t121 -266q1 -177 -139 -269t-349 -92q-100 0 -174 13t-98 25l-23 15l-12 268l182 12l17 -110
q185 -42 274 29q55 44 55 119z" />
    <glyph glyph-name="fourfifths" horiz-adv-x="2113" 
d="M467 774h-479l-15 162q178 324 242 629l258 -29q-61 -254 -221 -563h215v71l45 330h231v-401h111v-182l-111 -17v-112l84 -9l-14 -182h-442l-13 180l109 11v112zM848 -98l-180 96l796 1239l178 -96zM1812 -204q0 157 -214 157q-108 0 -130 -45l-133 18l68 596h448l13 51
l182 -12l-12 -282l-232 12h-205l-18 -152q16 2 49 2q209 0 330 -89t121 -266q1 -177 -139 -269t-349 -92q-100 0 -174 13t-98 25l-23 15l-12 268l182 12l17 -110q185 -42 274 29q55 44 55 119z" />
    <glyph glyph-name="ct" horiz-adv-x="1826" 
d="M566 852q-98 0 -150 -72q-53 -72 -54 -248q0 -358 269 -358q67 0 131 32t94 64l31 31l129 -143q-13 -25 -54 -64q-42 -38 -84 -64t-118 -48t-162 -21q-272 0 -411 150q-138 150 -138 397q0 246 109 386t301 163q-37 74 -37 160q0 123 101 221t284 98h704v-512h269v-225
h-269v-437q0 -166 115 -165l141 14v-193q-73 -38 -237 -38t-243 72t-79 241v858l49 209h-442q-209 0 -209 -180q0 -82 66 -152q35 -16 84 -49l32 61h183l-4 -417h-226l-16 168q-61 61 -159 61z" />
    <glyph glyph-name="a.alt" 
d="M522 -39q-209 0 -341 157q-132 156 -132 402t130 393t366 148q85 0 153 -23t95 -47l26 -22h15l18 55h268v-815l115 -8l-14 -201h-361l-29 82q-13 -18 -37 -40t-100 -52t-172 -29zM612 184q105 0 178 77q20 20 31 42v445l-2 4l-19 19q-71 71 -173 71q-141 0 -203 -77
t-64 -245q0 -336 252 -336z" />
    <glyph glyph-name="aring.alt" 
d="M522 -39q-209 0 -341 157q-132 156 -132 402t130 393t366 148q85 0 153 -23t95 -47l26 -22h15l18 55h268v-815l115 -8l-14 -201h-361l-29 82q-13 -18 -37 -40t-100 -52t-172 -29zM612 184q105 0 178 77q20 20 31 42v445l-2 4l-19 19q-71 71 -173 71q-141 0 -203 -77
t-64 -245q0 -336 252 -336zM899 1431q0 -105 -68 -173q-67 -68 -177 -68t-176 66t-64 174q0 106 68 174q69 68 173 68t174 -68t70 -173zM657 1321q47 0 76 31t29 80q0 50 -31 80t-76 30t-75 -31t-29 -79q-1 -48 29 -80q30 -31 77 -31z" />
    <glyph glyph-name="agrave.alt" 
d="M522 -39q-209 0 -341 157q-132 156 -132 402t130 393t366 148q85 0 153 -23t95 -47l26 -22h15l18 55h268v-815l115 -8l-14 -201h-361l-29 82q-13 -18 -37 -40t-100 -52t-172 -29zM612 184q105 0 178 77q20 20 31 42v445l-2 4l-19 19q-71 71 -173 71q-141 0 -203 -77
t-64 -245q0 -336 252 -336zM788 1190l-200 -19l-285 285l283 35z" />
    <glyph glyph-name="adieresis.alt" 
d="M522 -39q-209 0 -341 157q-132 156 -132 402t130 393t366 148q85 0 153 -23t95 -47l26 -22h15l18 55h268v-815l115 -8l-14 -201h-361l-29 82q-13 -18 -37 -40t-100 -52t-172 -29zM612 184q105 0 178 77q20 20 31 42v445l-2 4l-19 19q-71 71 -173 71q-141 0 -203 -77
t-64 -245q0 -336 252 -336zM868 1192q-80 0 -116 46t-35 101q0 55 42 97q41 42 109 41q68 1 110 -39t42 -98t-36 -103t-116 -45zM432 1477q68 1 110 -39t42 -98t-36 -103t-116 -45t-116 46t-36 101t43 97q41 42 109 41z" />
    <glyph glyph-name="aogonek.alt" 
d="M1104 -362v-150q-403 0 -404 270q0 137 160 242l-29 82q-13 -18 -37 -40t-100 -52t-172 -29q-209 0 -341 157q-132 156 -132 402t130 393t366 148q85 0 153 -23t95 -47l26 -22h15l18 55h268v-815l115 -8l-14 -201h-111q-72 -18 -134 -78t-62 -146t48 -112t142 -26z
M612 184q105 0 178 77q20 20 31 42v445l-2 4l-19 19q-71 71 -173 71q-141 0 -203 -77t-64 -245q0 -336 252 -336z" />
    <glyph glyph-name="abreve.alt" 
d="M522 -39q-209 0 -341 157q-132 156 -132 402t130 393t366 148q85 0 153 -23t95 -47l26 -22h15l18 55h268v-815l115 -8l-14 -201h-361l-29 82q-13 -18 -37 -40t-100 -52t-172 -29zM612 184q105 0 178 77q20 20 31 42v445l-2 4l-19 19q-71 71 -173 71q-141 0 -203 -77
t-64 -245q0 -336 252 -336zM655 1155q-109 0 -191 28q-82 27 -122 67q-84 81 -96 147l-4 28l247 37v-6q0 -9 16 -38q41 -70 150 -70t154 69q12 19 16 39v6l246 -37q-2 -10 -5 -28q-3 -17 -29 -65q-25 -48 -65 -83t-124 -65t-193 -29z" />
    <glyph glyph-name="aacute.alt" 
d="M522 -39q-209 0 -341 157q-132 156 -132 402t130 393t366 148q85 0 153 -23t95 -47l26 -22h15l18 55h268v-815l115 -8l-14 -201h-361l-29 82q-13 -18 -37 -40t-100 -52t-172 -29zM612 184q105 0 178 77q20 20 31 42v445l-2 4l-19 19q-71 71 -173 71q-141 0 -203 -77
t-64 -245q0 -336 252 -336zM727 1171l-201 15l195 303l287 -33z" />
    <glyph glyph-name="amacron.alt" 
d="M522 -39q-209 0 -341 157q-132 156 -132 402t130 393t366 148q85 0 153 -23t95 -47l26 -22h15l18 55h268v-815l115 -8l-14 -201h-361l-29 82q-13 -18 -37 -40t-100 -52t-172 -29zM612 184q105 0 178 77q20 20 31 42v445l-2 4l-19 19q-71 71 -173 71q-141 0 -203 -77
t-64 -245q0 -336 252 -336zM913 1262h-503v151h503v-151z" />
    <glyph glyph-name="acircumflex.alt" 
d="M522 -39q-209 0 -341 157q-132 156 -132 402t130 393t366 148q85 0 153 -23t95 -47l26 -22h15l18 55h268v-815l115 -8l-14 -201h-361l-29 82q-13 -18 -37 -40t-100 -52t-172 -29zM612 184q105 0 178 77q20 20 31 42v445l-2 4l-19 19q-71 71 -173 71q-141 0 -203 -77
t-64 -245q0 -336 252 -336zM911 1186l-256 164l-254 -164l-92 168l269 188h159l267 -188z" />
    <glyph glyph-name="atilde.alt" 
d="M522 -39q-209 0 -341 157q-132 156 -132 402t130 393t366 148q85 0 153 -23t95 -47l26 -22h15l18 55h268v-815l115 -8l-14 -201h-361l-29 82q-13 -18 -37 -40t-100 -52t-172 -29zM612 184q105 0 178 77q20 20 31 42v445l-2 4l-19 19q-71 71 -173 71q-141 0 -203 -77
t-64 -245q0 -336 252 -336zM894 1415q72 0 124 37l37 -147q-1 -11 -17 -33q-56 -74 -188 -74q-80 0 -197 51t-169 51q-101 0 -156 -47l-23 -16l-37 164q59 118 230 121q92 0 208 -54t188 -53z" />
    <glyph glyph-name="g.alt" horiz-adv-x="1251" 
d="M1120 -53q0 -135 -49 -235t-135 -154q-170 -109 -412 -109q-121 0 -213 12t-123 25l-30 12l-15 334l199 14l25 -174q76 -20 157 -20q150 0 224 81t73 253v49h-8q-102 -74 -306 -74t-332 160q-128 159 -128 403t131 390t344 147q102 0 178 -27t99 -53l24 -27h15l26 70h256
v-1077zM614 848q-133 0 -193 -72t-61 -233q0 -369 267 -369q57 0 106 17t70 34l18 19v501q-8 13 -24 31q-17 18 -69 45t-114 27z" />
    <glyph glyph-name="gcommaaccent.alt" horiz-adv-x="1251" 
d="M1120 -53q0 -135 -49 -235t-135 -154q-170 -109 -412 -109q-121 0 -213 12t-123 25l-30 12l-15 334l199 14l25 -174q76 -20 157 -20q150 0 224 81t73 253v49h-8q-102 -74 -306 -74t-332 160q-128 159 -128 403t131 390t344 147q102 0 178 -27t99 -53l24 -27h15l26 70h256
v-1077zM614 848q-133 0 -193 -72t-61 -233q0 -369 267 -369q57 0 106 17t70 34l18 19v501q-8 13 -24 31q-17 18 -69 45t-114 27zM680 1189q-41 -36 -100 -36t-97 32q-14 11 -14 17q-57 66 -57 165t64 208q65 109 169 178l88 -80q-131 -102 -131 -221q0 -31 4 -45
q53 -8 84 -42t31 -87t-41 -89z" />
    <glyph glyph-name="gbreve.alt" horiz-adv-x="1251" 
d="M1120 -53q0 -135 -49 -235t-135 -154q-170 -109 -412 -109q-121 0 -213 12t-123 25l-30 12l-15 334l199 14l25 -174q76 -20 157 -20q150 0 224 81t73 253v49h-8q-102 -74 -306 -74t-332 160q-128 159 -128 403t131 390t344 147q102 0 178 -27t99 -53l24 -27h15l26 70h256
v-1077zM614 848q-133 0 -193 -72t-61 -233q0 -369 267 -369q57 0 106 17t70 34l18 19v501q-8 13 -24 31q-17 18 -69 45t-114 27zM657 1155q-109 0 -191 28q-82 27 -122 67q-41 40 -65 80q-25 40 -29 67l-6 28l248 37v-6q0 -11 15 -38q41 -70 150 -70t154 69q10 16 12 29
l4 10v6l246 -37q-2 -10 -5 -28q-3 -17 -29 -65q-25 -48 -65 -83t-124 -65t-193 -29z" />
    <glyph glyph-name="y.alt" horiz-adv-x="1263" 
d="M1135 1024v-1077q1 -135 -49 -235t-136 -154q-86 -55 -189 -82t-224 -27t-213 12t-123 25l-31 12l-14 334l196 14l27 -174q76 -20 156 -20q153 0 225 81t71 253v71q-90 -96 -309 -96q-383 0 -383 348v490l-106 12l14 213h395v-659q0 -86 43 -122t125 -36t134 19
q50 19 69 38l18 19v516l-106 12l14 213h396z" />
    <glyph glyph-name="yacute.alt" horiz-adv-x="1263" 
d="M1135 1024v-1077q1 -135 -49 -235t-136 -154q-86 -55 -189 -82t-224 -27t-213 12t-123 25l-31 12l-14 334l196 14l27 -174q76 -20 156 -20q153 0 225 81t71 253v71q-90 -96 -309 -96q-383 0 -383 348v490l-106 12l14 213h395v-659q0 -86 43 -122t125 -36t134 19
q50 19 69 38l18 19v516l-106 12l14 213h396zM725 1171l-201 15l195 303l287 -33z" />
    <glyph glyph-name="ydieresis.alt" horiz-adv-x="1263" 
d="M1135 1024v-1077q1 -135 -49 -235t-136 -154q-86 -55 -189 -82t-224 -27t-213 12t-123 25l-31 12l-14 334l196 14l27 -174q76 -20 156 -20q153 0 225 81t71 253v71q-90 -96 -309 -96q-383 0 -383 348v490l-106 12l14 213h395v-659q0 -86 43 -122t125 -36t134 19
q50 19 69 38l18 19v516l-106 12l14 213h396zM866 1192q-80 0 -116 46t-35 101q0 55 42 97q41 42 109 41q68 1 110 -39t42 -98t-36 -103t-116 -45zM430 1477q68 1 110 -39t42 -98t-36 -103t-116 -45t-116 46t-36 101t43 97q41 42 109 41z" />
    <glyph glyph-name="afii10065.alt" 
d="M522 -39q-209 0 -341 157q-132 156 -132 402t130 393t366 148q85 0 153 -23t95 -47l26 -22h15l18 55h268v-815l115 -8l-14 -201h-361l-29 82q-13 -18 -37 -40t-100 -52t-172 -29zM612 184q105 0 178 77q20 20 31 42v445l-2 4l-19 19q-71 71 -173 71q-141 0 -203 -77
t-64 -245q0 -336 252 -336z" />
    <glyph glyph-name="afii10066.alt" horiz-adv-x="1200" 
d="M600 1061q266 0 408 -141q142 -142 143 -398t-147 -408t-408 -153q-260 0 -403 151t-144 410q0 326 221 459q-131 97 -131 243t108 239t298 93q57 0 165 -13t148 -13t73 11q32 11 38 24l6 10l160 -31q1 -37 -17 -92t-45 -92t-81 -68q-54 -30 -114 -30t-162 22
q-101 22 -147 23q-174 0 -174 -119q0 -102 152 -129q18 2 53 2zM600 170q240 0 240 348q0 166 -56 250t-184 84q-240 0 -240 -341t240 -341z" />
    <glyph glyph-name="afii10069.alt" horiz-adv-x="1251" 
d="M1120 -53q0 -135 -49 -235t-135 -154q-170 -109 -412 -109q-121 0 -213 12t-123 25l-30 12l-15 334l199 14l25 -174q76 -20 157 -20q150 0 224 81t73 253v49h-8q-102 -74 -306 -74t-332 160q-128 159 -128 403t131 390t344 147q102 0 178 -27t99 -53l24 -27h15l26 70h256
v-1077zM614 848q-133 0 -193 -72t-61 -233q0 -369 267 -369q57 0 106 17t70 34l18 19v501q-8 13 -24 31q-17 18 -69 45t-114 27z" />
    <glyph glyph-name="afii10085.alt" horiz-adv-x="1263" 
d="M1135 1024v-1077q1 -135 -49 -235t-136 -154q-86 -55 -189 -82t-224 -27t-213 12t-123 25l-31 12l-14 334l196 14l27 -174q76 -20 156 -20q153 0 225 81t71 253v71q-90 -96 -309 -96q-383 0 -383 348v490l-106 12l14 213h395v-659q0 -86 43 -122t125 -36t134 19
q50 19 69 38l18 19v516l-106 12l14 213h396z" />
    <glyph glyph-name="afii10110.alt" horiz-adv-x="1263" 
d="M1135 1024v-1077q1 -135 -49 -235t-136 -154q-86 -55 -189 -82t-224 -27t-213 12t-123 25l-31 12l-14 334l196 14l27 -174q76 -20 156 -20q153 0 225 81t71 253v71q-90 -96 -309 -96q-383 0 -383 348v490l-106 12l14 213h395v-659q0 -86 43 -122t125 -36t134 19
q50 19 69 38l18 19v516l-106 12l14 213h396zM653 1155q-109 0 -191 28q-82 27 -122 67q-87 84 -94 147l-6 28l247 37v-6q0 -11 16 -38q41 -70 150 -70t154 69q10 16 12 29l4 10v6l246 -37q-2 -10 -5 -28q-3 -17 -29 -65q-25 -48 -65 -83t-124 -65t-193 -29z" />
    <glyph glyph-name="Epsilon.alt" horiz-adv-x="1376" 
d="M1122 526h-702q27 -168 124 -244t269 -75q113 0 215 42t150 83l47 41l116 -193q-8 -8 -22 -23q-13 -15 -67 -53q-114 -82 -266 -119q-95 -24 -195 -24q-343 1 -527 191t-184 506t184 512t475 196q150 0 289 -94l39 74h180v-433h-227l-19 150q-109 61 -227 61
q-330 0 -358 -372l706 2v-228z" />
    <glyph glyph-name="Epsilontonos.alt" horiz-adv-x="1472" 
d="M141 1151l-141 39l129 414l197 -62zM1219 526h-703q27 -168 124 -244t269 -75q113 0 215 42t150 83l47 41l117 -193l-23 -23q-14 -15 -67 -53q-113 -82 -266 -119q-95 -24 -195 -24q-343 1 -527 191t-184 506t184 512t476 196q150 0 288 -94l39 74h180v-433h-227l-18 150
q-109 61 -228 61q-330 0 -358 -372l707 2v-228z" />
    <glyph glyph-name="epsilon.alt" horiz-adv-x="1038" 
d="M568 846q-94 0 -146 -52q-51 -52 -62 -186l453 2v-225h-442q41 -205 262 -205q77 0 149 23t105 47l33 22l81 -155q-14 -21 -55 -52q-138 -104 -387 -104q-250 0 -380 151q-130 152 -130 408t138 398t356 143q98 0 213 -70l26 49h181l-2 -329h-224l-12 88q-63 47 -157 47z
" />
    <glyph glyph-name="epsilontonos.alt" horiz-adv-x="1038" 
d="M568 846q-94 0 -146 -52q-51 -52 -62 -186l453 2v-225h-442q41 -205 262 -205q77 0 149 23t105 47l33 22l81 -155q-14 -21 -55 -52q-138 -104 -387 -104q-250 0 -380 151q-130 152 -130 408t138 398t356 143q98 0 213 -70l26 49h181l-2 -329h-224l-12 88q-63 47 -157 47z
M672 1151l-142 39l129 414l197 -62z" />
    <glyph glyph-name="AndrijType" horiz-adv-x="3790" 
d="M1612 428l-62 -8q-6 0 -6 2q33 109 43 163q9 55 19 61t23 7q14 2 30 6l37 3l6 -3q-10 -39 -24 -88t-19 -75q-4 -27 -8 -36q-4 -8 -6 -16q-1 -8 -7 -10t-26 -6zM423 707q-42 0 -52 -17q-49 -72 -56 -227q125 88 250 217q-100 27 -142 27zM1095 729q35 0 35 -8t-19 -49
q-58 -125 -58 -252q-5 -16 -49 -16t-48 4q0 108 28 164q3 7 14 35t16 36q-33 0 -90 -72t-90 -145q-4 -16 -72 -16l-23 -2q49 240 95 315q8 12 65 12h16q4 0 9 2h4q-35 -53 -76 -221q47 68 76 104t80 72t87 37zM1778 723q2 18 98 18q-37 -297 -176 -469q-56 -68 -150 -114
t-164 -45q10 111 183 215l6 -6q-82 -66 -102 -166q71 35 125 89t83 105q72 126 97 373zM1393 412q-24 0 -25 -2l6 24l2 10q57 201 125 250q115 76 176 94q15 0 35 -20t25 -37q-49 0 -111 -13q-62 -14 -85 -30q-22 -16 -36 -65t-22 -114q-9 -65 -13 -78t-28 -16t-49 -3z
M205 399q0 186 50 257t196 71q70 0 147 -12q80 74 92 81t50 15t42 8l-8 -22q-115 -295 -119 -459q0 -8 -41 -19t-53 -4h-6q4 143 92 387q-68 -74 -173 -162t-177 -134q-4 -4 -38 -10t-43 -7q-9 0 -11 2v8zM2028 924q14 0 14 -3t-28 -9t-62 -41q-33 -34 -101 -33q-18 0 -18 2
q80 84 195 84zM1315 698q0 70 -71 142t-204 116q6 2 37 20t47 20q16 1 56 -16t87 -50q48 -33 85 -93q37 -61 37 -145t-71 -189t-149 -106q-43 0 -43 54q0 104 84 227q10 12 22 12t32 -5q18 -5 28 -5q-72 -94 -71 -219q0 -9 4 -25q27 16 59 104t31 158zM1960 469q-41 0 -41 2
t27 24t36 39q10 18 54 18t45 -1q0 -11 -53 -55l-11 -11q-16 -16 -57 -16zM3379 664q0 12 -11 12t-36 -28t-37 -58l31 -4q53 39 53 78zM3398 436q0 -16 -56 -52t-96 -36q-61 0 -61 93t71 182q72 88 172 88q43 0 43 -39q0 -27 -19 -57t-46 -37q12 -2 37 -3q129 0 166 97
q8 -4 28 -4h27q23 0 31 -9q-47 -111 -297 -110q-78 0 -119 8q-17 -27 -17 -97t22 -69q22 0 62 27t43 26q9 0 9 -8zM3195 664q1 -48 -63 -148t-126 -100q-14 0 -36 9t-31 9q98 63 162 225q-59 -23 -124 -87t-91 -146q-10 -33 -24 -116t-15 -120l-6 -10l-60 -4q-33 0 -33 10
q8 33 42 207t87 322q63 23 77 23t28 -5q-39 -66 -78 -192q43 57 111 109t124 52t56 -38zM2023 680q-53 0 -57 33q31 74 137 73q31 0 203 -30q22 2 50 15t54 17l-18 -40q66 -13 118 -13q52 1 78 13t50 12t24 -10q0 -16 -45 -29q-31 -53 -67 -209q49 72 116 121q68 49 119 49
v-8q0 -95 -97 -297q-50 -103 -154 -187t-242 -96q6 60 60 118t122 99l4 -8q-78 -61 -98 -166q72 23 129 76t105 150t67 227q-88 -53 -148 -166q-4 -16 -71 -16h-23q25 209 84 299q-86 0 -141 10q-70 -195 -98 -350q-2 -9 -36 -15t-57 -6l-8 2q0 66 113 379l-150 21
q-82 0 -112 -68h-11z" />
    <glyph glyph-name="ampersand.alt" horiz-adv-x="1556" 
d="M1204 211q55 -27 115 -27t106 16t48 19l36 -205q-160 -53 -266 -53t-248 74q-147 -74 -348 -74q-270 0 -420 135t-149 330q0 152 102 248t244 139q-25 98 -25 184q0 173 113 271t293 98q125 0 237 -84l33 64h166l-2 -359h-223l-8 98q-59 59 -138 60q-178 0 -178 -172
q0 -137 85 -305t212 -299q55 99 55 213t-26 209v24h440v-233l-141 -7q-4 -209 -113 -364zM381 439q-1 -123 65 -189t195 -66q74 1 135 19q-174 174 -276 401q-119 -43 -119 -165z" />
    <glyph glyph-name="afii10086.hist" horiz-adv-x="890" 
d="M614 1356q-56 0 -83 -46q-28 -46 -27 -171v-115h307v-225h-307v-113h307v-227h-307v-250l114 -10l-14 -199h-500l-14 213l113 12v234h-115v213l115 8v119h-115v211l115 8v151q0 195 93 299t257 105q84 0 190 -68l31 47h166l-2 -342h-209l-14 113q-45 33 -101 33z" />
    <glyph glyph-name="afii10097.hist" horiz-adv-x="1308" 
d="M494 -39q-197 0 -319 92t-122 257t170 235q-119 86 -119 222t122 216t310 80t330 -94l27 55h256v-815l113 -8l-15 -201h-358l-31 84q-18 -18 -46 -38t-119 -53q-91 -32 -199 -32zM582 176q164 0 266 103v499q-21 28 -89 49q-69 23 -159 23t-148 -37t-58 -111t83 -110h43
l180 2v-160l-174 2q-174 0 -174 -121q0 -61 60 -100t170 -39z" />
    <glyph glyph-name="a.sc" horiz-adv-x="1316" 
d="M803 0v154l98 8l-59 162h-408l-55 -150l113 -10l-15 -164h-495l-13 209l156 8l340 909h393l336 -909l156 -8l-15 -209h-532zM641 887h-2l-141 -389h280z" />
    <glyph glyph-name="b.sc" horiz-adv-x="1189" 
d="M643 0h-569l-13 209l134 10v701l-136 10l15 196h553q231 0 337 -84t105 -213q0 -129 -135 -219q193 -78 192 -254q0 -158 -120 -257t-363 -99zM678 485h-215v-270h162q117 0 163 37t48 113q0 120 -158 120zM463 653h199q51 0 89 35t37 105q0 119 -174 118h-151v-258z" />
    <glyph glyph-name="c.sc" horiz-adv-x="1198" 
d="M1118 670h-231l-13 184q-80 66 -180 66q-152 0 -234 -84t-83 -256q0 -172 88 -272t252 -99q123 0 218 50t130 85l16 14l113 -182q-22 -29 -71 -71q-50 -41 -103 -69q-54 -28 -146 -52t-194 -23q-295 0 -456 164t-161 436t164 437t418 165q131 0 258 -96l43 76h172v-473z
" />
    <glyph glyph-name="d.sc" horiz-adv-x="1386" 
d="M676 1126q649 0 649 -546q0 -280 -163 -430t-484 -150h-604l-13 209l134 10v701l-136 10l15 196h602zM676 889h-178v-651h182q174 0 252 83t78 256t-77 243t-257 69z" />
    <glyph glyph-name="e.sc" horiz-adv-x="1130" 
d="M498 924v-260l458 2v-195h-458v-270h323l25 127l217 -15l-16 -313h-973l-13 209l134 10v701l-136 10l15 196h702l258 13l-2 -324h-231l-8 109h-295z" />
    <glyph glyph-name="f.sc" horiz-adv-x="1054" 
d="M1051 803h-232l-8 94h-313v-246l463 2v-207h-463v-241l170 -8l-13 -197h-581l-13 209l134 10v701l-136 10l15 196h721l256 13v-336z" />
    <glyph glyph-name="g.sc" horiz-adv-x="1292" 
d="M1104 727h-232l-12 162q-82 45 -162 45q-168 0 -244 -88t-77 -268q0 -180 87 -282t232 -101q190 0 230 127v100h-207v172h463v-598h-170l-33 96q-123 -131 -348 -131q-276 0 -422 166q-145 167 -145 445t160 435q161 157 411 156q143 0 264 -84l35 64h170v-416z" />
    <glyph glyph-name="h.sc" horiz-adv-x="1449" 
d="M616 1126v-196l-118 -10v-250h456v248l-133 12l15 196h544v-208l-125 -11v-688l138 -10l-13 -209h-544l-13 197l131 10v254h-456v-256l131 -8l-15 -197h-540l-13 209l134 10v701l-136 10l15 196h542z" />
    <glyph glyph-name="i.sc" horiz-adv-x="690" 
d="M621 1126v-196l-123 -8v-717l135 -8l-12 -197h-547l-13 209l134 10v701l-136 10l15 196h547z" />
    <glyph glyph-name="j.sc" horiz-adv-x="874" 
d="M729 365q0 -219 -93 -311t-298 -93q-88 0 -163 13t-105 26l-31 14l-29 320l205 12l23 -153q112 -25 157 33q31 40 31 139v555l-168 10l14 196h547v-208l-90 -11v-542z" />
    <glyph glyph-name="k.sc" horiz-adv-x="1382" 
d="M616 0h-542l-13 209l134 10v701l-136 10l15 196h516v-182l-92 -12v-305l120 75l199 240l-20 2v182h532v-208l-239 -11l-240 -282l305 -410l227 -6l-12 -209h-416l-96 92l-244 352l-116 -59v-207l118 -8v-170z" />
    <glyph glyph-name="l.sc" horiz-adv-x="1034" 
d="M621 1126v-208l-123 -11v-680h297l20 129l219 -16l-16 -340h-944l-13 209l134 10v701l-136 10l15 196h547z" />
    <glyph glyph-name="m.sc" horiz-adv-x="1896" 
d="M1825 1126v-208l-127 -11l2 -702l139 -8l-14 -197h-508l-14 168l108 12v527h-10l-324 -707h-278l-324 707h-8l-4 -529l112 -14l-12 -164h-489l-13 209l134 10l2 701l-134 10l13 196h510l366 -802h11l354 802h508z" />
    <glyph glyph-name="n.sc" horiz-adv-x="1472" 
d="M1430 1126v-196l-123 -8v-926l-303 -2l-543 692h-6l8 -61v-420l141 -17l-12 -188h-518l-13 209l134 10v701l-136 10l15 196h432l532 -710h4l-6 63v430l-139 15l12 202h521z" />
    <glyph glyph-name="o.sc" horiz-adv-x="1374" 
d="M1311 580q0 -276 -165 -448q-165 -171 -461 -171t-459 171q-163 170 -163 448t161 431t461 153t463 -154t163 -430zM997 579q0 171 -79 257q-80 86 -232 86q-309 0 -309 -338q0 -176 78 -276q79 -100 231 -101q152 0 232 100q79 101 79 272z" />
    <glyph glyph-name="p.sc" horiz-adv-x="1134" 
d="M614 1126q481 0 482 -368q0 -106 -43 -186q-75 -140 -266 -190q-81 -22 -169 -22h-143v-182l170 -8l-12 -170h-559l-13 209l134 10v701l-136 10l15 196h540zM565 909h-90v-368h90q219 0 219 198q0 96 -57 133q-58 37 -162 37z" />
    <glyph glyph-name="q.sc" horiz-adv-x="1374" 
d="M1079 -369q-151 0 -287 87t-212 249q-248 31 -382 197t-134 430t160 417q161 153 461 153t463 -154t163 -409t-119 -416t-338 -205q109 -102 238 -103q53 0 116 23l27 -240q-76 -29 -156 -29zM377 584q-1 -176 77 -278t231 -101q153 0 233 101q80 100 80 272t-80 258
t-232 86q-309 0 -309 -338z" />
    <glyph glyph-name="r.sc" horiz-adv-x="1212" 
d="M614 1126q232 0 358 -90t126 -262q0 -199 -205 -319l145 -240l193 -6l-12 -209h-365l-80 90l-160 291h-139v-215l107 -10l-13 -156h-495l-13 209l134 10v701l-136 10l15 196h540zM567 909h-92v-331h146q63 0 114 46t51 130t-53 120t-166 35z" />
    <glyph glyph-name="s.sc" horiz-adv-x="1044" 
d="M940 805h-229l-11 84q-70 55 -143 55q-147 0 -147 -113q0 -51 60 -87t146 -64t172 -62q86 -35 147 -105q60 -71 60 -171q0 -184 -123 -282t-346 -99q-115 0 -218 17t-148 34l-47 19l-9 319l172 12l31 -145q103 -31 197 -31t143 32t49 79t-60 79t-146 58t-171 64
q-86 38 -146 114t-60 185q0 164 107 265q108 101 294 101q102 0 213 -71l29 49h184v-336z" />
    <glyph glyph-name="t.sc" horiz-adv-x="1071" 
d="M1094 774h-230l-10 123h-166v-678l135 -10l-14 -209h-545l-12 209l133 10v678h-164l-12 -123h-232l15 365l256 -13h590l256 13v-365z" />
    <glyph glyph-name="u.sc" horiz-adv-x="1353" 
d="M451 498q0 -283 235 -283q242 0 242 283v409l-142 15l13 204h530v-196l-121 -12v-484q0 -209 -128 -341t-401 -132t-403 133q-129 133 -129 340v486l-133 10l13 196h542v-196l-118 -8v-424z" />
    <glyph glyph-name="v.sc" horiz-adv-x="1261" 
d="M776 1126h518v-208l-133 -11l-330 -907h-389l-327 905l-144 10l15 211h524v-196l-92 -8l233 -691h4l228 678l-107 13v204z" />
    <glyph glyph-name="w.sc" horiz-adv-x="1894" 
d="M1925 1126v-208l-123 -9l-282 -909h-316l-241 750h-9l-233 -750h-313l-285 891l-148 10l15 225h520v-196l-90 -8l168 -578h4l225 782h311l240 -776h4l150 557l-115 15l12 204h506z" />
    <glyph glyph-name="x.sc" horiz-adv-x="1312" 
d="M770 1126h533v-208l-216 -9l-251 -340l266 -352l231 -8l-12 -209h-561v182h10l-125 172h-2l-111 -149h13v-205h-549l-14 209l231 10l260 338l-268 365l-215 8l12 196h549v-182l-12 -2l125 -172h2l120 164l-16 2v190z" />
    </font>
</defs>
</svg>
