<?xml version="1.0" standalone="no"?>
<!DOCTYPE svg PUBLIC "-//W3C//DTD SVG 1.1//EN" "http://www.w3.org/Graphics/SVG/1.1/DTD/svg11.dtd" >
<svg xmlns="http://www.w3.org/2000/svg">
<metadata>
Created by FontPrep 20130207 at Thu Jan 14 18:58:52 2016
 By Peter Belov
Copyright (c) 2011 by AndrijType. All rights reserved.
</metadata>
<defs>
<font id="f251458e742056ea7565ed20aef48707" horiz-adv-x='1024' >
  <font-face 
    font-family="BanderaPro"
    font-weight="400"
    font-stretch="normal"
    units-per-em="2048"
    panose-1="2 6 5 4 4 2 0 2 0 4"
    ascent="1536"
    descent="-512"
    x-height="1024"
    cap-height="1331"
    bbox="-143 -608 3695 1933"
    underline-thickness="61"
    underline-position="-246"
    unicode-range="U+0020-FB06"
  />
<missing-glyph horiz-adv-x="1267" 
d="M283 186l-115 115l111 109l114 -113zM993 901l-114 115l110 108l115 -112zM989 186l-110 111l114 115l111 -111zM279 901l-111 111l115 114l110 -110zM705 209h-134v385h-378v125h378v383h134v-383h372v-125h-372v-385z" />
    <glyph glyph-name="arrowleft" unicode="&#x3c;&#x2d;&#x2d;" horiz-adv-x="1497" 
d="M850 954l-436 -329l977 4v-119l-975 2l434 -328l-72 -90l-614 475l614 475z" />
    <glyph glyph-name="arrowright" unicode="&#x2d;&#x2d;&#x3e;" horiz-adv-x="1452" 
d="M1337 569l-614 -475l-72 90l430 328l-970 -2v119l972 -4l-432 329l72 90z" />
    <glyph glyph-name="ff" unicode="ff" horiz-adv-x="1388" 
d="M387 1153v-129h485v166q0 117 23 190q-190 57 -270 58q-137 0 -187 -64t-51 -221zM1475 1257h-117l-10 119q-54 64 -144 64t-129 -58t-39 -208v-150h350v-129h-350v-776l123 -4l-8 -115h-393l-8 123l122 4v768h-485v-774l123 -6v-115h-401l-9 123l123 6v766h-125v123
l125 6v145q0 201 82 297t285 97q115 0 360 -80q74 80 224 80q102 0 188 -68l16 49h97v-287z" />
    <glyph glyph-name="fi" unicode="fi" horiz-adv-x="1288" 
d="M1098 1024v-903l123 -6l-9 -115h-393l-8 123l123 6v766l-121 6l6 123h279zM510 0h-401l-9 123l123 6v766h-125v123l125 6v145q0 201 82 297t285 97q98 0 319 -68l11 49h129v-303h-131l-11 135q-205 61 -282 62q-137 0 -187 -64t-51 -221v-129h350v-129h-350v-774l123 -6
v-115z" />
    <glyph glyph-name="fl" unicode="fl" horiz-adv-x="1294" 
d="M510 0h-401l-9 123l123 6v766h-125v123l125 6v145q0 201 82 297t285 97q106 0 350 -76v49h166v-1415l123 -6l-8 -115h-396l-8 123l123 4v1239q-236 72 -315 72q-137 0 -187 -64t-51 -221v-129h350v-129h-350v-774l123 -6v-115z" />
    <glyph glyph-name="ffi" unicode="ffi" horiz-adv-x="1937" 
d="M1747 1024v-903l123 -6l-8 -115h-394l-8 123l123 6v766l-121 6l6 123h279zM387 1153v-129h485v145q0 129 29 209q-199 59 -276 60q-137 0 -187 -64t-51 -221zM510 0h-401l-9 123l123 6v766h-125v123l125 6v145q0 201 82 297t285 97q119 0 377 -84q88 84 272 84
q98 0 320 -68l10 49h131v-303h-133l-11 135q-201 61 -280 62q-137 0 -187 -64t-51 -221v-129h351v-129h-351v-774l123 -6v-115h-403l-6 123l120 6v766h-485v-774l123 -6v-115z" />
    <glyph glyph-name="ffl" unicode="ffl" horiz-adv-x="1929" 
d="M387 1153v-129h485v145q0 129 29 209q-199 59 -276 60q-137 0 -187 -64t-51 -221zM510 0h-401l-9 123l123 6v766h-125v123l125 6v145q0 201 82 297t285 97q119 0 377 -84q88 84 272 84q100 0 336 -72v45h164v-1415l123 -6l-9 -115h-393l-8 123l123 4v1245
q-207 66 -299 66q-137 0 -187 -64t-51 -221v-129h351v-129h-351v-774l123 -6v-115h-403l-6 123l120 6v766h-485v-774l123 -6v-115z" />
    <glyph glyph-name="ft" unicode="ft" horiz-adv-x="1400" 
d="M1331 895h-311v-584q0 -106 32 -154t105 -48l158 16v-111q-90 -30 -214 -30t-185 67q-60 68 -60 223v621h-469v-776l123 -4l-8 -115h-393l-9 123l123 4v768h-125v123l125 6v166q0 193 66 283t205 90q88 0 178 -68l14 49h96v-272h-118l-5 112q-51 56 -127 56t-111 -56
q-34 -56 -34 -210v-150h469l18 307h146v-307h311v-129z" />
    <glyph glyph-name="tt" unicode="tt" horiz-adv-x="1368" 
d="M1298 895h-311v-584q0 -106 32 -154t105 -48l158 16v-111q-90 -30 -214 -30t-184 68t-61 222v621h-452v-584q-1 -106 31 -154t106 -48l158 16v-111q-90 -30 -214 -30t-185 67q-60 68 -60 223v621h-125v123l125 4l18 309h146v-307h452l19 307h145v-307h311v-129z" />
    <glyph glyph-name="afii10056_afii10056" unicode="&#x407;&#x407;" horiz-adv-x="1361" 
d="M1270 1331v-123l-160 -6v-1081l164 -6l-8 -115h-484l-8 123l164 6v1081l-166 7l8 114h490zM582 1331v-123l-160 -6v-1081l164 -6l-8 -115h-484l-8 123l164 6v1081l-166 7l8 114h490zM936 1596q0 -34 -25 -56q-25 -24 -61 -24t-62 22q-24 22 -24 58t27 61q27 20 59 20
t59 -20q27 -27 27 -61zM1190 1516q-36 0 -60 22t-24 58t27 61q27 20 59 20t61 -20q25 -25 25 -61t-25 -60q-27 -20 -63 -20zM240 1596q0 -34 -25 -56q-25 -24 -61 -24t-62 22q-24 22 -24 58t26 61q27 20 60 20t59 -20q27 -27 27 -61zM494 1516q-36 0 -60 22t-24 58t26 61
q27 20 59 20t62 -20q25 -25 25 -61t-25 -60q-27 -20 -63 -20z" />
    <glyph glyph-name="quoteright_afii10104" unicode="&#x27;&#x457;" horiz-adv-x="704" 
d="M516 1024v-903l123 -6l-8 -115h-393l-9 123l123 6v766l-121 6l7 123h278zM604 1237q-38 1 -62 23t-24 60t27 60q57 47 123 2q27 -26 27 -62t-27 -63q-27 -20 -64 -20zM131 1460q0 36 26 58q25 22 63 22t58 -16t21 -23q53 -84 -34 -250q-86 -165 -197 -243l-60 53
q78 59 135 151t64 166q-31 4 -47 21q-29 25 -29 61z" />
    <glyph glyph-name="afii10104_afii10104" unicode="&#x457;&#x457;" horiz-adv-x="1134" 
d="M946 1024v-903l123 -6l-8 -115h-393l-9 123l123 6v766l-120 6l6 123h278zM362 1024v-903l123 -6l-8 -115h-393l-8 123l123 6v766l-121 6l6 123h278zM706 1237q-36 1 -61 23t-25 60t27 62q60 44 123 0q25 -24 25 -62t-25 -63q-28 -20 -64 -20zM1016 1237q-36 1 -61 23
q-23 22 -23 60t24 62q60 44 123 0q27 -26 27 -62t-27 -63q-27 -20 -63 -20zM168 1320q0 -36 -25 -60t-63 -23t-62 23t-24 60t26 62q27 20 61 20t60 -20q27 -26 27 -62zM393 1237q-37 1 -61 23t-25 60q0 38 27 60q57 47 123 2q27 -26 27 -62t-27 -63q-27 -20 -64 -20z" />
    <glyph glyph-name="afii10103_afii10104" unicode="&#x456;&#x457;" horiz-adv-x="1134" 
d="M946 1024v-903l123 -6l-8 -115h-393l-9 123l123 6v766l-120 6l6 123h278zM283 1227q-103 0 -103 92q0 45 29 70t71 25t74 -23q29 -29 29 -72t-29 -72q-27 -20 -71 -20zM362 1024v-903l123 -6l-8 -115h-393l-8 123l123 6v766l-121 6l6 123h278zM783 1320q0 -36 -25 -60
t-63 -23q-39 1 -63 23t-24 60t27 60t61 22t60 -20q27 -26 27 -62zM1133 1320q0 -36 -25 -60t-63 -23q-39 1 -63 23t-24 60t27 60t61 22t60 -20q27 -26 27 -62z" />
    <glyph glyph-name=".notdef" horiz-adv-x="1267" 
d="M283 186l-115 115l111 109l114 -113zM993 901l-114 115l110 108l115 -112zM989 186l-110 111l114 115l111 -111zM279 901l-111 111l115 114l110 -110zM705 209h-134v385h-378v125h378v383h134v-383h372v-125h-372v-385z" />
    <glyph glyph-name=".null" horiz-adv-x="0" 
 />
    <glyph glyph-name="nonmarkingreturn" horiz-adv-x="681" 
 />
    <glyph glyph-name="space" unicode=" " horiz-adv-x="555" 
 />
    <glyph glyph-name="exclam" unicode="!" horiz-adv-x="647" 
d="M223 76q0 42 30 68t73 26q42 0 74 -27t32 -67t-32 -68q-32 -26 -74 -26t-73 26q-30 26 -30 68zM240 1536h172v-186l-19 -916h-133l-20 916v186z" />
    <glyph glyph-name="quotedbl" unicode="&#x22;" horiz-adv-x="694" 
d="M530 1069h-118l-2 463h151zM199 1069h-119l-2 463h151z" />
    <glyph glyph-name="numbersign" unicode="#" horiz-adv-x="1138" 
d="M489 774l-53 -221h207l53 221h-207zM115 446v107h217l53 221h-270v109h297l69 280l99 -24l-64 -256h207l63 264l99 -27l-58 -237h195v-109h-221l-53 -221h274v-107h-301l-68 -282l-96 26l61 256h-208l-66 -264l-96 25l57 239h-190z" />
    <glyph glyph-name="dollar" unicode="$" horiz-adv-x="960" 
d="M459 223q127 1 197 55t69 129q0 75 -62 117q-63 42 -151 68q-88 24 -177 54t-152 94q-62 66 -62 174t82 182t213 88l2 250h123l8 -254q92 -16 182 -80l23 69h84v-282h-111l-12 100q-95 84 -203 84t-168 -39q-60 -40 -59 -108q0 -68 62 -112q63 -44 153 -71t179 -57
t151 -94q62 -63 62 -174t-83 -198q-84 -87 -258 -107l-2 -213h-123l-8 208q-169 4 -271 41l-32 13l-15 260l103 8l12 -170q117 -35 244 -35z" />
    <glyph glyph-name="percent" unicode="%" horiz-adv-x="1906" 
d="M1182 357q0 -125 61 -197t175 -72t177 74t63 196t-62 196q-64 73 -177 73t-175 -73t-62 -197zM1047 356q0 176 99 282t272 105q172 0 274 -106q102 -105 102 -281t-100 -280t-276 -105q-177 1 -274 105t-97 280zM484 702q114 0 178 74q63 74 63 197t-63 195
q-62 72 -176 73q-114 0 -176 -73q-62 -72 -62 -196t61 -197t175 -73zM484 586q-177 0 -274 104t-97 280t99 282t272 106q172 0 274 -106t102 -282q0 -175 -99 -280q-100 -104 -277 -104zM672 4l-127 21l676 1288l127 -21z" />
    <glyph glyph-name="ampersand" unicode="&#x26;" horiz-adv-x="1433" 
d="M889 621h-324q-117 -7 -201 -65t-83 -174q-1 -116 81 -199t241 -83t225 71q49 52 61 93v357zM889 1042h-119l-6 125q-74 63 -176 63t-170 -62t-68 -173t73 -183t161 -75h309l57 287h97v-287h311v-116h-311v-338q0 -100 35 -143q36 -42 116 -42t133 13l21 4v-115
q-59 -29 -201 -29q-178 0 -231 123q-120 -123 -346 -123t-344 116t-117 290q0 123 80 202t202 113q-90 47 -148 130t-59 194q0 156 106 249t271 93q96 0 213 -76l15 57h96v-297z" />
    <glyph glyph-name="quotesingle" unicode="'" horiz-adv-x="364" 
d="M199 1069h-119l-2 463h151z" />
    <glyph glyph-name="parenleft" unicode="(" horiz-adv-x="720" 
d="M207 557q0 178 31 340t73 266q93 226 160 299l31 37l123 -51q-32 -38 -82 -137q-51 -99 -84 -195t-61 -248q-56 -305 -1 -619q40 -221 138 -424q37 -77 63 -112l27 -37l-123 -51q-37 37 -96 135q-58 97 -97 196t-70 261q-32 162 -32 340z" />
    <glyph glyph-name="parenright" unicode=")" horiz-adv-x="720" 
d="M514 567q0 -178 -31 -340t-73 -266q-88 -216 -160 -301l-31 -35l-123 51q32 40 82 138q49 98 82 194t61 248q55 301 2 620q-26 148 -83 296t-117 241l-27 35l123 51q37 -37 95 -134q59 -97 98 -197q38 -100 70 -261q32 -162 32 -340z" />
    <glyph glyph-name="asterisk" unicode="*" horiz-adv-x="933" 
d="M281 635l-123 90l245 272l-358 82l47 144l334 -152l-37 371h154l-41 -369l340 150l47 -144l-359 -78l244 -276l-123 -90l-184 317z" />
    <glyph glyph-name="plus" unicode="+" horiz-adv-x="964" 
d="M551 164h-133v342h-338v125h338v342h133v-342h334v-125h-334v-342z" />
    <glyph glyph-name="comma" unicode="," horiz-adv-x="528" 
d="M164 118q0 36 26 58t64 22t63 -20q45 -39 45 -135t-52 -207t-136 -170l-82 53q72 68 107 158t26 162q-17 7 -39 25t-22 54z" />
    <glyph glyph-name="hyphen" unicode="-" horiz-adv-x="698" 
d="M621 506h-541v125h541v-125z" />
    <glyph glyph-name="period" unicode="." horiz-adv-x="567" 
d="M176 76q0 42 31 68t73 26t74 -27t31 -67q0 -40 -32 -68q-31 -26 -73 -26t-73 26t-31 68z" />
    <glyph glyph-name="slash" unicode="/" horiz-adv-x="987" 
d="M141 -512h-155l899 2048h153z" />
    <glyph glyph-name="zero" unicode="0" horiz-adv-x="1337" 
d="M668 98q178 0 269 152t91 434q0 547 -359 547t-360 -547q1 -282 91 -434t268 -152zM1204 682q0 -328 -136 -520t-399 -191q-263 -1 -399 191t-137 520q0 328 134 502q133 174 401 174t402 -174t134 -502z" />
    <glyph glyph-name="one" unicode="1" horiz-adv-x="872" 
d="M610 1331v-1210l123 -6l-8 -115h-463l-6 123l190 6v1055l-272 -117l-43 119l342 145h137z" />
    <glyph glyph-name="two" unicode="2" horiz-adv-x="1132" 
d="M977 995q0 -117 -69 -247q-68 -130 -182 -246q-197 -203 -421 -363h590l18 158l115 -8l-8 -289h-920v137q6 2 76 54q179 133 379 343q100 105 171 227q71 121 71 233q0 227 -291 229q-160 0 -246 -99l-8 -104h-119l8 319h97l16 -88q135 106 299 107q209 0 317 -96
t107 -267z" />
    <glyph glyph-name="three" unicode="3" horiz-adv-x="1128" 
d="M1014 410q0 -197 -156 -318t-401 -121q-107 -1 -189 15t-108 30l-29 17l-8 256l110 8l17 -168q84 -27 209 -27q178 0 282 87q105 87 105 211t-78 188t-221 63q-86 0 -139 -45l-76 80l426 508h-486l-14 -166h-115l9 311l133 -8h673v-96l-411 -469l45 2q190 0 306 -96
t116 -262z" />
    <glyph glyph-name="four" unicode="4" horiz-adv-x="1173" 
d="M756 354h-676l-10 103q223 391 376 893l156 -19q-137 -438 -356 -852h510v473l22 185h142v-658h172v-114l-172 -11v-241l122 -7l-8 -106h-409l-9 115l140 6v233z" />
    <glyph glyph-name="five" unicode="5" horiz-adv-x="1103" 
d="M480 102q154 0 253 96q101 96 101 225q0 130 -94 204q-94 73 -228 73q-132 0 -198 -33q-22 -11 -25 -18l-86 10l67 672h553l13 74l114 -8l-8 -211l-139 8h-408l-41 -393q78 18 152 18q227 0 361 -102t134 -297q-1 -195 -153 -322t-387 -127q-115 -1 -197 15t-108 30
l-25 17l-8 256l110 6l17 -164q76 -29 230 -29z" />
    <glyph glyph-name="six" unicode="6" horiz-adv-x="1230" 
d="M301 485q0 -179 85 -287t248 -108q164 0 240 109t76 243t-80 214t-228 79q-146 0 -226 -55t-107 -111q-8 -25 -8 -84zM985 1042h-119l-8 105q-90 84 -209 84q-328 0 -358 -508q153 123 365 123t337 -104t125 -298q0 -192 -125 -332t-359 -140t-368 150q-133 151 -133 410
q0 61 6 130q25 346 154 521t340 175q119 0 235 -88l21 69h96v-297z" />
    <glyph glyph-name="seven" unicode="7" horiz-adv-x="999" 
d="M956 1331v-135q-154 -256 -294 -581t-211 -615h-191q131 526 506 1186h-565l-13 -166h-114l8 319l131 -8h743z" />
    <glyph glyph-name="eight" unicode="8" horiz-adv-x="1191" 
d="M313 1014q0 -76 31 -132q65 -118 258 -149q84 13 150 53q127 78 127 226q0 236 -283 236t-283 -234zM901 348q0 76 -34 132t-107 95t-170 50q-83 -8 -178 -60q-53 -29 -86 -85t-33 -130q0 -132 80 -200t223 -68t224 68t81 198zM1051 1018q0 -233 -275 -334
q105 -27 206 -108t99 -238q0 -186 -128 -276t-357 -91q-229 0 -356 91t-127 282q0 131 85 213t210 125q-264 90 -265 340q0 160 122 248t332 88t332 -89t122 -251z" />
    <glyph glyph-name="nine" unicode="9" horiz-adv-x="1230" 
d="M602 569q211 0 316 150q12 61 12 160q0 360 -322 360q-160 0 -244 -100q-84 -99 -83 -235t83 -236t238 -99zM535 98q169 0 279 131t124 371q-131 -141 -351 -141t-347 124q-127 123 -127 317t131 326t364 132q489 0 490 -520q0 -106 -6 -168q-14 -340 -166 -519
t-391 -180q-188 0 -293 31l-33 10l-8 275l110 8l17 -176q98 -21 207 -21z" />
    <glyph glyph-name="colon" unicode=":" horiz-adv-x="571" 
d="M176 76q0 42 31 68t73 26t74 -27t31 -67q0 -40 -32 -68q-31 -26 -73 -26t-73 26t-31 68zM176 852q0 43 30 69q30 25 73 25t75 -26t31 -68q0 -41 -32 -68q-31 -26 -73 -26t-73 26t-31 68z" />
    <glyph glyph-name="semicolon" unicode=";" horiz-adv-x="567" 
d="M176 852q0 43 30 69q30 25 73 25t75 -26t31 -68q0 -41 -32 -68q-31 -26 -73 -26t-73 26t-31 68zM186 118q0 36 26 58t64 22t64 -20q45 -39 45 -135t-52 -207t-136 -170l-82 53q72 68 106 158q35 90 27 162q-16 7 -39 25t-23 54z" />
    <glyph glyph-name="less" unicode="&#x3c;" horiz-adv-x="874" 
d="M721 242l-576 409l576 408l72 -78l-480 -330l482 -332z" />
    <glyph glyph-name="equal" unicode="=" horiz-adv-x="1112" 
d="M1032 709h-952v125h952v-125zM1032 303h-952v125h952v-125z" />
    <glyph glyph-name="greater" unicode="&#x3e;" horiz-adv-x="874" 
d="M731 651l-577 -409l-74 77l481 332l-481 330l74 78z" />
    <glyph glyph-name="question" unicode="?" horiz-adv-x="974" 
d="M341 170q42 0 74 -27t32 -67t-32 -68q-32 -26 -74 -26t-73 26t-30 68q0 42 30 68t73 26zM473 1563q203 -1 302 -105t99 -244q0 -100 -38 -175t-96 -115t-125 -88t-121 -92t-85 -124q-32 -80 -22 -190l-94 -8q-60 275 90 397q59 49 203 154q108 81 108 235q0 86 -60 155
t-198 69t-225 -86l-8 -113h-117l6 311h96l17 -71q129 90 268 90z" />
    <glyph glyph-name="at" unicode="@" horiz-adv-x="1982" 
d="M1008 70q166 0 227 151v406q-51 113 -207 113t-232 -88q-75 -88 -75 -244t76 -247t211 -91zM1063 1298q385 0 593 -190t208 -516t-116 -472t-294 -146t-211 108q-92 -111 -266 -111t-282 115q-107 115 -107 318q0 204 112 318t304 114q152 0 243 -84l31 55h74v-629
q0 -108 112 -108t190 116q79 116 79 398t-171 440t-499 158q-377 0 -580 -192t-203 -568t202 -574q202 -197 550 -196q212 0 343 61q132 61 181 111l19 18l49 -104q-23 -31 -79 -70q-114 -79 -253 -110q-139 -30 -260 -29q-436 0 -667 231q-231 230 -231 652t238 654
q239 232 691 232z" />
    <glyph glyph-name="A" unicode="A" horiz-adv-x="1433" 
d="M709 1194l-254 -672h506zM991 0v98l135 4l-120 308h-594l-121 -304l145 -4l-8 -102h-444l-9 123l162 6l467 1202h227l467 -1210l162 -6l-8 -115h-461z" />
    <glyph glyph-name="B" unicode="B" horiz-adv-x="1292" 
d="M403 743h318q77 0 151 65q74 66 74 184t-77 166t-226 48h-240v-463zM729 631h-326v-506h242q371 0 371 278q0 228 -287 228zM655 0h-561l-8 123l164 6v1081l-166 7l8 114h559q229 0 342 -83t113 -234q0 -184 -178 -301q254 -68 254 -310q0 -187 -128 -295t-399 -108z" />
    <glyph glyph-name="C" unicode="C" horiz-adv-x="1361" 
d="M1214 879h-135l-12 247q-121 92 -272 93q-225 -1 -365 -145t-141 -400q0 -256 140 -410t378 -153q129 0 241 53t160 106l47 52l66 -111q-19 -32 -73 -79q-54 -46 -110 -78t-150 -58t-195 -25q-324 -1 -502 191t-178 508t185 502q185 185 472 186q164 0 311 -101l29 82
h104v-460z" />
    <glyph glyph-name="D" unicode="D" horiz-adv-x="1536" 
d="M725 1192h-303v-1053h307q250 1 383 141t133 402q0 510 -520 510zM725 1331q336 0 517 -163q181 -162 181 -486t-181 -503t-515 -179h-633l-8 123l164 6v1081l-166 7l8 114h633z" />
    <glyph glyph-name="E" unicode="E" horiz-adv-x="1230" 
d="M1092 1034h-136l-8 164h-526v-463l606 2v-129h-606v-475h582l16 184l127 -8l-8 -309h-1045l-8 123l164 6v1081l-166 7l8 114h852l148 8v-305z" />
    <glyph glyph-name="F" unicode="F" horiz-adv-x="1126" 
d="M1112 1034h-135l-8 164h-547v-467h582v-129h-582v-481l205 -6l-9 -115h-524l-8 123l164 6v1081l-166 7l8 114h873l147 8v-305z" />
    <glyph glyph-name="G" unicode="G" horiz-adv-x="1480" 
d="M1214 940h-127l-12 188q-109 90 -272 91q-256 1 -385 -137t-129 -401t131 -417t354 -153q250 0 350 156q16 26 25 50v207h-322v113h467v-637h-102l-23 143q-147 -172 -437 -172t-454 193t-165 514q0 320 180 500t491 180q156 0 303 -98l23 79h104v-399z" />
    <glyph glyph-name="H" unicode="H" horiz-adv-x="1568" 
d="M582 1331v-123l-160 -6v-477h725v477l-166 6l6 123h490v-123l-158 -6v-1081l164 -6l-8 -115h-484l-8 123l164 6v467h-725v-469l164 -4l-8 -123h-484l-8 123l164 6v1081l-166 7l8 114h490z" />
    <glyph glyph-name="I" unicode="I" horiz-adv-x="673" 
d="M582 1331v-123l-160 -6v-1081l164 -6l-8 -115h-484l-8 123l164 6v1081l-166 7l8 114h490z" />
    <glyph glyph-name="J" unicode="J" horiz-adv-x="919" 
d="M705 383q-1 -231 -97 -321t-268 -91q-86 1 -158 13t-100 24l-27 10l-14 285l119 8l14 -188q70 -20 148 -21q211 0 210 281v827l-194 7l8 114h488v-123l-129 -6v-819z" />
    <glyph glyph-name="K" unicode="K" horiz-adv-x="1460" 
d="M565 1331v-106l-143 -6v-592l188 127l424 471l-90 4v102h469v-123l-219 -6l-451 -502l502 -575l223 -2l-8 -123h-313l-80 70l-453 520l-192 -131v-332l164 -4l-8 -123h-484l-8 123l164 6v1081l-166 7l8 114h473z" />
    <glyph glyph-name="L" unicode="L" horiz-adv-x="1144" 
d="M582 1331v-123l-160 -6v-1069h565l17 193l126 -9l-8 -317h-1028l-8 123l164 6v1081l-166 7l8 114h490z" />
    <glyph glyph-name="M" unicode="M" horiz-adv-x="2052" 
d="M1960 1331v-123l-160 -6l2 -1075l164 -4l-8 -123h-461l-8 106l147 7v985h-2l-528 -1098h-164l-530 1098h-2v-989l149 -7l-8 -102h-457l-8 123l164 6l2 1081l-166 7l6 114h381l557 -1155l551 1155h379z" />
    <glyph glyph-name="N" unicode="N" horiz-adv-x="1613" 
d="M1380 -12h-180l-797 1099h-2l9 -63v-901l165 -4l-8 -119h-473l-8 123l164 6v1081l-166 7l8 114h338l793 -1114l-4 47v944l-166 4l6 119h479v-123l-158 -6v-1214z" />
    <glyph glyph-name="O" unicode="O" horiz-adv-x="1558" 
d="M1270 681q0 257 -130 397t-362 140t-360 -140q-129 -140 -129 -397t130 -414t359 -157t361 157q131 157 131 414zM1448 682q0 -320 -179 -516t-491 -195q-312 0 -488 195q-177 195 -177 515q0 321 176 499t490 178t492 -178q177 -178 177 -498z" />
    <glyph glyph-name="P" unicode="P" horiz-adv-x="1187" 
d="M584 1206h-174v-620h172q154 0 252 81t98 253q0 286 -348 286zM612 1331q498 0 498 -401q0 -275 -218 -396q-125 -69 -278 -69h-204v-352l192 -7l-6 -106h-502l-8 123l164 6v1081l-166 7l8 114h520z" />
    <glyph glyph-name="Q" unicode="Q" horiz-adv-x="1558" 
d="M778 111q229 0 361 156q131 157 131 414t-130 397t-362 140t-360 -140q-129 -140 -129 -397t130 -413t359 -157zM1204 -299q-135 0 -265 73t-212 199q-289 16 -452 209t-163 506q0 314 177 492q176 178 490 178q313 0 491 -175t178 -479t-148 -494q-148 -191 -405 -228
q154 -147 324 -148q61 1 116 21l17 -129q-70 -25 -148 -25z" />
    <glyph glyph-name="R" unicode="R" horiz-adv-x="1286" 
d="M584 1206h-174v-602h223q127 0 214 88t87 238q0 276 -350 276zM410 475v-362l149 -7l-8 -106h-457l-8 123l164 12v1075l-166 7l8 114h520q240 0 369 -98t129 -295q0 -152 -79 -264t-204 -162l291 -387l205 -2l-8 -123h-293l-68 68l-295 407h-249z" />
    <glyph glyph-name="S" unicode="S" horiz-adv-x="1187" 
d="M1018 1026h-133l-11 113q-104 92 -245 92q-141 1 -217 -61t-76 -164t77 -159q77 -58 187 -91t220 -70t187 -114t76 -197q0 -184 -127 -294t-356 -110q-131 1 -244 21t-159 41l-47 20l-5 293l127 8l15 -207q143 -49 302 -49t243 73t83 173q0 100 -76 154q-77 53 -188 85
q-111 31 -221 69t-188 120q-76 82 -76 211q0 168 116 271t316 104q150 0 291 -101l26 82h103v-313z" />
    <glyph glyph-name="T" unicode="T" horiz-adv-x="1105" 
d="M1110 1012h-127l-12 186h-332v-1071l164 -4l-8 -123h-484l-8 123l164 6v1069h-328l-16 -186h-127l8 327l148 -8h811l147 8v-327z" />
    <glyph glyph-name="U" unicode="U" horiz-adv-x="1519" 
d="M385 489q0 -162 97 -265q96 -103 280 -103t281 103t98 265v719l-168 4l6 119h485v-114l-157 -7v-755q-1 -209 -139 -346t-407 -137t-409 138t-139 345v755l-166 7l8 114h490v-114l-160 -7v-721z" />
    <glyph glyph-name="V" unicode="V" horiz-adv-x="1376" 
d="M426 1331v-114l-133 -7l403 -1081l402 1079l-142 4l9 119h452v-114l-151 -7l-461 -1210h-225l-463 1210l-160 7l8 114h461z" />
    <glyph glyph-name="W" unicode="W" horiz-adv-x="2099" 
d="M426 1331v-114l-135 -7l313 -1020l367 1141h180l375 -1136l303 1013l-148 4l9 119h452v-114l-145 -7l-381 -1210h-182l-377 1120l-371 -1120h-182l-389 1210l-158 7l8 114h461z" />
    <glyph glyph-name="X" unicode="X" horiz-adv-x="1425" 
d="M926 1331h481v-123l-201 -4l-391 -534l408 -545l207 -2l-7 -123h-491v115l92 2l-315 430l-316 -426l96 -2v-119h-485l-8 123l209 4l401 539l-399 544l-199 7l6 114h486v-114l-97 -5l310 -426v-2l311 426l-98 2v119z" />
    <glyph glyph-name="Y" unicode="Y" horiz-adv-x="1304" 
d="M424 1331v-114l-107 -5l349 -518l344 516l-105 2v119h467v-123l-188 -4l-436 -651v-426l163 -4l-8 -123h-483l-8 123l161 6v422l-450 659l-191 7l7 114h485z" />
    <glyph glyph-name="Z" unicode="Z" horiz-adv-x="1245" 
d="M92 0v117l834 1081h-678l-12 -164h-134l7 297v8l149 -8h887v-117l-834 -1081h707l16 184l127 -8l-8 -309h-1061z" />
    <glyph glyph-name="bracketleft" unicode="[" horiz-adv-x="788" 
d="M764 -156h-557v1592h557v-117h-412v-1356h412v-119z" />
    <glyph glyph-name="backslash" unicode="\" horiz-adv-x="987" 
d="M1001 -512h-153l-899 2048h153z" />
    <glyph glyph-name="bracketright" unicode="]" horiz-adv-x="788" 
d="M580 -156h-557v119h411v1354h-411v119h557v-1592z" />
    <glyph glyph-name="asciicircum" unicode="^" horiz-adv-x="794" 
d="M143 999l-65 66l317 342l322 -342l-68 -66l-252 275z" />
    <glyph glyph-name="underscore" unicode="_" horiz-adv-x="1480" 
d="M1401 -313h-1321v125h1321v-125z" />
    <glyph glyph-name="grave" unicode="`" horiz-adv-x="485" 
d="M322 1182l-117 -11l-238 285l158 19z" />
    <glyph glyph-name="a" unicode="a" horiz-adv-x="1097" 
d="M492 86q150 0 231 92q28 30 41 60v260q-281 -20 -371 -54q-143 -49 -143 -163q0 -195 242 -195zM82 264q0 80 44 139t95 91t157 58q106 24 158 31t131 14t97 9v72q0 135 -52 194q-52 60 -182 60t-223 -86l-8 -133h-125l6 321h105l14 -76q129 94 276 95q352 0 353 -373
v-559l123 -6l-9 -115h-249l-25 131q-17 -34 -69 -77q-96 -81 -264 -82q-167 -1 -260 76t-93 216z" />
    <glyph glyph-name="b" unicode="b" horiz-adv-x="1214" 
d="M618 926q-117 0 -187 -51t-91 -97v-588q33 -39 107 -67q74 -27 151 -27q186 0 278 125q91 125 91 328t-88 290q-89 87 -261 87zM342 911q92 139 316 140q223 2 351 -126t128 -376t-130 -413t-364 -165q-88 0 -178 29t-137 78l-23 -78h-131v1407l-121 6l8 123h279v-625h2z
" />
    <glyph glyph-name="c" unicode="c" horiz-adv-x="997" 
d="M938 686h-127l-10 145q-92 100 -221 101q-172 0 -252 -95t-80 -311t93 -326q93 -108 261 -108q84 0 159 31t107 61l31 31l74 -82q-13 -19 -50 -51q-125 -108 -335 -111q-248 1 -379 143t-131 405t123 399t354 135q129 0 254 -101l22 82h107v-348z" />
    <glyph glyph-name="d" unicode="d" horiz-adv-x="1228" 
d="M596 98q82 0 148 34t92 61q25 27 38 49v589q-96 97 -272 97q-354 1 -354 -418q0 -200 91 -306t257 -106zM547 -29q-209 -1 -339 147t-130 396t125 393t358 146q98 0 176 -25t107 -49l28 -25h2v453l-120 6l8 123h276v-1415l123 -6l-8 -115h-258l-16 113q-16 -25 -45 -52
t-108 -59t-179 -31z" />
    <glyph glyph-name="e" unicode="e" horiz-adv-x="1060" 
d="M569 932q-147 0 -229 -88t-96 -250h600q2 27 2 47q-1 291 -277 291zM78 511q0 257 132 399t349 142t327 -111q110 -112 109 -333q0 -67 -24 -127h-729q8 -190 102 -287t256 -98q92 0 169 34t108 67l30 34l78 -84q-17 -26 -55 -59q-129 -114 -334 -117q-242 -1 -380 141
t-138 399z" />
    <glyph glyph-name="f" unicode="f" horiz-adv-x="739" 
d="M825 1257h-116l-11 119q-53 64 -143 64t-129 -58t-39 -208v-150h350v-129h-350v-776l123 -4l-8 -115h-393l-9 123l123 4v768h-125v123l125 6v166q0 195 71 284t230 89q102 0 189 -68l16 49h96v-287z" />
    <glyph glyph-name="g" unicode="g" horiz-adv-x="1089" 
d="M559 934q-283 0 -283 -238q0 -126 73 -198t199 -72t194 72t69 200q-1 128 -65 182t-187 54zM899 -190q0 106 -82 142t-270 46q-57 4 -88 8q-86 -6 -152 -54q-65 -48 -65 -146t83 -160q83 -64 243 -64t246 62q85 60 85 166zM971 696q0 -180 -114 -281t-304 -102
q-119 0 -165 -41q-19 -16 -19 -39q0 -49 47 -77t178 -35q233 -9 348 -73t115 -227t-123 -262t-366 -99q-244 0 -364 96q-120 98 -120 262q0 193 209 260q-57 53 -57 143t94 137q-100 46 -156 134t-55 210q0 122 67 206q68 83 163 114t219 31t223 -41l251 12l9 -125l-127 -4
q47 -78 47 -199z" />
    <glyph glyph-name="h" unicode="h" horiz-adv-x="1234" 
d="M354 1536v-600h2l28 22q124 95 316 95q365 0 365 -318v-614l123 -6l-8 -115h-279v705q0 209 -258 208q-88 -1 -160 -27t-100 -50l-29 -27v-688l123 -6l-8 -115h-393l-8 123l122 6v1278l-120 6l6 123h278z" />
    <glyph glyph-name="i" unicode="i" horiz-adv-x="552" 
d="M281 1227q-103 0 -103 92q0 45 29 70t71 25t74 -23q29 -29 29 -72t-29 -72q-27 -20 -71 -20zM362 1024v-903l123 -6l-8 -115h-393l-8 123l123 6v766l-121 6l6 123h278z" />
    <glyph glyph-name="j" unicode="j" horiz-adv-x="544" 
d="M289 1227q-103 0 -103 92q0 45 29 70t71 25t74 -23q29 -29 29 -72t-29 -72q-27 -20 -71 -20zM30 -393q73 0 125 84t52 237v967l-119 6l8 123h275v-1096q1 -229 -95 -349t-227 -120q-117 0 -182 37l43 131q47 -20 120 -20z" />
    <glyph glyph-name="k" unicode="k" horiz-adv-x="1116" 
d="M354 1536v-969l138 68l233 274l-70 4l9 111h393v-123l-189 -18l-268 -303l336 -447l188 -2l-8 -131h-252l-82 86l-319 414l-109 -54v-333l107 -7l-6 -106h-379l-8 123l122 6v1278l-120 6l6 123h278z" />
    <glyph glyph-name="l" unicode="l" horiz-adv-x="544" 
d="M354 1536v-1415l123 -6l-8 -115h-393l-8 123l122 6v1278l-120 6l6 123h278z" />
    <glyph glyph-name="m" unicode="m" horiz-adv-x="1744" 
d="M803 0v735q0 105 -42 143t-136 37q-158 0 -263 -104v-690l123 -6l-8 -115h-393l-8 123l123 6v766l-121 6l6 123h260l12 -100q117 129 320 129t262 -127q127 127 344 127q150 0 222 -68t71 -225v-639l123 -6l-8 -115h-281v735q0 105 -43 143t-139 37q-156 0 -260 -104
l2 -49v-641l123 -6l-9 -115h-280z" />
    <glyph glyph-name="n" unicode="n" horiz-adv-x="1243" 
d="M709 1053q367 0 366 -318v-614l121 -6l-6 -115h-281v705q0 209 -256 208q-89 -1 -161 -27t-101 -50l-29 -27v-688l123 -6l-8 -115h-393l-8 123l123 6v766l-121 6l6 123h260l14 -90q14 18 42 38t115 51q87 30 194 30z" />
    <glyph glyph-name="o" unicode="o" horiz-adv-x="1173" 
d="M248 518q0 -202 84 -314t255 -112t254 112t83 314q0 414 -338 414t-338 -414zM1094 520q0 -254 -133 -402t-377 -147t-375 147t-131 401t130 394t378 139t378 -138q130 -140 130 -394z" />
    <glyph glyph-name="p" unicode="p" horiz-adv-x="1228" 
d="M612 96q188 0 279 122q90 122 90 330t-87 293t-252 85q-195 0 -288 -144v-594q32 -37 109 -65q77 -27 149 -27zM1151 549q0 -250 -126 -414t-357 -164q-98 0 -176 25t-107 49l-31 25v-461l123 -6l-8 -115h-393l-8 123l122 6v1278l-120 6l6 123h258l14 -115
q111 143 333 143t346 -126q124 -127 124 -377z" />
    <glyph glyph-name="q" unicode="q" horiz-adv-x="1214" 
d="M609 98q179 0 265 144v589q-96 97 -272 97q-354 1 -354 -415q0 -415 361 -415zM874 121h-2q-4 -7 -10 -17t-34 -36q-104 -95 -279 -97q-211 1 -340 147t-129 395t128 394t363 146q84 0 175 -29t133 -74l30 74h131v-1415l121 -6l-8 -115h-393l-8 123l122 6v504z" />
    <glyph glyph-name="r" unicode="r" horiz-adv-x="868" 
d="M815 721h-119l-10 194q-50 5 -104 5t-113 -40t-84 -79l-23 -39v-641l140 -6l-8 -115h-410l-8 123l123 6v766l-131 6l8 123h252l14 -158h2q57 115 185 166q80 32 196 14q45 -7 68 -14l22 -8v-303z" />
    <glyph glyph-name="s" unicode="s" horiz-adv-x="960" 
d="M838 752h-111l-12 100q-95 84 -203 84t-168 -39t-59 -107q0 -68 62 -113q63 -44 153 -71q90 -28 179 -58t151 -93t63 -160q0 -141 -108 -233t-332 -91q-97 -1 -181 13t-120 28l-37 13l-15 260l103 8l12 -170q117 -35 244 -35t197 54t69 129q0 75 -62 118q-63 43 -151 68
t-177 55t-152 93q-62 65 -62 179t100 192q101 77 245 77t265 -88l23 69h84v-282z" />
    <glyph glyph-name="t" unicode="t" horiz-adv-x="749" 
d="M682 895h-311v-584q-1 -106 31 -154t106 -48l158 16v-111q-90 -30 -214 -30t-185 67q-60 68 -60 223v621h-125v123l125 4l18 309h146v-307h311v-129z" />
    <glyph glyph-name="u" unicode="u" horiz-adv-x="1234" 
d="M1047 1024v-903l120 -6l-6 -115h-260l-14 92q-121 -121 -352 -121q-169 -1 -267 95t-98 264v565l-121 6l8 123h277v-664q0 -112 68 -180t174 -68q104 0 176 26t100 50l29 27v680l-121 6l8 123h279z" />
    <glyph glyph-name="v" unicode="v" horiz-adv-x="1054" 
d="M705 1024h397v-123l-139 -6l-347 -895h-178l-348 895l-143 6l8 123h268l307 -854h2l269 731l-96 4v119z" />
    <glyph glyph-name="w" unicode="w" horiz-adv-x="1605" 
d="M1247 1024h398v-123l-127 -6l-269 -895h-174l-270 817l-279 -817h-174l-262 895l-135 6l8 123h266l213 -823h2l275 823h162l282 -823h2l191 708l-109 4v111z" />
    <glyph glyph-name="x" unicode="x" horiz-adv-x="1173" 
d="M4 0v123l176 4l297 395l-280 373l-181 6l9 123h264l299 -418h2l215 299l-62 2l9 117h383v-123l-162 -6l-279 -373l305 -403l177 -4l-7 -115h-249l-82 90l-254 344l-234 -315h39l-8 -119h-377z" />
    <glyph glyph-name="y" unicode="y" horiz-adv-x="1079" 
d="M178 -410q143 0 297 410l-383 895l-145 6l8 123h266l340 -844h2l273 721l-109 4v119h395v-123l-135 -6l-358 -918q-203 -518 -430 -518q-66 1 -111 11t-55 22l-13 10l17 113q72 -25 141 -25z" />
    <glyph glyph-name="z" unicode="z" horiz-adv-x="987" 
d="M82 0v111l606 788h-436l-12 -164h-117l6 289v8l133 -8h631v-111l-608 -788h481l14 184l119 -8l-8 -301h-809z" />
    <glyph glyph-name="braceleft" unicode="{" horiz-adv-x="886" 
d="M807 -219v-117q-231 0 -324 73q-92 73 -92 216q0 74 31 205q31 132 31 200t-74 121t-148 53v132q74 0 148 53t74 121t-31 200q-31 131 -31 205q0 143 92 216t324 73v-117q-150 0 -211 -53t-61 -158q1 -66 31 -194t30 -197q0 -133 -141 -215q141 -86 141 -215
q0 -68 -31 -197t-30 -194q0 -104 61 -158t211 -53z" />
    <glyph glyph-name="bar" unicode="|" horiz-adv-x="688" 
d="M420 -512h-152v2048h152v-2048z" />
    <glyph glyph-name="braceright" unicode="}" horiz-adv-x="886" 
d="M80 -336v117q150 0 211 53t61 158q0 66 -30 194t-31 197q0 131 141 215q-141 80 -141 215q0 68 31 197t30 194q0 104 -61 158t-211 53v117q231 0 323 -73t93 -216q0 -74 -31 -205q-31 -132 -31 -200t74 -121t147 -53v-132q-73 0 -147 -53t-74 -121t31 -200
q31 -131 31 -205q0 -143 -92 -216t-324 -73z" />
    <glyph glyph-name="asciitilde" unicode="~" horiz-adv-x="1361" 
d="M393 705q-84 0 -144 -27t-83 -51l-23 -27l-80 78q13 25 49 63q36 37 74 63t103 48q67 22 153 20q86 0 167 -28t128 -63t121 -63t150 -28t129 22t71 44l21 22l67 -71q-12 -25 -43 -59q-106 -118 -275 -119q-168 -1 -298 87q-47 33 -125 61t-162 28z" />
    <glyph glyph-name="nbspace" unicode="&#xa0;" horiz-adv-x="702" 
 />
    <glyph glyph-name="exclamdown" unicode="&#xa1;" horiz-adv-x="647" 
d="M316 852q-42 0 -72 26t-31 68q0 42 30 69q31 25 73 25t74 -26t32 -68q0 -40 -32 -67t-74 -27zM408 -512h-175v186l21 916h133l21 -916v-186z" />
    <glyph glyph-name="cent" unicode="&#xa2;" horiz-adv-x="997" 
d="M78 660q0 238 105 373q105 134 306 153l3 248h122l9 -252q90 -18 186 -92l22 81h107v-348h-127l-10 146q-92 100 -221 100q-172 0 -252 -95t-80 -311t93 -325t261 -109q84 0 159 31t107 62l31 30l74 -82q-33 -49 -120 -101t-228 -60l-2 -211h-125l-9 217
q-199 27 -305 167t-106 378z" />
    <glyph glyph-name="sterling" unicode="&#xa3;" horiz-adv-x="1208" 
d="M109 0v137h90q133 86 133 324q0 29 -4 98l-219 4v125h208q-20 193 -20 301q0 170 103 269t282 100q121 0 236 -86l20 67h96v-297h-119l-10 113q-77 68 -189 68q-112 1 -175 -61t-63 -172t11 -302h531v-129h-524q8 -295 -78 -422h616l17 160l114 -8l-8 -289h-1048z" />
    <glyph glyph-name="currency" unicode="&#xa4;" horiz-adv-x="1288" 
d="M645 375q115 -1 185 71t71 197q0 125 -71 197q-72 72 -186 72t-184 -72t-71 -196q1 -124 71 -196t185 -73zM643 1014q131 0 227 -74l234 238l63 -76l-237 -221q78 -99 78 -237t-76 -236l237 -226l-63 -76l-232 244q-94 -78 -229 -78t-229 76l-234 -239l-61 75l235 224
q-74 96 -74 234t74 235l-237 227l63 76l232 -244q98 78 229 78z" />
    <glyph glyph-name="yen" unicode="&#xa5;" horiz-adv-x="1304" 
d="M573 324h-340v96h340v131l-32 47h-308v96h242l-352 516l-191 7l7 114h485v-114l-107 -5l349 -518l344 516l-105 2v119h467v-123l-188 -4l-342 -510h248v-96h-314l-28 -45v-133h342v-96h-342v-197l163 -4l-8 -123h-483l-8 123l161 6v195z" />
    <glyph glyph-name="brokenbar" unicode="&#xa6;" horiz-adv-x="688" 
d="M420 717h-152v819h152v-819zM420 -512h-152v819h152v-819z" />
    <glyph glyph-name="section" unicode="&#xa7;" horiz-adv-x="1155" 
d="M299 647q0 -90 79 -140q78 -50 230 -93t213 -74q104 59 105 176q0 82 -80 130t-234 92t-219 75q-94 -49 -94 -166zM977 1051h-125l-10 108q-98 78 -219 78t-174 -57q-53 -56 -53 -134t68 -124q69 -46 167 -76q98 -29 197 -60t168 -94t69 -160q0 -162 -152 -256
q61 -66 62 -153q0 -145 -95 -229t-331 -84q-117 0 -206 12t-120 24l-30 13l-9 305l117 8l27 -225q102 -16 211 -17q270 0 270 187q0 61 -48 103t-120 64q-193 59 -313 108q-72 30 -120 91t-48 148q0 154 137 246q-70 66 -70 163q1 134 99 226t250 92t278 -90l27 71h96v-288z
" />
    <glyph glyph-name="dieresis" unicode="&#xa8;" horiz-adv-x="882" 
d="M267 1320q0 -36 -25 -60t-63 -23q-39 1 -63 23t-24 60t27 60t61 22t60 -20q27 -26 27 -62zM540 1237q-36 1 -61 23t-25 60t27 62q60 44 123 0q27 -26 27 -62t-27 -63q-28 -20 -64 -20z" />
    <glyph glyph-name="copyright" unicode="&#xa9;" horiz-adv-x="1740" 
d="M1122 752h-94l-8 116q-58 60 -156 60t-162 -66t-63 -192q0 -126 76 -208q76 -81 165 -81t147 25t79 49l22 22l37 -69q-54 -81 -173 -114q-50 -13 -107 -13q-154 -1 -257 107q-104 108 -104 278t96 264t240 94q96 0 176 -61l17 45h69v-256zM1452 662q0 284 -157 444
t-428 160t-426 -161t-155 -443t154 -441q154 -158 427 -158t429 158t156 441zM1565 662q-1 -322 -185 -506t-513 -184t-511 184t-182 506t184 508t510 188q326 0 512 -187t185 -509z" />
    <glyph glyph-name="ordfeminine" unicode="&#xaa;" horiz-adv-x="921" 
d="M223 854q0 -129 187 -129q94 0 142 46q38 33 64 85v166q-287 -20 -360 -91q-33 -32 -33 -77zM616 1137q0 159 -175 159q-85 0 -142 -19t-82 -40l-24 -18l-41 69q102 102 307 105q153 1 229 -63t76 -200v-475h-119l-24 109q-74 -129 -265 -129q-134 0 -206 53t-72 154
q0 223 538 256v39z" />
    <glyph glyph-name="guillemotleft" unicode="&#xab;" horiz-adv-x="1146" 
d="M1004 786l-273 -276l273 -281l-70 -77l-352 360l352 350zM618 786l-272 -276l272 -281l-69 -77l-352 360l352 350z" />
    <glyph glyph-name="logicalnot" unicode="&#xac;" horiz-adv-x="1056" 
d="M930 248h-131v340h-676v125h807v-465z" />
    <glyph glyph-name="uni00AD" unicode="&#xad;" horiz-adv-x="729" 
d="M635 506h-541v125h541v-125z" />
    <glyph glyph-name="registered" unicode="&#xae;" horiz-adv-x="1464" 
d="M735 1182h-108v-260h106q174 0 174 143q0 117 -172 117zM627 602h-90v649h196q270 0 271 -186q0 -158 -162 -195l153 -268h-100l-147 256h-121v-256zM1231 928q0 252 -131 394t-369 142q-239 0 -367 -143t-128 -394t128 -389t366 -138t370 138q131 138 131 390zM1343 928
q-1 -285 -163 -453t-450 -168t-448 168t-159 453q0 286 164 454q165 168 445 168t446 -168t165 -454z" />
    <glyph glyph-name="macron" unicode="&#xaf;" horiz-adv-x="937" 
d="M684 1296h-438v86h438v-86z" />
    <glyph glyph-name="degree" unicode="&#xb0;" horiz-adv-x="972" 
d="M484 905q114 0 178 74q63 74 63 197q0 124 -63 196q-62 72 -176 72t-176 -73t-62 -197t61 -196q61 -73 175 -73zM860 1173q0 -175 -100 -280t-276 -105q-177 0 -274 104t-97 282q0 176 99 281t272 105q172 0 274 -106t102 -281z" />
    <glyph glyph-name="plusminus" unicode="&#xb1;" horiz-adv-x="1112" 
d="M1032 295h-952v125h952v-125zM627 672h-133v342h-338v125h338v342h133v-342h334v-125h-334v-342z" />
    <glyph glyph-name="twosuperior" unicode="&#xb2;" 
d="M813 1247q0 -86 -51 -183t-137 -184q-169 -171 -328 -280h434l14 123l107 -8l-8 -244h-740v125q158 105 355 305q188 193 188 348q0 185 -213 187q-115 0 -192 -84l-6 -74h-109l8 264h88l17 -72q111 88 235 89q168 0 253 -86t85 -226z" />
    <glyph glyph-name="threesuperior" unicode="&#xb3;" 
d="M692 779q0 93 -58 147t-145 55q-87 0 -135 -37l-67 74l336 393h-369l-12 -131h-105l6 262l123 -6h531v-88l-316 -361q8 2 25 3q147 0 240 -85q94 -85 94 -233t-125 -236t-324 -90q-83 0 -149 12t-90 25l-23 15l-6 213l102 6l15 -131q62 -20 180 -20t195 60t77 153z" />
    <glyph glyph-name="acute" unicode="&#xb4;" horiz-adv-x="485" 
d="M238 1171l-117 9l194 293l158 -17z" />
    <glyph glyph-name="uni00B5" unicode="&#xb5;" horiz-adv-x="1255" 
d="M354 1024v-664q0 -112 69 -180t173 -68t176 26t100 50l29 27v680l-121 6l8 123h279v-903l121 -6l-6 -115h-260l-15 92q-121 -121 -352 -121q-119 0 -203 47l2 -530h-166l2 1092v315l-120 6l8 123h276z" />
    <glyph glyph-name="paragraph" unicode="&#xb6;" horiz-adv-x="1472" 
d="M1223 0h-168v1190h-230v-1190h-163v500q-549 0 -549 444q0 201 138 294t441 93h668v-141h-137v-1190z" />
    <glyph glyph-name="periodcentered" unicode="&#xb7;" horiz-adv-x="567" 
d="M280 596q-42 0 -73 26t-31 68t30 69q30 25 73 25t75 -26t31 -68q0 -40 -32 -67q-31 -27 -73 -27z" />
    <glyph glyph-name="cedilla" unicode="&#xb8;" horiz-adv-x="550" 
d="M274 -436q147 0 148 125q0 49 -50 78t-100 37t-51 12l27 178h84l-19 -133q-1 -1 55 -13t111 -52t55 -122t-56 -134q-58 -54 -148 -54t-146 18q-55 18 -75 37l-21 19l25 63q63 -59 161 -59z" />
    <glyph glyph-name="onesuperior" unicode="&#xb9;" 
d="M610 1536v-948l195 -4l-6 -113h-553l-8 113l223 10v797l-234 -113l-45 108l301 150h127z" />
    <glyph glyph-name="ordmasculine" unicode="&#xba;" horiz-adv-x="993" 
d="M496 727q258 0 258 285t-258 284q-258 0 -258 -284t258 -285zM907 1014q0 -178 -105 -278t-307 -101q-202 0 -306 100q-103 101 -103 279t103 278t307 100t307 -100q104 -100 104 -278z" />
    <glyph glyph-name="guillemotright" unicode="&#xbb;" horiz-adv-x="1146" 
d="M948 500l-352 -348l-70 75l273 273l-271 282l68 80zM563 500l-352 -348l-70 75l273 273l-271 282l68 80z" />
    <glyph glyph-name="onequarter" unicode="&#xbc;" horiz-adv-x="1861" 
d="M1499 -250h-512l-10 92q180 326 280 697l144 -17q-94 -326 -264 -657h362v330l23 172h129v-502h129v-107l-129 -8v-182l92 -6l-6 -105h-338l-6 105l106 4v184zM741 -8l-102 57l721 1149l102 -55zM610 1536v-948l195 -4l-6 -113h-553l-8 113l223 10v797l-234 -113l-45 108
l301 150h127z" />
    <glyph glyph-name="onehalf" unicode="&#xbd;" horiz-adv-x="1982" 
d="M1673 235q0 187 -213 187q-115 0 -192 -84l-6 -74h-109l8 264h88l17 -71q111 88 235 88q168 0 253 -86t85 -226q0 -279 -516 -647h434l15 123l106 -8l-8 -244h-740v125q158 105 355 305q188 193 188 348zM733 -8l-102 57l721 1149l102 -55zM610 1536v-948l195 -4l-6 -113
h-553l-8 113l223 10v797l-234 -113l-45 108l301 150h127z" />
    <glyph glyph-name="threequarters" unicode="&#xbe;" horiz-adv-x="1849" 
d="M1487 -250h-512l-10 92q180 326 280 697l144 -17q-94 -326 -265 -657h363v330l22 172h129v-502h129v-107l-129 -8v-182l93 -6l-7 -105h-338l-6 105l107 4v184zM729 -8l-102 57l721 1149l102 -55zM692 779q0 93 -58 147t-145 55q-87 0 -135 -37l-67 74l336 393h-369
l-12 -131h-105l6 262l123 -6h531v-88l-316 -361q8 2 25 3q147 0 240 -85q94 -85 94 -233t-125 -236t-324 -90q-83 0 -149 12t-90 25l-23 15l-6 213l102 6l15 -131q62 -20 180 -20t195 60t77 153z" />
    <glyph glyph-name="questiondown" unicode="&#xbf;" horiz-adv-x="974" 
d="M628 852q-42 0 -72 26t-30 68t30 69q30 25 73 25t75 -26t31 -68q0 -40 -32 -67q-33 -27 -75 -27zM528 -541q-222 1 -330 101q-110 100 -110 254t107 248q47 42 103 79q154 102 209 158q97 99 81 285l94 8q18 -80 18 -152t-32 -137q-32 -67 -79 -105q-49 -38 -105 -79
t-104 -75t-80 -92t-32 -144t69 -152t230 -66q92 0 156 19l14 209l119 -8l-8 -312q-98 -39 -320 -39z" />
    <glyph glyph-name="Agrave" unicode="&#xc0;" horiz-adv-x="1433" 
d="M797 1458l-117 -10l-238 285l158 18zM709 1194l-254 -672h506zM991 0v98l135 4l-120 308h-594l-121 -304l145 -4l-8 -102h-444l-9 123l162 6l467 1202h227l467 -1210l162 -6l-8 -115h-461z" />
    <glyph glyph-name="Aacute" unicode="&#xc1;" horiz-adv-x="1433" 
d="M748 1448l-117 8l194 293l158 -16zM709 1194l-254 -672h506zM991 0v98l135 4l-120 308h-594l-121 -304l145 -4l-8 -102h-444l-9 123l162 6l467 1202h227l467 -1210l162 -6l-8 -115h-461z" />
    <glyph glyph-name="Acircumflex" unicode="&#xc2;" horiz-adv-x="1433" 
d="M983 1493l-266 195l-264 -195l-56 98l275 207h92l272 -207zM709 1194l-254 -672h506zM991 0v98l135 4l-120 308h-594l-121 -304l145 -4l-8 -102h-444l-9 123l162 6l467 1202h227l467 -1210l162 -6l-8 -115h-461z" />
    <glyph glyph-name="Atilde" unicode="&#xc3;" horiz-adv-x="1433" 
d="M946 1610q73 0 119 43l20 -86l-12 -21t-51 -36q-44 -22 -110 -22t-185 51q-119 50 -172 50q-97 0 -152 -49l-18 -18l-20 96q4 10 16 26t61 44q49 26 121 26t191 -52t192 -52zM709 1194l-254 -672h506zM991 0v98l135 4l-120 308h-594l-121 -304l145 -4l-8 -102h-444
l-9 123l162 6l467 1202h227l467 -1210l162 -6l-8 -115h-461z" />
    <glyph glyph-name="Adieresis" unicode="&#xc4;" horiz-adv-x="1433" 
d="M621 1596q0 -36 -25 -58q-25 -24 -63 -24q-39 0 -63 22t-24 60t27 63q27 20 61 20t60 -20q27 -27 27 -63zM809 1596q0 38 27 63q28 20 60 20t62 -20q27 -27 27 -63t-27 -62q-28 -20 -64 -20t-60 22t-25 60zM709 1194l-254 -672h506zM991 0v98l135 4l-120 308h-594
l-121 -304l145 -4l-8 -102h-444l-9 123l162 6l467 1202h227l467 -1210l162 -6l-8 -115h-461z" />
    <glyph glyph-name="Aring" unicode="&#xc5;" horiz-adv-x="1433" 
d="M719 1552q55 0 92 38t37 100t-38 100q-38 39 -92 39t-92 -39t-38 -100q0 -62 38 -100t93 -38zM717 1479q-92 0 -150 58q-57 57 -57 151t59 154t149 60t148 -60q60 -60 60 -153t-58 -151t-151 -59zM709 1194l-254 -672h506zM991 0v98l135 4l-120 308h-594l-121 -304
l145 -4l-8 -102h-444l-9 123l162 6l467 1202h227l467 -1210l162 -6l-8 -115h-461z" />
    <glyph glyph-name="AE" unicode="&#xc6;" horiz-adv-x="1880" 
d="M911 522v676h-16l-416 -676h432zM1751 1034h-133l-8 164h-527v-463l607 2v-129h-607v-475h580l16 184l127 -8l-8 -309h-1042l-8 92l163 4v314h-501l-201 -312l125 -4l-8 -94h-461l-8 123l196 4l709 1081l-166 4l8 119h1000l147 8v-305z" />
    <glyph glyph-name="Ccedilla" unicode="&#xc7;" horiz-adv-x="1361" 
d="M733 -436q147 0 148 125q-1 49 -51 78t-100 37t-50 12l22 159q-282 27 -436 214t-154 493t186 490q185 185 472 186q164 0 311 -101l29 82h104v-460h-135l-12 247q-121 92 -272 93q-225 -1 -365 -145t-141 -400q0 -256 140 -410t378 -153q129 0 241 53t160 106l47 52
l66 -111q-19 -32 -73 -79q-54 -46 -110 -78t-150 -58t-195 -25h-7l-14 -110q0 -1 55 -13t111 -52t55 -122q0 -82 -57 -134q-58 -54 -148 -54t-145 18t-76 37l-20 19l24 63q63 -59 162 -59z" />
    <glyph glyph-name="Egrave" unicode="&#xc8;" horiz-adv-x="1230" 
d="M748 1458l-117 -10l-238 285l158 18zM1092 1034h-136l-8 164h-526v-463l606 2v-129h-606v-475h582l16 184l127 -8l-8 -309h-1045l-8 123l164 6v1081l-166 7l8 114h852l148 8v-305z" />
    <glyph glyph-name="Eacute" unicode="&#xc9;" horiz-adv-x="1230" 
d="M698 1448l-116 8l194 293l158 -16zM1092 1034h-136l-8 164h-526v-463l606 2v-129h-606v-475h582l16 184l127 -8l-8 -309h-1045l-8 123l164 6v1081l-166 7l8 114h852l148 8v-305z" />
    <glyph glyph-name="Ecircumflex" unicode="&#xca;" horiz-adv-x="1230" 
d="M934 1493l-266 195l-265 -195l-55 98l275 207h92l272 -207zM1092 1034h-136l-8 164h-526v-463l606 2v-129h-606v-475h582l16 184l127 -8l-8 -309h-1045l-8 123l164 6v1081l-166 7l8 114h852l148 8v-305z" />
    <glyph glyph-name="Edieresis" unicode="&#xcb;" horiz-adv-x="1230" 
d="M572 1596q0 -36 -25 -58q-25 -24 -63 -24t-62 22t-25 60q0 38 27 63q26 20 60 20t61 -20q27 -27 27 -63zM846 1679q33 0 63 -20q27 -27 27 -63t-27 -62q-27 -20 -63 -20t-62 22q-24 22 -24 60t26 63q27 20 60 20zM1092 1034h-136l-8 164h-526v-463l606 2v-129h-606v-475
h582l16 184l127 -8l-8 -309h-1045l-8 123l164 6v1081l-166 7l8 114h852l148 8v-305z" />
    <glyph glyph-name="Igrave" unicode="&#xcc;" horiz-adv-x="673" 
d="M414 1458l-117 -10l-238 285l158 18zM582 1331v-123l-160 -6v-1081l164 -6l-8 -115h-484l-8 123l164 6v1081l-166 7l8 114h490z" />
    <glyph glyph-name="Iacute" unicode="&#xcd;" horiz-adv-x="673" 
d="M365 1448l-117 8l194 293l158 -16zM582 1331v-123l-160 -6v-1081l164 -6l-8 -115h-484l-8 123l164 6v1081l-166 7l8 114h490z" />
    <glyph glyph-name="Icircumflex" unicode="&#xce;" horiz-adv-x="673" 
d="M600 1493l-266 195l-264 -195l-56 98l275 207h92l272 -207zM582 1331v-123l-160 -6v-1081l164 -6l-8 -115h-484l-8 123l164 6v1081l-166 7l8 114h490z" />
    <glyph glyph-name="Idieresis" unicode="&#xcf;" horiz-adv-x="673" 
d="M238 1596q0 -36 -25 -58q-25 -24 -63 -24t-62 22q-25 22 -25 60t27 63q27 20 61 20t60 -20q27 -27 27 -63zM426 1596q0 38 27 63q27 20 59 20t63 -20q27 -27 27 -63t-27 -62q-27 -20 -63 -20t-62 22q-24 22 -24 60zM582 1331v-123l-160 -6v-1081l164 -6l-8 -115h-484
l-8 123l164 6v1081l-166 7l8 114h490z" />
    <glyph glyph-name="Eth" unicode="&#xd0;" horiz-adv-x="1536" 
d="M725 1192h-303v-475h434v-111h-434v-467h307q250 1 383 141t133 402q0 510 -520 510zM250 606h-193v111h193v493l-166 7l8 114h633q336 0 517 -163q181 -162 181 -486t-181 -503t-515 -179h-633l-8 123l164 6v477z" />
    <glyph glyph-name="Ntilde" unicode="&#xd1;" horiz-adv-x="1613" 
d="M1052 1610q73 0 119 43l21 -86l-12 -21t-52 -36t-110 -22t-184 51q-118 50 -172 50t-94 -16t-58 -33l-18 -18l-21 96q4 10 16 26t62 44q111 62 311 -26q118 -52 192 -52zM1380 -12h-180l-797 1099h-2l9 -63v-901l165 -4l-8 -119h-473l-8 123l164 6v1081l-166 7l8 114h338
l793 -1114l-4 47v944l-166 4l6 119h479v-123l-158 -6v-1214z" />
    <glyph glyph-name="Ograve" unicode="&#xd2;" horiz-adv-x="1558" 
d="M856 1458l-117 -10l-237 285l157 18zM1270 681q0 257 -130 397t-362 140t-360 -140q-129 -140 -129 -397t130 -414t359 -157t361 157q131 157 131 414zM1448 682q0 -320 -179 -516t-491 -195q-312 0 -488 195q-177 195 -177 515q0 321 176 499t490 178t492 -178
q177 -178 177 -498z" />
    <glyph glyph-name="Oacute" unicode="&#xd3;" horiz-adv-x="1558" 
d="M807 1448l-117 8l195 293l157 -16zM1270 681q0 257 -130 397t-362 140t-360 -140q-129 -140 -129 -397t130 -414t359 -157t361 157q131 157 131 414zM1448 682q0 -320 -179 -516t-491 -195q-312 0 -488 195q-177 195 -177 515q0 321 176 499t490 178t492 -178
q177 -178 177 -498z" />
    <glyph glyph-name="Ocircumflex" unicode="&#xd4;" horiz-adv-x="1558" 
d="M1042 1493l-266 195l-264 -195l-55 98l274 207h92l273 -207zM1270 681q0 257 -130 397t-362 140t-360 -140q-129 -140 -129 -397t130 -414t359 -157t361 157q131 157 131 414zM1448 682q0 -320 -179 -516t-491 -195q-312 0 -488 195q-177 195 -177 515q0 321 176 499
t490 178t492 -178q177 -178 177 -498z" />
    <glyph glyph-name="Otilde" unicode="&#xd5;" horiz-adv-x="1558" 
d="M614 1589q-53 0 -93 -16t-58 -33l-19 -18l-20 96q4 10 16 26t62 44q50 26 120 26q72 0 191 -52t168 -52q97 0 129 32l14 11l21 -86l-12 -21q-7 -14 -51 -36t-110 -22t-186 51q-119 50 -172 50zM1270 681q0 257 -130 397t-362 140t-360 -140q-129 -140 -129 -397t130 -414
t359 -157t361 157q131 157 131 414zM1448 682q0 -320 -179 -516t-491 -195q-312 0 -488 195q-177 195 -177 515q0 321 176 499t490 178t492 -178q177 -178 177 -498z" />
    <glyph glyph-name="Odieresis" unicode="&#xd6;" horiz-adv-x="1558" 
d="M682 1596q0 -36 -25 -58q-25 -24 -63 -24t-62 22t-24 60t27 63q27 20 61 20t59 -20q27 -27 27 -63zM870 1596q0 38 27 63q27 20 59 20t64 -20q27 -27 27 -63t-27 -62q-27 -20 -64 -20q-38 0 -62 22t-24 60zM1270 681q0 257 -130 397t-362 140t-360 -140
q-129 -140 -129 -397t130 -414t359 -157t361 157q131 157 131 414zM1448 682q0 -320 -179 -516t-491 -195q-312 0 -488 195q-177 195 -177 515q0 321 176 499t490 178t492 -178q177 -178 177 -498z" />
    <glyph glyph-name="multiply" unicode="&#xd7;" horiz-adv-x="829" 
d="M176 317l-94 101l235 237l-235 240l92 98l240 -241l241 241l93 -98l-238 -240l238 -237l-95 -101l-239 240z" />
    <glyph glyph-name="Oslash" unicode="&#xd8;" horiz-adv-x="1558" 
d="M1270 684q0 326 -211 461l-455 -1008q78 -27 174 -26q229 0 361 156q131 157 131 417zM778 1219q-231 -1 -360 -141t-129 -394q1 -180 65 -314t183 -202l456 1010q-94 41 -215 41zM1448 684q0 -322 -179 -518t-491 -195q-121 0 -231 33l-90 -211l-76 12l96 226
q-174 80 -269 251t-95 402q0 318 176 496t489 178q150 0 279 -45l86 178l76 -12l-95 -195q156 -80 240 -234t84 -366z" />
    <glyph glyph-name="Ugrave" unicode="&#xd9;" horiz-adv-x="1519" 
d="M872 1458l-116 -10l-238 285l158 18zM385 489q0 -162 97 -265q96 -103 280 -103t281 103t98 265v719l-168 4l6 119h485v-114l-157 -7v-755q-1 -209 -139 -346t-407 -137t-409 138t-139 345v755l-166 7l8 114h490v-114l-160 -7v-721z" />
    <glyph glyph-name="Uacute" unicode="&#xda;" horiz-adv-x="1519" 
d="M752 1448l-117 8l194 293l158 -16zM385 489q0 -162 97 -265q96 -103 280 -103t281 103t98 265v719l-168 4l6 119h485v-114l-157 -7v-755q-1 -209 -139 -346t-407 -137t-409 138t-139 345v755l-166 7l8 114h490v-114l-160 -7v-721z" />
    <glyph glyph-name="Ucircumflex" unicode="&#xdb;" horiz-adv-x="1519" 
d="M1016 1493l-266 195l-265 -195l-55 98l275 207h92l272 -207zM385 489q0 -162 97 -265q96 -103 280 -103t281 103t98 265v719l-168 4l6 119h485v-114l-157 -7v-755q-1 -209 -139 -346t-407 -137t-409 138t-139 345v755l-166 7l8 114h490v-114l-160 -7v-721z" />
    <glyph glyph-name="Udieresis" unicode="&#xdc;" horiz-adv-x="1519" 
d="M656 1596q0 -36 -25 -58q-25 -24 -63 -24t-62 22t-25 60q0 38 27 63q26 20 60 20t61 -20q27 -27 27 -63zM930 1679q33 0 63 -20q27 -27 27 -63t-27 -62q-27 -20 -63 -20t-62 22q-24 22 -24 60t26 63q27 20 60 20zM385 489q0 -162 97 -265q96 -103 280 -103t281 103
t98 265v719l-168 4l6 119h485v-114l-157 -7v-755q-1 -209 -139 -346t-407 -137t-409 138t-139 345v755l-166 7l8 114h490v-114l-160 -7v-721z" />
    <glyph glyph-name="Yacute" unicode="&#xdd;" horiz-adv-x="1304" 
d="M723 1448l-117 8l195 293l157 -16zM424 1331v-114l-107 -5l349 -518l344 516l-105 2v119h467v-123l-188 -4l-436 -651v-426l163 -4l-8 -123h-483l-8 123l161 6v422l-450 659l-191 7l7 114h485z" />
    <glyph glyph-name="Thorn" unicode="&#xde;" horiz-adv-x="1206" 
d="M598 965h-188v-623h186q152 0 248 81t96 255q0 287 -342 287zM410 0h-316l-8 123l164 6v1081l-166 7l8 114h318v-233h202q498 0 498 -410q0 -162 -76 -272q-139 -202 -420 -203h-204v-213z" />
    <glyph glyph-name="germandbls" unicode="&#xdf;" horiz-adv-x="1263" 
d="M354 0h-278l-8 123l122 6v999q0 217 113 326t311 109t298 -82q102 -82 102 -246t-195 -254q367 -84 367 -479q0 -258 -119 -394t-328 -137q-98 1 -167 17t-89 32l-20 17l24 102q53 -43 204 -43t238 102t87 308q0 205 -106 295t-353 90l2 22l-2 103q27 0 90 16t103 36
t70 62q32 41 32 95q0 213 -236 213q-130 0 -196 -80t-66 -230v-1128z" />
    <glyph glyph-name="agrave" unicode="&#xe0;" horiz-adv-x="1097" 
d="M647 1182l-117 -11l-237 285l158 19zM492 86q150 0 231 92q28 30 41 60v260q-281 -20 -371 -54q-143 -49 -143 -163q0 -195 242 -195zM82 264q0 80 44 139t95 91t157 58q106 24 158 31t131 14t97 9v72q0 135 -52 194q-52 60 -182 60t-223 -86l-8 -133h-125l6 321h105
l14 -76q129 94 276 95q352 0 353 -373v-559l123 -6l-9 -115h-249l-25 131q-17 -34 -69 -77q-96 -81 -264 -82q-167 -1 -260 76t-93 216z" />
    <glyph glyph-name="aacute" unicode="&#xe1;" horiz-adv-x="1097" 
d="M598 1171l-117 9l195 293l158 -17zM492 86q150 0 231 92q28 30 41 60v260q-281 -20 -371 -54q-143 -49 -143 -163q0 -195 242 -195zM82 264q0 80 44 139t95 91t157 58q106 24 158 31t131 14t97 9v72q0 135 -52 194q-52 60 -182 60t-223 -86l-8 -133h-125l6 321h105
l14 -76q129 94 276 95q352 0 353 -373v-559l123 -6l-9 -115h-249l-25 131q-17 -34 -69 -77q-96 -81 -264 -82q-167 -1 -260 76t-93 216z" />
    <glyph glyph-name="acircumflex" unicode="&#xe2;" horiz-adv-x="1097" 
d="M831 1217l-266 194l-264 -194l-55 98l274 207h92l273 -207zM492 86q150 0 231 92q28 30 41 60v260q-281 -20 -371 -54q-143 -49 -143 -163q0 -195 242 -195zM82 264q0 80 44 139t95 91t157 58q106 24 158 31t131 14t97 9v72q0 135 -52 194q-52 60 -182 60t-223 -86
l-8 -133h-125l6 321h105l14 -76q129 94 276 95q352 0 353 -373v-559l123 -6l-9 -115h-249l-25 131q-17 -34 -69 -77q-96 -81 -264 -82q-167 -1 -260 76t-93 216z" />
    <glyph glyph-name="atilde" unicode="&#xe3;" horiz-adv-x="1097" 
d="M412 1438q72 0 190 -52t189 -53q70 0 122 43l21 -86q-4 -8 -12 -21t-52 -35t-110 -22t-185 50t-172 51t-93 -17t-58 -34l-19 -17l-20 96q4 11 16 27q11 16 61 43t122 27zM492 86q150 0 231 92q28 30 41 60v260q-281 -20 -371 -54q-143 -49 -143 -163q0 -195 242 -195z
M82 264q0 80 44 139t95 91t157 58q106 24 158 31t131 14t97 9v72q0 135 -52 194q-52 60 -182 60t-223 -86l-8 -133h-125l6 321h105l14 -76q129 94 276 95q352 0 353 -373v-559l123 -6l-9 -115h-249l-25 131q-17 -34 -69 -77q-96 -81 -264 -82q-167 -1 -260 76t-93 216z" />
    <glyph glyph-name="adieresis" unicode="&#xe4;" horiz-adv-x="1097" 
d="M471 1320q0 -36 -25 -60q-24 -24 -62 -23t-62 23t-25 60q0 38 27 60q26 22 60 22t60 -20q27 -26 27 -62zM746 1237q-36 1 -62 23q-25 22 -25 60t27 60q58 47 123 2q27 -26 27 -62t-27 -63q-27 -20 -63 -20zM492 86q150 0 231 92q28 30 41 60v260q-281 -20 -371 -54
q-143 -49 -143 -163q0 -195 242 -195zM82 264q0 80 44 139t95 91t157 58q106 24 158 31t131 14t97 9v72q0 135 -52 194q-52 60 -182 60t-223 -86l-8 -133h-125l6 321h105l14 -76q129 94 276 95q352 0 353 -373v-559l123 -6l-9 -115h-249l-25 131q-17 -34 -69 -77
q-96 -81 -264 -82q-167 -1 -260 76t-93 216z" />
    <glyph glyph-name="aring" unicode="&#xe5;" horiz-adv-x="1097" 
d="M567 1276q55 0 92 38t37 99t-38 100t-92 39t-92 -39t-38 -100t38 -99t93 -38zM565 1202q-92 0 -149 58q-58 58 -58 152t60 154t148 60t148 -60t60 -154t-58 -152t-151 -58zM492 86q150 0 231 92q28 30 41 60v260q-281 -20 -371 -54q-143 -49 -143 -163q0 -195 242 -195z
M82 264q0 80 44 139t95 91t157 58q106 24 158 31t131 14t97 9v72q0 135 -52 194q-52 60 -182 60t-223 -86l-8 -133h-125l6 321h105l14 -76q129 94 276 95q352 0 353 -373v-559l123 -6l-9 -115h-249l-25 131q-17 -34 -69 -77q-96 -81 -264 -82q-167 -1 -260 76t-93 216z" />
    <glyph glyph-name="ae" unicode="&#xe6;" horiz-adv-x="1726" 
d="M479 86q76 0 131 36q118 77 140 296q-4 49 -5 76q-268 -18 -354 -48q-141 -47 -141 -165q0 -195 229 -195zM1237 932q-147 0 -229 -88t-97 -250h600q2 27 2 47q0 291 -276 291zM1663 608q0 -73 -25 -127h-729q9 -190 103 -287t256 -98q92 0 169 34t107 67l31 34l78 -84
q-16 -24 -54 -58q-131 -116 -335 -118q-334 0 -459 254q-102 -254 -375 -254q-172 0 -260 76t-88 217t105 205q59 35 99 57q78 42 406 72q36 6 58 6l4 23v51q0 135 -52 193q-52 59 -178 59q-127 0 -217 -84l-8 -111h-125l6 299h105l14 -71q131 90 268 90q221 0 285 -172
q131 172 383 172q209 0 319 -112t109 -333z" />
    <glyph glyph-name="ccedilla" unicode="&#xe7;" horiz-adv-x="997" 
d="M545 -436q147 0 147 125q0 49 -50 78t-100 37t-50 12l22 159q-213 21 -325 161q-111 140 -111 393t123 389t354 135q129 0 254 -101l22 82h107v-348h-127l-10 145q-92 100 -221 101q-172 0 -252 -95t-80 -311t93 -326q93 -108 261 -108q84 0 159 31t107 61l31 31l74 -82
q-13 -19 -49 -50q-120 -103 -326 -112l-14 -110q0 -1 55 -13t111 -52t55 -122q0 -82 -57 -134q-58 -54 -148 -54t-145 18t-76 37l-21 19l25 63q63 -59 162 -59z" />
    <glyph glyph-name="egrave" unicode="&#xe8;" horiz-adv-x="1060" 
d="M649 1182l-117 -11l-237 285l158 19zM569 932q-147 0 -229 -88t-96 -250h600q2 27 2 47q-1 291 -277 291zM78 511q0 257 132 399t349 142t327 -111q110 -112 109 -333q0 -67 -24 -127h-729q8 -190 102 -287t256 -98q92 0 169 34t108 67l30 34l78 -84q-17 -26 -55 -59
q-129 -114 -334 -117q-242 -1 -380 141t-138 399z" />
    <glyph glyph-name="eacute" unicode="&#xe9;" horiz-adv-x="1060" 
d="M600 1171l-117 9l195 293l158 -17zM569 932q-147 0 -229 -88t-96 -250h600q2 27 2 47q-1 291 -277 291zM78 511q0 257 132 399t349 142t327 -111q110 -112 109 -333q0 -67 -24 -127h-729q8 -190 102 -287t256 -98q92 0 169 34t108 67l30 34l78 -84q-17 -26 -55 -59
q-129 -114 -334 -117q-242 -1 -380 141t-138 399z" />
    <glyph glyph-name="ecircumflex" unicode="&#xea;" horiz-adv-x="1060" 
d="M836 1217l-267 194l-264 -194l-55 98l274 207h92l273 -207zM569 932q-147 0 -229 -88t-96 -250h600q2 27 2 47q-1 291 -277 291zM78 511q0 257 132 399t349 142t327 -111q110 -112 109 -333q0 -67 -24 -127h-729q8 -190 102 -287t256 -98q92 0 169 34t108 67l30 34
l78 -84q-17 -26 -55 -59q-129 -114 -334 -117q-242 -1 -380 141t-138 399z" />
    <glyph glyph-name="edieresis" unicode="&#xeb;" horiz-adv-x="1060" 
d="M473 1320q0 -36 -25 -60q-24 -24 -62 -23t-62 23t-25 60q0 38 27 60q26 22 60 22t60 -20q27 -26 27 -62zM748 1237q-36 1 -62 23q-24 22 -24 60t26 62q60 44 123 0q27 -26 27 -62t-27 -63q-27 -20 -63 -20zM569 932q-147 0 -229 -88t-96 -250h600q2 27 2 47
q-1 291 -277 291zM78 511q0 257 132 399t349 142t327 -111q110 -112 109 -333q0 -67 -24 -127h-729q8 -190 102 -287t256 -98q92 0 169 34t108 67l30 34l78 -84q-17 -26 -55 -59q-129 -114 -334 -117q-242 -1 -380 141t-138 399z" />
    <glyph glyph-name="igrave" unicode="&#xec;" horiz-adv-x="552" 
d="M360 1182l-116 -11l-238 285l158 19zM362 1024v-903l123 -6l-8 -115h-393l-8 123l123 6v766l-121 6l6 123h278z" />
    <glyph glyph-name="iacute" unicode="&#xed;" horiz-adv-x="552" 
d="M311 1171l-116 9l194 293l158 -17zM362 1024v-903l123 -6l-8 -115h-393l-8 123l123 6v766l-121 6l6 123h278z" />
    <glyph glyph-name="icircumflex" unicode="&#xee;" horiz-adv-x="552" 
d="M545 1217l-266 194l-265 -194l-55 98l274 207h93l272 -207zM362 1024v-903l123 -6l-8 -115h-393l-8 123l123 6v766l-121 6l6 123h278z" />
    <glyph glyph-name="idieresis" unicode="&#xef;" horiz-adv-x="552" 
d="M185 1320q0 -36 -25 -60t-63 -23q-39 1 -63 23t-24 60t27 60t61 22t60 -20q27 -26 27 -62zM458 1237q-36 1 -61 23t-25 60t27 62q60 44 123 0q27 -26 27 -62t-27 -63q-28 -20 -64 -20zM362 1024v-903l123 -6l-8 -115h-393l-8 123l123 6v766l-121 6l6 123h278z" />
    <glyph glyph-name="eth" unicode="&#xf0;" horiz-adv-x="1187" 
d="M588 932q-340 0 -340 -400q0 -204 85 -322t255 -118t254 119t84 313t-85 300q-85 108 -253 108zM590 -29q-244 1 -377 153t-133 406t127 388t353 135q226 0 370 -140q-53 250 -228 410l-262 -127l-30 61l235 115q-59 43 -123 80l70 78q92 -45 162 -105l196 97l31 -64
l-170 -82q285 -279 285 -819q0 -274 -131 -430t-375 -156z" />
    <glyph glyph-name="ntilde" unicode="&#xf1;" horiz-adv-x="1243" 
d="M444 1438q72 0 191 -52t189 -53q70 0 122 43l21 -86q-5 -8 -13 -21t-51 -35t-109 -22t-186 50q-119 50 -172 51t-93 -17t-58 -34l-19 -17l-20 96q4 11 16 27t62 43q48 27 120 27zM709 1053q367 0 366 -318v-614l121 -6l-6 -115h-281v705q0 209 -256 208q-89 -1 -161 -27
t-101 -50l-29 -27v-688l123 -6l-8 -115h-393l-8 123l123 6v766l-121 6l6 123h260l14 -90q14 18 42 38t115 51q87 30 194 30z" />
    <glyph glyph-name="ograve" unicode="&#xf2;" horiz-adv-x="1173" 
d="M666 1182l-117 -11l-238 285l158 19zM248 518q0 -202 84 -314t255 -112t254 112t83 314q0 414 -338 414t-338 -414zM1094 520q0 -254 -133 -402t-377 -147t-375 147t-131 401t130 394t378 139t378 -138q130 -140 130 -394z" />
    <glyph glyph-name="oacute" unicode="&#xf3;" horiz-adv-x="1173" 
d="M616 1171l-116 9l194 293l158 -17zM248 518q0 -202 84 -314t255 -112t254 112t83 314q0 414 -338 414t-338 -414zM1094 520q0 -254 -133 -402t-377 -147t-375 147t-131 401t130 394t378 139t378 -138q130 -140 130 -394z" />
    <glyph glyph-name="ocircumflex" unicode="&#xf4;" horiz-adv-x="1173" 
d="M850 1217l-266 194l-265 -194l-55 98l275 207h92l272 -207zM248 518q0 -202 84 -314t255 -112t254 112t83 314q0 414 -338 414t-338 -414zM1094 520q0 -254 -133 -402t-377 -147t-375 147t-131 401t130 394t378 139t378 -138q130 -140 130 -394z" />
    <glyph glyph-name="otilde" unicode="&#xf5;" horiz-adv-x="1173" 
d="M430 1438q72 0 191 -52t185 -53q66 0 126 43l20 -86q-4 -8 -12 -21t-51 -35t-110 -22t-185 50t-191 51q-72 0 -133 -51l-18 -17l-21 96q14 35 70 66q57 31 129 31zM248 518q0 -202 84 -314t255 -112t254 112t83 314q0 414 -338 414t-338 -414zM1094 520q0 -254 -133 -402
t-377 -147t-375 147t-131 401t130 394t378 139t378 -138q130 -140 130 -394z" />
    <glyph glyph-name="odieresis" unicode="&#xf6;" horiz-adv-x="1173" 
d="M490 1320q0 -36 -25 -60t-63 -23t-62 23t-25 60q0 38 27 60q26 22 60 22t61 -20q27 -26 27 -62zM764 1237q-36 1 -62 23q-24 22 -24 60t27 60q58 47 122 2q27 -26 27 -62t-27 -63q-27 -20 -63 -20zM248 518q0 -202 84 -314t255 -112t254 112t83 314q0 414 -338 414
t-338 -414zM1094 520q0 -254 -133 -402t-377 -147t-375 147t-131 401t130 394t378 139t378 -138q130 -140 130 -394z" />
    <glyph glyph-name="divide" unicode="&#xf7;" horiz-adv-x="1112" 
d="M1032 457h-952v125h952v-125zM554 809q-42 0 -73 26q-31 27 -31 69t32 68q30 26 72 26t74 -28q32 -26 32 -66t-32 -68q-32 -27 -74 -27zM550 41q-42 0 -73 26q-31 27 -31 69t31 68t73 26t74 -28q32 -26 32 -66t-32 -68q-32 -27 -74 -27z" />
    <glyph glyph-name="oslash" unicode="&#xf8;" horiz-adv-x="1198" 
d="M586 92q338 0 338 438q0 214 -107 320l-336 -746q48 -12 105 -12zM248 518q0 -268 139 -368l344 757q-61 25 -145 25q-338 0 -338 -414zM78 520q0 254 130 393t378 140q106 0 198 -29l140 307l106 -12l-153 -338q217 -127 217 -461q0 -254 -133 -401t-375 -148
q-86 0 -158 19l-160 -357l-108 13l172 379q-254 127 -254 495z" />
    <glyph glyph-name="ugrave" unicode="&#xf9;" horiz-adv-x="1234" 
d="M688 1182l-117 -11l-237 285l158 19zM1047 1024v-903l120 -6l-6 -115h-260l-14 92q-121 -121 -352 -121q-169 -1 -267 95t-98 264v565l-121 6l8 123h277v-664q0 -112 68 -180t174 -68q104 0 176 26t100 50l29 27v680l-121 6l8 123h279z" />
    <glyph glyph-name="uacute" unicode="&#xfa;" horiz-adv-x="1234" 
d="M639 1171l-117 9l195 293l157 -17zM1047 1024v-903l120 -6l-6 -115h-260l-14 92q-121 -121 -352 -121q-169 -1 -267 95t-98 264v565l-121 6l8 123h277v-664q0 -112 68 -180t174 -68q104 0 176 26t100 50l29 27v680l-121 6l8 123h279z" />
    <glyph glyph-name="ucircumflex" unicode="&#xfb;" horiz-adv-x="1234" 
d="M874 1217l-266 194l-264 -194l-55 98l274 207h92l273 -207zM1047 1024v-903l120 -6l-6 -115h-260l-14 92q-121 -121 -352 -121q-169 -1 -267 95t-98 264v565l-121 6l8 123h277v-664q0 -112 68 -180t174 -68q104 0 176 26t100 50l29 27v680l-121 6l8 123h279z" />
    <glyph glyph-name="udieresis" unicode="&#xfc;" horiz-adv-x="1234" 
d="M512 1320q0 -36 -25 -60t-63 -23t-62 23t-24 60t27 60t61 22t59 -20q27 -26 27 -62zM786 1237q-38 1 -62 23t-24 60t27 60q57 47 123 2q27 -26 27 -62t-27 -63q-27 -20 -64 -20zM1047 1024v-903l120 -6l-6 -115h-260l-14 92q-121 -121 -352 -121q-169 -1 -267 95t-98 264
v565l-121 6l8 123h277v-664q0 -112 68 -180t174 -68q104 0 176 26t100 50l29 27v680l-121 6l8 123h279z" />
    <glyph glyph-name="yacute" unicode="&#xfd;" horiz-adv-x="1079" 
d="M594 1171l-117 9l195 293l157 -17zM178 -410q143 0 297 410l-383 895l-145 6l8 123h266l340 -844h2l273 721l-109 4v119h395v-123l-135 -6l-358 -918q-203 -518 -430 -518q-66 1 -111 11t-55 22l-13 10l17 113q72 -25 141 -25z" />
    <glyph glyph-name="thorn" unicode="&#xfe;" horiz-adv-x="1212" 
d="M618 926q-117 0 -187 -51t-91 -97v-588q33 -39 107 -67q74 -27 151 -27q186 0 278 125q91 125 91 328t-88 290q-89 87 -261 87zM342 911q92 139 316 140q223 2 351 -126t128 -376t-130 -413q-131 -165 -349 -165t-320 97v-459l123 -6l-8 -115h-394l-8 123l123 6v1790
l-121 6l8 123h279v-625h2z" />
    <glyph glyph-name="ydieresis" unicode="&#xff;" horiz-adv-x="1079" 
d="M467 1320q0 -36 -25 -60q-24 -24 -62 -23t-63 23t-25 60t27 62q27 20 61 20t60 -20q27 -26 27 -62zM741 1237q-37 1 -61 23t-25 60q0 38 27 60q57 47 123 2q27 -26 27 -62t-27 -63q-27 -20 -64 -20zM178 -410q143 0 297 410l-383 895l-145 6l8 123h266l340 -844h2
l273 721l-109 4v119h395v-123l-135 -6l-358 -918q-203 -518 -430 -518q-66 1 -111 11t-55 22l-13 10l17 113q72 -25 141 -25z" />
    <glyph glyph-name="Amacron" unicode="&#x100;" horiz-adv-x="1433" 
d="M944 1573h-438v86h438v-86zM709 1194l-254 -672h506zM991 0v98l135 4l-120 308h-594l-121 -304l145 -4l-8 -102h-444l-9 123l162 6l467 1202h227l467 -1210l162 -6l-8 -115h-461z" />
    <glyph glyph-name="amacron" unicode="&#x101;" horiz-adv-x="1097" 
d="M795 1296h-439v86h439v-86zM492 86q150 0 231 92q28 30 41 60v260q-281 -20 -371 -54q-143 -49 -143 -163q0 -195 242 -195zM82 264q0 80 44 139t95 91t157 58q106 24 158 31t131 14t97 9v72q0 135 -52 194q-52 60 -182 60t-223 -86l-8 -133h-125l6 321h105l14 -76
q129 94 276 95q352 0 353 -373v-559l123 -6l-9 -115h-249l-25 131q-17 -34 -69 -77q-96 -81 -264 -82q-167 -1 -260 76t-93 216z" />
    <glyph glyph-name="Abreve" unicode="&#x102;" horiz-adv-x="1433" 
d="M718 1456q-213 0 -317 135q-23 31 -28 51l-6 23l141 21q2 -4 5 -12t18 -30q55 -79 203 -79q64 1 115 31q52 30 64 59l15 31l143 -21q-19 -77 -94 -136q-35 -29 -104 -51t-155 -22zM709 1194l-254 -672h506zM991 0v98l135 4l-120 308h-594l-121 -304l145 -4l-8 -102h-444
l-9 123l162 6l467 1202h227l467 -1210l162 -6l-8 -115h-461z" />
    <glyph glyph-name="abreve" unicode="&#x103;" horiz-adv-x="1097" 
d="M569 1288q130 0 187 78q13 17 22 43l144 -20q-19 -76 -95 -137q-35 -28 -103 -50t-156 -22q-171 1 -251 68q-80 68 -94 120l-6 21l141 20q28 -56 54 -75q63 -46 157 -46zM492 86q150 0 231 92q28 30 41 60v260q-281 -20 -371 -54q-143 -49 -143 -163q0 -195 242 -195z
M82 264q0 80 44 139t95 91t157 58q106 24 158 31t131 14t97 9v72q0 135 -52 194q-52 60 -182 60t-223 -86l-8 -133h-125l6 321h105l14 -76q129 94 276 95q352 0 353 -373v-559l123 -6l-9 -115h-249l-25 131q-17 -34 -69 -77q-96 -81 -264 -82q-167 -1 -260 76t-93 216z" />
    <glyph glyph-name="Aogonek" unicode="&#x104;" horiz-adv-x="1433" 
d="M709 1194l-254 -672h506zM1395 -426v-86q-377 0 -377 240q0 156 192 272h-219v98l135 4l-120 308h-594l-121 -304l145 -4l-8 -102h-444l-9 123l162 6l467 1202h227l467 -1210l162 -6l-8 -115h-104l-22 -11q-116 -56 -167 -162q-23 -46 -22 -97q0 -156 258 -156z" />
    <glyph glyph-name="aogonek" unicode="&#x105;" horiz-adv-x="1097" 
d="M492 86q150 0 231 92q28 30 41 60v260q-281 -20 -371 -54q-143 -49 -143 -163q0 -195 242 -195zM975 -426v-86q-377 0 -377 240q0 158 195 272l-25 131q-17 -34 -69 -77q-96 -81 -264 -82q-167 -1 -260 76t-93 216q0 80 44 139t95 91t157 58q106 24 158 31t131 14t97 9
v72q0 135 -52 194q-52 60 -182 60t-223 -86l-8 -133h-125l6 321h105l14 -76q129 94 276 95q352 0 353 -373v-559l123 -6l-9 -115h-114l-22 -11q-113 -54 -167 -162q-23 -46 -22 -97q0 -156 258 -156z" />
    <glyph glyph-name="Cacute" unicode="&#x106;" horiz-adv-x="1361" 
d="M819 1448l-117 8l195 293l158 -16zM1214 879h-135l-12 247q-121 92 -272 93q-225 -1 -365 -145t-141 -400q0 -256 140 -410t378 -153q129 0 241 53t160 106l47 52l66 -111q-19 -32 -73 -79q-54 -46 -110 -78t-150 -58t-195 -25q-324 -1 -502 191t-178 508t185 502
q185 185 472 186q164 0 311 -101l29 82h104v-460z" />
    <glyph glyph-name="cacute" unicode="&#x107;" horiz-adv-x="997" 
d="M643 1171l-117 9l195 293l158 -17zM938 686h-127l-10 145q-92 100 -221 101q-172 0 -252 -95t-80 -311t93 -326q93 -108 261 -108q84 0 159 31t107 61l31 31l74 -82q-13 -19 -50 -51q-125 -108 -335 -111q-248 1 -379 143t-131 405t123 399t354 135q129 0 254 -101l22 82
h107v-348z" />
    <glyph glyph-name="Ccaron" unicode="&#x10c;" horiz-adv-x="1361" 
d="M1110 1655l-274 -205h-93l-272 205l53 98l264 -197l269 197zM1214 879h-135l-12 247q-121 92 -272 93q-225 -1 -365 -145t-141 -400q0 -256 140 -410t378 -153q129 0 241 53t160 106l47 52l66 -111q-19 -32 -73 -79q-54 -46 -110 -78t-150 -58t-195 -25q-324 -1 -502 191
t-178 508t185 502q185 185 472 186q164 0 311 -101l29 82h104v-460z" />
    <glyph glyph-name="ccaron" unicode="&#x10d;" horiz-adv-x="997" 
d="M934 1378l-275 -204h-92l-272 204l53 99l264 -197l269 197zM938 686h-127l-10 145q-92 100 -221 101q-172 0 -252 -95t-80 -311t93 -326q93 -108 261 -108q84 0 159 31t107 61l31 31l74 -82q-13 -19 -50 -51q-125 -108 -335 -111q-248 1 -379 143t-131 405t123 399
t354 135q129 0 254 -101l22 82h107v-348z" />
    <glyph glyph-name="Dcaron" unicode="&#x10e;" horiz-adv-x="1536" 
d="M995 1655l-274 -205h-92l-273 205l54 98l264 -197l268 197zM725 1192h-303v-1053h307q250 1 383 141t133 402q0 510 -520 510zM725 1331q336 0 517 -163q181 -162 181 -486t-181 -503t-515 -179h-633l-8 123l164 6v1081l-166 7l8 114h633z" />
    <glyph glyph-name="dcaron" unicode="&#x10f;" horiz-adv-x="1228" 
d="M1272 1116l-98 14q35 72 57 183q23 111 16 190l13 72l112 -14q-4 -101 -34 -235t-66 -210zM596 98q82 0 148 34t92 61q25 27 38 49v589q-96 97 -272 97q-354 1 -354 -418q0 -200 91 -306t257 -106zM547 -29q-209 -1 -339 147t-130 396t125 393t358 146q98 0 176 -25
t107 -49l28 -25h2v453l-120 6l8 123h276v-1415l123 -6l-8 -115h-258l-16 113q-16 -25 -45 -52t-108 -59t-179 -31z" />
    <glyph glyph-name="Dcroat" unicode="&#x110;" horiz-adv-x="1536" 
d="M725 1192h-303v-475h434v-111h-434v-467h307q250 1 383 141t133 402q0 510 -520 510zM250 606h-193v111h193v493l-166 7l8 114h633q336 0 517 -163q181 -162 181 -486t-181 -503t-515 -179h-633l-8 123l164 6v477z" />
    <glyph glyph-name="dcroat" unicode="&#x111;" horiz-adv-x="1228" 
d="M596 98q82 0 148 34t92 61q25 27 38 49v589q-96 96 -258 97q-369 0 -368 -441q0 -389 348 -389zM547 -29q-211 -1 -340 137t-129 386t126 403q126 156 357 156q98 0 176 -25t107 -49l28 -25h2v308h-288v112h288v162h164v-162h150v-98l-144 -14h-6v-1127l123 -4l-8 -131
h-260l-14 111q-18 -25 -46 -51t-108 -58t-178 -31z" />
    <glyph glyph-name="Emacron" unicode="&#x112;" horiz-adv-x="1230" 
d="M895 1573h-438v86h438v-86zM1092 1034h-136l-8 164h-526v-463l606 2v-129h-606v-475h582l16 184l127 -8l-8 -309h-1045l-8 123l164 6v1081l-166 7l8 114h852l148 8v-305z" />
    <glyph glyph-name="emacron" unicode="&#x113;" horiz-adv-x="1060" 
d="M795 1296h-439v86h439v-86zM569 932q-147 0 -229 -88t-96 -250h600q2 27 2 47q-1 291 -277 291zM78 511q0 257 132 399t349 142t327 -111q110 -112 109 -333q0 -67 -24 -127h-729q8 -190 102 -287t256 -98q92 0 169 34t108 67l30 34l78 -84q-17 -26 -55 -59
q-129 -114 -334 -117q-242 -1 -380 141t-138 399z" />
    <glyph glyph-name="Edotaccent" unicode="&#x116;" horiz-adv-x="1230" 
d="M567 1594q0 46 29 71t71 25t74 -23q29 -29 29 -71t-29 -72q-27 -20 -73 -20t-74 22q-27 22 -27 68zM1092 1034h-136l-8 164h-526v-463l606 2v-129h-606v-475h582l16 184l127 -8l-8 -309h-1045l-8 123l164 6v1081l-166 7l8 114h852l148 8v-305z" />
    <glyph glyph-name="edotaccent" unicode="&#x117;" horiz-adv-x="1060" 
d="M569 1227q-102 0 -102 92q0 45 29 70q28 25 70 25t75 -23q29 -29 29 -72t-29 -72q-27 -20 -72 -20zM569 932q-147 0 -229 -88t-96 -250h600q2 27 2 47q-1 291 -277 291zM78 511q0 257 132 399t349 142t327 -111q110 -112 109 -333q0 -67 -24 -127h-729q8 -190 102 -287
t256 -98q92 0 169 34t108 67l30 34l78 -84q-17 -26 -55 -59q-129 -114 -334 -117q-242 -1 -380 141t-138 399z" />
    <glyph glyph-name="Eogonek" unicode="&#x118;" horiz-adv-x="1230" 
d="M1182 -426v-86q-377 0 -377 240q0 156 192 272h-903l-8 123l164 6v1081l-166 7l8 114h852l148 8v-305h-136l-8 164h-526v-463l606 2v-129h-606v-475h582l16 184l127 -8l-8 -309h-4q-9 -4 -23 -11q-116 -56 -166 -162q-23 -46 -22 -97q0 -156 258 -156z" />
    <glyph glyph-name="eogonek" unicode="&#x119;" horiz-adv-x="1060" 
d="M569 932q-147 0 -229 -88t-96 -250h600q2 27 2 47q-1 291 -277 291zM545 -270q0 -156 258 -156v-86q-377 0 -377 240q0 135 149 243q-233 7 -365 147t-132 395t132 397t349 142t327 -111q110 -112 109 -333q0 -67 -24 -127h-729q8 -190 102 -287t256 -98q92 0 169 34
t108 67l30 34l78 -84q-4 -4 -10 -12q-50 -67 -153 -116q-46 -22 -95 -33q-39 -20 -74 -47t-71 -85t-37 -124z" />
    <glyph glyph-name="Ecaron" unicode="&#x11a;" horiz-adv-x="1230" 
d="M989 1655l-274 -205h-92l-273 205l53 98l265 -197l268 197zM1092 1034h-136l-8 164h-526v-463l606 2v-129h-606v-475h582l16 184l127 -8l-8 -309h-1045l-8 123l164 6v1081l-166 7l8 114h852l148 8v-305z" />
    <glyph glyph-name="ecaron" unicode="&#x11b;" horiz-adv-x="1060" 
d="M891 1378l-275 -204h-92l-272 204l53 99l264 -197l269 197zM569 932q-147 0 -229 -88t-96 -250h600q2 27 2 47q-1 291 -277 291zM78 511q0 257 132 399t349 142t327 -111q110 -112 109 -333q0 -67 -24 -127h-729q8 -190 102 -287t256 -98q92 0 169 34t108 67l30 34
l78 -84q-17 -26 -55 -59q-129 -114 -334 -117q-242 -1 -380 141t-138 399z" />
    <glyph glyph-name="Gbreve" unicode="&#x11e;" horiz-adv-x="1480" 
d="M822 1456q-217 0 -316 135q-23 31 -29 51l-6 23l141 21q2 -4 5 -12t19 -30q54 -79 202 -79q64 1 115 31q52 30 67 59l12 31l144 -21q-19 -78 -95 -136q-35 -29 -103 -51t-156 -22zM1214 940h-127l-12 188q-109 90 -272 91q-256 1 -385 -137t-129 -401t131 -417t354 -153
q250 0 350 156q16 26 25 50v207h-322v113h467v-637h-102l-23 143q-147 -172 -437 -172t-454 193t-165 514q0 320 180 500t491 180q156 0 303 -98l23 79h104v-399z" />
    <glyph glyph-name="gbreve" unicode="&#x11f;" horiz-adv-x="1089" 
d="M526 1288q130 0 187 78q13 17 22 43l144 -20q-19 -76 -95 -137q-36 -28 -104 -50t-155 -22q-171 1 -251 68q-80 68 -94 120l-6 21l141 20q28 -56 54 -75q63 -46 157 -46zM559 934q-283 0 -283 -238q0 -126 73 -198t199 -72t194 72t69 200q-1 128 -65 182t-187 54z
M899 -190q0 106 -82 142t-270 46q-57 4 -88 8q-86 -6 -152 -54q-65 -48 -65 -146t83 -160q83 -64 243 -64t246 62q85 60 85 166zM971 696q0 -180 -114 -281t-304 -102q-119 0 -165 -41q-19 -16 -19 -39q0 -49 47 -77t178 -35q233 -9 348 -73t115 -227t-123 -262t-366 -99
q-244 0 -364 96q-120 98 -120 262q0 193 209 260q-57 53 -57 143t94 137q-100 46 -156 134t-55 210q0 122 67 206q68 83 163 114t219 31t223 -41l251 12l9 -125l-127 -4q47 -78 47 -199z" />
    <glyph glyph-name="Gcommaaccent" unicode="&#x122;" horiz-adv-x="1480" 
d="M688 -168q0 35 25 54t63 20t66 -35q26 -35 26 -115t-53 -183q-53 -104 -139 -165l-51 45q79 61 113 149t20 158q-26 4 -48 20t-22 52zM1214 940h-127l-12 188q-109 90 -272 91q-256 1 -385 -137t-129 -401t131 -417t354 -153q250 0 350 156q16 26 25 50v207h-322v113h467
v-637h-102l-23 143q-147 -172 -437 -172t-454 193t-165 514q0 320 180 500t491 180q156 0 303 -98l23 79h104v-399z" />
    <glyph glyph-name="gcommaaccent" unicode="&#x123;" horiz-adv-x="1089" 
d="M536 1180q-32 0 -48 13q-50 39 -50 127t54 192t139 165l51 -45q-78 -61 -113 -148t-20 -159q69 -9 69 -71q0 -36 -24 -55q-26 -19 -58 -19zM559 934q-283 0 -283 -238q0 -126 73 -198t199 -72t194 72t69 200q-1 128 -65 182t-187 54zM899 -190q0 106 -82 142t-270 46
q-57 4 -88 8q-86 -6 -152 -54q-65 -48 -65 -146t83 -160q83 -64 243 -64t246 62q85 60 85 166zM971 696q0 -180 -114 -281t-304 -102q-119 0 -165 -41q-19 -16 -19 -39q0 -49 47 -77t178 -35q233 -9 348 -73t115 -227t-123 -262t-366 -99q-244 0 -364 96q-120 98 -120 262
q0 193 209 260q-57 53 -57 143t94 137q-100 46 -156 134t-55 210q0 122 67 206q68 83 163 114t219 31t223 -41l251 12l9 -125l-127 -4q47 -78 47 -199z" />
    <glyph glyph-name="uni012A" unicode="&#x12a;" horiz-adv-x="673" 
d="M561 1573h-438v86h438v-86zM582 1331v-123l-160 -6v-1081l164 -6l-8 -115h-484l-8 123l164 6v1081l-166 7l8 114h490z" />
    <glyph glyph-name="imacron" unicode="&#x12b;" horiz-adv-x="552" 
d="M506 1296h-438v86h438v-86zM362 1024v-903l123 -6l-8 -115h-393l-8 123l123 6v766l-121 6l6 123h278z" />
    <glyph glyph-name="Iogonek" unicode="&#x12e;" horiz-adv-x="673" 
d="M469 -426v-86q-377 0 -377 240q0 156 193 272h-191l-8 123l164 6v1081l-166 7l8 114h490v-123l-160 -6v-1081l164 -6l-8 -115h-156l-22 -11q-113 -54 -167 -162q-23 -46 -22 -97q0 -156 258 -156z" />
    <glyph glyph-name="iogonek" unicode="&#x12f;" horiz-adv-x="552" 
d="M281 1227q-103 0 -103 92q0 45 29 70t71 25t74 -23q29 -29 29 -72t-29 -72q-27 -20 -71 -20zM410 -426v-86q-377 0 -377 240q0 156 192 272h-141l-8 123l123 6v766l-121 6l6 123h278v-903l123 -6l-8 -115h-115l-22 -11q-116 -58 -166 -162q-23 -46 -22 -97
q0 -156 258 -156z" />
    <glyph glyph-name="Idotaccent" unicode="&#x130;" horiz-adv-x="673" 
d="M233 1594q0 46 29 71t71 25t75 -23q29 -29 29 -71t-29 -72q-27 -20 -74 -20t-74 22t-27 68zM582 1331v-123l-160 -6v-1081l164 -6l-8 -115h-484l-8 123l164 6v1081l-166 7l8 114h490z" />
    <glyph glyph-name="dotlessi" unicode="&#x131;" horiz-adv-x="552" 
d="M362 1024v-903l123 -6l-8 -115h-393l-8 123l123 6v766l-121 6l6 123h278z" />
    <glyph glyph-name="Kcommaaccent" unicode="&#x136;" horiz-adv-x="1460" 
d="M807 -238q1 -84 -53 -189q-54 -104 -140 -165l-51 45q78 61 113 149t20 158q-26 4 -48 20t-21 52q0 35 23 54q24 20 58 20t58 -19q41 -41 41 -125zM565 1331v-106l-143 -6v-592l188 127l424 471l-90 4v102h469v-123l-219 -6l-451 -502l502 -575l223 -2l-8 -123h-313
l-80 70l-453 520l-192 -131v-332l164 -4l-8 -123h-484l-8 123l164 6v1081l-166 7l8 114h473z" />
    <glyph glyph-name="kcommaaccent" unicode="&#x137;" horiz-adv-x="1120" 
d="M512 -168q0 35 25 54t63 20t66 -35q26 -35 26 -115t-53 -183q-53 -104 -139 -165l-51 45q79 61 113 149t20 158q-26 4 -48 20t-22 52zM354 1536v-969l138 68l233 274l-70 4l9 111h393v-123l-189 -18l-268 -303l336 -447l188 -2l-8 -131h-252l-82 86l-319 414l-109 -54
v-333l107 -7l-6 -106h-379l-8 123l122 6v1278l-120 6l6 123h278z" />
    <glyph glyph-name="Lacute" unicode="&#x139;" horiz-adv-x="1144" 
d="M360 1448l-116 8l194 293l158 -16zM582 1331v-123l-160 -6v-1069h565l17 193l126 -9l-8 -317h-1028l-8 123l164 6v1081l-166 7l8 114h490z" />
    <glyph glyph-name="lacute" unicode="&#x13a;" horiz-adv-x="544" 
d="M334 1632l-117 8l195 293l157 -16zM354 1536v-1415l123 -6l-8 -115h-393l-8 123l122 6v1278l-120 6l6 123h278z" />
    <glyph glyph-name="Lcommaaccent" unicode="&#x13b;" horiz-adv-x="1144" 
d="M729 -238q0 -84 -53 -189q-53 -104 -139 -165l-52 45q78 61 113 149t20 158q-26 4 -48 20t-21 52q1 35 25 54q24 20 57 20t57 -19q41 -41 41 -125zM582 1331v-123l-160 -6v-1069h565l17 193l126 -9l-8 -317h-1028l-8 123l164 6v1081l-166 7l8 114h490z" />
    <glyph glyph-name="lcommaaccent" unicode="&#x13c;" horiz-adv-x="544" 
d="M373 -238q1 -84 -53 -189q-54 -104 -140 -165l-51 45q78 61 113 149t20 158q-26 4 -48 20t-21 52q1 35 25 54q24 20 56 20t58 -19q41 -41 41 -125zM354 1536v-1415l123 -6l-8 -115h-393l-8 123l122 6v1278l-120 6l6 123h278z" />
    <glyph glyph-name="Lcaron" unicode="&#x13d;" horiz-adv-x="1144" 
d="M664 1655l-275 -205h-92l-272 205l53 98l264 -197l268 197zM582 1331v-123l-160 -6v-1069h565l17 193l126 -9l-8 -317h-1028l-8 123l164 6v1081l-166 7l8 114h490z" />
    <glyph glyph-name="lcaron" unicode="&#x13e;" horiz-adv-x="544" 
d="M590 1116l-98 14q35 72 57 183q23 111 16 190l13 72l112 -14q-4 -101 -34 -235t-66 -210zM354 1536v-1415l123 -6l-8 -115h-393l-8 123l122 6v1278l-120 6l6 123h278z" />
    <glyph glyph-name="Lslash" unicode="&#x141;" horiz-adv-x="1185" 
d="M610 1331v-123l-159 -6v-467l301 178l43 -69l-344 -207v-504h565l16 193l127 -9l-8 -317h-1028l-8 123l164 6v406l-160 -95l-43 72l203 121v577l-166 7l8 114h489z" />
    <glyph glyph-name="lslash" unicode="&#x142;" horiz-adv-x="643" 
d="M408 1536v-686l184 119l45 -70l-229 -147v-631l122 -6l-8 -115h-393l-8 123l123 6v518l-170 -108l-45 69l215 137v662l-121 6l6 123h279z" />
    <glyph glyph-name="Nacute" unicode="&#x143;" horiz-adv-x="1613" 
d="M856 1448l-117 8l195 293l158 -16zM1380 -12h-180l-797 1099h-2l9 -63v-901l165 -4l-8 -119h-473l-8 123l164 6v1081l-166 7l8 114h338l793 -1114l-4 47v944l-166 4l6 119h479v-123l-158 -6v-1214z" />
    <glyph glyph-name="nacute" unicode="&#x144;" horiz-adv-x="1243" 
d="M629 1171l-117 9l195 293l157 -17zM709 1053q367 0 366 -318v-614l121 -6l-6 -115h-281v705q0 209 -256 208q-89 -1 -161 -27t-101 -50l-29 -27v-688l123 -6l-8 -115h-393l-8 123l123 6v766l-121 6l6 123h260l14 -90q14 18 42 38t115 51q87 30 194 30z" />
    <glyph glyph-name="Ncommaaccent" unicode="&#x145;" horiz-adv-x="1613" 
d="M721 -168q0 35 25 54q26 20 58 20t48 -14q49 -41 49 -128t-53 -191t-139 -165l-52 45q78 61 113 149t21 158q-27 4 -49 20t-21 52zM1380 -12h-180l-797 1099h-2l9 -63v-901l165 -4l-8 -119h-473l-8 123l164 6v1081l-166 7l8 114h338l793 -1114l-4 47v944l-166 4l6 119
h479v-123l-158 -6v-1214z" />
    <glyph glyph-name="ncommaaccent" unicode="&#x146;" horiz-adv-x="1243" 
d="M764 -238q0 -84 -54 -189q-54 -104 -139 -165l-51 45q78 61 113 149t20 158q-27 4 -49 20t-20 52q0 35 24 54q24 20 58 20q33 0 57 -19q41 -41 41 -125zM709 1053q367 0 366 -318v-614l121 -6l-6 -115h-281v705q0 209 -256 208q-89 -1 -161 -27t-101 -50l-29 -27v-688
l123 -6l-8 -115h-393l-8 123l123 6v766l-121 6l6 123h260l14 -90q14 18 42 38t115 51q87 30 194 30z" />
    <glyph glyph-name="Ncaron" unicode="&#x147;" horiz-adv-x="1613" 
d="M1180 1655l-275 -205h-92l-272 205l53 98l264 -197l268 197zM1380 -12h-180l-797 1099h-2l9 -63v-901l165 -4l-8 -119h-473l-8 123l164 6v1081l-166 7l8 114h338l793 -1114l-4 47v944l-166 4l6 119h479v-123l-158 -6v-1214z" />
    <glyph glyph-name="ncaron" unicode="&#x148;" horiz-adv-x="1243" 
d="M920 1378l-275 -204h-92l-272 204l53 99l264 -197l268 197zM709 1053q367 0 366 -318v-614l121 -6l-6 -115h-281v705q0 209 -256 208q-89 -1 -161 -27t-101 -50l-29 -27v-688l123 -6l-8 -115h-393l-8 123l123 6v766l-121 6l6 123h260l14 -90q14 18 42 38t115 51
q87 30 194 30z" />
    <glyph glyph-name="Omacron" unicode="&#x14c;" horiz-adv-x="1558" 
d="M1004 1573h-439v86h439v-86zM1270 681q0 257 -130 397t-362 140t-360 -140q-129 -140 -129 -397t130 -414t359 -157t361 157q131 157 131 414zM1448 682q0 -320 -179 -516t-491 -195q-312 0 -488 195q-177 195 -177 515q0 321 176 499t490 178t492 -178
q177 -178 177 -498z" />
    <glyph glyph-name="omacron" unicode="&#x14d;" horiz-adv-x="1173" 
d="M813 1296h-438v86h438v-86zM248 518q0 -202 84 -314t255 -112t254 112t83 314q0 414 -338 414t-338 -414zM1094 520q0 -254 -133 -402t-377 -147t-375 147t-131 401t130 394t378 139t378 -138q130 -140 130 -394z" />
    <glyph glyph-name="Ohungarumlaut" unicode="&#x150;" horiz-adv-x="1558" 
d="M989 1497l-121 12l131 297l99 -37zM682 1497l-121 12l133 297l99 -37zM1270 681q0 257 -130 397t-362 140t-360 -140q-129 -140 -129 -397t130 -414t359 -157t361 157q131 157 131 414zM1448 682q0 -320 -179 -516t-491 -195q-312 0 -488 195q-177 195 -177 515
q0 321 176 499t490 178t492 -178q177 -178 177 -498z" />
    <glyph glyph-name="ohungarumlaut" unicode="&#x151;" horiz-adv-x="1173" 
d="M797 1221l-121 12l131 297l98 -37zM489 1221l-120 12l133 297l98 -37zM248 518q0 -202 84 -314t255 -112t254 112t83 314q0 414 -338 414t-338 -414zM1094 520q0 -254 -133 -402t-377 -147t-375 147t-131 401t130 394t378 139t378 -138q130 -140 130 -394z" />
    <glyph glyph-name="OE" unicode="&#x152;" horiz-adv-x="2252" 
d="M1270 681q0 257 -130 397t-362 140t-360 -140q-129 -140 -129 -397t130 -414t359 -157t361 157q131 157 131 414zM2050 608h-606v-475h579l17 184l127 -8l-8 -309h-887v170q-180 -199 -492 -199t-490 195q-177 195 -177 515q0 321 176 499t491 178t492 -180v153h692
l147 8v-305h-133l-8 164h-526v-422l2 -41l604 2v-129z" />
    <glyph glyph-name="oe" unicode="&#x153;" horiz-adv-x="1908" 
d="M1417 932q-147 0 -229 -88t-96 -250h600q2 27 2 47q-1 291 -277 291zM248 518q0 -202 84 -314t255 -112t254 112t83 314q0 414 -338 414t-338 -414zM1092 481v-26q14 -179 106 -269t250 -90q92 0 169 34t107 67l31 34l78 -84q-17 -26 -55 -59q-129 -114 -334 -117
q-303 0 -434 211q-131 -211 -424 -211q-246 1 -377 147t-131 401t130 394t378 140q299 0 426 -203q129 203 403 203q209 0 319 -112t109 -333q0 -67 -24 -127h-727z" />
    <glyph glyph-name="Racute" unicode="&#x154;" horiz-adv-x="1286" 
d="M647 1448l-117 8l195 293l158 -16zM584 1206h-174v-602h223q127 0 214 88t87 238q0 276 -350 276zM410 475v-362l149 -7l-8 -106h-457l-8 123l164 12v1075l-166 7l8 114h520q240 0 369 -98t129 -295q0 -152 -79 -264t-204 -162l291 -387l205 -2l-8 -123h-293l-68 68
l-295 407h-249z" />
    <glyph glyph-name="racute" unicode="&#x155;" horiz-adv-x="868" 
d="M463 1171l-117 9l195 293l157 -17zM815 721h-119l-10 194q-50 5 -104 5t-113 -40t-84 -79l-23 -39v-641l140 -6l-8 -115h-410l-8 123l123 6v766l-131 6l8 123h252l14 -158h2q57 115 185 166q80 32 196 14q45 -7 68 -14l22 -8v-303z" />
    <glyph glyph-name="Rcommaaccent" unicode="&#x156;" horiz-adv-x="1286" 
d="M766 -238q0 -84 -54 -189q-54 -104 -139 -165l-51 45q78 61 113 149t20 158q-27 4 -49 20t-20 52q0 35 24 54q24 20 58 20q33 0 57 -19q41 -41 41 -125zM584 1206h-174v-602h223q127 0 214 88t87 238q0 276 -350 276zM410 475v-362l149 -7l-8 -106h-457l-8 123l164 12
v1075l-166 7l8 114h520q240 0 369 -98t129 -295q0 -152 -79 -264t-204 -162l291 -387l205 -2l-8 -123h-293l-68 68l-295 407h-249z" />
    <glyph glyph-name="rcommaaccent" unicode="&#x157;" horiz-adv-x="868" 
d="M375 -238q1 -84 -53 -189q-54 -104 -140 -165l-51 45q78 61 113 149t20 158q-26 4 -48 20t-21 52q0 35 23 54q23 20 57 20t59 -19q41 -41 41 -125zM815 721h-119l-10 194q-50 5 -104 5t-113 -40t-84 -79l-23 -39v-641l140 -6l-8 -115h-410l-8 123l123 6v766l-131 6l8 123
h252l14 -158h2q57 115 185 166q80 32 196 14q45 -7 68 -14l22 -8v-303z" />
    <glyph glyph-name="Rcaron" unicode="&#x158;" horiz-adv-x="1286" 
d="M938 1655l-274 -205h-93l-272 205l53 98l264 -197l269 197zM584 1206h-174v-602h223q127 0 214 88t87 238q0 276 -350 276zM410 475v-362l149 -7l-8 -106h-457l-8 123l164 12v1075l-166 7l8 114h520q240 0 369 -98t129 -295q0 -152 -79 -264t-204 -162l291 -387l205 -2
l-8 -123h-293l-68 68l-295 407h-249z" />
    <glyph glyph-name="rcaron" unicode="&#x159;" horiz-adv-x="868" 
d="M754 1378l-275 -204h-92l-272 204l53 99l264 -197l268 197zM815 721h-119l-10 194q-50 5 -104 5t-113 -40t-84 -79l-23 -39v-641l140 -6l-8 -115h-410l-8 123l123 6v766l-131 6l8 123h252l14 -158h2q57 115 185 166q80 32 196 14q45 -7 68 -14l22 -8v-303z" />
    <glyph glyph-name="Sacute" unicode="&#x15a;" horiz-adv-x="1187" 
d="M666 1448l-117 8l194 293l158 -16zM1018 1026h-133l-11 113q-104 92 -245 92q-141 1 -217 -61t-76 -164t77 -159q77 -58 187 -91t220 -70t187 -114t76 -197q0 -184 -127 -294t-356 -110q-131 1 -244 21t-159 41l-47 20l-5 293l127 8l15 -207q143 -49 302 -49t243 73
t83 173q0 100 -76 154q-77 53 -188 85q-111 31 -221 69t-188 120q-76 82 -76 211q0 168 116 271t316 104q150 0 291 -101l26 82h103v-313z" />
    <glyph glyph-name="sacute" unicode="&#x15b;" horiz-adv-x="960" 
d="M535 1171l-117 9l194 293l158 -17zM838 752h-111l-12 100q-95 84 -203 84t-168 -39t-59 -107q0 -68 62 -113q63 -44 153 -71q90 -28 179 -58t151 -93t63 -160q0 -141 -108 -233t-332 -91q-97 -1 -181 13t-120 28l-37 13l-15 260l103 8l12 -170q117 -35 244 -35t197 54
t69 129q0 75 -62 118q-63 43 -151 68t-177 55t-152 93q-62 65 -62 179t100 192q101 77 245 77t265 -88l23 69h84v-282z" />
    <glyph glyph-name="Scedilla" unicode="&#x15e;" horiz-adv-x="1187" 
d="M563 -436q147 0 148 125q-1 49 -51 78t-100 37t-50 12l22 157q-114 5 -208 25t-136 39l-38 16l-5 293l127 8l15 -207q143 -49 302 -49t243 73t83 173q0 100 -76 154q-77 53 -188 85q-111 31 -221 69t-188 120q-76 82 -76 211q0 168 116 271t316 104q150 0 291 -101l26 82
h103v-313h-133l-11 113q-104 92 -245 92q-141 1 -217 -61t-76 -164t77 -159q77 -58 187 -91t220 -70t187 -114t76 -197q-1 -180 -123 -290t-344 -114l-14 -110q0 -1 55 -13t111 -52t55 -122q0 -82 -57 -134q-58 -54 -148 -54t-145 18t-76 37l-20 19l24 63q63 -59 162 -59z
" />
    <glyph glyph-name="scedilla" unicode="&#x15f;" horiz-adv-x="960" 
d="M451 -436q147 0 147 125q0 49 -50 78t-100 37t-51 12l23 155q-171 4 -273 41l-32 13l-15 260l103 8l12 -170q117 -35 244 -35t197 54t69 129q0 75 -62 118q-63 43 -151 68t-177 55t-152 93q-62 65 -62 179t100 192q101 77 245 77t265 -88l23 69h84v-282h-111l-12 100
q-95 84 -203 84t-168 -39t-59 -107q0 -68 62 -113q63 -44 153 -71q90 -28 179 -58t151 -93t63 -160q0 -133 -96 -222t-293 -100l-15 -112q-1 -1 55 -13t111 -52t55 -122t-56 -134q-58 -54 -148 -54t-146 18q-55 18 -75 37l-21 19l25 63q63 -59 162 -59z" />
    <glyph glyph-name="Scaron" unicode="&#x160;" horiz-adv-x="1187" 
d="M956 1655l-274 -205h-92l-273 205l54 98l264 -197l268 197zM1018 1026h-133l-11 113q-104 92 -245 92q-141 1 -217 -61t-76 -164t77 -159q77 -58 187 -91t220 -70t187 -114t76 -197q0 -184 -127 -294t-356 -110q-131 1 -244 21t-159 41l-47 20l-5 293l127 8l15 -207
q143 -49 302 -49t243 73t83 173q0 100 -76 154q-77 53 -188 85q-111 31 -221 69t-188 120q-76 82 -76 211q0 168 116 271t316 104q150 0 291 -101l26 82h103v-313z" />
    <glyph glyph-name="scaron" unicode="&#x161;" horiz-adv-x="960" 
d="M805 1378l-275 -204h-92l-272 204l53 99l264 -197l269 197zM838 752h-111l-12 100q-95 84 -203 84t-168 -39t-59 -107q0 -68 62 -113q63 -44 153 -71q90 -28 179 -58t151 -93t63 -160q0 -141 -108 -233t-332 -91q-97 -1 -181 13t-120 28l-37 13l-15 260l103 8l12 -170
q117 -35 244 -35t197 54t69 129q0 75 -62 118q-63 43 -151 68t-177 55t-152 93q-62 65 -62 179t100 192q101 77 245 77t265 -88l23 69h84v-282z" />
    <glyph glyph-name="Tcommaaccent" unicode="&#x162;" horiz-adv-x="1105" 
d="M475 -168q0 35 25 54t63 20t66 -35q27 -35 27 -115t-54 -183q-53 -104 -139 -165l-51 45q78 61 112 149t21 158q-27 4 -49 20t-21 52zM1110 1012h-127l-12 186h-332v-1071l164 -4l-8 -123h-484l-8 123l164 6v1069h-328l-16 -186h-127l8 327l148 -8h811l147 8v-327z" />
    <glyph glyph-name="tcommaaccent" unicode="&#x163;" horiz-adv-x="749" 
d="M305 -168q0 35 25 54t63 20t66 -36q27 -36 27 -114t-54 -183q-53 -104 -139 -165l-51 45q78 61 112 149t21 158q-27 4 -49 20t-21 52zM682 895h-311v-584q-1 -106 31 -154t106 -48l158 16v-111q-90 -30 -214 -30t-185 67q-60 68 -60 223v621h-125v123l125 4l18 309h146
v-307h311v-129z" />
    <glyph glyph-name="Tcaron" unicode="&#x164;" horiz-adv-x="1105" 
d="M872 1655l-274 -205h-92l-273 205l54 98l264 -197l268 197zM1110 1012h-127l-12 186h-332v-1071l164 -4l-8 -123h-484l-8 123l164 6v1069h-328l-16 -186h-127l8 327l148 -8h811l147 8v-327z" />
    <glyph glyph-name="tcaron" unicode="&#x165;" horiz-adv-x="749" 
d="M672 1116l-99 14q35 72 58 183t16 190l12 72l113 -14q-4 -101 -34 -235t-66 -210zM682 895h-311v-584q-1 -106 31 -154t106 -48l158 16v-111q-90 -30 -214 -30t-185 67q-60 68 -60 223v621h-125v123l125 4l18 309h146v-307h311v-129z" />
    <glyph glyph-name="Umacron" unicode="&#x16a;" horiz-adv-x="1519" 
d="M971 1573h-439v86h439v-86zM385 489q0 -162 97 -265q96 -103 280 -103t281 103t98 265v719l-168 4l6 119h485v-114l-157 -7v-755q-1 -209 -139 -346t-407 -137t-409 138t-139 345v755l-166 7l8 114h490v-114l-160 -7v-721z" />
    <glyph glyph-name="umacron" unicode="&#x16b;" horiz-adv-x="1234" 
d="M836 1296h-439v86h439v-86zM1047 1024v-903l120 -6l-6 -115h-260l-14 92q-121 -121 -352 -121q-169 -1 -267 95t-98 264v565l-121 6l8 123h277v-664q0 -112 68 -180t174 -68q104 0 176 26t100 50l29 27v680l-121 6l8 123h279z" />
    <glyph glyph-name="Uring" unicode="&#x16e;" horiz-adv-x="1519" 
d="M745 1552q55 0 93 38q36 38 36 100t-37 100q-39 39 -93 39t-92 -39t-38 -100q0 -62 38 -100t93 -38zM743 1479q-92 0 -149 58q-57 57 -57 151t59 154t148 60q88 0 148 -60t60 -153t-58 -152q-59 -58 -151 -58zM385 489q0 -162 97 -265q96 -103 280 -103t281 103t98 265
v719l-168 4l6 119h485v-114l-157 -7v-755q-1 -209 -139 -346t-407 -137t-409 138t-139 345v755l-166 7l8 114h490v-114l-160 -7v-721z" />
    <glyph glyph-name="uring" unicode="&#x16f;" horiz-adv-x="1234" 
d="M608 1276q55 0 92 38t37 99t-38 100t-92 39t-92 -39t-38 -100t38 -99t93 -38zM606 1202q-92 0 -149 58t-57 152t58 154q60 60 149 60t149 -60t59 -154t-59 -152t-150 -58zM1047 1024v-903l120 -6l-6 -115h-260l-14 92q-121 -121 -352 -121q-169 -1 -267 95t-98 264v565
l-121 6l8 123h277v-664q0 -112 68 -180t174 -68q104 0 176 26t100 50l29 27v680l-121 6l8 123h279z" />
    <glyph glyph-name="Uhungarumlaut" unicode="&#x170;" horiz-adv-x="1519" 
d="M940 1497l-121 12l131 297l99 -37zM633 1497l-121 12l133 297l98 -37zM385 489q0 -162 97 -265q96 -103 280 -103t281 103t98 265v719l-168 4l6 119h485v-114l-157 -7v-755q-1 -209 -139 -346t-407 -137t-409 138t-139 345v755l-166 7l8 114h490v-114l-160 -7v-721z" />
    <glyph glyph-name="uhungarumlaut" unicode="&#x171;" horiz-adv-x="1234" 
d="M819 1221l-121 12l131 297l99 -37zM512 1221l-121 12l133 297l99 -37zM1047 1024v-903l120 -6l-6 -115h-260l-14 92q-121 -121 -352 -121q-169 -1 -267 95t-98 264v565l-121 6l8 123h277v-664q0 -112 68 -180t174 -68q104 0 176 26t100 50l29 27v680l-121 6l8 123h279z
" />
    <glyph glyph-name="Uogonek" unicode="&#x172;" horiz-adv-x="1519" 
d="M981 -426v-86q-377 0 -377 240q0 135 150 243q-266 1 -404 139t-137 345v755l-166 7l8 114h490v-114l-160 -7v-721q0 -162 97 -265q96 -103 280 -103t281 103t98 265v719l-168 4l6 119h485v-114l-157 -7v-755q1 -179 -103 -309t-305 -162q-176 -100 -176 -255t258 -155z
" />
    <glyph glyph-name="uogonek" unicode="&#x173;" horiz-adv-x="1234" 
d="M1090 -426v-86q-377 0 -377 240q0 156 192 272h-4l-14 92q-121 -121 -352 -121q-169 -1 -267 95t-98 264v565l-121 6l8 123h277v-664q0 -112 68 -180t174 -68q104 0 176 26t100 50l29 27v680l-121 6l8 123h279v-903l120 -6l-6 -115h-119l-22 -11q-116 -58 -166 -162
q-23 -46 -23 -97q1 -156 259 -156z" />
    <glyph glyph-name="Ydieresis" unicode="&#x178;" horiz-adv-x="1304" 
d="M598 1596q0 -36 -25 -58q-25 -24 -63 -24t-62 22t-24 60t27 63q27 20 61 20t59 -20q27 -27 27 -63zM786 1596q0 38 27 63q27 20 59 20t64 -20q27 -27 27 -63t-27 -62q-27 -20 -64 -20q-38 0 -62 22t-24 60zM424 1331v-114l-107 -5l349 -518l344 516l-105 2v119h467v-123
l-188 -4l-436 -651v-426l163 -4l-8 -123h-483l-8 123l161 6v422l-450 659l-191 7l7 114h485z" />
    <glyph glyph-name="Zacute" unicode="&#x179;" horiz-adv-x="1245" 
d="M688 1448l-117 8l195 293l158 -16zM92 0v117l834 1081h-678l-12 -164h-134l7 297v8l149 -8h887v-117l-834 -1081h707l16 184l127 -8l-8 -309h-1061z" />
    <glyph glyph-name="zacute" unicode="&#x17a;" horiz-adv-x="987" 
d="M561 1171l-117 9l195 293l158 -17zM82 0v111l606 788h-436l-12 -164h-117l6 289v8l133 -8h631v-111l-608 -788h481l14 184l119 -8l-8 -301h-809z" />
    <glyph glyph-name="Zdotaccent" unicode="&#x17b;" horiz-adv-x="1245" 
d="M640 1690q42 0 75 -23q29 -29 29 -71t-29 -72q-27 -20 -74 -20t-74 22t-27 68t29 73q29 23 71 23zM92 0v117l834 1081h-678l-12 -164h-134l7 297v8l149 -8h887v-117l-834 -1081h707l16 184l127 -8l-8 -309h-1061z" />
    <glyph glyph-name="zdotaccent" unicode="&#x17c;" horiz-adv-x="987" 
d="M532 1227q-102 0 -102 92q0 45 29 70t71 25t74 -23q29 -29 29 -72t-29 -72q-27 -20 -72 -20zM82 0v111l606 788h-436l-12 -164h-117l6 289v8l133 -8h631v-111l-608 -788h481l14 184l119 -8l-8 -301h-809z" />
    <glyph glyph-name="Zcaron" unicode="&#x17d;" horiz-adv-x="1245" 
d="M979 1655l-274 -205h-93l-272 205l53 98l264 -197l269 197zM92 0v117l834 1081h-678l-12 -164h-134l7 297v8l149 -8h887v-117l-834 -1081h707l16 184l127 -8l-8 -309h-1061z" />
    <glyph glyph-name="zcaron" unicode="&#x17e;" horiz-adv-x="987" 
d="M852 1378l-274 -204h-93l-272 204l53 99l264 -197l269 197zM82 0v111l606 788h-436l-12 -164h-117l6 289v8l133 -8h631v-111l-608 -788h481l14 184l119 -8l-8 -301h-809z" />
    <glyph glyph-name="longs" unicode="&#x17f;" horiz-adv-x="561" 
d="M793 1257h-117l-10 115q-56 68 -146 68t-128 -58t-38 -208v-1055l123 -4l-8 -115h-393l-8 123l122 6v1061q0 190 72 281t219 92q98 0 197 -76l18 57h97v-287z" />
    <glyph glyph-name="florin" unicode="&#x192;" horiz-adv-x="745" 
d="M813 1257h-119l-10 129q-53 54 -133 54t-118 -58t-38 -208v-150h350v-129h-350v-987q0 -229 -94 -339t-227 -110q-64 -1 -110 9t-58 20l-15 8l43 131q47 -20 121 -20t125 75t51 226v987h-125v123l125 6v166q0 195 66 284t211 89q82 0 184 -70l10 51h111v-287z" />
    <glyph glyph-name="dotlessj" unicode="&#x237;" horiz-adv-x="544" 
d="M30 -393q73 0 125 84t52 237v967l-119 6l8 123h275v-1096q1 -229 -95 -349t-227 -120q-117 0 -182 37l43 131q47 -20 120 -20z" />
    <glyph glyph-name="circumflex" unicode="&#x2c6;" horiz-adv-x="794" 
d="M662 1217l-267 194l-264 -194l-55 98l274 207h92l273 -207z" />
    <glyph glyph-name="caron" unicode="&#x2c7;" horiz-adv-x="794" 
d="M717 1378l-275 -204h-92l-272 204l53 99l264 -197l269 197z" />
    <glyph glyph-name="breve" unicode="&#x2d8;" horiz-adv-x="835" 
d="M418 1288q101 0 150 42q44 34 59 79l143 -20q-19 -75 -94 -137q-35 -28 -104 -50q-70 -22 -156 -22t-154 22t-104 52q-75 65 -86 114l-6 21l141 20q2 -4 5 -12q25 -67 116 -95q41 -14 90 -14z" />
    <glyph glyph-name="dotaccent" unicode="&#x2d9;" horiz-adv-x="860" 
d="M502 1227q-103 0 -103 92q0 45 29 70t71 25t74 -23q29 -29 29 -72t-29 -72q-27 -20 -71 -20z" />
    <glyph glyph-name="ring" unicode="&#x2da;" horiz-adv-x="972" 
d="M362 1276q55 0 93 38q37 38 37 99t-38 100t-92 39t-93 -39q-38 -39 -38 -100t38 -99t93 -38zM360 1202q-92 0 -149 58t-57 152t59 154t148 60t149 -60t59 -154t-59 -152t-150 -58z" />
    <glyph glyph-name="ogonek" unicode="&#x2db;" horiz-adv-x="550" 
d="M455 -426v-86q-377 0 -377 240q0 148 186 269q43 28 72 40l31 12l41 -49l-22 -11q-116 -56 -167 -162q-23 -46 -22 -97q0 -156 258 -156z" />
    <glyph glyph-name="tilde" unicode="&#x2dc;" horiz-adv-x="937" 
d="M307 1438q72 0 191 -52t185 -53q66 0 126 43l20 -86q-4 -8 -12 -21t-51 -35q-44 -22 -110 -22t-185 50t-191 51q-72 0 -133 -51l-18 -17l-20 96q4 11 16 27t61 43t121 27z" />
    <glyph glyph-name="hungarumlaut" unicode="&#x2dd;" horiz-adv-x="882" 
d="M573 1221l-120 12l131 297l98 -37zM266 1221l-121 12l134 297l98 -37z" />
    <glyph glyph-name="tonos" unicode="&#x384;" horiz-adv-x="485" 
d="M258 1149l-82 25l131 385l109 -33z" />
    <glyph glyph-name="dieresistonos" unicode="&#x385;" horiz-adv-x="485" 
d="M225 1149l-82 25l131 385l109 -33zM-84 1320q0 36 25 60q58 43 120 0q25 -25 25 -60t-25 -60q-27 -20 -63 -20t-58 22q-24 22 -24 58zM549 1320q0 -32 -25 -56q-26 -24 -62 -24t-61 22t-25 58t27 60q27 20 60 20t59 -20q27 -27 27 -60z" />
    <glyph glyph-name="Alphatonos" unicode="&#x386;" horiz-adv-x="1576" 
d="M348 1149l-82 25l131 385l109 -33zM852 1194l-254 -672h506zM1135 0v98l135 4l-121 308h-594l-121 -304l146 -4l-9 -102h-444l-8 123l162 6l467 1202h227l467 -1210l162 -6l-9 -115h-460z" />
    <glyph glyph-name="Epsilontonos" unicode="&#x388;" horiz-adv-x="1374" 
d="M98 1149l-82 25l131 385l109 -33zM1235 1034h-135l-8 164h-527v-463l606 2v-129h-606v-475h582l16 184l127 -8l-8 -309h-1044l-9 123l164 6v1081l-166 7l9 114h851l148 8v-305z" />
    <glyph glyph-name="Etatonos" unicode="&#x389;" horiz-adv-x="1712" 
d="M98 1149l-82 25l131 385l109 -33zM725 1331v-123l-160 -6v-477h725v477l-166 6l6 123h490v-123l-158 -6v-1081l164 -6l-8 -115h-483l-9 123l164 6v467h-725v-469l164 -4l-8 -123h-483l-9 123l164 6v1081l-166 7l9 114h489z" />
    <glyph glyph-name="Iotatonos" unicode="&#x38a;" horiz-adv-x="817" 
d="M98 1149l-82 25l131 385l109 -33zM725 1331v-123l-160 -6v-1081l164 -6l-8 -115h-483l-9 123l164 6v1081l-166 7l9 114h489z" />
    <glyph glyph-name="Omicrontonos" unicode="&#x38c;" horiz-adv-x="1701" 
d="M197 1149l-82 25l131 385l108 -33zM1413 681q0 257 -130 397t-361 140q-230 0 -360 -140t-130 -397t130 -414t360 -157t360 158q131 156 131 413zM256 681q0 321 176 499t490 178t492 -178q177 -178 177 -498t-179 -516t-490 -195q-311 0 -489 195q-177 195 -177 515z
" />
    <glyph glyph-name="Upsilontonos" unicode="&#x38e;" horiz-adv-x="1447" 
d="M-14 1149l-82 25l131 385l108 -33zM567 1331v-114l-106 -5l348 -518l344 516l-104 2v119h467v-123l-189 -4l-436 -651v-426l164 -4l-8 -123h-484l-8 123l162 6v422l-451 659l-190 7l6 114h485z" />
    <glyph glyph-name="Omegatonos" unicode="&#x38f;" horiz-adv-x="1701" 
d="M201 1149l-82 25l131 385l108 -33zM262 748q0 276 173 443t489 167t487 -167q172 -167 172 -443q0 -115 -34 -213q-34 -97 -83 -161q-99 -128 -230 -197q-50 -26 -101 -46l12 -8h344l14 102l92 -8l-8 -217h-547l-8 215q14 6 40 17q26 12 89 56t113 99q49 55 89 153
t40 214q0 213 -123 339q-122 126 -358 126t-360 -126t-124 -339q0 -115 38 -212q38 -96 93 -154q108 -113 203 -157l39 -16l-8 -215h-547l-8 217l90 8l14 -102h346l11 8q-141 56 -274 174q-79 72 -127 187t-48 256z" />
    <glyph glyph-name="iotadieresistonos" unicode="&#x390;" horiz-adv-x="552" 
d="M276 1149l-81 25l131 385l108 -33zM362 1024v-903l123 -6l-8 -115h-393l-8 123l123 6v766l-121 6l6 123h278zM152 1320q0 -32 -25 -56t-61 -24t-62 22q-24 22 -24 58t26 60q27 20 60 20t59 -20q27 -27 27 -60zM442 1320q0 36 25 60q58 43 121 0q25 -25 25 -60t-25 -60
q-27 -20 -63 -20q-35 0 -59 22t-24 58z" />
    <glyph glyph-name="Alpha" unicode="&#x391;" horiz-adv-x="1433" 
d="M709 1194l-254 -672h506zM991 0v98l135 4l-120 308h-594l-121 -304l145 -4l-8 -102h-444l-9 123l162 6l467 1202h227l467 -1210l162 -6l-8 -115h-461z" />
    <glyph glyph-name="Beta" unicode="&#x392;" horiz-adv-x="1292" 
d="M403 743h318q77 0 151 65q74 66 74 184t-77 166t-226 48h-240v-463zM729 631h-326v-506h242q371 0 371 278q0 228 -287 228zM655 0h-561l-8 123l164 6v1081l-166 7l8 114h559q229 0 342 -83t113 -234q0 -184 -178 -301q254 -68 254 -310q0 -187 -128 -295t-399 -108z" />
    <glyph glyph-name="Gamma" unicode="&#x393;" horiz-adv-x="995" 
d="M1006 977h-134l-10 221h-440v-1077l184 -6l-8 -115h-504l-8 123l164 6v1081l-166 7l8 114h766l148 8v-362z" />
    <glyph glyph-name="Delta" unicode="&#x394;" horiz-adv-x="1361" 
d="M676 1204l-438 -1067h878zM1292 0h-1222v133l497 1198h228l497 -1198v-133z" />
    <glyph glyph-name="Epsilon" unicode="&#x395;" horiz-adv-x="1230" 
d="M1092 1034h-136l-8 164h-526v-463l606 2v-129h-606v-475h582l16 184l127 -8l-8 -309h-1045l-8 123l164 6v1081l-166 7l8 114h852l148 8v-305z" />
    <glyph glyph-name="Zeta" unicode="&#x396;" horiz-adv-x="1245" 
d="M92 0v117l834 1081h-678l-12 -164h-134l7 297v8l149 -8h887v-117l-834 -1081h707l16 184l127 -8l-8 -309h-1061z" />
    <glyph glyph-name="Eta" unicode="&#x397;" horiz-adv-x="1568" 
d="M582 1331v-123l-160 -6v-477h725v477l-166 6l6 123h490v-123l-158 -6v-1081l164 -6l-8 -115h-484l-8 123l164 6v467h-725v-469l164 -4l-8 -123h-484l-8 123l164 6v1081l-166 7l8 114h490z" />
    <glyph glyph-name="Theta" unicode="&#x398;" horiz-adv-x="1558" 
d="M1270 681q0 257 -130 397t-362 140t-360 -140q-129 -140 -129 -397t130 -414t359 -157t361 157q131 157 131 414zM1448 682q0 -320 -179 -516t-491 -195q-312 0 -488 195q-177 195 -177 515q0 321 176 499t490 178t492 -178q177 -178 177 -498zM1065 594h-571v129h571
v-129z" />
    <glyph glyph-name="Iota" unicode="&#x399;" horiz-adv-x="673" 
d="M582 1331v-123l-160 -6v-1081l164 -6l-8 -115h-484l-8 123l164 6v1081l-166 7l8 114h490z" />
    <glyph glyph-name="Kappa" unicode="&#x39a;" horiz-adv-x="1460" 
d="M565 1331v-106l-143 -6v-592l188 127l424 471l-90 4v102h469v-123l-219 -6l-451 -502l502 -575l223 -2l-8 -123h-313l-80 70l-453 520l-192 -131v-332l164 -4l-8 -123h-484l-8 123l164 6v1081l-166 7l8 114h473z" />
    <glyph glyph-name="Lambda" unicode="&#x39b;" horiz-adv-x="1394" 
d="M950 0v106l133 13l-391 1071l-395 -1075l147 -4l-8 -111h-452l-9 123l160 6l449 1202h227l449 -1210l159 -6l-8 -115h-461z" />
    <glyph glyph-name="Mu" unicode="&#x39c;" horiz-adv-x="2052" 
d="M1960 1331v-123l-160 -6l2 -1075l164 -4l-8 -123h-461l-8 106l147 7v985h-2l-528 -1098h-164l-530 1098h-2v-989l149 -7l-8 -102h-457l-8 123l164 6l2 1081l-166 7l6 114h381l557 -1155l551 1155h379z" />
    <glyph glyph-name="Nu" unicode="&#x39d;" horiz-adv-x="1613" 
d="M1380 -12h-180l-797 1099h-2l9 -63v-901l165 -4l-8 -119h-473l-8 123l164 6v1081l-166 7l8 114h338l793 -1114l-4 47v944l-166 4l6 119h479v-123l-158 -6v-1214z" />
    <glyph glyph-name="Xi" unicode="&#x39e;" horiz-adv-x="1245" 
d="M944 596h-643v129h643v-129zM207 1034h-123l8 297h1067l2 -297h-123l-12 160h-807zM1153 0h-1061l-8 309l123 8l12 -180h807l12 180l123 -8z" />
    <glyph glyph-name="Omicron" unicode="&#x39f;" horiz-adv-x="1558" 
d="M1270 681q0 257 -130 397t-362 140t-360 -140q-129 -140 -129 -397t130 -414t359 -157t361 157q131 157 131 414zM1448 682q0 -320 -179 -516t-491 -195q-312 0 -488 195q-177 195 -177 515q0 321 176 499t490 178t492 -178q177 -178 177 -498z" />
    <glyph glyph-name="Pi" unicode="&#x3a0;" horiz-adv-x="1531" 
d="M1440 1331v-114l-158 -7v-1083l164 -4l-8 -123h-484l-8 123l164 6v1069h-688v-1071l164 -4l-8 -123h-484l-8 123l164 6v1081l-166 7l8 114h1348z" />
    <glyph glyph-name="Rho" unicode="&#x3a1;" horiz-adv-x="1187" 
d="M584 1206h-174v-620h172q154 0 252 81t98 253q0 286 -348 286zM612 1331q498 0 498 -401q0 -275 -218 -396q-125 -69 -278 -69h-204v-352l192 -7l-6 -106h-502l-8 123l164 6v1081l-166 7l8 114h520z" />
    <glyph glyph-name="Sigma" unicode="&#x3a3;" horiz-adv-x="1196" 
d="M1110 1026h-133l-8 172h-619l346 -528l-395 -533h705l12 180l131 -8l-10 -309h-1047v127l410 541l-357 538v125h818l147 8v-313z" />
    <glyph glyph-name="Tau" unicode="&#x3a4;" horiz-adv-x="1105" 
d="M1110 1012h-127l-12 186h-332v-1071l164 -4l-8 -123h-484l-8 123l164 6v1069h-328l-16 -186h-127l8 327l148 -8h811l147 8v-327z" />
    <glyph glyph-name="Upsilon" unicode="&#x3a5;" horiz-adv-x="1304" 
d="M424 1331v-114l-107 -5l349 -518l344 516l-105 2v119h467v-123l-188 -4l-436 -651v-426l163 -4l-8 -123h-483l-8 123l161 6v422l-450 659l-191 7l7 114h485z" />
    <glyph glyph-name="Phi" unicode="&#x3a6;" horiz-adv-x="1644" 
d="M256 696q0 -182 119 -262t368 -82v670q-255 -2 -371 -73t-116 -253zM1389 698q0 184 -118 253t-374 71v-670q250 2 371 82t121 264zM1057 1364v-100l-160 -7v-127q330 -2 499 -95t169 -330q0 -459 -668 -463v-127l180 -6l-8 -109h-496l-8 109l178 6v127q-664 4 -663 458
q0 238 167 333t496 97v127l-165 7l8 100h471z" />
    <glyph glyph-name="Chi" unicode="&#x3a7;" horiz-adv-x="1425" 
d="M926 1331h481v-123l-201 -4l-391 -534l408 -545l207 -2l-7 -123h-491v115l92 2l-315 430l-316 -426l96 -2v-119h-485l-8 123l209 4l401 539l-399 544l-199 7l6 114h486v-114l-97 -5l310 -426v-2l311 426l-98 2v119z" />
    <glyph glyph-name="Psi" unicode="&#x3a8;" horiz-adv-x="1693" 
d="M145 928v282l-165 7l6 114h331v-379q0 -190 118 -300t339 -111v694l-164 4l8 125h469v-125l-157 -4v-694q221 2 334 104t112 293v393h303v-114l-131 -7v-297q0 -237 -154 -373t-464 -139v-274l164 -4l-9 -123h-464l-9 123l162 6v272q-311 1 -470 145t-159 382z" />
    <glyph glyph-name="Omega" unicode="&#x3a9;" horiz-adv-x="1558" 
d="M119 748q0 276 173 443t488 167q316 0 488 -167t172 -443q0 -115 -34 -213q-34 -97 -83 -161q-126 -163 -332 -243l13 -8h344l14 102l92 -8l-8 -217h-547l-8 215q14 6 40 17q26 12 89 56t113 99q49 55 89 153t40 214q0 213 -123 339t-359 126t-360 -126t-123 -339
q0 -115 38 -212q38 -96 93 -154q108 -113 203 -157l39 -16l-8 -215h-547l-9 217l91 8l14 -102h346l10 8q-142 56 -273 174q-79 72 -127 187t-48 256z" />
    <glyph glyph-name="Iotadieresis" unicode="&#x3aa;" horiz-adv-x="673" 
d="M155 1710q34 0 60 -20q27 -26 27 -62t-25 -60t-63 -24t-62 23t-24 61t26 62q27 20 61 20zM430 1628q0 38 27 62q27 20 59 20t64 -20q27 -26 27 -62t-27 -63q-27 -21 -64 -21q-38 0 -62 23t-24 61zM582 1331v-123l-160 -6v-1081l164 -6l-8 -115h-484l-8 123l164 6v1081
l-166 7l8 114h490z" />
    <glyph glyph-name="Upsilondieresis" unicode="&#x3ab;" horiz-adv-x="1304" 
d="M598 1596q0 -36 -25 -58q-25 -24 -63 -24t-62 22t-24 60t27 63q27 20 61 20t59 -20q27 -27 27 -63zM786 1596q0 38 27 63q27 20 59 20t64 -20q27 -27 27 -63t-27 -62q-27 -20 -64 -20q-38 0 -62 22t-24 60zM424 1331v-114l-107 -5l349 -518l344 516l-105 2v119h467v-123
l-188 -4l-436 -651v-426l163 -4l-8 -123h-483l-8 123l161 6v422l-450 659l-191 7l7 114h485z" />
    <glyph glyph-name="alphatonos" unicode="&#x3ac;" horiz-adv-x="1228" 
d="M614 1149l-82 25l132 385l108 -33zM596 98q90 0 160 39t96 78l25 39v555q-7 13 -27 33t-87 53t-147 33q-190 0 -279 -106t-89 -308q0 -204 91 -310t257 -106zM549 -29q-211 1 -341 147t-130 396t126 394t369 145q94 0 169 -29t104 -57l28 -31h5l10 88h151v-903l121 -6
l-6 -115h-260l-16 121q-16 -27 -44 -53t-107 -62q-79 -35 -179 -35z" />
    <glyph glyph-name="epsilontonos" unicode="&#x3ad;" horiz-adv-x="966" 
d="M489 1149l-81 25l131 385l108 -33zM549 90q225 0 334 139l55 -82q-4 -6 -11 -18t-39 -43q-116 -113 -373 -114q-193 -2 -313 96t-120 241q0 182 203 236q-152 80 -152 235q0 123 100 198q101 75 251 75t259 -95l19 76h102v-282h-125l-8 96q-82 88 -197 88
q-116 0 -180 -49t-63 -127q0 -45 18 -81t45 -53q63 -40 119 -46h211v-107h-209q-231 0 -231 -167q0 -84 82 -150t223 -66z" />
    <glyph glyph-name="etatonos" unicode="&#x3ae;" horiz-adv-x="1226" 
d="M709 1053q367 0 366 -318v-1247h-166v1217q0 209 -256 208q-89 -1 -161 -27t-101 -50l-29 -27v-688l123 -6l-8 -115h-393l-8 123l123 6v766l-121 6l6 123h260l12 -92q14 16 42 38t115 52t196 31zM637 1149l-82 25l131 385l109 -33z" />
    <glyph glyph-name="iotatonos" unicode="&#x3af;" horiz-adv-x="552" 
d="M311 1149l-82 25l131 385l109 -33zM362 1024v-903l123 -6l-8 -115h-393l-8 123l123 6v766l-121 6l6 123h278z" />
    <glyph glyph-name="upsilondieresistonos" unicode="&#x3b0;" horiz-adv-x="1200" 
d="M604 1149l-82 25l131 385l109 -33zM883 360v535l-123 6l8 123h279v-678q0 -172 -117 -273t-324 -101q-208 0 -322 100q-114 102 -114 274v549l-121 6l8 123h277v-664q0 -114 75 -186t197 -72t200 72q77 72 77 186zM399 1237q-37 1 -61 23t-23 60q0 38 25 62q59 44 123 0
q27 -26 27 -62t-27 -63q-27 -20 -64 -20zM951 1320q0 -36 -25 -60t-63 -23q-39 1 -63 23t-24 60t27 60t61 22t60 -20q27 -26 27 -62z" />
    <glyph glyph-name="alpha" unicode="&#x3b1;" horiz-adv-x="1228" 
d="M596 98q90 0 160 39t96 78l25 39v555q-7 13 -27 33t-87 53t-147 33q-190 0 -279 -106t-89 -308q0 -204 91 -310t257 -106zM549 -29q-211 1 -341 147t-130 396t126 394t369 145q94 0 169 -29t104 -57l28 -31h5l10 88h151v-903l121 -6l-6 -115h-260l-16 121
q-16 -27 -44 -53t-107 -62q-79 -35 -179 -35z" />
    <glyph glyph-name="beta" unicode="&#x3b2;" horiz-adv-x="1214" 
d="M967 492q-1 168 -93 238t-309 71v119q35 6 91 31q55 26 92 56t67 85q31 55 31 120q0 225 -244 226q-264 0 -264 -330v-893q34 -55 108 -87t154 -32q168 0 268 114t99 282zM338 -512h-164v1640q0 434 428 435q192 0 300 -87t108 -247q0 -207 -209 -340q336 -72 336 -406
q0 -217 -132 -364t-348 -148q-169 0 -275 85q-26 19 -34 34l-10 12v-614z" />
    <glyph glyph-name="gamma" unicode="&#x3b3;" horiz-adv-x="1054" 
d="M614 -512h-165v512l-357 895l-145 6l8 123h268l307 -864l269 737l-94 10l8 117h389v-123l-141 -6l-347 -895v-512z" />
    <glyph glyph-name="delta" unicode="&#x3b4;" horiz-adv-x="1173" 
d="M248 518q0 -202 84 -314t255 -112t254 112t83 314q0 414 -338 414t-338 -414zM1094 520q0 -254 -133 -402t-377 -147t-375 147t-131 402q0 379 272 490q-131 96 -131 268q0 139 118 212t287 73t304 -23l61 6v-219h-115l-10 88q-140 15 -244 15t-181 -40t-77 -135
q0 -184 199 -202h25q248 1 378 -139t130 -394z" />
    <glyph glyph-name="epsilon" unicode="&#x3b5;" horiz-adv-x="966" 
d="M549 90q225 0 334 139l55 -82q-4 -6 -11 -18t-39 -43q-116 -113 -373 -114q-193 -2 -313 96t-120 241q0 182 203 236q-152 80 -152 235q0 123 100 198q101 75 251 75t259 -95l19 76h102v-282h-125l-8 96q-82 88 -197 88q-116 0 -180 -49t-63 -127q0 -45 18 -81t45 -53
q63 -40 119 -46h211v-107h-209q-231 0 -231 -167q0 -84 82 -150t223 -66z" />
    <glyph glyph-name="zeta" unicode="&#x3b6;" horiz-adv-x="923" 
d="M911 1536v-113q-627 -700 -626 -1030q0 -272 430 -272q123 0 179 -40t56 -122t-16 -159t-33 -115l-18 -39l-129 16q55 125 55 236q0 62 -35 82t-135 20q-524 0 -524 389q0 193 180 473t422 545h-486l-133 -8l-8 194l115 9l8 -66h698z" />
    <glyph glyph-name="eta" unicode="&#x3b7;" horiz-adv-x="1226" 
d="M709 1053q367 0 366 -318v-1247h-166v1217q0 209 -256 208q-89 -1 -161 -27t-101 -50l-29 -27v-688l123 -6l-8 -115h-393l-8 123l123 6v766l-121 6l6 123h260l12 -92q14 16 42 38t115 52t196 31z" />
    <glyph glyph-name="theta" unicode="&#x3b8;" horiz-adv-x="1198" 
d="M600 90q168 0 248 148t88 462h-674q10 -314 90 -462t248 -148zM599 1444q-173 0 -253 -144t-84 -466h676q-6 324 -86 467t-253 143zM599 -29q-251 0 -379 206t-128 605q0 780 508 781q506 0 506 -781q0 -397 -128 -604t-379 -207z" />
    <glyph glyph-name="iota" unicode="&#x3b9;" horiz-adv-x="552" 
d="M362 1024v-903l123 -6l-8 -115h-393l-8 123l123 6v766l-121 6l6 123h278z" />
    <glyph glyph-name="kappa" unicode="&#x3ba;" horiz-adv-x="1128" 
d="M362 1024v-459l150 70l215 274l-63 4l6 111h383v-123l-179 -16l-253 -305l325 -447l187 -2l-9 -131h-252l-79 86l-310 416l-121 -56v-333l107 -7l-6 -106h-379l-8 123l123 6v766l-138 6l9 123h292z" />
    <glyph glyph-name="lambda" unicode="&#x3bb;" horiz-adv-x="1114" 
d="M1145 0h-389l-8 117l118 10l-233 709h-2l-398 -836h-258l-8 123l154 4l446 893q-105 329 -168 385q-31 29 -67 29l-78 -17l2 117q63 29 123 29q106 0 183 -127t165 -387l311 -922l107 -4v-123z" />
    <glyph glyph-name="mu" unicode="&#x3bc;" horiz-adv-x="1255" 
d="M354 1024v-664q0 -112 69 -180t173 -68t176 26t100 50l29 27v680l-121 6l8 123h279v-903l121 -6l-6 -115h-260l-15 92q-121 -121 -352 -121q-119 0 -203 47l2 -530h-166l2 1092v315l-120 6l8 123h276z" />
    <glyph glyph-name="nu" unicode="&#x3bd;" horiz-adv-x="1054" 
d="M705 1024h397v-123l-139 -6l-347 -895h-178l-348 895l-143 6l8 123h268l307 -854h2l269 731l-96 4v119z" />
    <glyph glyph-name="xi" unicode="&#x3be;" horiz-adv-x="980" 
d="M838 793h-150q-238 0 -338 -79t-100 -253q0 -96 42 -166q104 -174 441 -174q127 0 185 -40t59 -122q0 -82 -23 -159t-45 -115l-22 -39l-107 16q55 125 56 236q0 62 -36 82t-138 20q-211 0 -379 89q-92 48 -148 143q-55 95 -55 227q0 319 309 401q-227 109 -227 350
q0 172 110 263q112 90 258 90t252 -88l23 69h104l-2 -297h-125l-10 115q-84 78 -198 78t-182 -62t-68 -184q0 -217 259 -271q52 -11 97 -12h158v-118z" />
    <glyph glyph-name="omicron" unicode="&#x3bf;" horiz-adv-x="1173" 
d="M248 518q0 -202 84 -314t255 -112t254 112t83 314q0 414 -338 414t-338 -414zM1094 520q0 -254 -133 -402t-377 -147t-375 147t-131 401t130 394t378 139t378 -138q130 -140 130 -394z" />
    <glyph glyph-name="pi" unicode="&#x3c0;" horiz-adv-x="1251" 
d="M889 0v895h-527v-774l123 -6l-8 -115h-393l-8 123l123 6v766l-121 6l6 123h1083v-123l-112 -6v-774l123 -6l-9 -115h-280z" />
    <glyph glyph-name="rho" unicode="&#x3c1;" horiz-adv-x="1191" 
d="M317 635v-422q14 -20 37 -42q23 -23 85 -51t136 -28q186 0 278 126q91 126 91 331t-83 294t-241 89t-230 -84q-73 -84 -73 -213zM645 -27q-217 0 -328 121v-606h-163v1135q0 193 118 311t352 119q236 0 363 -125t127 -377t-126 -415t-343 -163z" />
    <glyph glyph-name="sigma1" unicode="&#x3c2;" horiz-adv-x="999" 
d="M942 686h-127l-10 148q-98 98 -217 98q-174 0 -257 -96t-83 -312t102 -309q102 -94 316 -94t215 -170q0 -74 -23 -151t-45 -115l-22 -39l-107 16q57 125 57 236q-1 58 -33 80t-120 22q-246 0 -378 130t-132 390t122 396t353 137q133 0 262 -101l25 82h102v-348z" />
    <glyph glyph-name="sigma" unicode="&#x3c3;" horiz-adv-x="1222" 
d="M248 535q0 -205 84 -325t254 -120t254 119t84 317t-78 392l-189 12l-71 2q-338 0 -338 -397zM586 1053q80 -1 320 -15t276 -14v-125q-27 0 -191 8q94 -195 94 -416t-130 -371q-129 -150 -371 -149q-242 0 -374 153q-132 152 -132 406t129 388t379 135z" />
    <glyph glyph-name="tau" unicode="&#x3c4;" horiz-adv-x="815" 
d="M772 893h-385v-582q0 -205 121 -207q84 -1 164 15l20 6v-111q-66 -43 -207 -43t-201 73t-61 230v551l6 70h-174v123l168 6h549v-131z" />
    <glyph glyph-name="upsilon" unicode="&#x3c5;" horiz-adv-x="1200" 
d="M883 360v535l-123 6l8 123h279v-678q0 -172 -117 -273t-324 -101q-208 0 -322 100q-114 102 -114 274v549l-121 6l8 123h277v-664q0 -114 75 -186t197 -72t200 72q77 72 77 186z" />
    <glyph glyph-name="phi" unicode="&#x3c6;" horiz-adv-x="1423" 
d="M240 532q0 -210 99 -324t294 -116v840q-199 -2 -296 -96t-97 -304zM1184 529q0 209 -98 305t-295 98v-840q195 2 294 114t99 323zM791 -512h-158v483q-264 2 -410 154q-145 152 -145 406q0 253 142 385t413 137v354l-121 6l8 123h271v-483q268 -3 411 -137
q144 -134 144 -387t-146 -405t-409 -153v-483z" />
    <glyph glyph-name="chi" unicode="&#x3c7;" horiz-adv-x="1173" 
d="M4 0v123l176 4l297 395l-280 373l-181 6l9 123h264l299 -418h2l215 299l-62 2l9 117h383v-123l-162 -6l-279 -373l305 -403l177 -4l-7 -115h-249l-82 90l-254 344l-234 -315h39l-8 -119h-377z" />
    <glyph glyph-name="psi" unicode="&#x3c8;" horiz-adv-x="1527" 
d="M846 -512h-156v483q-229 2 -381 126t-151 327v471l-140 6l9 123h286v-571q0 -156 108 -253t269 -98v1305l-123 6l8 123h271v-1434q166 2 274 98t109 253v442l-123 14l6 115h274v-600q0 -203 -154 -327t-386 -126v-483z" />
    <glyph glyph-name="omega" unicode="&#x3c9;" horiz-adv-x="1622" 
d="M735 414v327h152v-327q0 -152 42 -227t171 -75q130 0 198 112t68 333t-89 374q-39 68 -50 68l133 41q2 0 17 -14q91 -85 129 -291q17 -92 18 -198q0 -269 -104 -417t-309 -148q-204 0 -302 188q-98 -188 -300 -188t-306 148t-105 417q0 265 105 436q25 39 41 53t18 14
l133 -41q-6 0 -37 -42q-30 -43 -66 -159t-36 -290t69 -284q69 -112 197 -112t170 76q43 74 43 226z" />
    <glyph glyph-name="iotadieresis" unicode="&#x3ca;" horiz-adv-x="552" 
d="M185 1320q0 -36 -25 -60t-63 -23q-39 1 -63 23t-24 60t27 60t61 22t60 -20q27 -26 27 -62zM458 1237q-36 1 -61 23t-25 60t27 62q60 44 123 0q27 -26 27 -62t-27 -63q-28 -20 -64 -20zM362 1024v-903l123 -6l-8 -115h-393l-8 123l123 6v766l-121 6l6 123h278z" />
    <glyph glyph-name="upsilondieresis" unicode="&#x3cb;" horiz-adv-x="1200" 
d="M504 1320q0 -36 -25 -60t-63 -23t-62 23t-24 60t26 62q27 20 61 20t60 -20q27 -26 27 -62zM778 1237q-38 1 -62 23t-24 60t27 60q57 47 123 2q27 -26 27 -62t-27 -63q-27 -20 -64 -20zM883 360v535l-123 6l8 123h279v-678q0 -172 -117 -273t-324 -101q-208 0 -322 100
q-114 102 -114 274v549l-121 6l8 123h277v-664q0 -114 75 -186t197 -72t200 72q77 72 77 186z" />
    <glyph glyph-name="omicrontonos" unicode="&#x3cc;" horiz-adv-x="1173" 
d="M598 1149l-82 25l131 385l109 -33zM248 518q0 -202 84 -314t255 -112t254 112t83 314q0 414 -338 414t-338 -414zM1094 520q0 -254 -133 -402t-377 -147t-375 147t-131 401t130 394t378 139t378 -138q130 -140 130 -394z" />
    <glyph glyph-name="upsilontonos" unicode="&#x3cd;" horiz-adv-x="1200" 
d="M612 1149l-82 25l132 385l108 -33zM883 360v535l-123 6l8 123h279v-678q0 -172 -117 -273t-324 -101q-208 0 -322 100q-114 102 -114 274v549l-121 6l8 123h277v-664q0 -114 75 -186t197 -72t200 72q77 72 77 186z" />
    <glyph glyph-name="omegatonos" unicode="&#x3ce;" horiz-adv-x="1622" 
d="M823 1149l-82 25l131 385l109 -33zM735 414v327h152v-327q0 -152 42 -227t171 -75q130 0 198 112t68 333t-89 374q-39 68 -50 68l133 41q2 0 17 -14q91 -85 129 -291q17 -92 18 -198q0 -269 -104 -417t-309 -148q-204 0 -302 188q-98 -188 -300 -188t-306 148t-105 417
q0 265 105 436q25 39 41 53t18 14l133 -41q-6 0 -37 -42q-30 -43 -66 -159t-36 -290t69 -284q69 -112 197 -112t170 76q43 74 43 226z" />
    <glyph glyph-name="uni0400" unicode="&#x400;" horiz-adv-x="1230" 
d="M748 1458l-117 -10l-238 285l158 18zM1092 1034h-136l-8 164h-526v-463l606 2v-129h-606v-475h582l16 184l127 -8l-8 -309h-1045l-8 123l164 6v1081l-166 7l8 114h852l148 8v-305z" />
    <glyph glyph-name="afii10023" unicode="&#x401;" horiz-adv-x="1230" 
d="M572 1596q0 -36 -25 -58q-25 -24 -63 -24t-62 22t-25 60q0 38 27 63q26 20 60 20t61 -20q27 -27 27 -63zM846 1679q33 0 63 -20q27 -27 27 -63t-27 -62q-27 -20 -63 -20t-62 22q-24 22 -24 60t26 63q27 20 60 20zM1092 1034h-136l-8 164h-526v-463l606 2v-129h-606v-475
h582l16 184l127 -8l-8 -309h-1045l-8 123l164 6v1081l-166 7l8 114h852l148 8v-305z" />
    <glyph glyph-name="afii10051" unicode="&#x402;" horiz-adv-x="1540" 
d="M1413 383q0 -412 -319 -412q-72 0 -131 23t-82 47l-23 22l14 103q70 -70 162 -70q199 0 207 238v112q0 130 -59 180t-207 50q-193 0 -344 -131v-424l147 -6l-8 -115h-467l-8 123l164 6v1073h-318l-10 -155l-135 8l8 284l148 -8h786l147 8l9 -284l-136 -8l-12 155h-315
v-530q18 18 55 45t139 65t213 37q203 0 289 -82t86 -254v-100z" />
    <glyph glyph-name="afii10052" unicode="&#x403;" horiz-adv-x="995" 
d="M598 1448l-117 8l195 293l158 -16zM1006 977h-134l-10 221h-440v-1077l184 -6l-8 -115h-504l-8 123l164 6v1081l-166 7l8 114h766l148 8v-362z" />
    <glyph glyph-name="afii10053" unicode="&#x404;" horiz-adv-x="1370" 
d="M1090 582h-793q19 -232 153 -352t355 -119q168 0 280 67t148 107l16 20l68 -108q-21 -28 -77 -72q-56 -45 -112 -75t-145 -54q-90 -24 -188 -25q-317 1 -499 189t-183 504q0 316 184 505q184 188 473 189q164 0 315 -105l25 86h104v-383h-127l-12 172q-125 90 -287 91
q-219 0 -351 -130t-144 -378h797v-129z" />
    <glyph glyph-name="afii10054" unicode="&#x405;" horiz-adv-x="1187" 
d="M1018 1026h-133l-11 113q-104 92 -245 92q-141 1 -217 -61t-76 -164t77 -159q77 -58 187 -91t220 -70t187 -114t76 -197q0 -184 -127 -294t-356 -110q-131 1 -244 21t-159 41l-47 20l-5 293l127 8l15 -207q143 -49 302 -49t243 73t83 173q0 100 -76 154q-77 53 -188 85
q-111 31 -221 69t-188 120q-76 82 -76 211q0 168 116 271t316 104q150 0 291 -101l26 82h103v-313z" />
    <glyph glyph-name="afii10055" unicode="&#x406;" horiz-adv-x="673" 
d="M582 1331v-123l-160 -6v-1081l164 -6l-8 -115h-484l-8 123l164 6v1081l-166 7l8 114h490z" />
    <glyph glyph-name="afii10056" unicode="&#x407;" horiz-adv-x="673" 
d="M155 1679q34 0 60 -20q27 -27 27 -63t-25 -58q-25 -24 -63 -24t-62 22t-24 60t26 63q27 20 61 20zM430 1596q0 38 27 63q27 20 59 20t64 -20q27 -27 27 -63t-27 -62q-27 -20 -64 -20q-38 0 -62 22t-24 60zM582 1331v-123l-160 -6v-1081l164 -6l-8 -115h-484l-8 123l164 6
v1081l-166 7l8 114h490z" />
    <glyph glyph-name="afii10057" unicode="&#x408;" horiz-adv-x="919" 
d="M705 383q-1 -231 -97 -321t-268 -91q-86 1 -158 13t-100 24l-27 10l-14 285l119 8l14 -188q70 -20 148 -21q211 0 210 281v827l-194 7l8 114h488v-123l-129 -6v-819z" />
    <glyph glyph-name="afii10058" unicode="&#x409;" horiz-adv-x="2080" 
d="M1403 676h-193v-551h197q195 0 296 78t101 217q0 140 -101 198t-300 58zM115 131q307 0 321 1075l-182 6l6 119h1110v-114l-160 -7v-413h193q567 0 567 -365q0 -200 -142 -316t-411 -116h-534l-9 123l164 6v1069h-442q-2 -600 -121 -910t-323 -311q-71 0 -109 23l8 141
q23 -10 64 -10z" />
    <glyph glyph-name="afii10059" unicode="&#x40a;" horiz-adv-x="2189" 
d="M1511 676h-192v-551h197q196 0 296 78t100 217q0 140 -100 198q-102 58 -301 58zM1526 0h-535l-8 123l164 6v467h-725v-469l164 -4l-8 -123h-484l-8 123l164 6v1081l-166 7l8 114h490v-123l-160 -6v-477h725v485l-166 7l8 114h490v-114l-160 -7v-413h192q567 0 568 -365
q1 -200 -141 -316t-412 -116z" />
    <glyph glyph-name="afii10060" unicode="&#x40b;" horiz-adv-x="1644" 
d="M631 1202v-530q18 18 55 45t139 65t213 37q203 0 289 -82t86 -254v-362l164 -6l-8 -115h-475l-9 115l156 6v325q0 130 -59 180t-207 50q-193 0 -344 -131v-424l155 -6l-8 -115h-475l-8 123l164 6v1073h-318l-10 -155l-135 8l8 284l148 -8h786l147 8l9 -284l-136 -8
l-12 155h-315z" />
    <glyph glyph-name="afii10061" unicode="&#x40c;" horiz-adv-x="1460" 
d="M702 1448l-116 8l194 293l158 -16zM565 1331v-106l-143 -6v-592l188 127l424 471l-90 4v102h469v-123l-219 -6l-451 -502l502 -575l223 -2l-8 -123h-313l-80 70l-453 520l-192 -131v-332l164 -4l-8 -123h-484l-8 123l164 6v1081l-166 7l8 114h473z" />
    <glyph glyph-name="uni040D" unicode="&#x40d;" horiz-adv-x="1587" 
d="M883 1458l-117 -10l-238 285l158 18zM573 1331v-114l-159 -7v-901l-8 -63h2l761 1065l9 20h317v-114l-158 -7v-1089l164 -6l-8 -115h-473l-8 115l162 6v893l8 71h-2l-762 -1065l-8 -20h-316l-8 123l164 6v1081l-166 7l8 114h481z" />
    <glyph glyph-name="afii10062" unicode="&#x40e;" horiz-adv-x="1357" 
d="M731 1456q-218 0 -317 135q-23 31 -29 51l-6 23l147 21v-3q2 -4 4 -12t18 -30q55 -78 183 -78q165 0 205 120v3l147 -21q-19 -78 -93 -136q-34 -29 -102 -51t-157 -22zM1405 1331v-114l-160 -5l-399 -872q-96 -209 -208 -288t-280 -79q-101 0 -159 29l-21 10h-2l-8 328
l119 8l18 -233q128 -31 226 36q67 44 137 168l-531 891l-182 7l8 114h486v-114l-119 -7l426 -735l313 735l-123 2l8 119h451z" />
    <glyph glyph-name="afii10145" unicode="&#x40f;" horiz-adv-x="1531" 
d="M573 1331v-114l-151 -7v-1077h688v1077l-158 7l9 114h479v-114l-158 -7v-1083l164 -4l-8 -123h-592l-8 -432h-144l-8 432h-592l-8 123l164 6v1081l-166 7l8 114h481z" />
    <glyph glyph-name="afii10017" unicode="&#x410;" horiz-adv-x="1433" 
d="M709 1194l-254 -672h506zM991 0v98l135 4l-120 308h-594l-121 -304l145 -4l-8 -102h-444l-9 123l162 6l467 1202h227l467 -1210l162 -6l-8 -115h-461z" />
    <glyph glyph-name="afii10018" unicode="&#x411;" horiz-adv-x="1292" 
d="M614 668h-192v-543h196q397 0 398 291q0 136 -102 194t-300 58zM1047 1022h-134l-8 176h-483v-410h192q567 0 568 -364q0 -200 -142 -312t-413 -112h-533l-8 123l164 6v1081l-166 7l8 114h807l148 8v-317z" />
    <glyph glyph-name="afii10019" unicode="&#x412;" horiz-adv-x="1292" 
d="M403 743h318q77 0 151 65q74 66 74 184t-77 166t-226 48h-240v-463zM729 631h-326v-506h242q371 0 371 278q0 228 -287 228zM655 0h-561l-8 123l164 6v1081l-166 7l8 114h559q229 0 342 -83t113 -234q0 -184 -178 -301q254 -68 254 -310q0 -187 -128 -295t-399 -108z" />
    <glyph glyph-name="afii10020" unicode="&#x413;" horiz-adv-x="995" 
d="M1006 977h-134l-10 221h-440v-1077l184 -6l-8 -115h-504l-8 123l164 6v1081l-166 7l8 114h766l148 8v-362z" />
    <glyph glyph-name="afii10021" unicode="&#x414;" horiz-adv-x="1474" 
d="M1038 1198h-479q-6 -408 -54 -652t-134 -413h667v1065zM1366 1331v-123l-160 -6v-1069h180l-16 -465h-143l-19 332h-956l-23 -332h-135l-8 465h121q90 164 140 410t56 663l-174 6l9 119h1128z" />
    <glyph glyph-name="afii10022" unicode="&#x415;" horiz-adv-x="1230" 
d="M1092 1034h-136l-8 164h-526v-463l606 2v-129h-606v-475h582l16 184l127 -8l-8 -309h-1045l-8 123l164 6v1081l-166 7l8 114h852l148 8v-305z" />
    <glyph glyph-name="afii10024" unicode="&#x416;" horiz-adv-x="2043" 
d="M905 764v446l-149 7l8 114h448v-114l-143 -7v-446h211l324 446l-82 2v119h460v-114l-196 -5l-375 -491l434 -596l205 -2l-8 -123h-289l-78 86l-395 547h-211v-512l164 -6l-8 -115h-475l-7 115l162 6v510h-211l-327 -531l-82 -100h-289v123l186 2l375 569l-346 518l-191 5
l9 114h454v-119l-86 -2l287 -446h221z" />
    <glyph glyph-name="afii10025" unicode="&#x417;" horiz-adv-x="1140" 
d="M508 -29q-196 0 -307 68q-112 68 -140 117l-12 20l72 107q42 -64 136 -119q95 -55 253 -55q158 1 249 77t91 199t-80 173t-233 50h-226v135l236 -2q90 2 172 78t82 193q0 219 -269 219q-123 0 -229 -88l-6 -123h-127l8 319h103l16 -84q131 102 264 103q197 0 303 -86
t107 -244q-1 -111 -63 -197t-156 -137q279 -57 278 -303q0 -186 -135 -303t-387 -117z" />
    <glyph glyph-name="afii10026" unicode="&#x418;" horiz-adv-x="1587" 
d="M573 1331v-114l-159 -7v-901l-8 -63h2l761 1065l9 20h317v-114l-158 -7v-1089l164 -6l-8 -115h-473l-8 115l162 6v893l8 71h-2l-762 -1065l-8 -20h-316l-8 123l164 6v1081l-166 7l8 114h481z" />
    <glyph glyph-name="afii10027" unicode="&#x419;" horiz-adv-x="1587" 
d="M573 1331v-114l-159 -7v-901l-8 -63h2l761 1065l9 20h317v-114l-158 -7v-1089l164 -6l-8 -115h-473l-8 115l162 6v893l8 71h-2l-762 -1065l-8 -20h-316l-8 123l164 6v1081l-166 7l8 114h481zM789 1563q181 0 221 120v3l145 -21q-19 -75 -93 -136q-34 -29 -103 -51
t-155 -22t-156 22t-104 52q-77 68 -87 112l-6 23l147 21v-3q2 -4 4 -12t18 -30q54 -78 169 -78z" />
    <glyph glyph-name="afii10028" unicode="&#x41a;" horiz-adv-x="1460" 
d="M565 1331v-106l-143 -6v-592l188 127l424 471l-90 4v102h469v-123l-219 -6l-451 -502l502 -575l223 -2l-8 -123h-313l-80 70l-453 520l-192 -131v-332l164 -4l-8 -123h-484l-8 123l164 6v1081l-166 7l8 114h473z" />
    <glyph glyph-name="afii10029" unicode="&#x41b;" horiz-adv-x="1462" 
d="M115 131q307 0 321 1075l-182 6l6 119h1108v-123l-158 -6v-1075l164 -4l-8 -123h-483l-9 123l164 6v1069h-442q-2 -600 -121 -910t-323 -311q-71 0 -109 23l8 141q23 -10 64 -10z" />
    <glyph glyph-name="afii10030" unicode="&#x41c;" horiz-adv-x="2052" 
d="M1960 1331v-123l-160 -6l2 -1075l164 -4l-8 -123h-461l-8 106l147 7v985h-2l-528 -1098h-164l-530 1098h-2v-989l149 -7l-8 -102h-457l-8 123l164 6l2 1081l-166 7l6 114h381l557 -1155l551 1155h379z" />
    <glyph glyph-name="afii10031" unicode="&#x41d;" horiz-adv-x="1568" 
d="M582 1331v-123l-160 -6v-477h725v477l-166 6l6 123h490v-123l-158 -6v-1081l164 -6l-8 -115h-484l-8 123l164 6v467h-725v-469l164 -4l-8 -123h-484l-8 123l164 6v1081l-166 7l8 114h490z" />
    <glyph glyph-name="afii10032" unicode="&#x41e;" horiz-adv-x="1558" 
d="M1270 681q0 257 -130 397t-362 140t-360 -140q-129 -140 -129 -397t130 -414t359 -157t361 157q131 157 131 414zM1448 682q0 -320 -179 -516t-491 -195q-312 0 -488 195q-177 195 -177 515q0 321 176 499t490 178t492 -178q177 -178 177 -498z" />
    <glyph glyph-name="afii10033" unicode="&#x41f;" horiz-adv-x="1531" 
d="M1440 1331v-114l-158 -7v-1083l164 -4l-8 -123h-484l-8 123l164 6v1069h-688v-1071l164 -4l-8 -123h-484l-8 123l164 6v1081l-166 7l8 114h1348z" />
    <glyph glyph-name="afii10034" unicode="&#x420;" horiz-adv-x="1187" 
d="M584 1206h-174v-620h172q154 0 252 81t98 253q0 286 -348 286zM612 1331q498 0 498 -401q0 -275 -218 -396q-125 -69 -278 -69h-204v-352l192 -7l-6 -106h-502l-8 123l164 6v1081l-166 7l8 114h520z" />
    <glyph glyph-name="afii10035" unicode="&#x421;" horiz-adv-x="1361" 
d="M1214 879h-135l-12 247q-121 92 -272 93q-225 -1 -365 -145t-141 -400q0 -256 140 -410t378 -153q129 0 241 53t160 106l47 52l66 -111q-19 -32 -73 -79q-54 -46 -110 -78t-150 -58t-195 -25q-324 -1 -502 191t-178 508t185 502q185 185 472 186q164 0 311 -101l29 82
h104v-460z" />
    <glyph glyph-name="afii10036" unicode="&#x422;" horiz-adv-x="1105" 
d="M1110 1012h-127l-12 186h-332v-1071l164 -4l-8 -123h-484l-8 123l164 6v1069h-328l-16 -186h-127l8 327l148 -8h811l147 8v-327z" />
    <glyph glyph-name="afii10037" unicode="&#x423;" horiz-adv-x="1357" 
d="M1405 1331v-114l-160 -5l-399 -872q-96 -209 -208 -288t-280 -79q-101 0 -159 29l-21 10h-2l-8 328l119 8l18 -233q128 -31 226 36q67 44 137 168l-531 891l-182 7l8 114h486v-114l-119 -7l426 -735l313 735l-123 2l8 119h451z" />
    <glyph glyph-name="afii10038" unicode="&#x424;" horiz-adv-x="1644" 
d="M256 696q0 -182 119 -262t368 -82v670q-255 -2 -371 -73t-116 -253zM1389 698q0 184 -118 253t-374 71v-670q250 2 371 82t121 264zM1057 1364v-100l-160 -7v-127q330 -2 499 -95t169 -330q0 -459 -668 -463v-127l180 -6l-8 -109h-496l-8 109l178 6v127q-664 4 -663 458
q0 238 167 333t496 97v127l-165 7l8 100h471z" />
    <glyph glyph-name="afii10039" unicode="&#x425;" horiz-adv-x="1425" 
d="M926 1331h481v-123l-201 -4l-391 -534l408 -545l207 -2l-7 -123h-491v115l92 2l-315 430l-316 -426l96 -2v-119h-485l-8 123l209 4l401 539l-399 544l-199 7l6 114h486v-114l-97 -5l310 -426v-2l311 426l-98 2v119z" />
    <glyph glyph-name="afii10040" unicode="&#x426;" horiz-adv-x="1550" 
d="M1282 133h180l-18 -465h-150l-16 332h-1184l-8 123l164 6v1081l-166 7l8 114h488v-114l-158 -7v-1077h688v1077l-166 7l8 114h488v-114l-158 -7v-1077z" />
    <glyph glyph-name="afii10041" unicode="&#x427;" horiz-adv-x="1394" 
d="M360 856q0 -135 67 -194q67 -60 225 -60t319 74v534l-158 7l8 114h482v-114l-160 -7v-1083l164 -4l-9 -123h-499l-8 123l180 6v418q-58 -36 -173 -62q-114 -25 -225 -24q-385 0 -385 366v383l-145 7l8 114h461v-114l-152 -7v-354z" />
    <glyph glyph-name="afii10042" unicode="&#x428;" horiz-adv-x="2082" 
d="M1128 133h533v1077l-137 7l8 114h461v-114l-160 -7v-1083l164 -4l-6 -123h-1897l-8 123l164 6v1081l-166 7l8 114h459v-114l-129 -7v-1077h534v1077l-137 7l8 114h430v-114l-129 -7v-1077z" />
    <glyph glyph-name="afii10043" unicode="&#x429;" horiz-adv-x="2103" 
d="M1833 133h168l-16 -465h-150l-18 332h-1723l-8 123l164 6v1081l-166 7l8 114h459v-114l-129 -7v-1077h534v1077l-137 7l8 114h430v-114l-129 -7v-1077h533v1077l-137 7l8 114h461v-114l-160 -7v-1077z" />
    <glyph glyph-name="afii10044" unicode="&#x42a;" horiz-adv-x="1492" 
d="M815 676h-192v-551h196q195 0 296 78t101 217q0 140 -100 198q-102 58 -301 58zM829 0h-534l-8 123l164 6v1069h-312l-16 -186h-127l8 327l148 -8h630v-114l-159 -7v-413h192q567 0 567 -365q0 -200 -142 -316t-411 -116z" />
    <glyph glyph-name="afii10045" unicode="&#x42b;" horiz-adv-x="1873" 
d="M1784 1331v-123l-160 -6v-1081l164 -6l-8 -115h-484l-8 123l164 6v1081l-166 7l8 114h490zM614 676h-192v-551h196q195 0 296 78q102 78 102 217q0 140 -102 198t-300 58zM629 0h-535l-8 123l164 6v1081l-166 7l8 114h490v-114l-160 -7v-413h192q567 0 568 -365
q0 -200 -142 -316t-411 -116z" />
    <glyph glyph-name="afii10046" unicode="&#x42c;" horiz-adv-x="1292" 
d="M614 676h-192v-551h196q195 0 296 78q102 78 102 217q0 140 -102 198t-300 58zM629 0h-535l-8 123l164 6v1081l-166 7l8 114h490v-114l-160 -7v-413h192q567 0 568 -365q0 -200 -142 -316t-411 -116z" />
    <glyph glyph-name="afii10047" unicode="&#x42d;" horiz-adv-x="1339" 
d="M264 590v127h780q-16 506 -471 506q-164 0 -286 -95l-11 -108h-118l8 319h96l19 -84q166 102 317 103q307 0 468 -180t161 -506t-180 -513t-496 -188q-206 0 -336 71q-129 71 -170 122l-16 20l67 109q12 -15 66 -55q172 -125 385 -125q213 -1 344 121t151 356h-778z" />
    <glyph glyph-name="afii10048" unicode="&#x42e;" horiz-adv-x="2168" 
d="M1389 111q229 1 360 157t131 413t-130 397t-361 140t-361 -140t-131 -397q0 -257 131 -414q132 -156 361 -156zM582 1331v-106l-160 -6v-494h293q12 299 190 466q179 167 489 167t487 -178t177 -498t-179 -516t-480 -195q-301 0 -478 169t-202 456h-297v-475l164 -6
l-8 -115h-484l-8 123l164 6v1081l-166 7l8 114h490z" />
    <glyph glyph-name="afii10049" unicode="&#x42f;" horiz-adv-x="1312" 
d="M582 1204q-111 0 -199 -68t-88 -195q0 -126 84 -210t186 -84h334v557h-317zM129 938q0 190 129 292t311 101h652v-123l-160 -6v-1081l164 -6l-8 -115h-474l-8 106l164 7v401h-324l-217 -430l-59 -84h-256l-8 123l178 4l219 405q-129 38 -216 144t-87 262z" />
    <glyph glyph-name="afii10065" unicode="&#x430;" horiz-adv-x="1097" 
d="M492 86q150 0 231 92q28 30 41 60v260q-281 -20 -371 -54q-143 -49 -143 -163q0 -195 242 -195zM82 264q0 80 44 139t95 91t157 58q106 24 158 31t131 14t97 9v72q0 135 -52 194q-52 60 -182 60t-223 -86l-8 -133h-125l6 321h105l14 -76q129 94 276 95q352 0 353 -373
v-559l123 -6l-9 -115h-249l-25 131q-17 -34 -69 -77q-96 -81 -264 -82q-167 -1 -260 76t-93 216z" />
    <glyph glyph-name="afii10066" unicode="&#x431;" horiz-adv-x="1191" 
d="M266 557v-22q0 -209 84 -326t255 -117t254 117t83 321t-82 304q-82 98 -254 98t-256 -102t-84 -273zM621 1051q239 0 365 -133q126 -134 126 -388t-134 -406t-382 -153q-248 0 -375 159t-127 443q0 385 63 558q63 172 168 246q136 100 343 122l215 27l16 76l115 -7
l-17 -211l-51 2l-233 -22q-341 -30 -430 -240q-43 -100 -56 -272q123 199 394 199z" />
    <glyph glyph-name="afii10067" unicode="&#x432;" horiz-adv-x="1107" 
d="M354 567h269q18 -1 61 15t70 33q26 17 48 53t21 82q0 82 -52 122t-183 39h-234v-344zM608 483h-254v-370h226q285 0 284 215q0 155 -256 155zM1026 315q0 -315 -444 -315h-498l-8 123l123 6v766l-121 6l6 123h506q217 0 304 -63t87 -191q0 -152 -182 -231
q227 -57 227 -224z" />
    <glyph glyph-name="afii10068" unicode="&#x433;" horiz-adv-x="876" 
d="M362 895v-774l132 -6l-9 -115h-401l-8 123l123 6v766l-121 6l6 123h633l112 8l2 -352h-126l-11 215h-332z" />
    <glyph glyph-name="afii10069" unicode="&#x434;" horiz-adv-x="1212" 
d="M860 125v774h-391q-6 -487 -135 -774h526zM1022 1024v-899h164l-10 -426h-127l-17 301h-866l-14 -301h-113l-8 426h155q78 152 113 331t39 435l-170 6l6 127h848z" />
    <glyph glyph-name="afii10070" unicode="&#x435;" horiz-adv-x="1060" 
d="M569 932q-147 0 -229 -88t-96 -250h600q2 27 2 47q-1 291 -277 291zM78 511q0 257 132 399t349 142t327 -111q110 -112 109 -333q0 -67 -24 -127h-729q8 -190 102 -287t256 -98q92 0 169 34t108 67l30 34l78 -84q-17 -26 -55 -59q-129 -114 -334 -117q-242 -1 -380 141
t-138 399z" />
    <glyph glyph-name="afii10072" unicode="&#x436;" horiz-adv-x="1624" 
d="M733 469h-149l-258 -391l-70 -78h-252v115l164 4l281 411l-226 367l-166 4l9 123h317v-113l182 -321h168v330l-110 6l8 98h262v-434h158l190 305l-55 2l10 127h369v-123l-150 -4l-233 -365l278 -413l168 -4l-8 -115h-252l-74 86l-247 383h-154v-365l100 -2l-8 -102h-352
l-8 106l108 7v356z" />
    <glyph glyph-name="afii10073" unicode="&#x437;" horiz-adv-x="987" 
d="M512 1053q146 0 239 -68t93 -186q0 -162 -158 -250q219 -49 219 -238q0 -143 -120 -241t-320 -98t-300 57q-100 58 -122 98l-10 16l63 97q13 -20 46 -48q107 -95 313 -98q131 0 211 65t80 145t-70 122q-70 41 -180 41l-172 -2v108h180q36 4 86 33q98 57 96 166
q0 160 -221 160q-127 0 -221 -76l-6 -119h-127l8 297h104l15 -67q128 86 274 86z" />
    <glyph glyph-name="afii10074" unicode="&#x438;" horiz-adv-x="1294" 
d="M815 0v106l115 13v690l-619 -809h-121v895l-120 6l6 123h278v-774l588 774h275v-123l-121 -6v-774l123 -6l-9 -115h-395z" />
    <glyph glyph-name="afii10075" unicode="&#x439;" horiz-adv-x="1294" 
d="M815 0v106l115 13v690l-619 -809h-121v895l-120 6l6 123h278v-774l588 774h275v-123l-121 -6v-774l123 -6l-9 -115h-395zM446 1407q18 -36 22 -42q54 -79 198 -79q64 0 116 31q51 31 64 59l12 31v2l148 -20q-7 -27 -33 -68q-27 -41 -62 -69t-103 -50t-156 -22t-156 22
t-103 52q-74 65 -88 114l-6 21l147 20v-2z" />
    <glyph glyph-name="afii10076" unicode="&#x43a;" horiz-adv-x="1128" 
d="M362 1024v-459l150 70l215 274l-63 4l6 111h383v-123l-179 -16l-253 -305l325 -447l187 -2l-9 -131h-252l-79 86l-310 416l-121 -56v-333l107 -7l-6 -106h-379l-8 123l123 6v766l-138 6l9 123h292z" />
    <glyph glyph-name="afii10077" unicode="&#x43b;" horiz-adv-x="1157" 
d="M801 895h-338q-10 -483 -129 -705t-330 -190v117q294 -29 313 774l-170 6l9 127h811v-903l123 -6l-9 -115h-395l-6 123l121 6v766z" />
    <glyph glyph-name="afii10078" unicode="&#x43c;" horiz-adv-x="1597" 
d="M1503 1024v-123l-119 -6l13 -776l123 -4l-7 -115h-262l-10 760v80h-2l-360 -840h-158l-373 838v-19l-16 -702l114 -6l-8 -111h-356l-8 123l119 4l32 772l-4 -4l-129 6l8 123h340l361 -883l366 883h336z" />
    <glyph glyph-name="afii10079" unicode="&#x43d;" horiz-adv-x="1269" 
d="M362 1024v-436h545v332l-104 6v98h381v-123l-113 -6v-774l123 -6l-8 -115h-279v467h-545v-363l107 -4l-6 -100h-379l-8 123l123 6v766l-121 6l6 123h278z" />
    <glyph glyph-name="afii10080" unicode="&#x43e;" horiz-adv-x="1173" 
d="M248 518q0 -202 84 -314t255 -112t254 112t83 314q0 414 -338 414t-338 -414zM1094 520q0 -254 -133 -402t-377 -147t-375 147t-131 401t130 394t378 139t378 -138q130 -140 130 -394z" />
    <glyph glyph-name="afii10081" unicode="&#x43f;" horiz-adv-x="1251" 
d="M889 0v895h-527v-774l123 -6l-8 -115h-393l-8 123l123 6v766l-121 6l6 123h1083v-123l-112 -6v-774l123 -6l-9 -115h-280z" />
    <glyph glyph-name="afii10082" unicode="&#x440;" horiz-adv-x="1228" 
d="M612 96q188 0 279 122q90 122 90 330t-87 293t-252 85q-195 0 -288 -144v-594q32 -37 109 -65q77 -27 149 -27zM1151 549q0 -250 -126 -414t-357 -164q-98 0 -176 25t-107 49l-31 25v-461l123 -6l-8 -115h-393l-8 123l122 6v1278l-120 6l6 123h258l14 -115
q111 143 333 143t346 -126q124 -127 124 -377z" />
    <glyph glyph-name="afii10083" unicode="&#x441;" horiz-adv-x="997" 
d="M938 686h-127l-10 145q-92 100 -221 101q-172 0 -252 -95t-80 -311t93 -326q93 -108 261 -108q84 0 159 31t107 61l31 31l74 -82q-13 -19 -50 -51q-125 -108 -335 -111q-248 1 -379 143t-131 405t123 399t354 135q129 0 254 -101l22 82h107v-348z" />
    <glyph glyph-name="afii10084" unicode="&#x442;" horiz-adv-x="1054" 
d="M608 895v-774l123 -6l-6 -115h-395l-8 123l122 6v766h-270l-10 -215h-117l4 344v8l131 -8h699l131 8l-4 -352h-117l-6 215h-277z" />
    <glyph glyph-name="afii10085" unicode="&#x443;" horiz-adv-x="1079" 
d="M178 -410q143 0 297 410l-383 895l-145 6l8 123h266l340 -844h2l273 721l-109 4v119h395v-123l-135 -6l-358 -918q-203 -518 -430 -518q-66 1 -111 11t-55 22l-13 10l17 113q72 -25 141 -25z" />
    <glyph glyph-name="afii10086" unicode="&#x444;" horiz-adv-x="1423" 
d="M240 532q0 -206 100 -321t293 -119v840q-199 -4 -296 -99t-97 -301zM1184 529q0 206 -98 302t-295 101v-840q189 4 291 118t102 319zM78 531q0 253 142 385t413 137v354l-121 6l8 123h271v-483q268 -3 411 -137q144 -134 144 -387t-146 -405t-409 -153v-362l120 -6
l-6 -115h-387l-8 123l123 6v354q-264 2 -410 154q-145 152 -145 406z" />
    <glyph glyph-name="afii10087" unicode="&#x445;" horiz-adv-x="1173" 
d="M4 0v123l176 4l297 395l-280 373l-181 6l9 123h264l299 -418h2l215 299l-62 2l9 117h383v-123l-162 -6l-279 -373l305 -403l177 -4l-7 -115h-249l-82 90l-254 344l-234 -315h39l-8 -119h-377z" />
    <glyph glyph-name="afii10088" unicode="&#x446;" horiz-adv-x="1245" 
d="M362 1024v-895h527v766l-121 6l8 123h279v-895h145l-8 -430h-143l-2 301h-963l-8 123l123 6v766l-121 6l6 123h278z" />
    <glyph glyph-name="afii10089" unicode="&#x447;" horiz-adv-x="1110" 
d="M922 1024v-903l120 -6l-8 -115h-403l-6 115l131 4v321q-150 -59 -314 -59t-246 78q-81 78 -81 223v213l-121 6l6 123h283v-322q0 -96 50 -154t136 -58q151 -1 256 38l31 15v352l-121 6l8 123h279z" />
    <glyph glyph-name="afii10090" unicode="&#x448;" horiz-adv-x="1718" 
d="M356 1024v-895h428v766l-118 6l8 123h268v-895h430v766l-119 6l9 123h268v-903l123 -6l-8 -115h-1561l-8 123l123 6v766l-121 6l6 123h272z" />
    <glyph glyph-name="afii10091" unicode="&#x449;" horiz-adv-x="1720" 
d="M356 1024v-895h428v766l-118 6l8 123h268v-895h430v766l-119 6l9 123h268v-895h147l-10 -430h-141l-2 301h-1440l-8 123l123 6v766l-121 6l6 123h272z" />
    <glyph glyph-name="afii10092" unicode="&#x44a;" horiz-adv-x="1290" 
d="M762 535h-193v-422h197q141 0 218 59t77 172t-81 152t-218 39zM406 895h-228l-14 -207h-117l8 336v8l131 -8h500v-98l-117 -6v-275h195q467 0 467 -293q0 -172 -120 -262t-341 -90h-479l-8 123l123 6v766z" />
    <glyph glyph-name="afii10093" unicode="&#x44b;" horiz-adv-x="1595" 
d="M555 535h-193v-422h197q141 0 218 59t77 172t-81 152t-218 39zM362 1024v-379h195q467 0 467 -293q0 -172 -120 -262t-341 -90h-479l-8 123l123 6v766l-121 6l6 123h278zM1233 0v920l-105 6l7 98h374v-123l-112 -6v-774l123 -6l-9 -115h-278z" />
    <glyph glyph-name="afii10094" unicode="&#x44c;" horiz-adv-x="1083" 
d="M555 535h-193v-422h197q141 0 218 59t77 172t-81 152t-218 39zM362 1024v-379h195q467 0 467 -293q0 -172 -120 -262t-341 -90h-479l-8 123l123 6v766l-121 6l6 123h278z" />
    <glyph glyph-name="afii10095" unicode="&#x44d;" horiz-adv-x="1026" 
d="M410 92q166 0 261 94t113 269h-522v127h526q-14 350 -321 350q-131 0 -221 -74l-8 -113h-125l6 289h96l21 -67q117 86 251 86q205 0 332 -130t127 -383t-141 -411t-377 -158q-167 0 -258 51t-123 99l59 90q10 -13 30 -33t100 -53t174 -33z" />
    <glyph glyph-name="afii10096" unicode="&#x44e;" horiz-adv-x="1619" 
d="M721 532q0 -440 329 -440t328 440q0 201 -76 302q-77 100 -252 100t-252 -100t-77 -302zM362 1024v-436h199q29 465 486 465q496 0 495 -521q0 -260 -125 -410t-357 -151q-232 0 -357 131q-124 131 -140 365h-201v-363l107 -4l-6 -100h-379l-8 123l123 6v766l-121 6
l6 123h278z" />
    <glyph glyph-name="afii10097" unicode="&#x44f;" horiz-adv-x="1112" 
d="M543 911q-149 0 -219 -44t-70 -145q0 -100 73 -160t189 -58h234v407h-207zM750 0v393h-254l-166 -307l-66 -86h-229l-8 123l159 4l164 293q-112 39 -184 120t-72 185q0 299 432 299h500v-123l-113 -6v-774l123 -6l-8 -115h-278z" />
    <glyph glyph-name="uni0450" unicode="&#x450;" horiz-adv-x="1060" 
d="M655 1182l-116 -11l-238 285l158 19zM569 932q-147 0 -229 -88t-96 -250h600q2 27 2 47q-1 291 -277 291zM78 511q0 257 132 399t349 142t327 -111q110 -112 109 -333q0 -67 -24 -127h-729q8 -190 102 -287t256 -98q92 0 169 34t108 67l30 34l78 -84q-17 -26 -55 -59
q-129 -114 -334 -117q-242 -1 -380 141t-138 399z" />
    <glyph glyph-name="afii10071" unicode="&#x451;" horiz-adv-x="1060" 
d="M435 1320q0 -36 -25 -60t-63 -23q-39 1 -63 23t-24 60t27 60t61 22t60 -20q27 -26 27 -62zM708 1237q-36 1 -61 23t-25 60t27 62q60 44 123 0q27 -26 27 -62t-27 -63q-28 -20 -64 -20zM569 932q-147 0 -229 -88t-96 -250h600q2 27 2 47q-1 291 -277 291zM78 511
q0 257 132 399t349 142t327 -111q110 -112 109 -333q0 -67 -24 -127h-729q8 -190 102 -287t256 -98q92 0 169 34t108 67l30 34l78 -84q-17 -26 -55 -59q-129 -114 -334 -117q-242 -1 -380 141t-138 399z" />
    <glyph glyph-name="afii10099" unicode="&#x452;" horiz-adv-x="1226" 
d="M668 885q194 0 296 -87t101 -251v-635q0 -211 -93 -321t-227 -109q-78 0 -145 37l43 129q37 -16 72 -17q74 -1 128 63t58 200v622q0 111 -73 170t-179 59q-106 -1 -176 -29t-94 -57l-25 -28v-510l123 -6l-8 -115h-393l-8 123l122 6v1001h-127v109l127 4v172l-120 6l6 115
h176l-2 -2l104 2v-293h422v-113h-422v-364h2q118 119 312 119z" />
    <glyph glyph-name="afii10100" unicode="&#x453;" horiz-adv-x="876" 
d="M492 1171l-117 9l194 293l158 -17zM362 895v-774l132 -6l-9 -115h-401l-8 123l123 6v766l-121 6l6 123h633l112 8l2 -352h-126l-11 215h-332z" />
    <glyph glyph-name="afii10101" unicode="&#x454;" horiz-adv-x="1015" 
d="M934 754h-125l-10 98q-90 78 -217 78q-170 0 -248 -84t-86 -279l520 2v-129l-516 2q33 -346 352 -346q90 0 168 26t111 52l32 27l50 -92q-11 -17 -51 -45t-80 -46q-99 -45 -259 -47q-245 -1 -371 143t-126 405t127 397t356 137q127 0 250 -84l18 65h105v-280z" />
    <glyph glyph-name="afii10102" unicode="&#x455;" horiz-adv-x="960" 
d="M838 752h-111l-12 100q-95 84 -203 84t-168 -39t-59 -107q0 -68 62 -113q63 -44 153 -71q90 -28 179 -58t151 -93t63 -160q0 -141 -108 -233t-332 -91q-97 -1 -181 13t-120 28l-37 13l-15 260l103 8l12 -170q117 -35 244 -35t197 54t69 129q0 75 -62 118q-63 43 -151 68
t-177 55t-152 93q-62 65 -62 179t100 192q101 77 245 77t265 -88l23 69h84v-282z" />
    <glyph glyph-name="afii10103" unicode="&#x456;" horiz-adv-x="552" 
d="M281 1227q-103 0 -103 92q0 45 29 70t71 25t74 -23q29 -29 29 -72t-29 -72q-27 -20 -71 -20zM362 1024v-903l123 -6l-8 -115h-393l-8 123l123 6v766l-121 6l6 123h278z" />
    <glyph glyph-name="afii10104" unicode="&#x457;" horiz-adv-x="552" 
d="M185 1320q0 -36 -25 -60t-63 -23q-39 1 -63 23t-24 60t27 60t61 22t60 -20q27 -26 27 -62zM458 1237q-36 1 -61 23t-25 60t27 62q60 44 123 0q27 -26 27 -62t-27 -63q-28 -20 -64 -20zM362 1024v-903l123 -6l-8 -115h-393l-8 123l123 6v766l-121 6l6 123h278z" />
    <glyph glyph-name="afii10105" unicode="&#x458;" horiz-adv-x="544" 
d="M291 1227q-103 0 -103 92q0 45 29 70t71 25t74 -23q29 -29 29 -72t-29 -72q-27 -20 -71 -20zM30 -393q73 0 125 84t52 237v967l-119 6l8 123h275v-1096q1 -229 -95 -349t-227 -120q-117 0 -182 37l43 131q47 -20 120 -20z" />
    <glyph glyph-name="afii10106" unicode="&#x459;" horiz-adv-x="1687" 
d="M1159 535h-192v-422h196q141 0 218 59t77 172t-81 152t-218 39zM801 895h-338q-10 -483 -129 -705t-330 -190v117q294 -29 313 774l-170 6l9 127h811v-379h194q467 0 467 -293q0 -172 -120 -262t-341 -90h-479l-8 123l121 6v766z" />
    <glyph glyph-name="afii10107" unicode="&#x45a;" horiz-adv-x="1792" 
d="M1264 535h-193v-422h197q141 0 218 59t77 172t-81 152t-218 39zM1071 645h195q467 0 467 -293q0 -172 -120 -262t-341 -90h-365v467h-545v-363l107 -4l-6 -100h-379l-8 123l123 6v766l-121 6l6 123h278v-436h545v332l-104 6v98h381v-98l-113 -6v-275z" />
    <glyph glyph-name="afii10108" unicode="&#x45b;" horiz-adv-x="1234" 
d="M668 885q194 0 296 -87t101 -251v-426l123 -6l-8 -115h-279v516q0 111 -73 170t-179 59q-106 -1 -176 -29t-94 -57l-25 -28v-510l123 -6l-8 -115h-393l-8 123l122 6v1001h-127v109l127 4v172l-120 6l6 115h176l-2 -2l104 2v-293h422v-113h-422v-364h2q118 119 312 119z
" />
    <glyph glyph-name="afii10109" unicode="&#x45c;" horiz-adv-x="1128" 
d="M625 1171l-117 9l194 293l158 -17zM362 1024v-459l150 70l215 274l-63 4l6 111h383v-123l-179 -16l-253 -305l325 -447l187 -2l-9 -131h-252l-79 86l-310 416l-121 -56v-333l107 -7l-6 -106h-379l-8 123l123 6v766l-138 6l9 123h292z" />
    <glyph glyph-name="uni045D" unicode="&#x45d;" horiz-adv-x="1294" 
d="M715 1182l-117 -11l-238 285l158 19zM815 0v106l115 13v690l-619 -809h-121v895l-120 6l6 123h278v-774l588 774h275v-123l-121 -6v-774l123 -6l-9 -115h-395z" />
    <glyph glyph-name="afii10110" unicode="&#x45e;" horiz-adv-x="1079" 
d="M178 -410q143 0 297 410l-383 895l-145 6l8 123h266l340 -844h2l273 721l-109 4v119h395v-123l-135 -6l-358 -918q-203 -518 -430 -518q-66 1 -111 11t-55 22l-13 10l17 113q72 -25 141 -25zM368 1365q54 -79 198 -79q64 0 116 31q51 31 63 59l13 31v2l147 -20
q-8 -30 -34 -70q-27 -39 -61 -67t-102 -50t-156 -22q-87 0 -156 22q-70 22 -104 52q-77 68 -87 114l-6 21l147 20v-2q2 -4 4 -12t18 -30z" />
    <glyph glyph-name="afii10193" unicode="&#x45f;" horiz-adv-x="1284" 
d="M578 -301v301h-494l-8 123l123 6v766l-121 6l6 123h278v-895h568v791l-105 6l9 98h260v-903l123 -6l-9 -115h-481l-6 -301h-143z" />
    <glyph glyph-name="afii10146" unicode="&#x462;" horiz-adv-x="1435" 
d="M756 676h-191v-551h195q195 0 296 78t101 217q0 140 -101 198t-300 58zM563 1251h2v-14h383l139 8v-276h-126l-7 135h-389v-307h191q567 0 567 -365q0 -200 -140 -316t-413 -116h-534l-7 123l162 6v975h-254l-16 -168h-133l8 309l156 -8h239v115l-164 4l9 78h487v-78
l-160 -4v-101z" />
    <glyph glyph-name="afii10194" unicode="&#x463;" horiz-adv-x="1247" 
d="M717 535h-193v-422h197q141 0 219 59t78 176q0 74 -46 118t-106 56t-149 13zM360 1024v205h164v-205h299l123 8v-231h-108l-9 114h-303v-20h-2v-250h195q467 0 467 -293q0 -172 -120 -262t-341 -90h-479l-8 123l122 6v766h-204l-11 -158h-102l8 287v8l115 -8h194z" />
    <glyph glyph-name="afii10050" unicode="&#x490;" horiz-adv-x="942" 
d="M422 1198v-1077l184 -6l-8 -115h-504l-8 123l164 6v1081l-166 7l8 114h705l2 205h131l8 -338h-516z" />
    <glyph glyph-name="afii10098" unicode="&#x491;" horiz-adv-x="804" 
d="M670 1024v262h127l8 -391h-443v-774l123 -6l-8 -115h-393l-8 123l123 6v766l-121 6l6 123h586z" />
    <glyph glyph-name="uni1E9E" unicode="&#x1e9e;" horiz-adv-x="1509" 
d="M385 870v-870h-330l-8 115l166 6v776q0 201 137 317t410 117h420l6 -92l-246 -467q37 4 59 4q189 0 293 -95t104 -279t-138 -307q-140 -124 -357 -124q-106 1 -181 11t-95 20l-21 10l-8 254l111 8l14 -149q66 -14 168 -14q156 0 248 86t92 219q0 242 -258 241
q-76 0 -109 -32v-2l-133 49l272 518h-258q-358 -8 -358 -320z" />
    <glyph glyph-name="uni2002" unicode="&#x2002;" horiz-adv-x="1017" 
 />
    <glyph glyph-name="uni2003" unicode="&#x2003;" horiz-adv-x="2037" 
 />
    <glyph glyph-name="uni2004" unicode="&#x2004;" horiz-adv-x="677" 
 />
    <glyph glyph-name="uni2005" unicode="&#x2005;" horiz-adv-x="509" 
 />
    <glyph glyph-name="uni2009" unicode="&#x2009;" horiz-adv-x="407" 
 />
    <glyph glyph-name="uni200A" unicode="&#x200a;" horiz-adv-x="81" 
 />
    <glyph glyph-name="uni2011" unicode="&#x2011;" horiz-adv-x="698" 
d="M621 506h-541v125h541v-125z" />
    <glyph glyph-name="endash" unicode="&#x2013;" horiz-adv-x="1112" 
d="M1032 506h-952v125h952v-125z" />
    <glyph glyph-name="emdash" unicode="&#x2014;" horiz-adv-x="1478" 
d="M1401 506h-1321v125h1321v-125z" />
    <glyph glyph-name="afii00208" unicode="&#x2015;" horiz-adv-x="1478" 
d="M1401 506h-1321v125h1321v-125z" />
    <glyph glyph-name="quoteleft" unicode="&#x2018;" horiz-adv-x="335" 
d="M242 1100q0 -36 -27 -60q-29 -23 -67 -22t-70 35q-8 13 -17 31t-9 94t59 194q59 119 147 180l57 -53q-75 -59 -117 -150t-38 -167q30 0 56 -23t26 -59z" />
    <glyph glyph-name="quoteright" unicode="&#x2019;" horiz-adv-x="350" 
d="M82 1460q0 36 26 58t64 22t54 -14q49 -39 49 -131q-1 -92 -59 -209t-146 -178l-60 53q76 57 118 148t38 167q-37 4 -55 23q-29 25 -29 61z" />
    <glyph glyph-name="quotesinglbase" unicode="&#x201a;" horiz-adv-x="350" 
d="M82 118q0 36 26 58t64 22t54 -14q49 -40 49 -130q-1 -91 -59 -208t-146 -180l-60 53q76 57 118 149t38 167q-36 3 -60 25t-24 58z" />
    <glyph glyph-name="quotedblleft" unicode="&#x201c;" horiz-adv-x="686" 
d="M592 1100q0 -36 -27 -60q-29 -23 -67 -22t-70 35q-8 13 -17 31t-9 94t59 194q59 119 147 180l58 -53q-74 -59 -117 -150t-39 -167q30 0 56 -23t26 -59zM242 1100q0 -36 -27 -60q-29 -23 -67 -22t-70 35q-8 13 -17 31t-9 94t59 194q59 119 147 180l57 -53
q-75 -59 -117 -150t-38 -167q30 0 56 -23t26 -59z" />
    <glyph glyph-name="quotedblright" unicode="&#x201d;" horiz-adv-x="700" 
d="M432 1460q0 36 26 58t64 22t54 -14q48 -39 49 -131q-1 -92 -59 -209t-146 -178l-60 53q76 57 118 148t38 167q-37 4 -55 23q-29 25 -29 61zM82 1460q0 36 26 58t64 22t54 -14q49 -39 49 -131q-1 -92 -59 -209t-146 -178l-60 53q76 57 118 148t38 167q-37 4 -55 23
q-29 25 -29 61z" />
    <glyph glyph-name="quotedblbase" unicode="&#x201e;" horiz-adv-x="700" 
d="M432 118q0 36 26 58t64 22t54 -14q48 -40 49 -130q-1 -91 -59 -208t-146 -180l-60 53q76 57 118 149t38 167q-36 3 -60 25t-24 58zM82 118q0 36 26 58t64 22t54 -14q49 -40 49 -130q-1 -91 -59 -208t-146 -180l-60 53q76 57 118 149t38 167q-36 3 -60 25t-24 58z" />
    <glyph glyph-name="dagger" unicode="&#x2020;" horiz-adv-x="1056" 
d="M930 760h-322v-1272h-159l2 1272h-328v125h340l-2 446h135l-2 -446h336v-125z" />
    <glyph glyph-name="daggerdbl" unicode="&#x2021;" horiz-adv-x="1056" 
d="M930 856h-336l-2 -446v-447h338v-125h-338l2 -350h-133v350h-338v125h340l-2 447v446h-338v125h334v350h139l-2 -350h336v-125z" />
    <glyph glyph-name="bullet" unicode="&#x2022;" horiz-adv-x="698" 
d="M514 658q0 -74 -50 -117t-125 -43t-126 43t-51 117t53 118q53 43 124 43t124 -41q51 -46 51 -120z" />
    <glyph glyph-name="ellipsis" unicode="&#x2026;" horiz-adv-x="1560" 
d="M1169 76q0 42 30 68t73 26t75 -27t32 -67t-32 -68q-32 -26 -75 -26t-73 26t-30 68zM672 76q0 42 31 68t73 26t73 -27q32 -27 32 -67t-32 -68q-32 -26 -74 -26q-43 0 -73 26t-30 68zM176 76q0 42 31 68t73 26t74 -27t31 -67q0 -40 -32 -68q-31 -26 -73 -26t-73 26t-31 68z
" />
    <glyph glyph-name="perthousand" unicode="&#x2030;" horiz-adv-x="2779" 
d="M2291 88q114 0 177 74t63 196t-63 196q-63 73 -176 73t-175 -73q-63 -73 -63 -197q0 -125 62 -197t175 -72zM2666 356q0 -176 -99 -280t-276 -105q-177 1 -275 105t-97 280q0 176 99 282q98 106 272 105q174 0 275 -106q101 -105 101 -281zM1182 357q0 -125 61 -197
t175 -72t177 74t63 196t-62 196q-64 73 -177 73t-175 -73t-62 -197zM1047 356q0 176 99 282t272 105q172 0 274 -106q102 -105 102 -281t-100 -280t-276 -105q-177 1 -274 105t-97 280zM484 702q114 0 178 74q63 74 63 197t-63 195q-62 72 -176 73q-114 0 -176 -73
q-62 -72 -62 -196t61 -197t175 -73zM484 586q-177 0 -274 104t-97 280t99 282t272 106q172 0 274 -106t102 -282q0 -175 -99 -280q-100 -104 -277 -104zM672 4l-127 21l676 1288l127 -21z" />
    <glyph glyph-name="guilsinglleft" unicode="&#x2039;" horiz-adv-x="761" 
d="M618 786l-272 -276l272 -281l-69 -77l-352 360l352 350z" />
    <glyph glyph-name="guilsinglright" unicode="&#x203a;" horiz-adv-x="761" 
d="M563 500l-352 -348l-70 75l273 273l-271 282l68 80z" />
    <glyph glyph-name="fraction" unicode="&#x2044;" horiz-adv-x="921" 
d="M248 -8l-103 57l721 1149l103 -55z" />
    <glyph glyph-name="zerosuperior" unicode="&#x2070;" 
d="M237 1004q0 -440 241 -441q241 0 241 440t-242 441q-240 0 -240 -440zM478 449q-198 0 -296 145t-98 408q0 264 98 410t296 146t296 -146t98 -410t-98 -408q-98 -145 -296 -145z" />
    <glyph glyph-name="foursuperior" unicode="&#x2074;" 
d="M594 764h-512l-10 92q180 326 280 696l144 -16q-94 -326 -265 -657h363v329l22 172h129v-501h129v-107l-129 -8v-182l93 -7l-7 -104h-337l-7 104l107 5v184z" />
    <glyph glyph-name="fivesuperior" unicode="&#x2075;" 
d="M430 565q116 0 192 67t76 166t-72 161q-73 63 -176 63q-134 1 -182 -41l-75 10l55 545h442l10 57l103 -6l-6 -184l-127 6h-310l-30 -291q66 12 110 12q184 0 294 -89t110 -247t-123 -253q-123 -94 -315 -95q-92 0 -160 12t-88 25l-21 15l-8 213l102 6l15 -129
q68 -23 184 -23z" />
    <glyph glyph-name="sixsuperior" unicode="&#x2076;" 
d="M487 1044q-147 0 -213 -102q-16 -43 -16 -100q0 -137 59 -212t173 -75t170 77q54 77 54 179q0 101 -58 167t-169 66zM764 1296h-107l-8 88q-59 59 -145 60q-233 0 -252 -381q114 82 266 82t249 -89t97 -245t-96 -259t-276 -103t-283 112q-102 113 -103 324q0 59 7 127
q18 272 116 409t254 138q88 0 176 -66l17 49h88v-246z" />
    <glyph glyph-name="sevensuperior" unicode="&#x2077;" horiz-adv-x="958" 
d="M872 1536v-123q-130 -201 -248 -456t-182 -486h-172q113 414 424 932h-467l-10 -127h-106l6 266l123 -6h632z" />
    <glyph glyph-name="eightsuperior" unicode="&#x2078;" 
d="M478 1458q-98 0 -152 -50q-56 -50 -56 -124q0 -136 80 -179t139 -46q197 31 197 207q0 92 -55 142t-153 50zM478 547q222 0 222 214q0 170 -233 204q-60 -8 -114 -40q-101 -61 -100 -166t61 -159t164 -53zM836 1272q0 -180 -201 -256q223 -63 223 -273q0 -295 -381 -295
t-381 300q0 182 215 266q-193 70 -192 262q0 131 98 207t261 76q162 0 260 -77t98 -210z" />
    <glyph glyph-name="ninesuperior" unicode="&#x2079;" 
d="M482 944q124 0 204 103q12 37 12 118q0 285 -225 285q-111 0 -171 -82t-60 -184t58 -171t182 -69zM416 449q-149 0 -226 22l-26 8l-8 232l100 6l16 -142q56 -12 144 -12q120 1 200 101t89 282q-90 -104 -255 -104t-262 88q-96 88 -96 246t102 270t283 113q179 0 275 -113
t96 -326l-2 -119q-14 -272 -132 -412t-298 -140z" />
    <glyph glyph-name="zerosub" unicode="&#x2080;" 
d="M478 -451q241 1 241 441t-241 440t-241 -440t241 -441zM872 -11q0 -263 -98 -409t-296 -145q-198 0 -296 145q-98 146 -98 408t98 409t296 147t296 -146t98 -409z" />
    <glyph glyph-name="onesub" unicode="&#x2081;" 
d="M610 522v-948l195 -4l-6 -113h-553l-8 113l223 10v797l-234 -113l-45 109l301 149h127z" />
    <glyph glyph-name="twosub" unicode="&#x2082;" 
d="M647 235q0 187 -213 187q-115 0 -192 -84l-6 -74h-109l8 264h88l17 -71q111 88 235 88q168 0 253 -86t85 -226q0 -279 -516 -647h434l14 123l107 -8l-8 -244h-740v125q158 105 355 305q188 193 188 348z" />
    <glyph glyph-name="threesub" unicode="&#x2083;" 
d="M506 76q147 0 240 -85q94 -85 94 -233t-125 -236q-125 -89 -324 -89q-83 0 -149 13t-90 26l-23 12l-6 213l102 6l15 -131q74 -20 186 -20t189 60t77 154t-58 147q-58 54 -145 54t-120 -28l-15 -9l-67 74l336 393h-369l-12 -131h-105l6 262l123 -6h531v-88l-316 -360
q8 2 25 2z" />
    <glyph glyph-name="foursub" unicode="&#x2084;" 
d="M594 -250h-512l-10 92q180 326 280 697l144 -17q-94 -326 -265 -657h363v330l22 172h129v-502h129v-107l-129 -8v-182l93 -6l-7 -105h-337l-7 105l107 4v184z" />
    <glyph glyph-name="fivesub" unicode="&#x2085;" 
d="M430 -449q116 0 192 67t76 166t-72 162q-73 62 -174 62t-139 -17t-45 -24l-75 10l55 545h442l10 58l103 -7l-6 -184l-127 6h-310l-30 -291q66 12 110 13q184 0 294 -89t110 -248t-123 -253t-315 -94q-92 0 -160 13t-88 26l-21 12l-8 213l102 6l15 -129q68 -23 184 -23z
" />
    <glyph glyph-name="sixsub" unicode="&#x2086;" 
d="M487 31q-147 0 -213 -103q-16 -43 -16 -100q0 -137 59 -212t173 -75t170 77q54 77 54 179t-58 168t-169 66zM764 283h-107l-8 88q-59 59 -145 59q-233 0 -252 -381q114 82 266 82t249 -89t97 -245t-96 -259t-276 -103t-283 112q-102 113 -103 324q0 59 7 127
q18 272 116 410t254 137q88 0 176 -66l17 49h88v-245z" />
    <glyph glyph-name="sevensub" unicode="&#x2087;" horiz-adv-x="958" 
d="M872 522v-123q-130 -201 -248 -455t-182 -487h-172q113 412 424 932h-467l-10 -127h-106l6 266l123 -6h632z" />
    <glyph glyph-name="eightsub" unicode="&#x2088;" 
d="M478 444q-98 0 -152 -50q-56 -50 -56 -124q0 -133 80 -178q80 -44 139 -47q197 31 197 207q0 92 -55 142t-153 50zM478 -467q222 0 222 214q0 109 -90 158q-70 38 -143 46q-58 -7 -113 -39q-102 -58 -101 -165t61 -161t164 -53zM836 258q0 -180 -201 -256
q223 -63 223 -272q0 -295 -381 -295t-381 299q0 186 215 266q-193 70 -192 262q0 131 98 207t261 76q162 0 260 -77t98 -210z" />
    <glyph glyph-name="ninesub" unicode="&#x2089;" 
d="M480 -70q122 0 206 103q12 37 12 119q0 285 -225 284q-111 0 -171 -82t-60 -184t58 -171t180 -69zM416 -565q-142 0 -226 24l-26 6l-8 232l100 6l16 -139q64 -15 144 -15q120 1 200 101t89 284q-88 -106 -254 -106t-263 88q-96 88 -96 246t102 270t283 113
q179 0 275 -113t96 -326l-2 -118q-14 -272 -132 -412t-298 -141z" />
    <glyph glyph-name="Euro" unicode="&#x20ac;" horiz-adv-x="1357" 
d="M1020 444h-588q78 -348 449 -348q148 0 242 54t134 94l15 16l53 -90q-54 -71 -162 -129q-49 -27 -131 -49t-174 -21q-502 0 -598 475l-151 5v104h135q-4 78 -4 121v63l-131 4v107h143q35 242 174 375t369 133q172 0 309 -103l20 86h97v-290h-119l-8 79q-102 102 -275 103
q-342 0 -399 -383h600v-113h-610v-61q0 -84 4 -121h606v-111z" />
    <glyph glyph-name="uni20B4" unicode="&#x20b4;" horiz-adv-x="1128" 
d="M1004 481h-570q-70 -82 -69 -172q0 -209 251 -209q133 0 222 31l12 195l117 -9l-9 -272q-34 -27 -135 -50q-102 -23 -219 -24q-391 0 -391 308q0 106 76 202l-146 8v89h236q86 78 244 188h-480v96h582q72 82 72 164q0 203 -228 203q-129 0 -209 -96l-8 -103h-110l6 309
h96l10 -86q112 105 268 105t240 -85t84 -203t-74 -212l132 -6v-86h-222q-45 -40 -133 -104t-114 -84h469v-97z" />
    <glyph glyph-name="afii61352" unicode="&#x2116;" horiz-adv-x="2605" 
d="M2351 244h-541v125h541v-125zM2083 727q258 0 258 285t-258 284q-258 0 -258 -284t258 -285zM2494 1014q0 -178 -105 -278t-307 -101q-202 0 -305 100q-103 101 -103 279t102 278q104 100 307 100t307 -100t104 -278zM1380 -12h-180l-797 1099h-2l9 -63v-901l165 -4
l-8 -119h-473l-8 123l164 6v1081l-166 7l8 114h338l793 -1114l-4 47v944l-166 4l6 119h479v-123l-158 -6v-1214z" />
    <glyph glyph-name="trademark" unicode="&#x2122;" horiz-adv-x="1787" 
d="M502 819h-103v623h-264v94h670v-94h-303v-623zM952 819h-98l45 717h111l243 -614l275 614h100l25 -717h-99l-20 535l-240 -535h-88l-235 557z" />
    <glyph glyph-name="onethird" unicode="&#x2153;" horiz-adv-x="1982" 
d="M1534 76q146 0 240 -85t94 -233t-125 -236q-125 -89 -324 -89q-83 0 -149 13t-90 26l-23 12l-6 213l102 6l15 -131q74 -20 186 -20t190 60t76 154q0 94 -58 147q-58 54 -145 54t-120 -28l-15 -9l-67 74l336 393h-369l-12 -131h-105l6 262l123 -6h531v-88l-316 -360
q8 2 25 2zM733 -8l-102 57l721 1149l102 -55zM610 1536v-948l195 -4l-6 -113h-553l-8 113l223 10v797l-234 -113l-45 108l301 150h127z" />
    <glyph glyph-name="twothirds" unicode="&#x2154;" horiz-adv-x="2033" 
d="M1548 -33q-58 0 -116 -37l-68 74l336 393h-369l-12 -131h-105l7 262l122 -6h531v-88l-315 -360q8 2 24 2q147 0 241 -85t93 -233q0 -148 -125 -236q-125 -89 -324 -89q-84 0 -150 13t-89 26l-23 12l-6 213l103 6l14 -131q75 -20 187 -20t189 60t77 154t-59 147
q-58 54 -163 54zM786 -8l-102 57l721 1149l102 -55zM813 1247q0 -86 -51 -183t-137 -184q-169 -171 -328 -280h434l14 123l107 -8l-8 -244h-740v125q158 105 355 305q188 193 188 348q0 185 -213 187q-115 0 -192 -84l-6 -74h-109l8 264h88l17 -72q111 88 235 89
q168 0 253 -86t85 -226z" />
    <glyph glyph-name="oneeighth" unicode="&#x215b;" horiz-adv-x="1982" 
d="M1506 444q-98 0 -152 -50q-56 -50 -56 -124q0 -133 80 -178q80 -44 140 -47q197 31 196 207q0 92 -55 142t-153 50zM1282 -253q0 -107 60 -161t164 -53t163 53q60 52 60 161t-91 158q-70 38 -143 46q-55 -7 -134 -51q-79 -46 -79 -153zM1864 258q0 -180 -201 -256
q223 -63 223 -272q0 -295 -381 -295t-381 299q0 186 215 266q-193 70 -192 262q0 131 98 207t261 76q162 0 260 -77t98 -210zM733 -8l-102 57l721 1149l102 -55zM610 1536v-948l195 -4l-6 -113h-553l-8 113l223 10v797l-234 -113l-45 108l301 150h127z" />
    <glyph glyph-name="threeeighths" unicode="&#x215c;" horiz-adv-x="1984" 
d="M1506 444q-98 0 -152 -50q-56 -50 -56 -124q0 -133 80 -178q80 -44 140 -47q197 31 196 207q0 92 -55 142t-153 50zM1282 -253q0 -107 60 -161t164 -53t163 53q60 52 60 161t-91 158q-70 38 -143 46q-55 -7 -134 -51q-79 -46 -79 -153zM1864 258q0 -180 -201 -256
q223 -63 223 -272q0 -295 -381 -295t-381 299q0 186 215 266q-193 70 -192 262q0 131 98 207t261 76q162 0 260 -77t98 -210zM737 -8l-102 57l721 1149l102 -55zM692 779q0 93 -58 147t-145 55q-87 0 -135 -37l-67 74l336 393h-369l-12 -131h-105l6 262l123 -6h531v-88
l-316 -361q8 2 25 3q147 0 240 -85q94 -85 94 -233t-125 -236t-324 -90q-83 0 -149 12t-90 25l-23 15l-6 213l102 6l15 -131q62 -20 180 -20t195 60t77 153z" />
    <glyph glyph-name="fiveeighths" unicode="&#x215d;" horiz-adv-x="1961" 
d="M1694 252q0 92 -56 142t-152 50t-152 -50t-56 -124q0 -133 80 -178q80 -44 139 -47q197 31 197 207zM1486 -467q222 0 222 214q0 109 -90 158q-70 37 -143 46q-58 -7 -113 -39q-102 -58 -101 -165t61 -161t164 -53zM1843 258q0 -180 -201 -256q223 -63 224 -272
q0 -295 -381 -295t-381 299q0 186 215 266q-193 70 -193 262q0 131 98 207t262 76q163 0 260 -77t97 -210zM715 -8l-103 57l721 1149l103 -55zM430 565q116 0 192 67t76 166t-72 161q-73 63 -176 63q-134 1 -182 -41l-75 10l55 545h442l10 57l103 -6l-6 -184l-127 6h-310
l-30 -291q66 12 110 12q184 0 294 -89t110 -247t-123 -253q-123 -94 -315 -95q-92 0 -160 12t-88 25l-21 15l-8 213l102 6l15 -129q68 -23 184 -23z" />
    <glyph glyph-name="seveneighths" unicode="&#x215e;" horiz-adv-x="1800" 
d="M1322 444q-98 0 -152 -50q-56 -50 -56 -124q0 -133 80 -178q80 -44 139 -47q197 31 197 207q0 92 -55 142t-153 50zM1322 -467q222 0 222 214q0 109 -90 158q-70 37 -143 46q-58 -7 -113 -39q-102 -58 -101 -165t61 -161t164 -53zM1679 258q0 -180 -200 -256
q223 -63 223 -272q0 -295 -381 -295t-381 299q0 186 215 266q-193 70 -192 262q0 131 98 207t261 76t260 -77t97 -210zM553 -8l-102 57l720 1149l103 -55zM872 1536v-123q-130 -201 -248 -456t-182 -486h-172q113 414 424 932h-467l-10 -127h-106l6 266l123 -6h632z" />
    <glyph glyph-name="arrowup" unicode="&#x2191;" horiz-adv-x="1378" 
d="M1171 633l-90 -72l-336 342l5 -923h-119l2 923l-334 -342l-90 72l481 483z" />
    <glyph glyph-name="arrowdown" unicode="&#x2193;" horiz-adv-x="1454" 
d="M754 -18l-482 483l90 74l336 -344l-4 925h119l-2 -925l334 344l90 -74z" />
    <glyph glyph-name="arrowupleft" unicode="&#x2196;" horiz-adv-x="1175" 
d="M895 788l-459 37l629 -637l-94 -86l-627 643l39 -471l-104 -14l-56 688l688 -55z" />
    <glyph glyph-name="arrowupright" unicode="&#x2197;" horiz-adv-x="1175" 
d="M203 102l-94 86l630 637l-458 -37l-17 105l688 55l-57 -688l-102 14l36 469z" />
    <glyph glyph-name="arrowdownright" unicode="&#x2198;" horiz-adv-x="1175" 
d="M1012 106l-686 56l16 104l459 -39l-631 639l94 86l627 -641l-37 469l102 15z" />
    <glyph glyph-name="arrowdownleft" unicode="&#x2199;" horiz-adv-x="1175" 
d="M850 162l-688 -56l57 689l103 -15l-37 -469l626 641l95 -86l-631 -639l459 39z" />
    <glyph glyph-name="minus" unicode="&#x2212;" horiz-adv-x="1112" 
d="M1032 506h-952v125h952v-125z" />
    <glyph glyph-name="uni2731" unicode="&#x2731;" horiz-adv-x="3256" 
d="M1223 768l75 23q-35 33 -96 38zM1073 365l-20 65l-72 -24q0 -2 23 -22q22 -20 69 -19zM1309 537l12 4q27 47 27 112l-74 -24zM1094 729l-27 72q-23 -8 -51 -38t-33 -56l2 -11zM1307 498l-7 18l-108 -37l25 -78q59 42 90 97zM1010 565l-35 111l-21 -8q-33 -63 -26 -129z
M1208 762l-22 65q-61 0 -103 -20l23 -72zM1202 393l-24 80l-109 -39l18 -69q62 -1 115 28zM2544 692l-68 70l-82 -80l47 -53zM1047 442l-33 109l-84 -29q6 -59 41 -104zM1268 645l78 25q0 61 -39 108l-78 -24zM1294 530l-34 95l-105 -31l35 -100zM1253 641l-39 109l-102 -29
l37 -113zM1174 487l-33 103l-113 -35l35 -106zM1135 602l-35 113l-109 -35l31 -111zM2359 719l78 78q-309 240 -561 342l-6 -6q141 -78 249 -172q107 -95 240 -242zM1075 1038q0 32 24 52t46 24l22 6l2 -2q-23 -20 -13 -62t56 -79q45 -37 97 -41q109 78 188 78
q153 0 265 -91t112 -263t-94 -332q137 100 259 100q121 0 197 -64t76 -158q0 -93 -66 -155q-67 -61 -146 -61t-118 34q-38 34 -38 88t49 74l2 -4q-21 -14 -21 -50t31 -58t77 -21q46 0 77 36q31 37 31 95t-48 111q-46 53 -158 53t-253 -90q-99 -131 -259 -209t-373 -78
t-397 138q-92 69 -148 195t-56 292q0 217 114 391q-109 -129 -250 -129q-104 0 -182 64t-78 192q0 129 65 179t141 50t132 -52t102 -52t99 31t78 88l8 -6q-9 -78 -69 -134t-120 -56t-116 18q-57 20 -92 20q-36 0 -56 -13t-20 -54q0 -74 50 -111t122 -37t135 26t146 93
q240 240 655 239q352 0 723 -192l2 6q-39 31 -39 80t34 85t91 36t100 -34t43 -87t-28 -77t-63 -24q-36 0 -52 20q-16 19 -10 36l6 4q12 -37 45 -37q39 0 39 66q0 27 -25 51q-24 24 -60 24t-57 -24q-20 -26 -20 -68t35 -78q193 -106 409 -270l23 19l37 -37l-21 -17l70 -67
l27 20l34 -39l-26 -18q334 -346 475 -717h-188q-129 387 -388 651l-102 -67q203 -252 303 -588h-190q-92 336 -226 512l-24 -14l-31 45l25 14l-39 53l-23 -18l-33 41l27 20q-180 231 -310 335t-230 144q-208 84 -396 82q-301 0 -497 -162t-195 -450q0 -117 35 -208
q62 -160 205 -234q116 -60 241 -62q262 0 450 174q187 174 187 390q0 117 -78 180t-178 63q-51 0 -119 -57q33 -68 129 -113t144 -14l2 -2q-7 -29 -32 -48q-69 -54 -173 35q-63 54 -86 128q-17 -17 -25 -46q43 -40 67 -110t24 -123t-31 -79t-74 -25v-25q0 -88 -40 -129
t-96 -41t-87 53q-61 -45 -131 -45q-98 0 -99 113l7 82h-15q-38 -1 -72 21t-34 79q0 110 166 162q-15 7 -25 27t-10 36q0 51 72 76t155 25l64 4q39 0 75 -12q2 2 13 14q10 12 18 20q-76 -2 -144 30t-67 97z" />
    <glyph glyph-name="uni2732" unicode="&#x2732;" horiz-adv-x="3256" 
d="M1958 791l76 -23l20 61q-63 -5 -96 -38zM2204 430l-21 -65q52 0 82 30l12 11zM1937 541l13 -4l35 94l-76 22q-1 -65 28 -112zM2189 801l-26 -72l108 -31l4 11q-7 27 -35 55t-51 37zM1958 516l-8 -18q29 -51 90 -97l24 80zM2281 678l-32 -113l80 -26q6 80 -27 129z
M2071 829l-23 -65l102 -27l23 70q-45 22 -102 22zM2081 475l-27 -80q51 -31 115 -30l20 69zM780 762l-67 -70l100 -63l49 53zM2243 551l-33 -109l78 -22q33 41 41 102zM1911 670l80 -25l37 109l-78 24q-39 -47 -39 -108zM1997 625l-35 -95l106 -34l35 98zM2042 750l-39 -109
l104 -33l37 113zM2116 590l-31 -103l110 -38l33 108zM2159 717l-37 -113l112 -33l33 111zM817 797l78 -78q137 150 243 243t246 171l-4 6q-248 -98 -563 -342zM1174 53q44 0 76 22t32 57t-22 50l4 4q49 -20 49 -74t-40 -88t-119 -34q-80 0 -146 61t-66 155t77 158t197 64
t259 -100q-95 158 -95 330t114 264t263 92q90 0 191 -78q53 6 98 42t55 80t-14 60l2 2q38 -8 65 -29q28 -21 27 -53q1 -66 -67 -98t-142 -27l29 -36q35 12 74 12l67 -4q82 0 155 -25t73 -76q0 -23 -16 -42t-25 -21q72 -16 122 -64q50 -47 50 -100t-35 -76t-74 -22h-12
q4 -35 4 -82q0 -111 -96 -111q-58 0 -117 33l-17 12q-31 -53 -87 -53t-95 40t-39 128v27q-45 1 -75 25t-31 78q0 54 23 125q24 71 69 107q-8 27 -25 46q-25 -74 -88 -134t-106 -59q-43 0 -64 16t-34 52l4 2q45 -29 142 20t130 119q-68 55 -123 55q-98 0 -176 -63t-78 -180
q-1 -216 187 -390t450 -174q122 0 241 62q146 76 205 234q34 91 33 208q0 287 -195 450q-196 162 -493 162t-526 -154q-78 -52 -148 -110q-102 -84 -266 -297l29 -20l-33 -41l-24 18l-39 -53l24 -14l-28 -45l-27 14q-129 -174 -225 -512h-191q104 340 305 588l-102 67
q-256 -262 -389 -651h-187q135 362 473 717l-26 18l37 39l24 -20l70 67l-18 17l36 37l21 -19q223 170 409 270q35 34 35 78t-20 68q-21 24 -57 24t-60 -24t-22 -51q0 -66 38 -66q14 0 26 9q11 9 13 20l4 8l9 -4q6 -16 -10 -36t-53 -19q-35 -1 -63 23t-28 77t43 87t100 34
t91 -36t34 -85t-39 -80v-6q371 193 725 192q412 0 654 -241q84 -68 146 -92t134 -25q72 0 123 37t51 111q0 68 -82 67q-29 0 -86 -19q-56 -19 -116 -19t-120 56t-71 134l10 6q25 -57 77 -88t98 -31t103 52q56 52 132 52q75 0 141 -50t66 -179t-78 -192t-182 -64
q-147 0 -260 143q125 -182 125 -405q-1 -166 -57 -292q-98 -218 -346 -299q-103 -34 -214 -34q-401 0 -622 289q-141 88 -250 88t-157 -54t-48 -112t32 -93q32 -36 77 -36z" />
    <glyph glyph-name="uni2733" unicode="&#x2733;" horiz-adv-x="2586" 
d="M2007 854q35 0 57 -14l17 12q-13 26 -57 92t-62 96q43 -137 45 -186zM2068 1069l170 -88q25 29 60 37q-60 17 -80 80q-72 -33 -150 -29zM1866 848q27 -18 43 -49q23 39 61 51q-2 43 -59 231q-12 -172 -45 -233zM1718 922q17 -47 2 -84q25 24 59 28t58 -6q29 72 39 213
q-61 -119 -158 -151zM2226 834q-32 56 -10 108q-190 102 -223 123q16 -25 63 -94t66 -107h2q2 2 4 2q59 6 98 -32zM2087 90l47 90l-479 238l-49 -92zM1561 348l47 92l-877 428l-45 -90zM339 1120q-95 0 -130 -47q-23 -37 -23 -84q0 -92 65 -159t157 -64q51 -2 103 24t79 72
q32 100 -62 179t-189 79zM723 456q0 -52 -32 -106t-89 -92l-27 -22q313 88 523 288l-436 215l-9 -16q-10 -16 -24 -16t-23 12q-8 12 0 26l8 17l-6 2q-78 -76 -198 -76t-207 83q-86 83 -86 196q0 29 6 63l-19 8q-18 8 -4 37l58 115q12 29 28 20l21 -10q82 94 216 94t217 -91
t75 -224l4 -4l8 16q5 13 21 15t24 -9t-6 -43l467 -229q60 76 76 105q16 30 41 70t39 63q-8 125 -76 124q-2 -57 -25 -98t-66 -68t-92 -32h-20l-12 65l-113 -18q-2 68 -2 74q-29 -2 -69 13t-66 15q43 59 63 101q-56 35 -94 98l-12 23q14 0 79 22t126 29q-2 37 -35 69
q4 0 45 16t77 17q185 0 225 -149q13 -49 7 -113q37 -2 65 -36t40 -81q143 221 309 221q73 -1 185 -69t171 -68t113 21q4 45 33 79t77 40t90 -25q40 -31 45 -80t-20 -87t-70 -48q76 -25 87 -103q6 -51 -25 -90t-86 -46t-96 28q14 -20 19 -60t-27 -79q-31 -39 -81 -45t-90 22
q-25 -14 -49 -16q-76 -10 -110 57q-31 -55 -88 -62t-97 22q-39 30 -45 83q-6 27 7 62q-29 -23 -68 -26t-75 26t-41 75t24 84q28 37 86 42t92 -46q51 23 91 80t58 121q-74 33 -120 33q-88 0 -161 -83t-150 -216t-128 -187l353 -172l8 17q10 18 33 9t14 -30l-8 -18l518 -254
l16 35q8 14 24 14t26 -13q11 -13 3 -28l-139 -281q-10 -25 -38 -13t-15 38l16 33l-516 254l-8 -15q-8 -14 -22 -15t-24 10q-9 11 7 44l-379 185q-102 -92 -182 -150q57 18 133 18t135 -44t60 -130q-1 -34 -11 -58t-17 -40t-9 -20l-41 36q-23 -119 -88 -176q-4 18 -18 73
t-11 89q-15 -18 -62 -26q-47 -7 -59 -9q7 12 27 50t20 83q0 72 -155 93q-260 -154 -557 -170l-2 82q111 6 209 30q6 7 6 29t-25 50t-44 41t-32 22q4 0 24 6t48 4l-72 98l58 14q10 0 34 -6q-12 57 -28 80l96 10q59 -1 91 -33t32 -84z" />
    <glyph glyph-name="uni2736" unicode="&#x2736;" horiz-adv-x="1019" 
d="M735 408v403l-106 -145l57 -109l-154 -92l52 217l-74 242l-74 -242l51 -217l-155 92l59 109l-106 145v-403h153l72 -132l72 132h153zM143 1024h734v-731l-367 -146l-367 146v731z" />
    <glyph glyph-name="uni2737" unicode="&#x2737;" horiz-adv-x="1812" 
d="M1485 760q0 35 -39 37q-53 0 -53 -121q92 29 92 84zM367 797q-17 1 -29 -11t-12 -26q0 -55 94 -84q0 121 -53 121zM854 1274q0 -20 15 -46t36 -36q23 10 38 36t15 46q0 47 -53 59q-51 -10 -51 -59zM422 530q0 139 -94 140q-35 0 -58 -32t-28 -71q66 4 100 -9t68 -58
l12 -4v34zM1485 670q-96 0 -96 -140v-34l14 4q35 45 69 58t99 9q-6 37 -29 70t-57 33zM1208 45l-18 195l-86 -86h-395l-86 86l-19 -195h604zM346 381q51 0 80 -34t29 -75q-1 -42 -19 -64t-47 -22q-49 0 -49 37t33 37q14 0 20 -18t-4 -29q16 -2 29 14q12 16 12 39
q0 82 -92 82q-47 0 -74 -28q-26 -28 -26 -79q0 -52 44 -91t112 -39t115 43q46 43 46 122q0 55 -113 168q-51 50 -90 64t-96 14t-104 13q0 -57 33 -105q34 -47 110 -49h51zM1440 262q35 0 35 -35q-1 -18 -17 -29q-16 -12 -40 -12t-42 23t-18 63t28 75q29 34 80 34h52
q76 2 110 49t33 105q-47 -13 -105 -13t-97 -14q-40 -14 -89 -64q-113 -113 -113 -168q1 -80 47 -122t114 -43q68 0 113 40q46 40 46 95q0 106 -104 106q-90 0 -91 -84q0 -23 12 -39t29 -14q-10 11 -4 29t21 18zM1012 672q52 0 65 -37q4 -12 4 -37q-1 -25 -29 -43t-61 -18
q-59 1 -59 71q0 128 8 168t24 53q16 12 40 13h4v12q0 14 -41 52t-62 81q-20 -45 -60 -82t-40 -51v-12h2q27 0 47 -17t24 -82q3 -65 3 -136t-60 -70q-33 0 -61 18t-29 54q0 35 19 49t35 14h26l10 -2q-14 16 -14 68t-27 74q-27 24 -102 42q14 -90 14 -178l-8 -187q45 15 86 15
t82 -43t53 -90q12 47 53 90t82 43l86 -15q-6 133 -6 187l13 178q-74 -18 -101 -42t-26 -71t-15 -71l8 2h13zM1044 332h-276l-186 198v297l186 199h276l187 -199v-297zM709 203h395l246 278v396l-258 270h-371l-258 -270v-396zM381 63q-82 -1 -137 55q-56 56 -56 131t60 105
q-107 21 -132 93q-19 55 -22 124l101 -12q6 43 25 82q32 66 95 68q-44 55 -2 99q21 22 55 22t50 -35v100l284 297h152q-14 8 -25 34q-10 26 -10 48q0 78 86 98q88 -23 88 -98q0 -22 -10 -48t-25 -34h152l285 -297v-100q18 35 51 35t52 -21q36 -38 -1 -100q39 0 67 -29
q28 -30 36 -56t16 -65l102 12q-7 -144 -68 -184q-34 -23 -85 -33q57 -28 57 -104t-54 -131t-136 -55t-126 29q-42 30 -57 65l21 -158h-727l18 158q-12 -33 -55 -64t-125 -31z" />
    <glyph glyph-name="uni2766" unicode="&#x2766;" horiz-adv-x="1953" 
d="M1552 725q36 16 68 12q-24 50 -21 76q-88 14 -241 68q27 -21 73 -57q47 -36 77 -60t44 -39zM1573 973q-72 -41 -174 -60q127 -41 211 -57q12 35 47 53q-57 15 -84 64zM1430 625q33 6 57 0q4 45 33 73q-16 18 -98 82t-115 94q105 -175 123 -249zM1282 618q39 -8 70 -49
q16 31 47 45q-27 92 -135 263q34 -169 18 -259zM793 838q0 66 -21 114q-129 -39 -210 -144t-81 -247q1 -62 15 -119q141 53 219 164t78 232zM1292 260q-100 -211 -390 -211q-142 0 -280 88t-186 244q-27 86 -26 170q0 162 95 284t238 171q-41 57 -100 86q-31 -96 -105 -141
q-75 -44 -168 -44t-161 41q49 104 51 107q-115 22 -173 70q-24 19 -28 22q6 2 24 41q17 39 42 51q-49 61 -65 117t-19 59q17 -5 73 15t110 20t114 -16q-18 39 -12 127q100 18 233 -63t133 -226q0 -63 -24 -121q90 -45 139 -129q66 14 160 14t268 -53q71 -18 153 -18t171 51
q-10 90 73 129q47 20 93 3q45 -16 67 -64t8 -92t-55 -66q61 -12 90 -70q20 -47 2 -94t-65 -70q-33 -12 -58 -10l10 -18q20 -44 1 -92t-65 -68t-93 -4q-6 -61 -68 -88q-39 -16 -79 -6t-62 40q-18 -39 -62 -58t-91 -2q-47 18 -69 64t-3 94q29 76 116 79q10 84 -20 243
q-25 -139 -121 -215q42 -56 21 -105q-21 -50 -65 -70t-86 -3q-42 16 -60 62q-20 43 -5 87q17 44 69 66t103 -16q45 41 74 118t25 140q-104 49 -232 49q-55 0 -121 -12q20 -55 21 -123q0 -140 -90 -268t-252 -185q45 -129 163 -201q119 -72 237 -72q242 1 329 173z" />
    <glyph glyph-name="uni2767" unicode="&#x2767;" horiz-adv-x="1337" 
d="M932 377q45 6 84 -21q-20 23 -23 52q-6 18 -2 41q-51 12 -213 100q96 -100 144 -174q6 0 10 2zM606 319q43 -20 56 -67q18 39 65 51q-2 111 -80 275q6 -144 -41 -259zM768 305q49 -6 76 -49q-6 63 39 98q-66 109 -193 224q72 -162 78 -273zM793 764q-78 0 -160 55
q-41 -66 -119 -102q89 -19 267 -117q177 -98 225 -113q26 41 72 49t83 -16q37 -26 46 -70t-17 -81t-73 -46q-48 -9 -85 17q23 -22 30 -60t-20 -74t-69 -46q-80 -14 -115 51q2 -39 -22 -68t-61 -35q-38 -6 -73 13q-35 20 -45 59q-23 -53 -75 -62q-52 -10 -88 14t-44 70
q-9 46 18 88t101 42q39 113 39 223q-14 -57 -54 -104t-87 -72q15 -53 -10 -88t-66 -44t-74 13t-41 64q-10 42 13 76t71 44t89 -34q55 35 93 97t33 120q-94 47 -239 47t-248 -99l-68 29q74 74 97 86q100 51 209 51q20 0 61 -4q147 33 205 131q-123 63 -123 193q0 67 31 133
t67 98q12 -12 48 -40t44 -38q46 97 98 149q19 19 21 23q0 -4 33 -36t37 -60q43 23 82 29t52 2t30 6q-4 -10 -4 -22l4 -66q0 -80 -58 -176q29 6 71 -4t44 -10q8 -77 -76 -181t-200 -104z" />
    <glyph glyph-name="st" unicode="&#xfb06;" horiz-adv-x="1687" 
d="M838 752h-111l-12 100l-21 16l-41 27q-77 41 -163 41t-146 -39t-59 -107q0 -68 62 -113q63 -44 153 -71q90 -28 179 -58t151 -93t63 -160q0 -141 -108 -233t-332 -91q-97 -1 -181 13t-120 28l-37 13l-15 260l103 8l12 -170q117 -35 244 -35t197 54t69 129q0 75 -62 118
q-63 43 -151 68t-177 55t-152 93q-62 65 -62 179t100 192q100 77 254 77q25 0 35 -2q-43 83 -43 195t94 201t260 89h488v-512h311v-129h-311v-584q-1 -104 31 -152t104 -48l160 16v-113q-90 -28 -214 -28t-185 66q-60 67 -60 222v1055l22 107h-342q-119 0 -185 -60t-67 -166
q0 -106 74 -196q53 -27 84 -49l23 69h84v-282z" />
    <glyph glyph-name="halfcaron" horiz-adv-x="794" 
d="M483 1116l-98 14q35 72 57 183q23 111 17 190l12 72l113 -14q-4 -101 -34 -235t-67 -210z" />
    <glyph glyph-name="commaaccent" horiz-adv-x="485" 
d="M293 -238q1 -84 -53 -189q-54 -104 -140 -165l-51 45q78 61 113 149t20 158q-26 4 -48 20t-21 52q0 35 23 54q24 20 58 20t58 -19q41 -41 41 -125z" />
    <glyph glyph-name="zero.onum" horiz-adv-x="1388" 
d="M694 100q195 0 294 119t99 309t-98 292t-295 104q-197 0 -295 -102t-98 -295q0 -191 99 -309t294 -118zM1255 527q-1 -249 -145 -403t-417 -153q-273 0 -417 154q-143 153 -143 403t141 387q140 137 418 137t420 -138t143 -387z" />
    <glyph glyph-name="one.onum" horiz-adv-x="872" 
d="M610 1024v-903l123 -6l-8 -115h-463l-6 123l190 6v760q-295 -74 -299 -74l-16 119l348 90h131z" />
    <glyph glyph-name="two.onum" horiz-adv-x="1132" 
d="M940 745q0 -102 -60 -200t-160 -176q-175 -137 -370 -230h545l18 158l115 -8l-8 -289h-928v113l33 6q278 141 438 277q76 64 136 154q60 89 61 169q0 199 -268 199q-141 0 -232 -97l-8 -108h-119l8 319h97l12 -80q133 100 289 101q197 0 299 -82t102 -226z" />
    <glyph glyph-name="three.onum" horiz-adv-x="1089" 
d="M973 102q0 -198 -156 -318t-401 -120q-106 0 -188 15t-109 30l-29 17l-8 256l111 8l16 -168q84 -27 209 -27q178 0 282 87t104 210t-77 188q-78 65 -221 64q-86 0 -139 -45l-76 80l426 508h-486l-14 -166h-115l9 311l133 -8h674v-96l-412 -469l45 2q190 0 306 -96
t116 -263z" />
    <glyph glyph-name="four.onum" horiz-adv-x="1150" 
d="M920 -307h-164v307h-676l-10 109q268 471 432 927l155 -12q-125 -373 -417 -899h516v496l22 208h142v-704h172v-117l-172 -8v-307z" />
    <glyph glyph-name="five.onum" horiz-adv-x="1071" 
d="M446 -205q154 0 254 95q100 96 100 226t-93 204q-94 74 -230 73q-136 0 -195 -34q-22 -11 -26 -17l-86 10l68 672h553l12 74l115 -8l-9 -211l-139 8h-408l-40 -393q78 18 151 18q227 0 361 -102t135 -297q0 -195 -153 -322t-388 -127q-115 0 -197 15t-108 30l-25 17
l-8 256l111 6l16 -164q75 -29 229 -29z" />
    <glyph glyph-name="six.onum" horiz-adv-x="1230" 
d="M301 485q0 -179 85 -287t248 -108q164 0 240 109t76 243t-80 214t-228 79q-146 0 -226 -55t-107 -111q-8 -25 -8 -84zM985 1042h-119l-8 105q-90 84 -209 84q-328 0 -358 -508q153 123 365 123t337 -104t125 -298q0 -192 -125 -332t-359 -140t-368 150q-133 151 -133 410
q0 61 6 130q25 346 154 521t340 175q119 0 235 -88l21 69h96v-297z" />
    <glyph glyph-name="seven.onum" horiz-adv-x="999" 
d="M956 1024v-135q-154 -256 -294 -581t-211 -615h-191q131 526 506 1186h-565l-13 -166h-114l8 319l131 -8h743z" />
    <glyph glyph-name="eight.onum" horiz-adv-x="1191" 
d="M313 1014q0 -76 31 -132q65 -118 258 -149q84 13 150 53q127 78 127 226q0 236 -283 236t-283 -234zM901 348q0 76 -34 132t-107 95t-170 50q-83 -8 -178 -60q-53 -29 -86 -85t-33 -130q0 -132 80 -200t223 -68t224 68t81 198zM1051 1018q0 -233 -275 -334
q105 -27 206 -108t99 -238q0 -186 -128 -276t-357 -91q-229 0 -356 91t-127 282q0 131 85 213t210 125q-264 90 -265 340q0 160 122 248t332 88t332 -89t122 -251z" />
    <glyph glyph-name="nine.onum" horiz-adv-x="1230" 
d="M602 264q211 0 316 150q12 61 12 159q0 360 -322 361q-160 0 -244 -100t-83 -236t83 -234q82 -100 238 -100zM535 -207q169 0 279 131t124 371q-131 -141 -351 -141t-347 124t-127 318t131 325q131 132 364 132q489 0 490 -521q0 -106 -6 -167q-14 -339 -166 -519
t-391 -180q-197 0 -293 31l-33 10l-8 275l110 8l17 -176q98 -21 207 -21z" />
    <glyph glyph-name="dollar.onum" horiz-adv-x="960" 
d="M459 88q127 0 197 54t69 129q0 75 -62 118q-63 43 -151 68t-177 55t-152 93q-62 65 -62 173t81 183q81 74 212 88l4 247h123l8 -252q92 -16 182 -79l23 69h84v-282h-111l-12 100q-95 84 -203 84t-168 -39t-59 -107q0 -68 62 -113q63 -44 153 -71q90 -28 179 -58t151 -93
t62 -174t-83 -198q-84 -87 -258 -106l-2 -217h-123l-10 211q-167 4 -269 41l-32 13l-15 260l103 8l12 -170q117 -35 244 -35z" />
    <glyph glyph-name="cent.onum" horiz-adv-x="997" 
d="M78 523q0 239 105 373t306 153l3 243h122l9 -248q90 -18 186 -92l22 82h107v-348h-127l-10 145q-92 100 -221 101q-172 0 -252 -95t-80 -311t93 -326q93 -108 261 -108q84 0 159 31t107 61l31 31l74 -82q-59 -89 -216 -137q-62 -18 -132 -23l-2 -217h-123l-11 221
q-199 27 -305 167t-106 379z" />
    <glyph glyph-name="sterling.onum" horiz-adv-x="1122" 
d="M109 0v123h176q43 51 43 164q0 39 -9 162l-210 2v110h204v88q1 178 95 292t272 114q113 0 221 -80l17 59h104v-280h-127l-8 98q-81 66 -185 66t-164 -74t-61 -189v-94h463v-112h-457q4 -90 4 -123q0 -133 -38 -203h497l19 162l116 -9l-8 -276h-964z" />
    <glyph glyph-name="yen.onum" horiz-adv-x="1153" 
d="M805 1126h420v-118l-187 -7l-344 -501h316v-125h-342v-250l143 -4l-8 -121h-436l-9 121l142 4v250h-350v125h319l-350 508l-193 6l8 112h435v-112l-68 -4l289 -414l282 412l-67 4v114z" />
    <glyph glyph-name="Euro.onum" horiz-adv-x="1161" 
d="M1047 743h-125l-11 101q-77 88 -229 88t-235 -88t-91 -285h688v-113h-686q16 -176 110 -265t245 -89q83 0 157 28t105 54l31 27l75 -76q-14 -21 -68 -65t-145 -66q-92 -22 -172 -23q-223 0 -352 122t-147 353l-123 3v110h121q8 240 128 367t336 127q143 0 263 -95l20 76
h105v-291z" />
    <glyph glyph-name="uni20B4.onum" horiz-adv-x="1026" 
d="M552 1053q136 0 222 -72q86 -71 86 -193t-135 -219h178v-112h-432q-147 -59 -147 -189q0 -84 64 -130t173 -46q108 0 191 21l10 147l102 -8l-6 -240q-84 -41 -290 -41t-301 70q-95 71 -95 197t131 219l-192 2v110h440q160 63 160 195q-1 78 -57 123t-159 45t-176 -78
l-10 -88h-102l6 268h86l12 -65q105 84 241 84z" />
    <glyph glyph-name="afii61352.onum" horiz-adv-x="2381" 
d="M2128 0h-541v125h541v-125zM1858 481q258 0 258 285t-258 285t-258 -285t258 -285zM2269 768q0 -178 -105 -278t-307 -101q-202 0 -306 100q-103 101 -103 279t103 278t307 101q204 0 307 -100q104 -101 104 -279zM1223 -10h-170l-686 897h-5l9 -35v-737l145 -9l-8 -106
h-424l-8 121l143 4v883l-145 6l6 112h309l684 -909l-4 33v756l-143 6l6 114h430v-112l-139 -4v-1020z" />
    <glyph glyph-name="onefifth" horiz-adv-x="1941" 
d="M1448 -449q116 0 192 67t76 166t-72 162q-73 62 -174 62t-139 -17t-45 -24l-76 10l56 545h442l10 58l103 -7l-6 -184l-127 6h-310l-30 -291q66 12 110 13q184 0 294 -89t110 -248t-123 -253t-316 -94q-91 0 -159 13t-88 26l-21 12l-8 213l102 6l15 -129q68 -23 184 -23z
M741 -8l-102 57l721 1149l102 -55zM610 1536v-948l195 -4l-6 -113h-553l-8 113l223 10v797l-234 -113l-45 108l301 150h127z" />
    <glyph glyph-name="twofifths" horiz-adv-x="1953" 
d="M1458 -449q116 0 192 67t76 166t-72 162q-73 62 -174 62t-139 -17t-45 -24l-75 10l55 545h442l11 58l102 -7l-6 -184l-127 6h-309l-31 -291q66 12 110 13q184 0 294 -89t110 -248t-123 -253t-315 -94q-92 0 -160 13t-88 26l-21 12l-8 213l103 6l14 -129q68 -23 184 -23z
M754 -8l-103 57l721 1149l103 -55zM813 1247q0 -86 -51 -183t-137 -184q-169 -171 -328 -280h434l14 123l107 -8l-8 -244h-740v125q158 105 355 305q188 193 188 348q0 185 -213 187q-115 0 -192 -84l-6 -74h-109l8 264h88l17 -72q111 88 235 89q168 0 253 -86t85 -226z" />
    <glyph glyph-name="threefifths" horiz-adv-x="1951" 
d="M1458 -449q116 0 192 67t76 166t-72 162q-73 62 -174 62t-139 -17t-45 -24l-75 10l55 545h442l11 58l102 -7l-6 -184l-127 6h-309l-31 -291q66 12 110 13q184 0 294 -89t110 -248t-123 -253t-315 -94q-92 0 -160 13t-88 26l-21 12l-8 213l103 6l14 -129q68 -23 184 -23z
M754 -8l-103 57l721 1149l103 -55zM692 779q0 93 -58 147t-145 55q-87 0 -135 -37l-67 74l336 393h-369l-12 -131h-105l6 262l123 -6h531v-88l-316 -361q8 2 25 3q147 0 240 -85q94 -85 94 -233t-125 -236t-324 -90q-83 0 -149 12t-90 25l-23 15l-6 213l102 6l15 -131
q62 -20 180 -20t195 60t77 153z" />
    <glyph glyph-name="fourfifths" horiz-adv-x="1951" 
d="M1458 -449q116 0 192 67t76 166t-72 162q-73 62 -174 62t-139 -17t-45 -24l-75 10l55 545h442l11 58l102 -7l-6 -184l-127 6h-309l-31 -291q66 12 110 13q184 0 294 -89t110 -248t-123 -253t-315 -94q-92 0 -160 13t-88 26l-21 12l-8 213l103 6l14 -129q68 -23 184 -23z
M754 -8l-103 57l721 1149l103 -55zM516 764h-512l-10 92q180 326 280 696l144 -16q-94 -326 -264 -657h362v329l23 172h129v-501h129v-107l-129 -8v-182l92 -7l-6 -104h-338l-6 104l106 5v184z" />
    <glyph glyph-name="ct" horiz-adv-x="1804" 
d="M938 686h-127l-10 145q-92 100 -221 101q-172 0 -252 -95t-80 -311t93 -326q93 -108 261 -108q84 0 159 31t107 61l31 31l74 -82q-13 -19 -50 -51q-125 -108 -335 -111q-248 1 -379 143t-131 405t123 399t354 135h14q-57 89 -57 201t103 197t274 85h536v-512h312v-129
h-312v-584q0 -104 32 -152t104 -48l159 16v-113q-90 -28 -214 -28t-184 66t-60 222v1055l22 107h-391q-125 0 -201 -56t-76 -162t103 -208q41 -20 90 -58l22 82h107v-348z" />
    <glyph glyph-name="a.alt" horiz-adv-x="1228" 
d="M596 98q90 0 160 39t96 78l25 39v555q-7 13 -27 33t-87 53t-147 33q-190 0 -279 -106t-89 -308q0 -204 91 -310t257 -106zM549 -29q-211 1 -341 147t-130 396t126 394t369 145q94 0 169 -29t104 -57l28 -31h5l10 88h151v-903l121 -6l-6 -115h-260l-16 121
q-16 -27 -44 -53t-107 -62q-79 -35 -179 -35z" />
    <glyph glyph-name="aring.alt" horiz-adv-x="1228" 
d="M641 1276q55 0 92 38t37 99t-38 100t-92 39t-92 -39t-38 -100t38 -99t93 -38zM639 1202q-91 0 -149 58t-58 152t60 154t148 60q89 0 148 -60q60 -60 60 -154t-58 -152t-151 -58zM596 98q90 0 160 39t96 78l25 39v555q-7 13 -27 33t-87 53t-147 33q-190 0 -279 -106
t-89 -308q0 -204 91 -310t257 -106zM549 -29q-211 1 -341 147t-130 396t126 394t369 145q94 0 169 -29t104 -57l28 -31h5l10 88h151v-903l121 -6l-6 -115h-260l-16 121q-16 -27 -44 -53t-107 -62q-79 -35 -179 -35z" />
    <glyph glyph-name="agrave.alt" horiz-adv-x="1228" 
d="M719 1182l-117 -11l-237 285l157 19zM596 98q90 0 160 39t96 78l25 39v555q-7 13 -27 33t-87 53t-147 33q-190 0 -279 -106t-89 -308q0 -204 91 -310t257 -106zM549 -29q-211 1 -341 147t-130 396t126 394t369 145q94 0 169 -29t104 -57l28 -31h5l10 88h151v-903l121 -6
l-6 -115h-260l-16 121q-16 -27 -44 -53t-107 -62q-79 -35 -179 -35z" />
    <glyph glyph-name="adieresis.alt" horiz-adv-x="1228" 
d="M545 1320q0 -36 -25 -60q-24 -24 -62 -23t-63 23t-25 60t27 62q27 20 61 20t60 -20q27 -26 27 -62zM819 1237q-37 1 -61 23t-25 60q0 38 27 60q57 47 123 2q27 -26 27 -62t-27 -63q-27 -20 -64 -20zM596 98q90 0 160 39t96 78l25 39v555q-7 13 -27 33t-87 53t-147 33
q-190 0 -279 -106t-89 -308q0 -204 91 -310t257 -106zM549 -29q-211 1 -341 147t-130 396t126 394t369 145q94 0 169 -29t104 -57l28 -31h5l10 88h151v-903l121 -6l-6 -115h-260l-16 121q-16 -27 -44 -53t-107 -62q-79 -35 -179 -35z" />
    <glyph glyph-name="aogonek.alt" horiz-adv-x="1228" 
d="M596 98q90 0 160 39t96 78l25 39v555q-7 13 -27 33t-87 53t-147 33q-190 0 -279 -106t-89 -308q0 -204 91 -310t257 -106zM1081 -426v-86q-377 0 -376 240q0 156 192 272h-2l-16 121q-16 -27 -44 -53t-107 -62q-79 -35 -179 -35q-211 1 -341 147t-130 396t126 394
t369 145q94 0 169 -29t104 -57l28 -31h5l10 88h151v-903l121 -6l-6 -115h-121l-22 -11q-116 -58 -166 -162q-23 -46 -23 -97q0 -156 258 -156z" />
    <glyph glyph-name="abreve.alt" horiz-adv-x="1228" 
d="M641 1288q133 0 186 78q15 19 23 43l143 -20q-19 -75 -94 -137q-35 -28 -103 -50t-156 -22q-221 1 -316 135q-23 31 -29 53l-6 21l141 20q2 -4 5 -12t26 -41t77 -51q54 -17 103 -17zM596 98q90 0 160 39t96 78l25 39v555q-7 13 -27 33t-87 53t-147 33q-190 0 -279 -106
t-89 -308q0 -204 91 -310t257 -106zM549 -29q-211 1 -341 147t-130 396t126 394t369 145q94 0 169 -29t104 -57l28 -31h5l10 88h151v-903l121 -6l-6 -115h-260l-16 121q-16 -27 -44 -53t-107 -62q-79 -35 -179 -35z" />
    <glyph glyph-name="aacute.alt" horiz-adv-x="1228" 
d="M670 1171l-117 9l195 293l157 -17zM596 98q90 0 160 39t96 78l25 39v555q-7 13 -27 33t-87 53t-147 33q-190 0 -279 -106t-89 -308q0 -204 91 -310t257 -106zM549 -29q-211 1 -341 147t-130 396t126 394t369 145q94 0 169 -29t104 -57l28 -31h5l10 88h151v-903l121 -6
l-6 -115h-260l-16 121q-16 -27 -44 -53t-107 -62q-79 -35 -179 -35z" />
    <glyph glyph-name="amacron.alt" horiz-adv-x="1228" 
d="M860 1296h-438v86h438v-86zM596 98q90 0 160 39t96 78l25 39v555q-7 13 -27 33t-87 53t-147 33q-190 0 -279 -106t-89 -308q0 -204 91 -310t257 -106zM549 -29q-211 1 -341 147t-130 396t126 394t369 145q94 0 169 -29t104 -57l28 -31h5l10 88h151v-903l121 -6l-6 -115
h-260l-16 121q-16 -27 -44 -53t-107 -62q-79 -35 -179 -35z" />
    <glyph glyph-name="acircumflex.alt" horiz-adv-x="1228" 
d="M905 1217l-266 194l-264 -194l-56 98l275 207h92l272 -207zM596 98q90 0 160 39t96 78l25 39v555q-7 13 -27 33t-87 53t-147 33q-190 0 -279 -106t-89 -308q0 -204 91 -310t257 -106zM549 -29q-211 1 -341 147t-130 396t126 394t369 145q94 0 169 -29t104 -57l28 -31h5
l10 88h151v-903l121 -6l-6 -115h-260l-16 121q-16 -27 -44 -53t-107 -62q-79 -35 -179 -35z" />
    <glyph glyph-name="atilde.alt" horiz-adv-x="1228" 
d="M483 1438q72 0 191 -52t185 -53q66 0 126 43l21 -86q-4 -8 -12 -21t-52 -35t-110 -22t-185 50t-172 51t-93 -17t-58 -34l-19 -17l-20 96q4 11 16 27t61 43t121 27zM596 98q90 0 160 39t96 78l25 39v555q-7 13 -27 33t-87 53t-147 33q-190 0 -279 -106t-89 -308
q0 -204 91 -310t257 -106zM549 -29q-211 1 -341 147t-130 396t126 394t369 145q94 0 169 -29t104 -57l28 -31h5l10 88h151v-903l121 -6l-6 -115h-260l-16 121q-16 -27 -44 -53t-107 -62q-79 -35 -179 -35z" />
    <glyph glyph-name="g.alt" horiz-adv-x="1212" 
d="M616 92q168 0 258 90v609q-92 139 -278 139q-348 0 -348 -385q-1 -453 368 -453zM1038 -45q0 -258 -147 -377t-387 -119q-113 1 -195 13t-108 24l-25 12l-6 293l109 6l18 -202q94 -29 207 -29q371 0 370 399v95q-12 -10 -34 -26t-104 -45q-81 -28 -175 -28
q-231 0 -357 156t-126 404q0 249 129 385t342 137q137 0 220 -51t99 -80l11 -17l16 119h143v-1069z" />
    <glyph glyph-name="gcommaaccent.alt" horiz-adv-x="1212" 
d="M565 1180q-33 0 -49 13q-49 40 -49 128q0 87 53 191t139 165l52 -45q-78 -61 -113 -148t-20 -159q71 -10 69 -72q-1 -35 -25 -54t-57 -19zM616 92q168 0 258 90v609q-92 139 -278 139q-348 0 -348 -385q-1 -453 368 -453zM1038 -45q0 -258 -147 -377t-387 -119
q-113 1 -195 13t-108 24l-25 12l-6 293l109 6l18 -202q94 -29 207 -29q371 0 370 399v95q-12 -10 -34 -26t-104 -45q-81 -28 -175 -28q-231 0 -357 156t-126 404q0 249 129 385t342 137q137 0 220 -51t99 -80l11 -17l16 119h143v-1069z" />
    <glyph glyph-name="gbreve.alt" horiz-adv-x="1212" 
d="M838 1366q13 17 22 43l144 -20q-19 -76 -95 -137q-35 -28 -103 -50t-156 -22q-171 1 -251 68q-80 68 -94 120l-6 21l141 20q2 -4 5 -12t19 -30q56 -79 186 -79q131 0 188 78zM616 92q168 0 258 90v609q-92 139 -278 139q-348 0 -348 -385q-1 -453 368 -453zM1038 -45
q0 -258 -147 -377t-387 -119q-113 1 -195 13t-108 24l-25 12l-6 293l109 6l18 -202q94 -29 207 -29q371 0 370 399v95q-12 -10 -34 -26t-104 -45q-81 -28 -175 -28q-231 0 -357 156t-126 404q0 249 129 385t342 137q137 0 220 -51t99 -80l11 -17l16 119h143v-1069z" />
    <glyph glyph-name="y.alt" horiz-adv-x="1218" 
d="M1047 1024v-1069q1 -258 -147 -377t-390 -119q-113 1 -195 13t-106 24l-27 12l-8 293l111 6l18 -202q94 -29 207 -29q371 0 371 399v117q-104 -121 -332 -121q-178 0 -279 78q-100 78 -100 240v606l-121 6l8 123h277v-705q0 -209 270 -208q90 1 160 29t92 57l25 28v670
l-121 6l8 123h279z" />
    <glyph glyph-name="yacute.alt" horiz-adv-x="1218" 
d="M655 1171l-116 9l194 293l158 -17zM1047 1024v-1069q1 -258 -147 -377t-390 -119q-113 1 -195 13t-106 24l-27 12l-8 293l111 6l18 -202q94 -29 207 -29q371 0 371 399v117q-104 -121 -332 -121q-178 0 -279 78q-100 78 -100 240v606l-121 6l8 123h277v-705
q0 -209 270 -208q90 1 160 29t92 57l25 28v670l-121 6l8 123h279z" />
    <glyph glyph-name="ydieresis.alt" horiz-adv-x="1218" 
d="M529 1320q0 -36 -25 -60t-63 -23q-39 1 -63 23t-24 60t27 60t61 22t60 -20q27 -26 27 -62zM802 1237q-36 1 -61 23t-25 60t27 62q60 44 123 0q27 -26 27 -62t-27 -63q-28 -20 -64 -20zM1047 1024v-1069q1 -258 -147 -377t-390 -119q-113 1 -195 13t-106 24l-27 12l-8 293
l111 6l18 -202q94 -29 207 -29q371 0 371 399v117q-104 -121 -332 -121q-178 0 -279 78q-100 78 -100 240v606l-121 6l8 123h277v-705q0 -209 270 -208q90 1 160 29t92 57l25 28v670l-121 6l8 123h279z" />
    <glyph glyph-name="afii10065.alt" horiz-adv-x="1228" 
d="M596 98q90 0 160 39t96 78l25 39v555q-7 13 -27 33t-87 53t-147 33q-190 0 -279 -106t-89 -308q0 -204 91 -310t257 -106zM549 -29q-211 1 -341 147t-130 396t126 394t369 145q94 0 169 -29t104 -57l28 -31h5l10 88h151v-903l121 -6l-6 -115h-260l-16 121
q-16 -27 -44 -53t-107 -62q-79 -35 -179 -35z" />
    <glyph glyph-name="afii10066.alt" horiz-adv-x="1173" 
d="M248 518q0 -202 84 -314t255 -112t254 112t83 314q0 414 -338 414t-338 -414zM1094 520q0 -254 -133 -402t-377 -147t-375 147t-131 402q0 365 254 481q-174 88 -174 265q0 133 105 211t272 77q61 0 160 -13t164 -13t95 24l9 11l90 -19q1 -16 -17 -51t-38 -57
q-52 -55 -158 -56q-44 0 -140 18t-174 19q-78 0 -150 -41q-71 -41 -71 -135q0 -166 232 -190q16 2 49 2q248 1 378 -139t130 -394z" />
    <glyph glyph-name="afii10069.alt" horiz-adv-x="1212" 
d="M616 92q168 0 258 90v609q-92 139 -278 139q-348 0 -348 -385q-1 -453 368 -453zM1038 -45q0 -258 -147 -377t-387 -119q-113 1 -195 13t-108 24l-25 12l-6 293l109 6l18 -202q94 -29 207 -29q371 0 370 399v95q-12 -10 -34 -26t-104 -45q-81 -28 -175 -28
q-231 0 -357 156t-126 404q0 249 129 385t342 137q137 0 220 -51t99 -80l11 -17l16 119h143v-1069z" />
    <glyph glyph-name="afii10085.alt" horiz-adv-x="1218" 
d="M1047 1024v-1069q1 -258 -147 -377t-390 -119q-113 1 -195 13t-106 24l-27 12l-8 293l111 6l18 -202q94 -29 207 -29q371 0 371 399v117q-104 -121 -332 -121q-178 0 -279 78q-100 78 -100 240v606l-121 6l8 123h277v-705q0 -209 270 -208q90 1 160 29t92 57l25 28v670
l-121 6l8 123h279z" />
    <glyph glyph-name="afii10110.alt" horiz-adv-x="1218" 
d="M627 1288q101 0 150 42q44 34 54 67l5 12l143 -20q-19 -75 -94 -137q-35 -28 -104 -50t-155 -22t-155 22q-67 22 -103 52q-75 65 -87 114l-7 21l142 20q2 -4 5 -12q25 -67 116 -95q41 -14 90 -14zM1047 1024v-1069q1 -258 -147 -377t-390 -119q-113 1 -195 13t-106 24
l-27 12l-8 293l111 6l18 -202q94 -29 207 -29q371 0 371 399v117q-104 -121 -332 -121q-178 0 -279 78q-100 78 -100 240v606l-121 6l8 123h277v-705q0 -209 270 -208q90 1 160 29t92 57l25 28v670l-121 6l8 123h279z" />
    <glyph glyph-name="Epsilon.alt" horiz-adv-x="1370" 
d="M1090 582h-793q19 -232 153 -352t355 -119q168 0 280 67t148 107l16 20l68 -108q-21 -28 -77 -72q-56 -45 -112 -75t-145 -54q-90 -24 -188 -25q-317 1 -499 189t-183 504q0 316 184 505q184 188 473 189q164 0 315 -105l25 86h104v-383h-127l-12 172q-125 90 -287 91
q-219 0 -351 -130t-144 -378h797v-129z" />
    <glyph glyph-name="Epsilontonos.alt" horiz-adv-x="1431" 
d="M1151 582h-793q20 -232 154 -352t354 -119q166 0 279 66q112 66 149 108l17 20l67 -108q-23 -30 -78 -74q-55 -43 -110 -73q-56 -30 -146 -54t-188 -25q-318 1 -500 189t-182 504t184 505q184 188 473 189q164 0 316 -105l24 86h105v-383h-127l-12 172q-125 90 -287 91
q-219 0 -351 -130t-145 -378h797v-129zM115 1149l-82 25l131 385l108 -33z" />
    <glyph glyph-name="epsilon.alt" horiz-adv-x="1015" 
d="M934 754h-125l-10 98q-90 78 -217 78q-170 0 -248 -84t-86 -279l520 2v-129l-516 2q33 -346 352 -346q90 0 168 26t111 52l32 27l50 -92q-11 -17 -51 -45t-80 -46q-99 -45 -259 -47q-245 -1 -371 143t-126 405t127 397t356 137q127 0 250 -84l18 65h105v-280z" />
    <glyph glyph-name="epsilontonos.alt" horiz-adv-x="1015" 
d="M623 1149l-82 25l131 385l108 -33zM934 754h-125l-10 98q-90 78 -217 78q-170 0 -248 -84t-86 -279l520 2v-129l-516 2q33 -346 352 -346q90 0 168 26t111 52l32 27l50 -92q-11 -17 -51 -45t-80 -46q-99 -45 -259 -47q-245 -1 -371 143t-126 405t127 397t356 137
q127 0 250 -84l18 65h105v-280z" />
    <glyph glyph-name="AndrijType" horiz-adv-x="3790" 
d="M2023 680q-53 0 -57 33q31 74 137 73q31 0 203 -30q22 2 50 15t54 17l-18 -40q66 -13 118 -13q52 1 78 13t50 12t24 -10q0 -16 -45 -29q-31 -53 -67 -209q49 72 116 121q68 49 119 49v-8q0 -95 -97 -297q-50 -103 -154 -187t-242 -96q6 60 60 118t122 99l4 -8
q-78 -61 -98 -166q72 23 129 76t105 150t67 227q-88 -53 -148 -166q-4 -16 -71 -16h-23q25 209 84 299q-86 0 -141 10q-70 -195 -98 -350q-2 -9 -36 -15t-57 -6l-8 2q0 66 113 379l-150 21q-82 0 -112 -68h-11zM3195 664q1 -48 -63 -148t-126 -100q-14 0 -36 9t-31 9
q98 63 162 225q-59 -23 -124 -87t-91 -146q-10 -33 -24 -116t-15 -120l-6 -10l-60 -4q-33 0 -33 10q8 33 42 207t87 322q63 23 77 23t28 -5q-39 -66 -78 -192q43 57 111 109t124 52t56 -38zM3398 436q0 -16 -56 -52t-96 -36q-61 0 -61 93t71 182q72 88 172 88q43 0 43 -39
q0 -27 -19 -57t-46 -37q12 -2 37 -3q129 0 166 97q8 -4 28 -4h27q23 0 31 -9q-47 -111 -297 -110q-78 0 -119 8q-17 -27 -17 -97t22 -69q22 0 62 27t43 26q9 0 9 -8zM3379 664q0 12 -11 12t-36 -28t-37 -58l31 -4q53 39 53 78zM1960 469q-41 0 -41 2t27 24t36 39
q10 18 54 18t45 -1q0 -11 -53 -55l-11 -11q-16 -16 -57 -16zM1315 698q0 70 -71 142t-204 116q6 2 37 20t47 20q16 1 56 -16t87 -50q48 -33 85 -93q37 -61 37 -145t-71 -189t-149 -106q-43 0 -43 54q0 104 84 227q10 12 22 12t32 -5q18 -5 28 -5q-72 -94 -71 -219
q0 -9 4 -25q27 16 59 104t31 158zM2028 924q14 0 14 -2t-20 -7t-60 -34q-38 -44 -111 -43q-18 0 -18 2q80 84 195 84zM205 399q0 186 50 257t196 71q70 0 147 -12q80 74 92 81t50 15t42 8l-8 -22q-115 -295 -119 -459q0 -8 -41 -19t-53 -4h-6q4 143 92 387
q-68 -74 -173 -162t-177 -134q-4 -4 -38 -10t-43 -7q-9 0 -11 2v8zM1393 412q-24 0 -25 -2l6 24l2 10q57 201 125 250q115 76 176 94q15 0 35 -20t25 -37q-49 0 -111 -13q-62 -14 -85 -30q-22 -16 -36 -65t-22 -114q-9 -65 -13 -78t-28 -16t-49 -3zM1778 723q2 18 98 18
q-37 -297 -176 -469q-56 -68 -150 -114t-164 -45q10 111 183 215l6 -6q-82 -66 -102 -166q71 35 125 89t83 104q64 110 97 374zM1095 729q35 0 35 -8t-19 -49q-58 -125 -58 -252q-5 -16 -49 -16t-48 4q0 108 28 164q3 7 14 35t16 36q-33 0 -90 -72t-90 -145q-4 -16 -72 -16
l-23 -2q49 240 95 315q8 12 65 12h16q4 0 9 2h4q-35 -53 -76 -221q47 68 76 104t80 72t87 37zM423 707q-42 0 -52 -17q-49 -72 -56 -227q125 88 250 217q-100 27 -142 27zM1612 428l-62 -8q-6 0 -6 2q33 109 43 163q9 55 19 61t23 7q14 2 30 6l37 3l6 -3q-10 -39 -24 -88
t-19 -75q-4 -27 -8 -36q-4 -8 -6 -16q-1 -8 -7 -10t-26 -6z" />
    <glyph glyph-name="ampersand.alt" horiz-adv-x="1490" 
d="M860 158q-225 203 -364 501q-84 -23 -151 -84t-67 -185t87 -208q85 -84 239 -84t256 60zM1210 547q0 -227 -123 -381q106 -68 180 -68t136 31l20 -119q-20 -10 -74 -24t-100 -15q-129 0 -272 95q-139 -94 -369 -94t-364 122q-133 123 -133 312q0 106 58 189t128 123
t149 62q-49 133 -49 246q1 152 105 242t282 90q137 0 258 -96l21 77h96v-297h-125l-6 95q-31 41 -92 67t-117 27q-127 -1 -195 -59t-67 -160q0 -154 124 -376t288 -376q86 121 86 293q0 119 -43 242v14h358v-131l-170 -2q10 -72 10 -129z" />
    <glyph glyph-name="afii10086.hist" horiz-adv-x="829" 
d="M834 1257h-117l-10 125q-57 58 -143 58t-126 -65q-41 -65 -41 -222v-174h348v-129h-348v-160h348v-129h-348v-442l121 -4l-6 -115h-395l-8 123l122 6v432h-125v123l125 4v162h-125v123l125 4v192q0 393 304 394q86 0 184 -70l18 51h97v-287z" />
    <glyph glyph-name="afii10097.hist" horiz-adv-x="1253" 
d="M565 94q78 0 145 20t118 62q51 41 71 72v577q-9 11 -29 29t-100 48t-196 30t-199 -58q-84 -58 -84 -137q0 -131 143 -176h238v-90h-197q-109 0 -170 -44t-61 -127q0 -82 86 -144t235 -62zM518 -29q-200 0 -318 92t-118 234q0 178 194 238q-143 82 -143 233q0 123 119 204
t297 81q225 0 354 -111l17 82h143v-903l123 -6l-8 -115h-258l-19 127q-127 -156 -383 -156z" />
    <glyph glyph-name="a.sc" horiz-adv-x="1267" 
d="M627 989l-215 -534h428zM866 0v90l119 4l-106 262h-508l-105 -260l129 -4l-8 -92h-416l-6 121l160 4l401 1001h219l398 -1001l160 -4l-7 -121h-430z" />
    <glyph glyph-name="b.sc" horiz-adv-x="1140" 
d="M367 627h280q68 4 125 56t57 151q0 170 -258 170h-204v-377zM645 530h-278v-407h206q170 0 243 56t73 169q0 182 -244 182zM584 0h-500l-8 121l143 4v883l-145 6l6 112h500q203 0 303 -72t100 -200q0 -158 -158 -248q221 -59 222 -264q1 -160 -111 -251t-352 -91z" />
    <glyph glyph-name="c.sc" horiz-adv-x="1198" 
d="M1079 729h-129l-6 191q-111 96 -242 96q-202 0 -320 -114t-118 -328t121 -338t324 -123q145 0 239 55q93 55 137 98l17 19l63 -105q-101 -135 -297 -186q-84 -23 -178 -23q-276 0 -436 161t-160 433t163 431t417 159q141 0 280 -111l27 91h98v-406z" />
    <glyph glyph-name="d.sc" horiz-adv-x="1353" 
d="M643 991h-260v-856h262q217 0 331 113t114 330q-1 413 -447 413zM643 1126q297 0 457 -139t160 -412t-160 -424t-457 -151h-559l-8 121l143 4v883l-145 6l6 112h563z" />
    <glyph glyph-name="e.sc" horiz-adv-x="1087" 
d="M383 1012v-389h526v-111h-526v-397h494l16 155l121 -8l-8 -262h-922l-8 121l143 4v883l-145 6l6 112h745l144 7l-2 -261h-129l-9 140h-446z" />
    <glyph glyph-name="f.sc" horiz-adv-x="997" 
d="M985 864h-129l-6 131h-467v-370h508v-117h-508v-391l180 -4l-8 -113h-471l-8 121l143 4v883l-145 6l6 112h764l141 7v-269z" />
    <glyph glyph-name="g.sc" horiz-adv-x="1300" 
d="M1071 786h-129l-4 162q-102 78 -229 78q-221 0 -333 -115t-112 -335t114 -346t293 -126t246 63q68 63 87 109v189h-277v100h416v-569h-96l-25 129q-125 -154 -381 -154t-401 162q-146 163 -146 441t157 430t423 151q154 0 276 -94l23 74h98v-349z" />
    <glyph glyph-name="h.sc" horiz-adv-x="1386" 
d="M520 1126v-112l-137 -6v-390h621v390l-144 6l6 112h441v-120l-138 -5v-876l144 -4l-8 -121h-437l-6 113l142 6v381h-621v-383l143 -4l-8 -113h-434l-8 121l143 4v883l-145 6l6 112h440z" />
    <glyph glyph-name="i.sc" horiz-adv-x="602" 
d="M520 1126v-112l-137 -4v-893l145 -4l-8 -113h-436l-8 121l143 4v883l-145 6l6 112h440z" />
    <glyph glyph-name="j.sc" horiz-adv-x="815" 
d="M631 326q0 -197 -86 -276t-241 -79t-230 33l-25 10l-16 250l114 8l15 -155q45 -16 123 -17q180 0 180 226v682l-172 6l8 112h440v-120l-110 -5v-675z" />
    <glyph glyph-name="k.sc" horiz-adv-x="1304" 
d="M518 0h-434l-8 121l143 4v883l-145 6l6 112h426v-104l-123 -6v-494l168 125l346 375l-70 2v102h437v-120l-213 -5l-365 -401l412 -477l211 -2l-9 -121h-292l-105 100l-344 396l-176 -111v-283l135 -4v-98z" />
    <glyph glyph-name="l.sc" horiz-adv-x="1009" 
d="M520 1126v-120l-137 -5v-872h479l15 158l120 -8l-8 -279h-905l-8 121l143 4v883l-145 6l6 112h440z" />
    <glyph glyph-name="m.sc" horiz-adv-x="1816" 
d="M1735 1126v-120l-140 -5l2 -884l144 -4l-8 -113h-416l-8 98l129 4v793h-2l-453 -895h-156l-454 895l-2 -797l129 -6l-6 -92h-410l-8 121l143 4v883l-145 6l8 112h192l-2 -2l160 2l477 -952h4l471 952h351z" />
    <glyph glyph-name="n.sc" horiz-adv-x="1427" 
d="M1223 -10h-170l-686 897h-5l9 -35v-737l145 -9l-8 -106h-424l-8 121l143 4v883l-145 6l6 112h309l684 -909l-4 33v756l-143 6l6 114h430v-112l-139 -4v-1020z" />
    <glyph glyph-name="o.sc" horiz-adv-x="1372" 
d="M686 113q198 0 310 126t112 340q0 215 -112 327t-312 112t-310 -113t-110 -327t112 -339q112 -126 310 -126zM1278 578q0 -276 -158 -442q-158 -165 -434 -165t-434 165q-158 166 -158 442t156 427t436 151t436 -152q156 -150 156 -426z" />
    <glyph glyph-name="p.sc" horiz-adv-x="1056" 
d="M518 1001h-145v-499h145q131 0 216 66t85 204q0 229 -301 229zM547 1126q440 0 440 -344q0 -196 -130 -290t-310 -95h-174v-295l170 -4l-8 -98h-451l-8 121l143 4v883l-145 6l6 112h467z" />
    <glyph glyph-name="q.sc" horiz-adv-x="1372" 
d="M685 111q199 0 311 127t112 341q0 215 -112 327t-312 112t-310 -113t-110 -327t112 -341q112 -126 309 -126zM1063 -281q-121 0 -239 68t-191 186q-254 15 -396 179q-143 164 -143 433t156 420t436 151t436 -152q156 -150 156 -411t-127 -421t-352 -192
q129 -123 278 -123q54 0 101 16l16 -131q-63 -23 -131 -23z" />
    <glyph glyph-name="r.sc" horiz-adv-x="1140" 
d="M520 1001h-147v-481h192q98 0 176 67t78 195q0 219 -299 219zM373 408v-314l127 -4l-8 -90h-408l-8 121l143 4v883l-145 6l6 112h467q213 0 327 -85t115 -250q1 -125 -65 -212t-170 -133l233 -323l193 -2l-6 -121h-271l-82 92l-227 316h-221z" />
    <glyph glyph-name="s.sc" horiz-adv-x="1046" 
d="M899 866h-127l-8 72q-86 92 -208 92t-186 -50t-65 -134q0 -84 68 -131t163 -72t191 -55t164 -94t67 -168q0 -164 -112 -259t-316 -96q-117 1 -216 17t-142 32l-41 19l-4 254l96 8l19 -158q117 -43 263 -43t219 58t73 139q0 80 -68 123q-68 44 -164 68t-191 55t-163 101
t-68 181q-1 150 101 240t282 90q129 0 248 -90l19 70h106v-269z" />
    <glyph glyph-name="t.sc" horiz-adv-x="970" 
d="M567 995v-870l144 -4l-9 -121h-436l-8 121l143 4v870h-274l-10 -147h-129l8 285l141 -7h703l143 7l-2 -285h-127l-8 147h-279z" />
    <glyph glyph-name="u.sc" horiz-adv-x="1339" 
d="M350 422q0 -135 82 -220t241 -85t241 85t83 220v584l-147 6l6 114h436v-112l-137 -6v-621q0 -180 -122 -298q-123 -118 -363 -118t-363 119t-123 297v621l-145 6l8 112h440v-112l-137 -4v-588z" />
    <glyph glyph-name="v.sc" horiz-adv-x="1214" 
d="M387 1126v-112l-113 -6l342 -881l338 879l-120 6v114h428v-120l-150 -5l-391 -1001h-217l-395 999l-154 7l8 120h424z" />
    <glyph glyph-name="w.sc" horiz-adv-x="1851" 
d="M1898 1126v-120l-139 -5l-327 -1001h-177l-321 922h-2l-318 -922h-176l-329 993l-152 4l8 129h422v-112l-113 -6l263 -824l313 942h174l319 -936l254 814l-124 8l8 114h417z" />
    <glyph glyph-name="x.sc" horiz-adv-x="1261" 
d="M817 1126h436v-120l-192 -5l-332 -438l342 -438l205 -4l-8 -121h-445v104l66 2l-262 340l-256 -329l65 -2v-115h-442l-8 121l202 4l340 436l-338 447l-192 6l6 112h440v-104l-71 -4l260 -340l256 338l-72 2v108z" />
    <glyph glyph-name="y.sc" horiz-adv-x="1153" 
d="M805 1126h420v-118l-187 -7l-370 -542v-334l143 -4l-8 -121h-436l-9 121l142 4v332l-381 551l-193 6l8 112h435v-112l-68 -4l289 -414l282 412l-67 4v114z" />
    <glyph glyph-name="z.sc" horiz-adv-x="1103" 
d="M82 0v115l717 880h-570l-10 -139h-127l6 270v7l142 -7h774v-114l-719 -883h598l14 156l121 -6l-8 -279h-938z" />
    <glyph glyph-name="agrave.sc" horiz-adv-x="1267" 
d="M627 989l-215 -534h428zM866 0v90l119 4l-106 262h-508l-105 -260l129 -4l-8 -92h-416l-6 121l160 4l401 1001h219l398 -1001l160 -4l-7 -121h-430zM723 1305l-117 -11l-237 285l157 18z" />
    <glyph glyph-name="aacute.sc" horiz-adv-x="1267" 
d="M627 989l-215 -534h428zM866 0v90l119 4l-106 262h-508l-105 -260l129 -4l-8 -92h-416l-6 121l160 4l401 1001h219l398 -1001l160 -4l-7 -121h-430zM655 1294l-116 9l194 292l158 -16z" />
    <glyph glyph-name="acircumflex.sc" horiz-adv-x="1267" 
d="M627 989l-215 -534h428zM866 0v90l119 4l-106 262h-508l-105 -260l129 -4l-8 -92h-416l-6 121l160 4l401 1001h219l398 -1001l160 -4l-7 -121h-430zM899 1348l-266 194l-264 -194l-56 98l275 207h92l272 -207z" />
    </font>
</defs>
</svg>
